<?xml version="1.0" standalone="no"?>
<!DOCTYPE svg PUBLIC "-//W3C//DTD SVG 1.1//EN" "http://www.w3.org/Graphics/SVG/1.1/DTD/svg11.dtd" >
<svg xmlns="http://www.w3.org/2000/svg">
<<<<<<< HEAD
<metadata></metadata>
<defs>
<font id="museo_sans_for_dell_100Rg" horiz-adv-x="1050" >
<font-face units-per-em="2048" ascent="1536" descent="-512" />
<missing-glyph horiz-adv-x="567" />
<glyph unicode="&#xfb01;" horiz-adv-x="1069" d="M94 940v78h129v47q0 96 24.5 168.5t59.5 111.5t82.5 62.5t84 30t73.5 6.5l53 -4v-80q-18 4 -47 4t-57 -5t-63.5 -24t-61.5 -49.5t-44 -87t-18 -131.5v-49h281v-78h-281v-940h-86v940h-129zM797 1284v150h102v-150h-102zM805 0v1024h86v-1024h-86z" />
<glyph unicode="&#xfb02;" horiz-adv-x="1099" d="M94 940v78h129v47q0 96 24.5 168.5t59.5 111.5t82.5 62.5t84 30t73.5 6.5l53 -4v-80q-18 4 -47 4t-57 -5t-63.5 -24t-61.5 -49.5t-44 -87t-18 -131.5v-49h281v-78h-281v-940h-86v940h-129zM799 207v1227h86v-1201q0 -159 121 -159l30 2v-80q-19 -4 -37 -4q-22 0 -44 3.5 t-51.5 17t-51.5 35.5t-37.5 63t-15.5 96z" />
<glyph unicode="&#xfb03;" horiz-adv-x="1656" d="M94 940v78h129v47q0 96 24.5 168.5t59.5 111.5t82.5 62.5t84 30t73.5 6.5l53 -4v-80q-18 4 -47 4t-57 -5t-63.5 -24t-61.5 -49.5t-44 -87t-18 -131.5v-49h281v-78h-281v-940h-86v940h-129zM682 940v78h129v47q0 96 24.5 168.5t59.5 111.5t82.5 62.5t84 30t73.5 6.5l53 -4 v-80q-18 4 -47 4t-57 -5t-63.5 -24t-61.5 -49.5t-44 -87t-18 -131.5v-49h281v-78h-281v-940h-86v940h-129zM1384 1284v150h103v-150h-103zM1393 0v1024h86v-1024h-86z" />
<glyph unicode="&#xfb04;" horiz-adv-x="1687" d="M94 940v78h129v47q0 96 24.5 168.5t59.5 111.5t82.5 62.5t84 30t73.5 6.5l53 -4v-80q-18 4 -47 4t-57 -5t-63.5 -24t-61.5 -49.5t-44 -87t-18 -131.5v-49h281v-78h-281v-940h-86v940h-129zM682 940v78h129v47q0 96 24.5 168.5t59.5 111.5t82.5 62.5t84 30t73.5 6.5l53 -4 v-80q-18 4 -47 4t-57 -5t-63.5 -24t-61.5 -49.5t-44 -87t-18 -131.5v-49h281v-78h-281v-940h-86v940h-129zM1386 207v1227h87v-1201q0 -159 120 -159l31 2v-80q-19 -4 -37 -4q-22 0 -44 3.5t-52 17t-52 35.5t-37.5 63t-15.5 96z" />
<glyph horiz-adv-x="2048" />
<glyph horiz-adv-x="2048" />
<glyph unicode="&#xd;" horiz-adv-x="2048" />
=======
<metadata>
This is a custom SVG webfont generated by Font Squirrel.
Copyright   : Copyright c 2010 by Jos Buivenga All rights reserved
Designer    : Jos Buivenga
Foundry     : Jos Buivenga
Foundry URL : httpwwwexljbriscom
</metadata>
<defs>
<font id="MuseoSansForDell100" horiz-adv-x="1050" >
<font-face units-per-em="2048" ascent="1536" descent="-512" />
<missing-glyph horiz-adv-x="567" />
>>>>>>> 292d2bc0c0dbb686a83fce6e39d211f2a7c77ef2
<glyph unicode=" "  horiz-adv-x="567" />
<glyph unicode="&#x09;" horiz-adv-x="567" />
<glyph unicode="&#xa0;" horiz-adv-x="567" />
<glyph unicode="!" horiz-adv-x="604" d="M244 0v125h121v-125h-121zM258 358v1076h88v-1076h-88z" />
<glyph unicode="&#x22;" horiz-adv-x="595" d="M147 1143v309h89v-309h-89zM360 1143v309h89v-309h-89z" />
<glyph unicode="#" horiz-adv-x="1501" d="M106 408l15 81h311l80 453h-311l14 82h311l72 410h88l-72 -410h387l72 410h88l-71 -410h305l-15 -82h-305l-80 -453h305l-14 -81h-305l-72 -408h-88l72 408h-387l-72 -408h-88l72 408h-312zM520 489h387l80 453h-387z" />
<<<<<<< HEAD
<glyph unicode="$" horiz-adv-x="1122" d="M131 178l59 68q5 -6 15.5 -16t45 -36t72 -46.5t96.5 -39t120 -22.5v608q-51 22 -81 35.5t-75.5 37.5t-72.5 45t-59 52.5t-49.5 64.5t-29.5 77t-12 94q0 125 105 221t274 111v213h84v-213q60 -3 116 -17.5t93 -33.5t66 -37.5t42 -31.5l14 -12l-49 -75q-4 4 -12.5 11.5 t-37 27t-59 35t-78 30t-95.5 17.5v-588q46 -19 78 -33.5t73 -37.5t68.5 -44.5t56.5 -52t46.5 -63.5t28.5 -76.5t11 -92.5q0 -140 -98.5 -240.5t-263.5 -115.5v-207h-84v205q-74 3 -143 23t-115 45.5t-81.5 50.5t-51.5 42zM252 1102q0 -61 21.5 -109.5t66 -85t88.5 -61 t111 -53.5v553q-132 -13 -209.5 -83.5t-77.5 -160.5zM623 88q118 14 194 86t76 180q0 59 -20.5 106.5t-61.5 84t-83 61t-105 53.5v-571z" />
<glyph unicode="%" horiz-adv-x="1437" d="M125 0l1087 1434h107l-1088 -1434h-106zM129 1190q0 110 78 189t188 79t189.5 -79t79.5 -189t-79 -188t-190 -78q-110 0 -188 78t-78 188zM217 1190q0 -77 51 -130.5t127 -53.5t128 53.5t52 130.5t-52 131.5t-128 54.5t-127 -54.5t-51 -131.5zM776 242q0 110 78 189 t188 79t189.5 -79t79.5 -189t-79.5 -188.5t-189.5 -78.5t-188 78.5t-78 188.5zM864 242q0 -77 51 -131t127 -54t128.5 54t52.5 131t-52.5 131.5t-128.5 54.5t-127 -54.5t-51 -131.5z" />
<glyph unicode="&#x26;" horiz-adv-x="1374" d="M78 381q0 130 82.5 239t212.5 187q-127 150 -127 307q0 68 26 129t74.5 109.5t125.5 77t171 28.5q55 0 107 -9t86 -22t60.5 -26t39.5 -22l12 -9l-39 -74q-4 3 -12 8.5t-34 19.5t-55 24.5t-74.5 19t-92.5 8.5q-75 0 -135 -22.5t-95.5 -60.5t-54 -83.5t-18.5 -95.5 q0 -154 154 -301l483 -463q45 113 45 258v299h262v-82h-174v-229q0 -154 -68 -307l265 -250l-54 -66l-254 238q-72 -111 -182 -173.5t-254 -62.5q-207 0 -345 118t-138 288zM170 389q0 -138 106.5 -233t282.5 -95q126 0 220.5 55.5t154.5 153.5l-502 475q-110 -62 -186 -153 t-76 -203z" />
<glyph unicode="'" horiz-adv-x="382" d="M147 1143v309h89v-309h-89z" />
<glyph unicode="(" horiz-adv-x="567" d="M170 686q0 425 225 799h90q-231 -390 -231 -801q0 -476 231 -879h-90q-106 186 -165.5 415.5t-59.5 465.5z" />
<glyph unicode=")" horiz-adv-x="567" d="M82 -195q231 403 231 879q0 411 -231 801h90q225 -374 225 -799q0 -236 -59.5 -465.5t-165.5 -415.5h-90z" />
=======
<glyph unicode="$" horiz-adv-x="1122" d="M131 178l59 68q14 -16 42 -41t119 -69t188 -50v608q-90 39 -141.5 65.5t-115 75t-93 114t-29.5 151.5q0 125 104.5 221t274.5 111v213h84v-213q94 -4 177 -37t118 -64l36 -31l-49 -75q-12 12 -35.5 30.5t-97.5 51t-149 39.5v-588q84 -35 136 -62.5t110.5 -75t87 -113 t28.5 -149.5q0 -139 -98.5 -240.5t-263.5 -115.5v-207h-84v205q-74 4 -143.5 23.5t-116 45t-81 50t-51.5 41.5zM252 1102q0 -115 73.5 -182.5t213.5 -126.5v553q-131 -14 -209 -84t-78 -160zM623 88q119 14 194.5 86t75.5 180q0 113 -69.5 179.5t-200.5 125.5v-571z" />
<glyph unicode="%" horiz-adv-x="1437" d="M125 0l1087 1434h107l-1088 -1434h-106zM129 1189.5q0 110.5 78 189.5t188.5 79t189.5 -79t79 -189.5t-79 -188t-189.5 -77.5t-188.5 77.5t-78 188zM217 1190q0 -78 51 -131t127 -53t128 53t52 131t-52 132t-128 54t-127 -54t-51 -132zM776 241.5q0 110.5 78 189.5 t188.5 79t189.5 -79t79 -189.5t-79 -188.5t-189.5 -78t-188.5 78t-78 188.5zM864 241.5q0 -77.5 51.5 -131t127 -53.5t128 53.5t52.5 131t-52.5 132t-128 54.5t-127 -54.5t-51.5 -132z" />
<glyph unicode="&#x26;" horiz-adv-x="1374" d="M78 381q0 248 295 426q-127 152 -127 307q0 143 105.5 243.5t291.5 100.5q188 -2 305 -88l-39 -74q-12 8 -32.5 21.5t-91 36t-144.5 22.5q-147 0 -225 -77.5t-78 -184.5q0 -154 154 -301l483 -463q45 115 45 258v299h262v-82h-174v-229q0 -154 -68 -307l265 -250l-54 -66 l-254 238q-154 -236 -436 -236q-207 0 -345 118t-138 288zM170 389q0 -137 106.5 -232.5t282.5 -95.5q248 0 375 209l-502 475q-111 -61 -186.5 -152t-75.5 -204z" />
<glyph unicode="'" horiz-adv-x="382" d="M147 1143v309h89v-309h-89z" />
<glyph unicode="(" horiz-adv-x="567" d="M170 686q0 426 225 799h90q-231 -389 -231 -801q0 -473 231 -879h-90q-225 396 -225 881z" />
<glyph unicode=")" horiz-adv-x="567" d="M82 -195q231 406 231 879q0 412 -231 801h90q225 -373 225 -799q0 -485 -225 -881h-90z" />
>>>>>>> 292d2bc0c0dbb686a83fce6e39d211f2a7c77ef2
<glyph unicode="*" horiz-adv-x="962" d="M98 1122l27 86l317 -110l-10 336h96l-10 -336l320 108l28 -84l-321 -96v-4l200 -266l-71 -54l-191 275h-4l-190 -272l-74 51l203 266v4z" />
<glyph unicode="+" horiz-adv-x="1404" d="M174 539v82h485v538h89v-538h483v-82h-483v-539h-89v539h-485z" />
<glyph unicode="," horiz-adv-x="493" d="M92 -193l109 318h114l-137 -318h-86z" />
<glyph unicode="-" horiz-adv-x="729" d="M82 539v82h565v-82h-565z" />
<glyph unicode="." horiz-adv-x="485" d="M180 0v129h125v-129h-125z" />
<glyph unicode="/" horiz-adv-x="786" d="M96 -86l518 1602h91l-519 -1602h-90z" />
<<<<<<< HEAD
<glyph unicode="0" horiz-adv-x="1273" d="M154 717q0 129 15 236.5t50 202.5t90 160.5t138 103.5t190 38t190 -38t138 -103.5t90 -160.5t50 -202.5t15 -236.5t-15 -237t-50 -203.5t-90 -161t-138 -103t-190 -37.5t-190 37.5t-138 103t-90 161t-50 203.5t-15 237zM246 717q0 -147 19 -260.5t62 -205.5t121 -141 t189 -49t189 49t121 141t62 205.5t19 260.5q0 116 -11 210.5t-39 179t-71.5 142t-112 90.5t-157.5 33t-157.5 -33t-112 -90.5t-71.5 -142t-39 -179t-11 -210.5z" />
<glyph unicode="1" horiz-adv-x="905" d="M115 0v82h325v1167l2 72h-4q-15 -27 -76 -88l-169 -170l-62 59l309 312h88v-1352h318v-82h-731z" />
<glyph unicode="2" horiz-adv-x="1140" d="M129 76q0 80 26 150.5t70.5 125.5t101.5 105t120.5 94t127 86.5t120.5 89t101.5 95.5t70.5 111.5t26 131.5q0 132 -91 219.5t-243 87.5q-64 0 -123.5 -21t-98.5 -51t-69 -60.5t-44 -51.5l-13 -21l-66 45q5 10 15.5 26.5t48.5 59t82 75t117 59t153 26.5q103 0 185 -32.5 t133.5 -87.5t78.5 -125t27 -148t-26 -148t-70 -124t-101.5 -104t-120.5 -93.5t-126 -86.5t-120.5 -89t-101.5 -95.5t-70 -111.5t-26 -131h785v-82h-873q-6 40 -6 76z" />
<glyph unicode="3" horiz-adv-x="1138" d="M100 174l66 66q6 -7 17.5 -19t50 -43t80 -54.5t106.5 -43t131 -19.5q142 0 250 100t108 253q0 107 -56 186.5t-141.5 117.5t-185.5 38h-98l-25 61l402 469q14 16 29.5 32.5t24.5 25.5l9 8v4q-38 -4 -110 -4h-588v82h821v-62l-463 -534q57 0 116 -11t124.5 -41.5t116 -76 t83.5 -122t33 -173.5q0 -183 -133.5 -311t-320.5 -128q-76 0 -150 20.5t-125.5 49.5t-92 58.5t-59.5 50.5z" />
<glyph unicode="4" horiz-adv-x="1204" d="M74 410v61l743 963h82v-942h213v-82h-213v-410h-88v410h-737zM197 492h614v671l6 129h-4q-35 -51 -72 -98l-544 -698v-4z" />
<glyph unicode="5" horiz-adv-x="1134" d="M121 182l72 56q4 -7 12 -19t37.5 -42.5t64.5 -54t93.5 -42.5t123.5 -19q168 0 283 107.5t115 267.5q0 162 -115 270.5t-283 108.5q-73 0 -142.5 -21.5t-102.5 -43.5l-33 -21l-66 23l82 682h666v-82h-588l-51 -428l-15 -88h5q11 7 31.5 18t85 29t128.5 18 q205 0 347.5 -135.5t142.5 -329.5q0 -127 -66 -233t-178.5 -167t-245.5 -61q-78 0 -148.5 21.5t-115 52t-77.5 60.5t-47 51z" />
<glyph unicode="6" horiz-adv-x="1212" d="M145 645q0 109 21 219t69.5 218t118 191t175.5 134t233 51q65 0 127.5 -14t92.5 -28l30 -15l-43 -80q-10 6 -28 14.5t-73 22.5t-110 14q-97 0 -180 -38.5t-142 -102.5t-102.5 -150t-66.5 -178.5t-29 -189.5h4q60 90 169.5 143t235.5 53q192 0 316 -125t124 -331 q0 -113 -35.5 -205t-96 -151t-140 -90.5t-168.5 -31.5q-154 0 -269.5 91.5t-174 242.5t-58.5 336zM246 539q0 -60 17.5 -126t53 -128.5t82.5 -112.5t111.5 -80.5t134.5 -30.5q163 0 256.5 109t93.5 283q0 170 -97.5 270t-254.5 100q-159 0 -278 -91t-119 -193z" />
<glyph unicode="7" horiz-adv-x="1038" d="M80 1352v82h907v-62l-680 -1372h-92l598 1219q16 32 35 65t30 50l11 18v4q-41 -4 -113 -4h-696z" />
<glyph unicode="8" horiz-adv-x="1230" d="M141 410q0 73 26.5 142t64 114.5t75 80.5t63.5 51l27 17q-186 113 -186 293q0 69 27.5 131t78.5 111.5t133 78.5t183 29q197 0 311.5 -100t114.5 -262q0 -62 -20 -126.5t-42.5 -107t-57.5 -88t-46 -57t-27 -27.5q101 -56 156 -129t55 -178q0 -169 -134 -288.5 t-327 -119.5q-91 0 -175 29t-151.5 82t-108 137.5t-40.5 186.5zM233 410q0 -105 56 -186.5t142.5 -122t184.5 -40.5q92 0 176 40t138.5 114.5t54.5 165.5q0 52 -23 96.5t-56.5 75t-90 62t-103.5 52t-117.5 50.5t-113.5 51q-15 -7 -37.5 -21.5t-61.5 -48t-70.5 -72t-55 -96.5 t-23.5 -120zM303 1108q0 -44 14.5 -82t43.5 -68.5t61.5 -54.5t81.5 -48t88 -41t97 -41.5t95 -41.5q20 19 41 42t58 73.5t60.5 116t23.5 133.5q0 126 -93 201t-241 75q-151 0 -240.5 -75.5t-89.5 -188.5z" />
<glyph unicode="9" horiz-adv-x="1212" d="M125 981q0 113 35.5 205t96 150.5t140 90t168.5 31.5q154 0 269.5 -91.5t174 -242.5t58.5 -336q0 -90 -15.5 -182t-46 -184t-81.5 -172t-116.5 -142t-157.5 -97.5t-199 -35.5q-65 0 -127.5 14.5t-92.5 28.5l-30 15l43 80q10 -6 28 -14.5t73 -23t110 -14.5q97 0 180 38.5 t142 103t102.5 150.5t66.5 178.5t29 189.5h-4q-60 -91 -170 -144t-236 -53q-192 0 -316 125.5t-124 331.5zM217 981q0 -170 97.5 -270.5t254.5 -100.5q106 0 199.5 44.5t146 110t52.5 130.5q0 76 -29 159t-79 154t-127.5 117.5t-164.5 46.5q-163 0 -256.5 -108.5 t-93.5 -282.5z" />
=======
<glyph unicode="0" horiz-adv-x="1273" d="M154 716.5q0 741.5 483 741.5t483 -741.5t-483 -741.5t-483 741.5zM246 717q0 -147 18.5 -260t61.5 -205t121.5 -141.5t189.5 -49.5t189.5 49.5t121.5 141.5t61.5 204.5t18.5 260.5q0 655 -391 655t-391 -655z" />
<glyph unicode="1" horiz-adv-x="905" d="M115 0v82h325v1167l2 72h-4q-14 -27 -76 -88l-169 -170l-62 59l309 312h88v-1352h318v-82h-731z" />
<glyph unicode="2" horiz-adv-x="1140" d="M129 76q0 100 42 187t109.5 150.5t149.5 122t163 115t148.5 114.5t109.5 135t42 165q0 133 -91 220t-243 87q-63 0 -122.5 -21.5t-99.5 -51t-69.5 -59.5t-42.5 -52l-14 -21l-66 45q6 10 16.5 26.5t48.5 58.5t81 75t116.5 59.5t153.5 26.5q201 0 312.5 -114.5 t111.5 -278.5q0 -115 -56.5 -213t-141.5 -163.5t-183 -136.5t-183 -132.5t-141.5 -149.5t-56.5 -188h785v-82h-873q-6 41 -6 76z" />
<glyph unicode="3" horiz-adv-x="1138" d="M100 174l66 66q6 -8 17.5 -19.5t50 -42.5t80.5 -54.5t106.5 -43t130.5 -19.5q143 0 250.5 99.5t107.5 253.5q0 160 -113.5 251t-269.5 91h-98l-25 61l402 469q31 37 63 66v4q-39 -4 -110 -4h-588v82h821v-62l-463 -534q74 0 149 -19.5t151.5 -64.5t124.5 -133.5 t48 -206.5q0 -182 -134 -310.5t-320 -128.5q-231 0 -416 170z" />
<glyph unicode="4" horiz-adv-x="1204" d="M74 410v61l743 963h82v-942h213v-82h-213v-410h-88v410h-737zM197 492h614v671l6 129h-4q-35 -51 -72 -98l-544 -698v-4z" />
<glyph unicode="5" horiz-adv-x="1134" d="M121 182l72 56l12 -19q8 -12 37.5 -43t64.5 -53.5t93.5 -42t123.5 -19.5q168 0 283 107.5t115 267.5q0 162 -115 270.5t-283 108.5q-74 0 -143.5 -21.5t-101.5 -43.5l-33 -21l-66 23l82 682h666v-82h-588l-51 -428l-15 -88h5q100 66 245 65q205 0 347.5 -135t142.5 -330 q0 -193 -143.5 -327t-346.5 -134q-78 0 -148.5 21.5t-114.5 52.5t-77.5 60.5t-48.5 50.5z" />
<glyph unicode="6" horiz-adv-x="1212" d="M145 645q0 139 36 276.5t105.5 260.5t193.5 199.5t282 76.5q147 0 250 -57l-43 -80q-88 51 -211 51q-158 0 -277 -101.5t-176 -245.5t-67 -312h4q59 90 168.5 143t236.5 53q193 0 316.5 -125t123.5 -331q0 -223 -126.5 -350.5t-313.5 -127.5q-231 0 -366.5 192.5 t-135.5 477.5zM246 539q0 -166 114.5 -322t284.5 -156q162 0 256 109t94 283q0 170 -97 270t-255 100q-160 0 -278.5 -91t-118.5 -193z" />
<glyph unicode="7" horiz-adv-x="1038" d="M80 1352v82h907v-62l-680 -1372h-92l598 1219q35 72 76 133v4q-41 -4 -113 -4h-696z" />
<glyph unicode="8" horiz-adv-x="1230" d="M141 410q0 74 27 142.5t64.5 114.5t74.5 80.5t64 51.5l26 16q-186 113 -186 293q0 145 111.5 247.5t310.5 102.5q197 0 311.5 -100.5t114.5 -261.5q0 -213 -193 -406q211 -119 211 -307q0 -170 -134 -289t-327 -119q-190 0 -332.5 117t-142.5 318zM233 410 q0 -158 115 -253.5t268 -95.5q143 0 256 91.5t113 228.5q0 61 -27.5 110.5t-88 89.5t-111.5 64.5t-141.5 62t-135.5 60.5q-20 -10 -52 -32.5t-81 -67.5t-82 -113.5t-33 -144.5zM303 1108q0 -61 25.5 -109.5t84 -87.5t104.5 -62.5t137 -61t130 -56.5q182 168 183 365 q0 125 -93.5 200.5t-240.5 75.5q-152 0 -241 -75.5t-89 -188.5z" />
<glyph unicode="9" horiz-adv-x="1212" d="M125 981q0 223 127 350t313 127q231 0 366.5 -192.5t135.5 -477.5q0 -139 -36 -276t-105.5 -260t-193.5 -200t-281 -77q-147 0 -250 58l43 80q88 -51 211 -52q158 0 276.5 101.5t176 246t67.5 312.5h-4q-59 -90 -169 -143.5t-237 -53.5q-193 0 -316.5 125t-123.5 332z M217 981q0 -170 97.5 -270.5t254.5 -100.5q160 0 279 91.5t119 193.5q0 166 -115 321.5t-285 155.5q-162 0 -256 -108.5t-94 -282.5z" />
>>>>>>> 292d2bc0c0dbb686a83fce6e39d211f2a7c77ef2
<glyph unicode=":" horiz-adv-x="600" d="M242 0v121h116v-121h-116zM242 903v121h116v-121h-116z" />
<glyph unicode=";" horiz-adv-x="600" d="M156 -193l92 318h106l-114 -318h-84zM248 903v121h117v-121h-117z" />
<glyph unicode="&#x3c;" horiz-adv-x="1153" d="M111 543v73l899 404v-98l-772 -340v-4l772 -340v-99z" />
<glyph unicode="=" horiz-adv-x="1441" d="M254 375v82h934v-82h-934zM254 702v82h934v-82h-934z" />
<glyph unicode="&#x3e;" horiz-adv-x="1153" d="M143 139v99l772 340v4l-772 340v98l899 -404v-73z" />
<<<<<<< HEAD
<glyph unicode="?" horiz-adv-x="960" d="M92 1356q5 4 14 11t40 24.5t64.5 31t84 24.5t102.5 11q175 0 284.5 -99.5t109.5 -252.5q0 -69 -20.5 -127.5t-53 -100.5t-72 -80.5t-79.5 -74.5t-72.5 -74.5t-53 -89.5t-20.5 -110v-91h-88v91q0 68 20 126t52.5 100t71.5 80.5t78 75t71.5 75t52.5 90.5t20 112 q0 112 -83.5 188t-215.5 76q-67 0 -132 -21.5t-97 -42.5l-31 -22zM315 0v125h121v-125h-121z" />
<glyph unicode="@" horiz-adv-x="1861" d="M143 555q0 166 60.5 315t166 257t256 171.5t322.5 63.5q165 0 309 -54.5t245 -148t158.5 -224t57.5 -278.5q0 -73 -15.5 -146t-49.5 -142.5t-81.5 -123t-117 -86t-151.5 -32.5h-385q-160 0 -273 120.5t-113 291.5q0 172 113 293t273 120h325v-743h70q137 0 225 131 t88 315q0 176 -86 319t-241.5 224.5t-350.5 81.5q-204 0 -367.5 -97t-254 -263t-90.5 -367q0 -105 27.5 -201t71.5 -166t97.5 -130t106.5 -99t97 -67t72 -40l27 -12l-41 -76q-12 5 -31.5 14t-77 43.5t-109.5 75t-115.5 109t-109 144.5t-77 183t-31.5 224zM625 539 q0 -138 88.5 -234t214.5 -96h223v663h-219q-129 0 -218 -97.5t-89 -235.5z" />
<glyph unicode="A" horiz-adv-x="1241" d="M37 0l536 1434h95l536 -1434h-94l-186 496h-609l-184 -496h-94zM346 578h547l-217 581q-10 27 -23.5 70t-21.5 73l-8 29h-5q-30 -111 -53 -172z" />
<glyph unicode="B" horiz-adv-x="1267" d="M221 0v1434h481q159 0 261 -98.5t102 -260.5q0 -113 -49.5 -192.5t-136.5 -120.5v-4q108 -30 175.5 -128.5t67.5 -234.5q0 -178 -112.5 -286.5t-286.5 -108.5h-502zM309 82h406q145 0 230 83.5t85 229.5q0 144 -88.5 231t-228.5 87h-404v-631zM309 795h391q121 0 197 77 t76 203t-74.5 201.5t-200.5 75.5h-389v-557z" />
<glyph unicode="C" horiz-adv-x="1503" d="M125 727q0 205 93 372.5t256 263t362 95.5q95 0 183 -18.5t145 -45t100.5 -53t63.5 -45.5l20 -18l-54 -66q-7 7 -20 17.5t-57.5 38.5t-94 49.5t-127 39t-157.5 17.5q-130 0 -245 -49.5t-197.5 -134.5t-130.5 -205.5t-48 -257.5q0 -184 81 -337t225 -242t321 -89 q86 0 167.5 20t136.5 48.5t98 57.5t63 49l20 20l55 -61q-8 -9 -23 -23.5t-67 -52t-110 -66.5t-150.5 -52.5t-189.5 -23.5q-154 0 -288.5 59.5t-228.5 160.5t-148 239.5t-54 292.5z" />
<glyph unicode="D" horiz-adv-x="1517" d="M221 0v1434h451q324 0 519 -190.5t195 -526.5q0 -225 -90 -388t-250 -246t-374 -83h-451zM309 82h348q292 0 464.5 166t172.5 469q0 302 -173 468.5t-464 166.5h-348v-1270z" />
<glyph unicode="E" horiz-adv-x="1169" d="M221 0v1434h785v-82h-697v-588h572v-82h-572v-600h735v-82h-823z" />
<glyph unicode="F" horiz-adv-x="1040" d="M221 0v1434h723v-82h-635v-598h549v-82h-549v-672h-88z" />
<glyph unicode="G" horiz-adv-x="1550" d="M125 717q0 204 93.5 374t257.5 268.5t364 98.5q91 0 175.5 -16.5t141 -40.5t99.5 -48t63 -41l20 -16l-53 -67q-7 6 -20 15.5t-57.5 34.5t-93 44.5t-123.5 35t-152 15.5q-177 0 -320 -86.5t-223 -236.5t-80 -334q0 -185 78 -335t218 -236.5t314 -86.5q86 0 168.5 24.5 t138.5 59t99.5 69t64.5 58.5l21 25v276h-256v82h344v-653h-88v125l2 61h-4q-7 -9 -20.5 -23t-60.5 -50.5t-99.5 -64t-136.5 -50.5t-173 -23q-147 0 -277.5 58t-223.5 157t-147 236t-54 291z" />
<glyph unicode="H" horiz-adv-x="1527" d="M221 0v1434h88v-674h910v674h88v-1434h-88v678h-910v-678h-88z" />
<glyph unicode="I" horiz-adv-x="530" d="M221 0v1434h88v-1434h-88z" />
<glyph unicode="J" d="M80 391v45h88v-47q0 -132 57 -215q41 -58 104 -86.5t134 -28.5q56 0 106 17.5t94 54t69.5 103t25.5 155.5v963h-342v82h430v-1043q0 -110 -33 -193.5t-89.5 -130.5t-122 -69.5t-138.5 -22.5t-138.5 22.5t-122 69.5t-89.5 130.5t-33 193.5z" />
<glyph unicode="K" horiz-adv-x="1165" d="M221 0v1434h88v-639h111l577 639h119l-616 -676v-4l645 -754h-119l-606 713h-111v-713h-88z" />
<glyph unicode="L" horiz-adv-x="1042" d="M221 0v1434h88v-1352h684v-82h-772z" />
<glyph unicode="M" horiz-adv-x="1740" d="M180 0l115 1434h86l418 -902l69 -161h4q37 91 70 161l418 902h86l115 -1434h-88l-89 1094q-3 31 -4.5 78.5t-1.5 79.5v32h-4q-41 -120 -74 -190l-385 -818h-90l-383 818q-14 30 -32.5 78.5t-30.5 81.5l-12 34h-5q0 -124 -6 -194l-88 -1094h-88z" />
<glyph unicode="N" horiz-adv-x="1540" d="M221 0v1434h82l817 -1125q21 -29 50 -74t48 -75l19 -31h4q-10 108 -10 180v1125h88v-1434h-82l-817 1124q-21 29 -50 74.5t-48 75.5l-19 31h-4q10 -109 10 -181v-1124h-88z" />
<glyph unicode="O" horiz-adv-x="1691" d="M121 727q0 152 57.5 288t155 232.5t231.5 153.5t281 57t281 -57t231.5 -153.5t155 -232.5t57.5 -288q0 -155 -57.5 -295t-155 -240t-231.5 -158.5t-281 -58.5t-281 58.5t-231.5 158.5t-155 240t-57.5 295zM213 727q0 -185 85 -339t230 -241.5t318 -87.5t318 87.5 t230 241.5t85 339q0 180 -85 329t-230 233.5t-318 84.5t-318 -84.5t-230 -233.5t-85 -329z" />
<glyph unicode="P" horiz-adv-x="1212" d="M221 0v1434h471q191 0 313.5 -113.5t122.5 -304.5q0 -192 -122.5 -307t-313.5 -115h-383v-594h-88zM309 676h379q159 0 253.5 90.5t94.5 249.5t-94.5 247.5t-253.5 88.5h-379v-676z" />
<glyph unicode="Q" horiz-adv-x="1718" d="M123 727q0 152 57.5 288t155 232.5t231.5 153.5t281 57t281 -57t231.5 -153.5t155 -232.5t57.5 -288q0 -143 -49 -273.5t-133.5 -228t-201.5 -162t-249 -81.5q96 -141 189.5 -210t224.5 -69q61 0 141 25l12 -84q-85 -25 -166 -25q-83 0 -153.5 25t-133.5 77.5t-112 109.5 t-113 146q-144 3 -274.5 62.5t-225.5 159t-150.5 237.5t-55.5 291zM215 727q0 -185 85 -339t230 -241.5t318 -87.5t318 87.5t230 241.5t85 339q0 180 -85 329t-230 233.5t-318 84.5t-318 -84.5t-230 -233.5t-85 -329z" />
<glyph unicode="R" horiz-adv-x="1271" d="M221 0v1434h420q173 0 258 -43q92 -46 145.5 -135t53.5 -209q0 -152 -79.5 -260t-207.5 -136v-4q15 -16 33 -51l321 -596h-104l-340 635h-412v-635h-88zM309 717h389q140 0 224 91.5t84 238.5q0 95 -45 168t-123 108q-66 29 -201 29h-328v-635z" />
<glyph unicode="S" horiz-adv-x="1085" d="M115 154l59 67q6 -7 17 -17.5t49 -38t79.5 -48.5t106 -38.5t131.5 -17.5q136 0 228 78.5t92 204.5q0 65 -25 118t-67.5 89t-97.5 66.5t-116 56.5t-122 52.5t-116 59.5t-97.5 73t-67.5 98t-25 130q0 149 121 260t309 111q65 0 126.5 -13.5t103 -33t73.5 -39.5t47 -34 l15 -13l-49 -76q-5 5 -14.5 13.5t-41 29.5t-66 37t-87 29.5t-105.5 13.5q-152 0 -245.5 -85.5t-93.5 -196.5q0 -60 25 -109t67.5 -82.5t97.5 -62.5t116 -54t121.5 -52t115.5 -61.5t97.5 -77t67.5 -104.5t25 -139q0 -159 -114 -266t-302 -107q-79 0 -153.5 18.5t-124 44.5 t-87.5 52.5t-56 45.5z" />
<glyph unicode="T" horiz-adv-x="1189" d="M16 1352v82h1158v-82h-535v-1352h-88v1352h-535z" />
<glyph unicode="U" horiz-adv-x="1472" d="M201 492v942h88v-938q0 -202 121 -319.5t325 -117.5t326.5 118.5t122.5 322.5v934h88v-942q0 -234 -148.5 -375.5t-386.5 -141.5t-387 141.5t-149 375.5z" />
<glyph unicode="V" horiz-adv-x="1239" d="M35 1434h94l432 -1160l55 -172h5q30 104 55 172l434 1160h94l-536 -1434h-97z" />
<glyph unicode="W" horiz-adv-x="1882" d="M88 1434h92l303 -1168l35 -153h4q1 0 6 22t15 61.5t18 69.5l328 1168h98l328 -1168q8 -30 18 -69.5t15 -61.5t6 -22h4q17 83 35 153l313 1168h92l-387 -1434h-111l-303 1081q-12 41 -25.5 98t-21.5 93l-8 37h-4h-4q-28 -136 -55 -228l-304 -1081h-110z" />
<glyph unicode="X" horiz-adv-x="1173" d="M61 0l463 758l-411 676h106l275 -457l94 -160h4q45 90 88 160l276 457h107l-416 -676l465 -758h-104l-332 545l-92 153h-4q-43 -83 -86 -155l-328 -543h-105z" />
<glyph unicode="Y" horiz-adv-x="1138" d="M39 1434h100l340 -566l88 -161h4q45 91 88 161l340 566h101l-486 -811v-623h-88v623z" />
<glyph unicode="Z" horiz-adv-x="1200" d="M90 0v70l789 1151q22 33 46.5 65.5t38.5 49.5l13 16v4q-33 -4 -105 -4h-739v82h950v-70l-788 -1151q-22 -33 -46.5 -65.5t-38.5 -49.5l-13 -16v-4q32 4 104 4h789v-82h-1000z" />
=======
<glyph unicode="?" horiz-adv-x="960" d="M92 1356q14 12 39 28.5t104.5 45t161.5 28.5q174 0 284 -100.5t110 -251.5q0 -94 -38 -169t-92.5 -126t-109.5 -100t-93 -116t-38 -146v-91h-88v91q0 92 38 166.5t92 126t107.5 101.5t91 116.5t37.5 148.5q0 113 -84 188.5t-215 75.5q-145 -2 -260 -86zM315 0v125h121 v-125h-121z" />
<glyph unicode="@" horiz-adv-x="1861" d="M143 555q0 340 229.5 573.5t575.5 233.5q334 0 552 -202t218 -503q0 -125 -43 -242.5t-141 -202.5t-231 -85h-385q-160 0 -273 120t-113 292t113 293.5t273 119.5h325v-743h70q137 0 225 131t88 315q0 268 -190.5 446.5t-487.5 178.5q-309 0 -510.5 -210t-201.5 -517 q0 -143 51 -270t124.5 -205t147.5 -135.5t125 -81.5l51 -23l-41 -76q-23 8 -59.5 26.5t-131.5 88.5t-168 153t-132.5 224t-59.5 301zM625 539q0 -137 88 -233.5t215 -96.5h223v663h-219q-129 0 -218 -97t-89 -236z" />
<glyph unicode="A" horiz-adv-x="1241" d="M37 0l536 1434h95l536 -1434h-94l-186 496h-609l-184 -496h-94zM346 578h547l-217 581l-53 172h-5q-31 -111 -53 -172z" />
<glyph unicode="B" horiz-adv-x="1267" d="M221 0v1434h481q160 0 261.5 -98.5t101.5 -260.5q0 -223 -186 -313v-4q109 -31 176 -129.5t67 -233.5q0 -178 -112.5 -286.5t-286.5 -108.5h-502zM309 82h406q145 0 230 84t85 229q0 143 -89 230.5t-228 87.5h-404v-631zM309 795h391q121 0 197 76.5t76 203.5t-75 202 t-200 75h-389v-557z" />
<glyph unicode="C" horiz-adv-x="1503" d="M125 727q0 311 203.5 521t507.5 210q94 0 182 -18.5t145.5 -45t101.5 -53t62 -45.5l21 -18l-54 -66q-6 6 -19 17.5t-58.5 39t-94.5 49t-126.5 39t-157.5 17.5q-264 0 -442.5 -185t-178.5 -462q0 -281 179 -474.5t448 -193.5q86 0 168 20.5t137 48.5t97 56.5t63 48.5 l20 21l55 -61l-23 -24q-15 -15 -66.5 -52t-110 -65.5t-150.5 -52.5t-190 -24q-309 0 -514 218.5t-205 533.5z" />
<glyph unicode="D" horiz-adv-x="1517" d="M221 0v1434h451q324 0 519 -190.5t195 -526.5q0 -338 -194.5 -527.5t-519.5 -189.5h-451zM309 82h348q291 0 464 166t173 469q0 301 -173 468t-464 167h-348v-1270z" />
<glyph unicode="E" horiz-adv-x="1169" d="M221 0v1434h785v-82h-697v-588h572v-82h-572v-600h735v-82h-823z" />
<glyph unicode="F" horiz-adv-x="1040" d="M221 0v1434h723v-82h-635v-598h549v-82h-549v-672h-88z" />
<glyph unicode="G" horiz-adv-x="1550" d="M125 717q0 311 206 526t509 215q281 0 475 -141l24 -21l-53 -67q-6 6 -19.5 15t-58.5 35t-93 45t-122.5 34.5t-152.5 15.5q-268 0 -445.5 -188.5t-177.5 -469t173 -469t437 -188.5q86 0 168 25t138.5 58.5t100.5 68.5t64 59l21 25v276h-256v82h344v-653h-88v125l2 61h-4 q-6 -8 -20.5 -22t-60.5 -51t-99.5 -65t-137.5 -50.5t-172 -22.5q-299 0 -500.5 214.5t-201.5 527.5z" />
<glyph unicode="H" horiz-adv-x="1527" d="M221 0v1434h88v-674h910v674h88v-1434h-88v678h-910v-678h-88z" />
<glyph unicode="I" horiz-adv-x="530" d="M221 0v1434h88v-1434h-88z" />
<glyph unicode="J" d="M80 391v45h88v-47q0 -131 57 -215q80 -115 238 -115q123 0 209 79t86 251v963h-342v82h430v-1043q0 -213 -111.5 -314.5t-271.5 -101.5t-271.5 101.5t-111.5 314.5z" />
<glyph unicode="K" horiz-adv-x="1165" d="M221 0v1434h88v-639h111l577 639h119l-616 -676v-4l645 -754h-119l-606 713h-111v-713h-88z" />
<glyph unicode="L" horiz-adv-x="1042" d="M221 0v1434h88v-1352h684v-82h-772z" />
<glyph unicode="M" horiz-adv-x="1740" d="M180 0l115 1434h86l418 -902l69 -161h4q37 92 70 161l418 902h86l115 -1434h-88l-89 1094l-6 190h-4q-41 -121 -74 -190l-385 -818h-90l-383 818l-75 194h-5q0 -125 -6 -194l-88 -1094h-88z" />
<glyph unicode="N" horiz-adv-x="1540" d="M221 0v1434h82l817 -1125q47 -66 117 -180h4q-10 109 -10 180v1125h88v-1434h-82l-817 1124q-47 66 -117 181h-4q10 -109 10 -181v-1124h-88z" />
<glyph unicode="O" horiz-adv-x="1691" d="M121 727q0 307 212 519t513 212t513 -212t212 -519q0 -315 -212 -533.5t-513 -218.5t-513 218.5t-212 533.5zM213 727q0 -281 184.5 -474.5t448.5 -193.5t448.5 193.5t184.5 474.5q0 274 -184.5 460.5t-448.5 186.5t-448.5 -186.5t-184.5 -460.5z" />
<glyph unicode="P" horiz-adv-x="1212" d="M221 0v1434h471q190 0 313 -114t123 -304q0 -193 -122.5 -307.5t-313.5 -114.5h-383v-594h-88zM309 676h379q160 0 254 90t94 250t-94 248t-254 88h-379v-676z" />
<glyph unicode="Q" horiz-adv-x="1718" d="M123 727q0 307 212 519t513 212t513 -212t212 -519q0 -289 -181.5 -500t-451.5 -245q96 -141 189.5 -210t224.5 -69q63 0 141 25l12 -84q-82 -25 -166 -25q-158 0 -269 88t-243 270q-295 6 -500.5 223.5t-205.5 526.5zM215 727q0 -281 184.5 -474.5t448.5 -193.5 t448.5 193.5t184.5 474.5q0 274 -184.5 460.5t-448.5 186.5t-448.5 -186.5t-184.5 -460.5z" />
<glyph unicode="R" horiz-adv-x="1271" d="M221 0v1434h420q172 0 258 -43q92 -45 145.5 -135.5t53.5 -208.5q0 -152 -80 -259.5t-207 -136.5v-4q14 -16 33 -51l321 -596h-104l-340 635h-412v-635h-88zM309 717h389q139 0 223.5 91t84.5 239q0 94 -45.5 167.5t-122.5 108.5q-63 29 -201 29h-328v-635z" />
<glyph unicode="S" horiz-adv-x="1085" d="M115 154l59 67l17 -17q11 -11 49.5 -39t79 -48.5t106.5 -38t131 -17.5q137 0 228.5 78t91.5 205q0 82 -40 145.5t-105.5 102.5t-143.5 73.5t-156 70.5t-143.5 79t-105.5 112.5t-40 159.5q0 150 121 260.5t309 110.5q66 0 127.5 -13t102.5 -32.5t72.5 -40t46.5 -33.5 l16 -14l-49 -76q-14 14 -40 35t-108 54.5t-166 33.5q-152 0 -245.5 -86t-93.5 -196q0 -76 39.5 -134.5t105 -95.5t143.5 -69.5t156 -69.5t143.5 -82t105.5 -120t40 -171q0 -160 -114 -266.5t-302 -106.5q-125 0 -234.5 45.5t-156.5 90.5z" />
<glyph unicode="T" horiz-adv-x="1189" d="M16 1352v82h1158v-82h-535v-1352h-88v1352h-535z" />
<glyph unicode="U" horiz-adv-x="1472" d="M201 492v942h88v-938q0 -201 120.5 -319t325.5 -118t327 118t122 323v934h88v-942q0 -236 -148.5 -376.5t-386.5 -140.5q-240 0 -388 142t-148 375z" />
<glyph unicode="V" horiz-adv-x="1239" d="M35 1434h94l432 -1160l55 -172h5q31 104 55 172l434 1160h94l-536 -1434h-97z" />
<glyph unicode="W" horiz-adv-x="1882" d="M88 1434h92l303 -1168l35 -153h4l6 22q4 23 14.5 62t18.5 69l328 1168h98l328 -1168q8 -31 18 -69.5t15 -61.5l6 -22h4q16 84 35 153l313 1168h92l-387 -1434h-111l-303 1081l-55 228h-4h-4q-29 -135 -55 -228l-304 -1081h-110z" />
<glyph unicode="X" horiz-adv-x="1173" d="M61 0l463 758l-411 676h106l275 -457l94 -160h4q45 90 88 160l276 457h107l-416 -676l465 -758h-104l-332 545l-92 153h-4q-43 -84 -86 -155l-328 -543h-105z" />
<glyph unicode="Y" horiz-adv-x="1138" d="M39 1434h100l340 -566l88 -161h4q45 92 88 161l340 566h101l-486 -811v-623h-88v623z" />
<glyph unicode="Z" horiz-adv-x="1200" d="M90 0v70l789 1151q49 74 98 131v4q-33 -4 -105 -4h-739v82h950v-70l-788 -1151q-49 -74 -98 -131v-4q33 4 104 4h789v-82h-1000z" />
>>>>>>> 292d2bc0c0dbb686a83fce6e39d211f2a7c77ef2
<glyph unicode="[" horiz-adv-x="546" d="M229 -195v1680h222v-82h-134v-1516h134v-82h-222z" />
<glyph unicode="\" horiz-adv-x="786" d="M82 1516h90l518 -1602h-90z" />
<glyph unicode="]" horiz-adv-x="546" d="M96 -113h133v1516h-133v82h221v-1680h-221v82z" />
<glyph unicode="^" horiz-adv-x="1228" d="M158 516l403 918h66l403 -918h-94l-342 795l-342 -795h-94z" />
<glyph unicode="_" horiz-adv-x="1179" d="M82 0h1016v-82h-1016v82z" />
<glyph unicode="`" horiz-adv-x="1042" d="M395 1763h115l137 -227h-90z" />
<<<<<<< HEAD
<glyph unicode="a" d="M96 272q0 56 16.5 103.5t42 81.5t66 61t79.5 44.5t92 30t93 18.5t93 9.5t82.5 4t70.5 0.5h68v34q0 306 -281 306q-50 0 -98.5 -10t-82 -24.5t-60 -29.5t-39.5 -25l-13 -10l-49 70q5 5 14.5 12.5t43 27t70.5 34.5t96.5 27t121.5 12q178 0 270.5 -98t92.5 -289v-662h-86 v135q0 24 2 47t4 34l2 11h-4q2 0 -10 -26t-39.5 -63t-67 -74t-104 -63t-138.5 -26q-64 0 -124.5 18t-111.5 53t-81.5 93.5t-30.5 132.5zM186 279q0 -89 70 -156.5t193 -67.5q80 0 148 39t111 102t67 139.5t24 153.5v56h-66q-41 0 -65.5 -0.5t-73 -2.5t-81 -6.5t-79.5 -14 t-78 -22t-66 -33t-55.5 -46.5t-34.5 -62t-14 -79z" />
<glyph unicode="b" horiz-adv-x="1185" d="M180 0v1434h86v-533q0 -21 -2 -42t-4 -31l-2 -11h4q4 9 11.5 25t38 56t68.5 70.5t106 55.5t147 25q203 0 322.5 -148t119.5 -389q0 -242 -128 -389.5t-331 -147.5q-72 0 -135 24t-101.5 58t-66.5 68t-39 58l-12 24h-4q8 -37 8 -90v-117h-86zM264 510q0 -118 38 -218 t121 -166.5t198 -66.5q156 0 260 122t104 331q0 205 -99 329t-257 124q-73 0 -137 -26.5t-116 -79.5t-82 -143t-30 -206z" />
<glyph unicode="c" horiz-adv-x="1128" d="M109 510q0 119 42.5 221t114.5 171t168.5 108t202.5 39q68 0 131 -15t104 -36.5t72.5 -43t45.5 -36.5l14 -15l-54 -69l-14 14t-39.5 31.5t-64.5 40t-87 31.5t-108 14q-185 0 -311.5 -126.5t-126.5 -328.5q0 -200 127 -325.5t311 -125.5q63 0 121.5 15t97 37t67.5 44 t43 37l13 15l45 -72q-5 -7 -15.5 -17.5t-47.5 -38t-78 -48.5t-108 -38.5t-138 -17.5q-145 0 -264.5 65t-191.5 188t-72 282z" />
<glyph unicode="d" horiz-adv-x="1187" d="M113 512q0 242 127.5 389.5t330.5 147.5q72 0 135.5 -24t102 -58t66.5 -68t39 -58l12 -24h4q-8 37 -8 84v533h86v-1434h-86v129q0 21 2 40.5t4 28.5l2 9h-4q-4 -9 -11.5 -25t-38 -56t-68.5 -70.5t-106 -55.5t-147 -25q-203 0 -322.5 148t-119.5 389zM203 512 q0 -205 99 -329t257 -124q73 0 137 26.5t116 79.5t82 143t30 206q0 118 -38 218t-121 166.5t-198 66.5q-156 0 -260 -122t-104 -331z" />
<glyph unicode="e" horiz-adv-x="1132" d="M109 510q0 126 40.5 229.5t109.5 170.5t158.5 103t188.5 36q101 0 182.5 -38t132 -103t77 -148t26.5 -178l-4 -56h-821q0 -215 126 -341t312 -126q55 0 108 13.5t89 32.5t64.5 37.5t41.5 31.5l14 14l47 -71q-6 -6 -17 -15.5t-47.5 -34t-76 -43t-100.5 -34t-123 -15.5 q-145 0 -264.5 65t-191.5 188t-72 282zM205 606h729q-7 178 -100 270.5t-230 92.5q-148 0 -260 -95t-139 -268z" />
<glyph unicode="f" horiz-adv-x="624" d="M94 940v78h129v47q0 96 24.5 168.5t59.5 111.5t82.5 62.5t84 30t73.5 6.5l53 -4v-80q-18 4 -47 4t-57 -5t-63.5 -24t-61.5 -49.5t-44 -87t-18 -131.5v-49h281v-78h-281v-940h-86v940h-129z" />
<glyph unicode="g" horiz-adv-x="1173" d="M113 528q0 239 120 380t320 141q81 0 148 -20.5t104 -50.5t62 -59.5t33 -50.5l9 -20h4q-6 14 -6 39v137h86v-1018q0 -113 -38.5 -199.5t-105 -136.5t-148.5 -75t-177 -25q-164 0 -321 80l41 76q14 -8 39.5 -20t97.5 -32t137 -20q175 0 282 87.5t107 264.5v119q0 21 2 42 t4 31l2 11h-4q-48 -98 -134.5 -153.5t-209.5 -55.5q-201 0 -327.5 145t-126.5 383zM203 528q0 -205 102 -324.5t268 -119.5q71 0 129 23.5t106 73.5t74.5 138.5t26.5 208.5q0 437 -356 437q-165 0 -257.5 -115t-92.5 -322z" />
<glyph unicode="h" horiz-adv-x="1200" d="M180 0v1434h86v-590q0 -21 -2 -42t-4 -32l-2 -10h4q12 32 34 67.5t60.5 75.5t86 72t114 53t139.5 21q97 0 164.5 -27.5t104.5 -82.5t53 -124.5t16 -165.5v-649h-86v618q0 61 -4 105t-19 93t-41 79t-74 50t-114 20q-144 0 -259.5 -91.5t-153.5 -234.5q-17 -61 -17 -139 v-500h-86z" />
<glyph unicode="i" horiz-adv-x="446" d="M172 1284v150h102v-150h-102zM180 0v1024h86v-1024h-86z" />
<glyph unicode="j" horiz-adv-x="446" d="M-111 -336q18 -4 45 -4q30 0 58 5t63.5 24t62 49.5t44.5 87t18 131.5v1067h86v-1065q0 -97 -24.5 -169.5t-59.5 -111t-82.5 -62t-84 -30t-74.5 -6.5l-52 4v80zM172 1284v150h102v-150h-102z" />
<glyph unicode="k" horiz-adv-x="983" d="M180 0v1434h86v-813h183l331 403h113l-371 -440v-4l406 -580h-109l-370 541h-183v-541h-86z" />
<glyph unicode="l" horiz-adv-x="471" d="M170 207v1227h86v-1201q0 -159 121 -159l31 2v-80q-19 -4 -37 -4q-22 0 -44 3.5t-52 17t-52 35.5t-37.5 63t-15.5 96z" />
<glyph unicode="m" horiz-adv-x="1880" d="M180 0v1024h86v-180q0 -21 -2 -42t-4 -32l-2 -10h4q38 116 155.5 202.5t237.5 86.5q151 0 228.5 -69.5t95.5 -209.5h4q45 113 154 196t235 83q188 0 265 -102t77 -298v-649h-86v618q0 63 -5.5 111t-22 95t-44.5 77.5t-74.5 49t-109.5 18.5q-122 0 -223 -93t-137 -219 q-21 -71 -21 -157v-500h-86v618q0 60 -4 104.5t-19 94t-41.5 80.5t-73.5 51.5t-112 20.5q-130 0 -232.5 -97t-139.5 -233q-17 -61 -17 -139v-500h-86z" />
<glyph unicode="n" horiz-adv-x="1200" d="M180 0v1024h86v-180q0 -21 -2 -42t-4 -32l-2 -10h4q12 32 34 67.5t60.5 75.5t86 72t114 53t139.5 21q97 0 164.5 -27.5t104.5 -82.5t53 -124.5t16 -165.5v-649h-86v618q0 61 -4 105t-19 93t-41 79t-74 50t-114 20q-144 0 -259.5 -91.5t-153.5 -234.5q-17 -61 -17 -139 v-500h-86z" />
<glyph unicode="o" horiz-adv-x="1269" d="M104 518q0 147 71 269t193 192t267 70t266.5 -70t192.5 -192t71 -269q0 -150 -71 -275t-192.5 -196.5t-266.5 -71.5q-108 0 -206 42.5t-169.5 114.5t-113.5 173t-42 213zM195 518q0 -194 128 -326.5t312 -132.5t312 132.5t128 326.5q0 189 -128 318t-312 129t-312 -129 t-128 -318z" />
<glyph unicode="p" horiz-adv-x="1185" d="M180 -410v1434h86v-123q0 -21 -1.5 -41.5t-2.5 -30.5l-2 -10h4q3 9 10.5 24.5t37.5 55.5t68 70t105.5 55t147.5 25q203 0 322.5 -148t119.5 -389q0 -242 -127 -389.5t-327 -147.5q-74 0 -138.5 24t-103.5 58t-67 68t-39 58l-11 24h-4q8 -37 8 -90v-527h-86zM264 510 q0 -116 40.5 -217.5t123.5 -167.5t193 -66q156 0 260 122t104 331q0 205 -99 329t-257 124q-73 0 -137 -26.5t-116 -79.5t-82 -143t-30 -206z" />
<glyph unicode="q" horiz-adv-x="1187" d="M113 512q0 242 127.5 389.5t330.5 147.5q72 0 135 -23.5t101.5 -57.5t66 -68t38.5 -58l12 -23h4q-6 35 -6 82v123h86v-1434h-86v527q0 24 2 46.5t4 32.5l2 11h-4q-4 -9 -11.5 -25t-38 -56t-68.5 -70.5t-106 -55.5t-147 -25q-203 0 -322.5 148t-119.5 389zM203 512 q0 -205 99 -329t257 -124q73 0 137 26.5t116 79.5t82 143t30 206q0 118 -38 218t-121 166.5t-198 66.5q-156 0 -260 -122t-104 -331z" />
<glyph unicode="r" horiz-adv-x="692" d="M180 0v1024h86v-195q0 -21 -2 -42t-4 -31l-2 -11h4q41 126 126.5 206.5t201.5 80.5l59 -6v-86q-24 4 -47 4q-113 0 -190.5 -81t-114.5 -206q-31 -97 -31 -215v-442h-86z" />
<glyph unicode="s" horiz-adv-x="892" d="M92 123l55 65l14 -14t39.5 -31t65 -39t88.5 -31t111 -14q99 0 167 51t68 142q0 52 -31 92.5t-80.5 66.5t-109.5 49t-120.5 49.5t-110 58.5t-80.5 84t-31 120q0 131 95 204t233 73q59 0 111.5 -11.5t86 -27.5t58.5 -32.5t36 -27.5l11 -12l-51 -70q-3 4 -10 10.5t-31 23 t-51 29.5t-72 23.5t-94 10.5q-97 0 -164.5 -47t-67.5 -140q0 -47 24 -85t64 -61.5t90.5 -47t103.5 -41.5t103.5 -45t90.5 -57.5t64 -79t24 -109.5q0 -122 -93 -199.5t-235 -77.5q-69 0 -133 15t-105.5 37t-73 44t-45.5 37z" />
<glyph unicode="t" horiz-adv-x="643" d="M78 940v78h135v291h86v-291h268v-78h-268v-563q0 -77 18 -135t44 -89.5t61.5 -50.5t63.5 -24.5t57 -5.5l47 4v-80q-20 -4 -51 -4q-26 0 -51.5 3t-59 13t-62.5 26t-58 45t-49.5 67.5t-33 96.5t-12.5 128v569h-135z" />
<glyph unicode="u" horiz-adv-x="1189" d="M166 375v649h86v-618q0 -61 4 -105t19 -93t41 -79t74 -50t114 -20q124 0 221.5 66.5t148 172t50.5 226.5v500h86v-1024h-86v180q0 21 2 42t4 32l2 10h-4q-12 -32 -33.5 -67.5t-59.5 -75.5t-84 -72t-111 -53t-136 -21q-183 0 -260.5 98.5t-77.5 301.5z" />
<glyph unicode="v" horiz-adv-x="960" d="M37 1024h92l315 -803l35 -110h4q17 61 35 110l316 803h90l-402 -1024h-82z" />
<glyph unicode="w" horiz-adv-x="1632" d="M43 1024h92l279 -803l35 -110h4q18 61 34 110l281 799h96l281 -799l35 -110h4q17 59 35 110l278 803h92l-360 -1024h-92l-285 795l-35 110h-4q-17 -61 -35 -110l-282 -795h-93z" />
<glyph unicode="x" horiz-adv-x="974" d="M59 0l369 541l-330 483h105l248 -373l34 -57h4q19 30 35 57l248 373h105l-330 -483l368 -541h-106l-283 424l-37 59h-4q-16 -28 -36 -59l-283 -424h-107z" />
<glyph unicode="y" horiz-adv-x="1001" d="M16 -373l39 74q6 -5 17.5 -13.5t45 -22t64.5 -13.5q122 0 201 184l74 170l-424 1018h92l338 -817l37 -96h4q15 47 35 96l338 817h92l-527 -1264q-36 -85 -102 -137.5t-158 -52.5q-44 0 -85.5 14t-60.5 28z" />
<glyph unicode="z" horiz-adv-x="1026" d="M90 0v70l621 780l80 94v4q-37 -4 -105 -4h-569v80h790v-70l-622 -780q-16 -21 -36.5 -44.5t-32.5 -36.5l-13 -13v-4q38 4 106 4h621v-80h-840z" />
<glyph unicode="{" horiz-adv-x="665" d="M113 616v82q7 1 19 4t42 19t52.5 40t41.5 72t19 109v166q0 99 23.5 172.5t55 110.5t74 59.5t70.5 27.5t55 5h19v-80h-13q-19 0 -39 -4t-50 -21.5t-52 -46.5t-38.5 -86.5t-16.5 -134.5v-190q0 -56 -16.5 -103t-40.5 -75t-48 -48t-40 -28l-17 -7v-4q7 -2 17.5 -7t38.5 -25 t49.5 -46.5t39 -75t17.5 -106.5v-217q0 -77 16.5 -134.5t38.5 -86.5t52 -46.5t50 -21.5t39 -4h13v-80q-7 -2 -19 -2q-27 0 -55 5t-70.5 27.5t-74 60t-55 111.5t-23.5 173v193q0 61 -18 108.5t-43.5 72t-51 39.5t-43.5 19z" />
<glyph unicode="|" horiz-adv-x="542" d="M227 -317v1925h88v-1925h-88z" />
<glyph unicode="}" horiz-adv-x="665" d="M82 -115h12q19 0 39 4t50 21.5t52.5 46.5t39 86.5t16.5 134.5v217q0 58 16.5 106t40.5 75.5t48 46.5t40 25l17 7v4q-7 3 -17.5 8t-38.5 26.5t-49.5 48.5t-39 74.5t-17.5 103.5v190q0 77 -16.5 134.5t-39 86.5t-52.5 46.5t-50 21.5t-39 4h-12v80h18q27 0 55 -5t71 -27.5 t74.5 -59.5t55 -110.5t23.5 -172.5v-166q0 -61 18 -109t43.5 -72t51 -39.5t43.5 -19.5l18 -4v-82q-7 -1 -19 -4t-42 -19t-52.5 -39.5t-41.5 -71.5t-19 -109v-193q0 -99 -23.5 -173t-55 -111.5t-74.5 -60t-71 -27.5t-55 -5l-18 2v80z" />
<glyph unicode="~" horiz-adv-x="1212" d="M162 436q0 152 64 223.5t171 71.5q54 0 98.5 -16.5t72 -41.5t56.5 -54.5t53 -54.5t61 -41.5t81 -16.5q39 0 68.5 16.5t45 39.5t25.5 55t12.5 56.5t2.5 49.5h82q0 -152 -64.5 -223.5t-171.5 -71.5q-54 0 -98.5 16.5t-72 41.5t-56.5 54.5t-53 54.5t-61 41.5t-81 16.5 q-48 0 -81 -23t-47.5 -60.5t-19.5 -69t-5 -64.5h-82z" />
<glyph unicode="&#xa1;" horiz-adv-x="534" d="M205 899v125h121v-125h-121zM223 -410v1076h88v-1076h-88z" />
<glyph unicode="&#xa2;" horiz-adv-x="1161" d="M133 717q0 114 26.5 212.5t78.5 175.5t134.5 125.5t188.5 57.5v170h88v-170q250 -22 379 -291l-84 -32q-114 237 -334 237q-99 0 -174.5 -37.5t-120.5 -105t-67.5 -153.5t-22.5 -189t22.5 -189.5t67.5 -153.5t120.5 -105t174.5 -38q219 0 334 238l84 -33 q-131 -271 -379 -291v-172h-88v172q-140 12 -238.5 93t-144 203.5t-45.5 275.5z" />
<glyph unicode="&#xa3;" horiz-adv-x="1198" d="M123 0v82h133v600h-92v82h92v332q0 154 114 258t289 104q51 0 101 -10.5t84.5 -26t62 -31t41.5 -26.5l13 -10l-60 -68q-4 3 -11.5 9t-33 21t-52 26t-67 20.5t-80.5 9.5q-147 0 -230 -82.5t-83 -202.5v-323h406v-82h-406v-600h719v-82h-940z" />
<glyph unicode="&#xa5;" horiz-adv-x="1224" d="M82 1434h100l340 -566l88 -161h4q45 91 88 161l340 566h101l-379 -631h221v-82h-270l-58 -98v-86h328v-82h-328v-455h-88v455h-333v82h333v86l-59 98h-274v82h225z" />
<glyph unicode="&#xa7;" horiz-adv-x="798" d="M129 -59l53 65q7 -5 19 -13.5t48.5 -22t72.5 -13.5q99 0 164 63.5t65 167.5q0 29 -2 43l-133 973h86l137 -971q4 -36 4 -51q0 -133 -92 -221t-232 -88q-48 0 -95.5 17t-71.5 34zM150 1149q0 133 91.5 221t231.5 88q48 0 96 -17t71 -33l24 -17l-54 -66q-7 5 -19 13.5 t-48 22t-72 13.5q-99 0 -165 -63.5t-66 -167.5q0 -15 4 -43l133 -973h-86l-137 971q-4 32 -4 51z" />
<glyph unicode="&#xa8;" horiz-adv-x="1042" d="M334 1614v149h94v-149h-94zM614 1614v149h95v-149h-95z" />
<glyph unicode="&#xa9;" horiz-adv-x="1716" d="M133 717q0 152 57 289.5t153.5 236.5t230 157t280.5 58q150 0 285 -58t232.5 -157t154.5 -236t57 -290t-57 -291t-154.5 -236.5t-232.5 -156.5t-285 -58q-197 0 -362.5 98t-262 269t-96.5 375zM225 717q0 -183 83 -333.5t227.5 -236.5t318.5 -86q177 0 323.5 86 t230 236.5t83.5 333.5q0 136 -49.5 257.5t-134 208.5t-202.5 138t-251 51q-174 0 -318.5 -86t-227.5 -236.5t-83 -332.5zM438 715q0 82 28.5 158.5t82 138t139.5 98.5t191 37q60 0 116 -18.5t93.5 -45t67 -53t42.5 -44.5l14 -19l-67 -60q-4 6 -11.5 16.5t-33.5 36.5 t-54.5 46t-73.5 36.5t-91 16.5q-165 0 -258 -101.5t-93 -240.5q0 -65 22.5 -125.5t65 -109t111 -78t152.5 -29.5q48 0 92.5 15.5t74.5 37.5t53 44.5t33 37.5l11 16l67 -59q-5 -7 -14.5 -19.5t-42 -43.5t-68.5 -54.5t-92.5 -43t-115.5 -19.5q-106 0 -192 36.5t-139 97.5 t-81.5 136.5t-28.5 157.5z" />
<glyph unicode="&#xaa;" horiz-adv-x="876" d="M178 539v75h518v-75h-518zM184 973q0 227 398 227h28v8q0 170 -155 170q-44 0 -88 -15t-66 -29l-22 -15l-46 61q10 8 28 20.5t76.5 33t119.5 20.5q233 0 233 -246v-413h-80v104h-4q-2 -5 -7 -13t-23 -28t-38.5 -35.5t-54.5 -28t-71 -12.5q-92 0 -160 49.5t-68 141.5z M268 981q0 -51 38 -87t108 -36q88 0 142 77t54 171v20h-26q-33 0 -56.5 -1t-65.5 -4.5t-71.5 -13.5t-60 -25t-46.5 -41t-16 -60z" />
<glyph unicode="&#xab;" horiz-adv-x="1005" d="M111 578l335 421h109l-336 -421l336 -420h-109zM438 578l336 421h109l-336 -421l336 -420h-109z" />
<glyph unicode="&#xac;" horiz-adv-x="1300" d="M184 702v82h934v-448h-86v366h-848z" />
<glyph unicode="&#xad;" horiz-adv-x="884" d="M160 539v82h565v-82h-565z" />
<glyph unicode="&#xae;" horiz-adv-x="1716" d="M133 717q0 152 57 289.5t153.5 236.5t230 157t280.5 58q150 0 285 -58t232.5 -157t154.5 -236t57 -290t-57 -291t-154.5 -236.5t-232.5 -156.5t-285 -58q-197 0 -362.5 98t-262 269t-96.5 375zM225 717q0 -183 83 -333.5t227.5 -236.5t318.5 -86q177 0 323.5 86 t230 236.5t83.5 333.5q0 136 -49.5 257.5t-134 208.5t-202.5 138t-251 51q-174 0 -318.5 -86t-227.5 -236.5t-83 -332.5zM616 307v819h273q105 0 171 -65t66 -172q0 -87 -45 -145t-112 -74v-4q8 -10 26 -45l162 -314h-100l-174 342h-176v-342h-91zM707 727h172 q71 0 113 43.5t42 118.5q0 73 -42 114t-113 41h-172v-317z" />
<glyph unicode="&#xaf;" horiz-adv-x="1042" d="M276 1610v82h490v-82h-490z" />
<glyph unicode="&#xb0;" horiz-adv-x="759" d="M113 1186q0 110 78 189t188 79t189 -79t79 -189t-79 -188t-189 -78t-188 78t-78 188zM201 1186q0 -77 51 -131t127 -54t128 54t52 131t-52 131.5t-128 54.5t-127 -54.5t-51 -131.5z" />
<glyph unicode="&#xb1;" horiz-adv-x="1404" d="M174 539v82h485v538h89v-538h483v-82h-483v-539h-89v539h-485zM215 -231h975v-82h-975v82z" />
<glyph unicode="&#xb2;" horiz-adv-x="770" d="M109 922q0 67 25 124t65 96.5t88 75t96 68t88 65.5t65 77.5t25 95.5q0 74 -51.5 126t-134.5 52q-52 0 -100 -26t-71 -52l-22 -25l-49 54q4 5 10.5 13.5t29.5 29.5t49 37t67.5 29.5t85.5 13.5q126 0 196 -73t70 -179q0 -62 -24.5 -114.5t-64 -89.5t-87 -70t-96 -65 t-88.5 -65.5t-65.5 -79.5t-27.5 -100h469v-74h-544q-4 36 -4 56z" />
<glyph unicode="&#xb3;" horiz-adv-x="770" d="M94 979l58 53q3 -5 8.5 -12.5t26.5 -26.5t45 -34t63.5 -27t83.5 -12q79 0 145 59.5t66 146.5q0 89 -66.5 143t-152.5 54h-66l-22 49l221 260q10 12 23 24.5t21 19.5l7 7v5q-37 -7 -78 -7h-336v74h523v-53l-263 -307q36 -3 71 -12t71.5 -29.5t64 -49.5t45 -75t17.5 -103 q0 -117 -86.5 -198.5t-206.5 -81.5q-55 0 -104 13.5t-80.5 33t-55 39.5t-33.5 34z" />
<glyph unicode="&#xb4;" horiz-adv-x="1042" d="M395 1536l137 227h115l-162 -227h-90z" />
<glyph unicode="&#xb6;" horiz-adv-x="1128" d="M111 965q0 129 67 237.5t179 170t243 61.5h430v-82h-342v-1454h-86v596q-131 0 -243.5 62t-180 171t-67.5 238zM815 -102v1325h86v-1325h-86z" />
<glyph unicode="&#xb7;" horiz-adv-x="559" d="M217 522v129h125v-129h-125z" />
<glyph unicode="&#xb8;" horiz-adv-x="1042" d="M383 -332q37 -10 84 -10q111 0 111 76q0 36 -33 57t-92 21l-25 -2l49 227l66 -10v-17l-25 -133q64 -9 102.5 -46.5t38.5 -92.5q0 -79 -53 -117.5t-133 -38.5q-24 0 -46.5 2t-32.5 4l-11 2v78z" />
<glyph unicode="&#xb9;" horiz-adv-x="770" d="M158 866v74h196v666l2 45h-2q-8 -17 -47 -56l-90 -88l-53 56l190 192h78v-815h191v-74h-465z" />
<glyph unicode="&#xba;" horiz-adv-x="974" d="M152 1124q0 139 97.5 235.5t235.5 96.5q139 0 236.5 -96.5t97.5 -235.5q0 -144 -97.5 -242t-236.5 -98t-236 98t-97 242zM188 539v75h603v-75h-603zM231 1124q0 -113 73.5 -188.5t180.5 -75.5t180.5 75.5t73.5 188.5q0 109 -73.5 182.5t-180.5 73.5t-180.5 -73.5 t-73.5 -182.5z" />
<glyph unicode="&#xbb;" horiz-adv-x="1005" d="M123 158l336 420l-336 421h108l336 -421l-336 -420h-108zM451 158l335 420l-335 421h108l336 -421l-336 -420h-108z" />
<glyph unicode="&#xbc;" horiz-adv-x="1988" d="M272 545v73h197v666l2 45h-2q-8 -16 -47 -55l-90 -88l-53 55l190 193h78v-816h190v-73h-465zM657 0l689 1434h88l-686 -1434h-91zM1262 248v53l454 588h64v-567h139v-74h-139v-248h-78v248h-440zM1374 322h328v301l6 133h-4q-35 -56 -72 -103l-258 -327v-4z" />
<glyph unicode="&#xbd;" horiz-adv-x="1882" d="M131 545v73h197v666l2 45h-2q-8 -16 -47 -55l-91 -88l-53 55l191 193h78v-816h190v-73h-465zM516 0l688 1434h88l-686 -1434h-90zM1178 55q0 67 25 124t65 96.5t88 75t96 68t88 65.5t65 77.5t25 95.5q0 74 -52 126.5t-134 52.5q-52 0 -100 -26t-70 -52l-23 -25l-49 53 q4 5 10.5 13.5t29.5 29.5t49 37t67.5 29.5t85.5 13.5q126 0 196 -73t70 -179q0 -62 -24.5 -114.5t-64 -89t-87 -70t-96 -65t-88.5 -65t-65.5 -79.5t-27.5 -100h469v-74h-544q-4 36 -4 55z" />
<glyph unicode="&#xbe;" horiz-adv-x="1955" d="M109 657l57 54q3 -5 8.5 -12.5t26.5 -27t45 -34.5t63.5 -27t83.5 -12q79 0 145 60t66 147q0 89 -66.5 142.5t-152.5 53.5h-66l-22 50l221 260q10 12 23 24.5t21 19.5l7 7v4q-36 -6 -77 -6h-336v74h522v-54l-262 -307q46 -3 89.5 -18t85.5 -44.5t67.5 -82.5t25.5 -123 q0 -117 -86.5 -199t-206.5 -82q-55 0 -104 13.5t-80 33t-54.5 39.5t-33.5 34zM565 0l688 1434h88l-686 -1434h-90zM1169 248v53l455 588h64v-567h139v-74h-139v-248h-78v248h-441zM1282 322h328v301l6 133h-4q-35 -56 -72 -103l-258 -327v-4z" />
<glyph unicode="&#xbf;" horiz-adv-x="878" d="M98 -78q0 69 20.5 127.5t53 101t72 80.5t79.5 74.5t72.5 75t53 89.5t20.5 110v86h88v-86q0 -68 -20 -126.5t-52.5 -101t-71.5 -81t-78.5 -75.5t-72 -76t-52.5 -90t-20 -110q0 -112 83.5 -188t215.5 -76q67 0 132 21.5t97 42.5l32 22l47 -70q-5 -4 -14 -11t-40 -24.5 t-64.5 -31t-84 -24.5t-102.5 -11q-175 0 -284.5 99.5t-109.5 252.5zM453 899v125h120v-125h-120z" />
<glyph unicode="&#xc0;" horiz-adv-x="1241" d="M37 0l536 1434h95l536 -1434h-94l-186 496h-609l-184 -496h-94zM346 578h547l-217 581q-10 27 -23.5 70t-21.5 73l-8 29h-5q-30 -111 -53 -172zM414 1763h114l138 -227h-91z" />
<glyph unicode="&#xc1;" horiz-adv-x="1241" d="M37 0l536 1434h95l536 -1434h-94l-186 496h-609l-184 -496h-94zM346 578h547l-217 581q-10 27 -23.5 70t-21.5 73l-8 29h-5q-30 -111 -53 -172zM573 1536l138 227h114l-161 -227h-91z" />
<glyph unicode="&#xc2;" horiz-adv-x="1241" d="M37 0l536 1434h95l536 -1434h-94l-186 496h-609l-184 -496h-94zM346 578h547l-217 581q-10 27 -23.5 70t-21.5 73l-8 29h-5q-30 -111 -53 -172zM403 1536l164 227h107l164 -227h-101l-114 164h-5l-114 -164h-101z" />
<glyph unicode="&#xc3;" horiz-adv-x="1241" d="M37 0l536 1434h95l536 -1434h-94l-186 496h-609l-184 -496h-94zM326 1542q0 221 170 221q38 0 69.5 -15.5t53.5 -37.5t41.5 -44.5t43.5 -38t50 -15.5q25 0 43 15.5t25.5 40.5t10.5 46t3 43h82q0 -221 -170 -221q-46 0 -84.5 24t-60.5 52t-52 52t-62 24q-25 0 -42.5 -15.5 t-25 -40.5t-10.5 -46.5t-3 -43.5h-82zM346 578h547l-217 581q-10 27 -23.5 70t-21.5 73l-8 29h-5q-30 -111 -53 -172z" />
<glyph unicode="&#xc4;" horiz-adv-x="1241" d="M37 0l536 1434h95l536 -1434h-94l-186 496h-609l-184 -496h-94zM346 578h547l-217 581q-10 27 -23.5 70t-21.5 73l-8 29h-5q-30 -111 -53 -172zM434 1614v149h94v-149h-94zM715 1614v149h94v-149h-94z" />
<glyph unicode="&#xc5;" horiz-adv-x="1241" d="M37 0l536 1434h95l536 -1434h-94l-186 496h-609l-184 -496h-94zM346 578h547l-217 581q-10 27 -23.5 70t-21.5 73l-8 29h-5q-30 -111 -53 -172zM483 1653q0 58 39.5 97.5t98.5 39.5t98 -39t39 -98t-39 -98t-98 -39t-98.5 39.5t-39.5 97.5zM555 1653q0 -29 18.5 -47.5 t47.5 -18.5t47 18.5t18 47.5q0 31 -18 49t-47 18t-47.5 -18t-18.5 -49z" />
<glyph unicode="&#xc6;" horiz-adv-x="1703" d="M33 0l588 1434h919v-82h-696v-588h571v-82h-571v-600h735v-82h-823v682h-350l-279 -682h-94zM440 764h316v588h-74z" />
<glyph unicode="&#xc7;" horiz-adv-x="1505" d="M127 727q0 205 93 372.5t256 263t362 95.5q95 0 183 -18.5t145 -45t100.5 -53t63.5 -45.5l20 -18l-54 -66q-7 7 -20 17.5t-57.5 38.5t-94 49.5t-127 39t-157.5 17.5q-130 0 -245 -49.5t-197.5 -134.5t-130.5 -205.5t-48 -257.5q0 -184 81 -337t225 -242t321 -89 q86 0 167.5 20t136.5 48.5t98 57.5t63 49l20 20l55 -61q-8 -9 -22.5 -23t-65 -51t-107 -65.5t-146.5 -52.5t-185 -26l-18 -98q64 -9 102.5 -46.5t38.5 -92.5q0 -79 -53 -117.5t-133 -38.5q-24 0 -46.5 2t-32.5 4l-11 2v78q37 -10 84 -10q110 0 110 76q0 36 -33 57t-92 21 l-24 -2l34 167q-190 14 -341 117.5t-234.5 269.5t-83.5 363z" />
=======
<glyph unicode="a" d="M96 272q0 72 27 129.5t65.5 93t101 62.5t114 39t123 19.5t110.5 8.5t94 1h68v34q0 305 -281 306q-166 0 -289 -95l-4 -4l-49 70q14 12 41 30.5t117 50.5t188 32q178 0 270.5 -98.5t92.5 -288.5v-662h-86v135l8 92h-4q2 0 -10.5 -25.5t-39 -63.5t-66.5 -74.5t-104.5 -62.5 t-138.5 -26q-139 0 -243.5 77t-104.5 220zM186 279q0 -88 70 -156t193 -68q158 0 254 134.5t96 299.5v56h-66q-63 0 -103 -1t-115 -8.5t-123 -24.5t-100 -45t-79 -76t-27 -111z" />
<glyph unicode="b" horiz-adv-x="1185" d="M180 0v1434h86v-533l-8 -84h4q4 10 11.5 25.5t38 55.5t68.5 70.5t105.5 55.5t147.5 25q203 0 322.5 -147.5t119.5 -389.5t-128 -389.5t-331 -147.5q-72 0 -135 24t-101 57.5t-66.5 68.5t-39.5 59l-12 23h-4q8 -37 8 -90v-117h-86zM264 510q0 -184 93.5 -317.5 t263.5 -133.5q156 0 260 122t104 331q0 205 -99.5 329t-256.5 124q-156 0 -260.5 -114t-104.5 -341z" />
<glyph unicode="c" horiz-adv-x="1128" d="M109 510q0 238 154.5 388.5t373.5 150.5q213 0 350 -129l17 -17l-54 -69q-12 14 -37.5 35.5t-106.5 58.5t-169 37q-184 0 -311 -126t-127 -329q0 -201 127 -326t311 -125q199 0 328 131l14 17l45 -72q-6 -6 -16.5 -17.5t-47 -39t-77.5 -48t-107.5 -38t-138.5 -17.5 q-223 0 -375.5 148.5t-152.5 386.5z" />
<glyph unicode="d" horiz-adv-x="1187" d="M113 512q0 242 128 389.5t330 147.5q72 0 135.5 -24t101.5 -57.5t66.5 -68.5t38.5 -59l13 -23h4q-8 37 -8 84v533h86v-1434h-86v129l8 78h-4q-4 -10 -11.5 -25.5t-38 -55.5t-68.5 -70.5t-105.5 -55.5t-147.5 -25q-203 0 -322.5 147.5t-119.5 389.5zM203 512 q0 -205 99 -329t257 -124q156 0 260.5 114t104.5 341q0 184 -93.5 317.5t-263.5 133.5q-156 0 -260 -122t-104 -331z" />
<glyph unicode="e" horiz-adv-x="1132" d="M109 510q0 250 145 394.5t352 144.5q199 0 308.5 -134.5t109.5 -332.5l-4 -56h-821q0 -215 126 -341t312 -126q88 0 167 33t114 64l36 32l47 -71q-16 -16 -45.5 -40t-125 -63t-193.5 -39q-223 0 -375.5 148.5t-152.5 386.5zM205 606h729q-8 178 -100.5 270.5t-229.5 92.5 q-150 0 -261 -95.5t-138 -267.5z" />
<glyph unicode="f" horiz-adv-x="624" d="M94 940v78h129v47q0 119 35 201t91.5 116.5t102.5 48t95 13.5l53 -4v-80q-18 4 -47 4q-39 0 -74 -10.5t-77 -38t-67.5 -92t-25.5 -156.5v-49h281v-78h-281v-940h-86v940h-129z" />
<glyph unicode="g" horiz-adv-x="1173" d="M113 528q0 240 119.5 380.5t320.5 140.5q236 0 336 -160l20 -41h4q-6 14 -6 39v137h86v-1018q0 -221 -134 -328.5t-335 -107.5q-166 0 -321 80l41 76q127 -72 274 -72q174 0 281.5 87t107.5 265v119l8 84h-4q-102 -209 -344 -209q-201 0 -327.5 145t-126.5 383zM203 528 q0 -205 102.5 -324.5t267.5 -119.5q150 0 243 105.5t93 338.5q0 436 -356 437q-166 0 -258 -115t-92 -322z" />
<glyph unicode="h" horiz-adv-x="1200" d="M180 0v1434h86v-590l-8 -84h4q35 98 149.5 193.5t284.5 95.5q188 0 263 -101.5t75 -298.5v-649h-86v618q0 61 -4 105.5t-18.5 92.5t-41 79t-74.5 50.5t-114 19.5q-143 0 -258.5 -91.5t-154.5 -234.5q-16 -57 -17 -139v-500h-86z" />
<glyph unicode="i" horiz-adv-x="446" d="M172 1284v150h102v-150h-102zM180 0v1024h86v-1024h-86z" />
<glyph unicode="j" horiz-adv-x="446" d="M-111 -336q18 -4 45 -4q39 0 75 10.5t78 38t67.5 92t25.5 156.5v1067h86v-1065q0 -119 -34.5 -201t-91 -117.5t-103.5 -48t-96 -12.5l-52 4v80zM172 1284v150h102v-150h-102z" />
<glyph unicode="k" horiz-adv-x="983" d="M180 0v1434h86v-813h183l331 403h113l-371 -440v-4l406 -580h-109l-370 541h-183v-541h-86z" />
<glyph unicode="l" horiz-adv-x="471" d="M170 207v1227h86v-1201q0 -160 121 -159l31 2v-80q-18 -4 -37 -4q-29 0 -57.5 7t-64.5 27.5t-57.5 66.5t-21.5 114z" />
<glyph unicode="m" horiz-adv-x="1880" d="M180 0v1024h86v-180l-8 -84h4q39 115 157 202t236 87q152 0 230 -70t94 -209h4q45 113 153.5 196t235.5 83q188 0 265 -101.5t77 -298.5v-649h-86v618q0 168 -53 259.5t-203 91.5q-123 0 -224 -92.5t-136 -219.5q-20 -68 -21 -157v-500h-86v618q0 61 -4 105.5t-19.5 93.5 t-41 80t-72.5 51.5t-113 20.5q-131 0 -233.5 -97.5t-138.5 -232.5q-16 -57 -17 -139v-500h-86z" />
<glyph unicode="n" horiz-adv-x="1200" d="M180 0v1024h86v-180l-8 -84h4q35 98 149.5 193.5t284.5 95.5q188 0 263 -101.5t75 -298.5v-649h-86v618q0 61 -4 105.5t-18.5 92.5t-41 79t-74.5 50.5t-114 19.5q-143 0 -258.5 -91.5t-154.5 -234.5q-16 -57 -17 -139v-500h-86z" />
<glyph unicode="o" horiz-adv-x="1269" d="M104 518q0 223 155 377t376 154t375.5 -154t154.5 -377q0 -227 -154.5 -385t-375.5 -158t-376 158t-155 385zM195 518q0 -195 128 -327t312 -132t312 132.5t128 326.5q0 188 -128 317.5t-312 129.5t-312 -129.5t-128 -317.5z" />
<glyph unicode="p" horiz-adv-x="1185" d="M180 -410v1434h86v-123l-6 -82h4q4 10 11.5 25.5t37 54.5t67.5 69.5t105.5 55.5t147.5 25q203 0 322.5 -147.5t119.5 -389.5t-127 -389.5t-327 -147.5q-74 0 -138.5 24t-103.5 57.5t-66.5 68.5t-38.5 59l-12 23h-4q8 -37 8 -90v-527h-86zM264 510q0 -182 96.5 -316.5 t260.5 -134.5q156 0 260 122t104 331q0 205 -99.5 329t-256.5 124q-156 0 -260.5 -114t-104.5 -341z" />
<glyph unicode="q" horiz-adv-x="1187" d="M113 512q0 242 128 389.5t330 147.5q209 0 326 -181l27 -49h4q-6 35 -6 82v123h86v-1434h-86v527l8 90h-4q-4 -10 -11.5 -25.5t-38 -55.5t-68.5 -70.5t-105.5 -55.5t-147.5 -25q-203 0 -322.5 147.5t-119.5 389.5zM203 512q0 -205 99 -329t257 -124q156 0 260.5 114 t104.5 341q0 184 -93.5 317.5t-263.5 133.5q-156 0 -260 -122t-104 -331z" />
<glyph unicode="r" horiz-adv-x="692" d="M180 0v1024h86v-195l-8 -84h4q41 125 127 206t201 81l59 -6v-86q-25 4 -47 4q-113 0 -190.5 -81t-114.5 -206q-31 -98 -31 -215v-442h-86z" />
<glyph unicode="s" horiz-adv-x="892" d="M92 123l55 65q12 -14 37 -35.5t108 -57.5t173 -36q100 0 167.5 51.5t67.5 141.5q0 72 -58 121t-140 79.5t-165 65.5t-141.5 98.5t-58.5 155.5q0 131 94.5 204t233.5 73q188 0 295 -103l8 -8l-51 -70q-10 10 -28.5 26.5t-85 43.5t-144.5 27q-96 0 -164 -46.5t-68 -140.5 q0 -74 58.5 -123t141.5 -80.5t165 -65.5t140.5 -98.5t58.5 -158.5q0 -123 -92.5 -200t-235.5 -77q-217 0 -354 131z" />
<glyph unicode="t" horiz-adv-x="643" d="M78 940v78h135v291h86v-291h268v-78h-268v-563q0 -94 25.5 -159.5t66.5 -95.5t77 -40t75 -10l47 4v-80q-20 -4 -51 -4q-39 0 -76 6t-84 29.5t-82 62.5t-59.5 111.5t-24.5 169.5v569h-135z" />
<glyph unicode="u" horiz-adv-x="1189" d="M166 375v649h86v-618q0 -61 4 -105.5t18.5 -92.5t41 -79t74.5 -50.5t114 -19.5q184 0 302 138.5t118 326.5v500h86v-1024h-86v180l8 84h-4q-35 -98 -147.5 -193.5t-276.5 -95.5q-182 0 -260 98.5t-78 301.5z" />
<glyph unicode="v" horiz-adv-x="960" d="M37 1024h92l315 -803l35 -110h4q16 61 35 110l316 803h90l-402 -1024h-82z" />
<glyph unicode="w" horiz-adv-x="1632" d="M43 1024h92l279 -803l35 -110h4q18 61 34 110l281 799h96l281 -799l35 -110h4q16 59 35 110l278 803h92l-360 -1024h-92l-285 795l-35 110h-4q-16 -61 -35 -110l-282 -795h-93z" />
<glyph unicode="x" horiz-adv-x="974" d="M59 0l369 541l-330 483h105l248 -373l34 -57h4q18 31 35 57l248 373h105l-330 -483l368 -541h-106l-283 424l-37 59h-4q-16 -29 -36 -59l-283 -424h-107z" />
<glyph unicode="y" horiz-adv-x="1001" d="M16 -373l39 74q57 -49 127 -49q123 0 201 184l74 170l-424 1018h92l338 -817l37 -96h4q14 47 35 96l338 817h92l-527 -1264q-80 -190 -260 -190q-43 0 -85 14.5t-60 28.5z" />
<glyph unicode="z" horiz-adv-x="1026" d="M90 0v70l621 780l80 94v4q-37 -4 -105 -4h-569v80h790v-70l-622 -780l-82 -94v-4q39 4 106 4h621v-80h-840z" />
<glyph unicode="{" horiz-adv-x="665" d="M113 616v82q6 0 18 3.5t42 19.5t53.5 39.5t42 72t18.5 109.5v166q0 121 32.5 204t84 115.5t88 44t73.5 11.5h19v-80h-13q-27 0 -52 -8.5t-62 -35t-59.5 -91t-22.5 -158.5v-190q0 -55 -16.5 -102.5t-40 -75t-48 -48t-41.5 -26.5l-16 -9v-4q6 -2 17.5 -7t39 -25.5t49 -46 t39 -74.5t17.5 -107v-217q0 -94 22.5 -158.5t59.5 -91t62.5 -35t51.5 -8.5h13v-80q-6 -2 -19 -2q-27 0 -54.5 5.5t-70.5 28t-74.5 59t-55 111.5t-23.5 173v193q0 61 -18.5 109t-43 72t-50 39t-44.5 19z" />
<glyph unicode="|" horiz-adv-x="542" d="M227 -317v1925h88v-1925h-88z" />
<glyph unicode="}" horiz-adv-x="665" d="M82 -115h12q27 0 52.5 8.5t62.5 35t59.5 91t22.5 158.5v217q0 92 41 156.5t82 83.5l39 20v4q-6 2 -17.5 7.5t-39 27t-49 48t-39 74.5t-17.5 104v190q0 94 -22.5 158.5t-59.5 91t-62.5 35t-52.5 8.5h-12v80h18q37 0 74 -11.5t88 -44t84 -115.5t33 -204v-166 q0 -61 18.5 -109.5t43 -72t50 -38.5t44.5 -20l18 -4v-82q-6 0 -18.5 -3t-42 -19t-53 -40t-42 -72t-18.5 -109v-193q0 -98 -23.5 -173t-55.5 -111.5t-75 -59t-70.5 -28t-54.5 -5.5l-18 2v80z" />
<glyph unicode="~" horiz-adv-x="1212" d="M162 436q0 152 64.5 223.5t170.5 71.5q63 0 113.5 -23.5t82.5 -56.5t61.5 -65.5t71.5 -56t93 -23.5q63 0 100 43t45.5 85t8.5 89h82q0 -152 -64.5 -223.5t-171.5 -71.5q-63 0 -113.5 23.5t-82 56.5t-61.5 65.5t-71.5 56t-93.5 23.5q-63 0 -100 -43t-45 -85t-8 -89h-82z " />
<glyph unicode="&#xa1;" horiz-adv-x="534" d="M205 899v125h121v-125h-121zM223 -410v1076h88v-1076h-88z" />
<glyph unicode="&#xa2;" horiz-adv-x="1161" d="M133 716.5q0 235.5 109.5 394.5t318.5 177v170h88v-170q250 -23 379 -291l-84 -32q-113 238 -334 237q-195 0 -290 -135t-95 -350t95.5 -350.5t289.5 -135.5q221 0 334 238l84 -33q-131 -270 -379 -291v-172h-88v172q-209 18 -318.5 177t-109.5 394.5z" />
<glyph unicode="&#xa3;" horiz-adv-x="1198" d="M123 0v82h133v600h-92v82h92v332q0 154 114.5 258t288.5 104q82 0 157 -26.5t110 -51.5l35 -26l-60 -68q-12 10 -32.5 24.5t-84 38t-127.5 23.5q-147 0 -230 -82t-83 -203v-323h406v-82h-406v-600h719v-82h-940z" />
<glyph unicode="&#xa5;" horiz-adv-x="1224" d="M82 1434h100l340 -566l88 -161h4q45 92 88 161l340 566h101l-379 -631h221v-82h-270l-58 -98v-86h328v-82h-328v-455h-88v455h-333v82h333v86l-59 98h-274v82h225z" />
<glyph unicode="&#xa7;" horiz-adv-x="798" d="M129 -59l53 65q59 -49 140 -49q98 0 163.5 63.5t65.5 167.5q0 29 -2 43l-133 973h86l137 -971q4 -37 4 -51q0 -133 -92 -221t-232 -88q-49 0 -96 16.5t-71 32.5zM150 1149q0 133 91 221t232 88q49 0 96 -16.5t70 -32.5l25 -18l-54 -66q-59 49 -139 49q-98 0 -164.5 -63.5 t-66.5 -167.5q0 -14 4 -43l133 -973h-86l-137 971q-4 33 -4 51z" />
<glyph unicode="&#xa8;" horiz-adv-x="1042" d="M334 1614v149h94v-149h-94zM614 1614v149h95v-149h-95z" />
<glyph unicode="&#xa9;" horiz-adv-x="1716" d="M133 717q0 309 211 525t510 216q305 0 517 -216t212 -525q0 -311 -212 -526.5t-517 -215.5q-301 0 -511 215.5t-210 526.5zM225 717q0 -279 181.5 -467.5t447.5 -188.5q270 0 453.5 188.5t183.5 467.5q0 276 -183.5 465.5t-453.5 189.5q-266 0 -447.5 -189.5 t-181.5 -465.5zM438 715q0 174 117 303t324 129q59 0 115.5 -18.5t94 -45t67.5 -53t44 -45.5l12 -18l-67 -60q-10 16 -31.5 42t-90.5 68t-142 42q-166 0 -258.5 -101.5t-92.5 -240.5t92.5 -240.5t258.5 -101.5q76 0 141 38t94 74l29 39l67 -59q-4 -8 -14 -19.5t-43 -43 t-68.5 -55t-92 -43t-115.5 -19.5q-207 0 -324 127t-117 301z" />
<glyph unicode="&#xaa;" horiz-adv-x="876" d="M178 539v75h518v-75h-518zM184 973q0 227 398 227h28v8q0 170 -155 170q-98 0 -176 -59l-46 61q86 74 224 74q233 0 233 -246v-413h-80v104h-4q-6 -12 -20.5 -31.5t-64.5 -52.5t-109 -33q-92 0 -160 49.5t-68 141.5zM268 981q0 -51 38 -87t108 -36q88 0 142 77t54 171v20 h-26q-316 0 -316 -145z" />
<glyph unicode="&#xab;" horiz-adv-x="1005" d="M111 578l335 421h109l-336 -421l336 -420h-109zM438 578l336 421h109l-336 -421l336 -420h-109z" />
<glyph unicode="&#xac;" horiz-adv-x="1300" d="M184 702v82h934v-448h-86v366h-848z" />
<glyph unicode="&#xad;" horiz-adv-x="884" d="M160 539v82h565v-82h-565z" />
<glyph unicode="&#xae;" horiz-adv-x="1716" d="M133 717q0 309 211 525t510 216q305 0 517 -216t212 -525q0 -311 -212 -526.5t-517 -215.5q-301 0 -511 215.5t-210 526.5zM225 717q0 -279 181.5 -467.5t447.5 -188.5q270 0 453.5 188.5t183.5 467.5q0 276 -183.5 465.5t-453.5 189.5q-266 0 -447.5 -189.5 t-181.5 -465.5zM616 307v819h273q104 0 170.5 -65.5t66.5 -171.5q0 -86 -45 -144.5t-112 -74.5v-4q8 -10 26 -45l162 -314h-100l-174 342h-176v-342h-91zM707 727h172q72 0 113.5 43t41.5 119q0 74 -42 114.5t-113 40.5h-172v-317z" />
<glyph unicode="&#xaf;" horiz-adv-x="1042" d="M276 1610v82h490v-82h-490z" />
<glyph unicode="&#xb0;" horiz-adv-x="759" d="M113 1185.5q0 110.5 77.5 189.5t188 79t189.5 -79t79 -189.5t-79 -188t-189.5 -77.5t-188 77.5t-77.5 188zM201 1186q0 -78 51 -131.5t127 -53.5t128 53.5t52 131.5t-52 132t-128 54t-127 -54t-51 -132z" />
<glyph unicode="&#xb1;" horiz-adv-x="1404" d="M174 539v82h485v538h89v-538h483v-82h-483v-539h-89v539h-485zM215 -231h975v-82h-975v82z" />
<glyph unicode="&#xb2;" horiz-adv-x="770" d="M109 922q0 92 47 164.5t113.5 119.5t132 90t112.5 100.5t47 127.5q0 74 -52 126t-134 52q-109 0 -189 -98l-4 -5l-49 54q10 14 28.5 34.5t81 54.5t132.5 34q127 0 196.5 -73t69.5 -179q0 -84 -46 -150.5t-111.5 -111.5t-132 -87t-114 -101.5t-49.5 -133.5h469v-74h-544 q-4 38 -4 56z" />
<glyph unicode="&#xb3;" horiz-adv-x="770" d="M94 979l58 53q8 -12 24.5 -30.5t74.5 -50t128 -31.5q80 0 145.5 60t65.5 146q0 88 -66.5 142.5t-152.5 54.5h-66l-22 49l221 260l51 51v5q-37 -6 -78 -7h-336v74h523v-53l-263 -307q104 -8 186.5 -71.5t82.5 -197.5q0 -117 -87 -198.5t-206 -81.5q-172 0 -273 121z" />
<glyph unicode="&#xb4;" horiz-adv-x="1042" d="M395 1536l137 227h115l-162 -227h-90z" />
<glyph unicode="&#xb5;" horiz-adv-x="1224" d="M190 -410v1434h86v-618q0 -61 4.5 -105.5t18.5 -92.5t41 -79t75 -50.5t113 -19.5q184 0 302 138.5t118 326.5v500h86v-1024h-86v170l4 84h-4q-4 -12 -13 -30.5t-44 -66.5t-79 -85t-120 -67t-164 -30q-180 0 -254 97l-6 8h-4q12 -104 12 -148v-342h-86z" />
<glyph unicode="&#x3bc;" horiz-adv-x="1224" d="M190 -410v1434h86v-618q0 -61 4.5 -105.5t18.5 -92.5t41 -79t75 -50.5t113 -19.5q184 0 302 138.5t118 326.5v500h86v-1024h-86v170l4 84h-4q-4 -12 -13 -30.5t-44 -66.5t-79 -85t-120 -67t-164 -30q-180 0 -254 97l-6 8h-4q12 -104 12 -148v-342h-86z" />
<glyph unicode="&#xb6;" horiz-adv-x="1128" d="M111 964.5q0 196.5 144 333t345 136.5h430v-82h-342v-1454h-86v596q-201 0 -346 137t-145 333.5zM815 -102v1325h86v-1325h-86z" />
<glyph unicode="&#xb7;" horiz-adv-x="559" d="M217 522v129h125v-129h-125z" />
<glyph unicode="&#xb8;" horiz-adv-x="1042" d="M383 -332q37 -10 84 -10q111 0 111 76q0 78 -125 78l-25 -2l49 227l66 -10v-17l-25 -133q63 -10 102 -47t39 -92q0 -80 -53 -118t-133 -38l-90 8v78z" />
<glyph unicode="&#xb9;" horiz-adv-x="770" d="M158 866v74h196v666l2 45h-2q-8 -16 -47 -56l-90 -88l-53 56l190 192h78v-815h191v-74h-465z" />
<glyph unicode="&#xba;" horiz-adv-x="974" d="M152 1124q0 139 97 235.5t236.5 96.5t236.5 -96t97 -236q0 -143 -97 -241.5t-236.5 -98.5t-236.5 98.5t-97 241.5zM188 539v75h603v-75h-603zM231 1124q0 -113 74 -188.5t180.5 -75.5t180 76t73.5 188q0 111 -73.5 183.5t-180 72.5t-180.5 -72.5t-74 -183.5z" />
<glyph unicode="&#xbb;" horiz-adv-x="1005" d="M123 158l336 420l-336 421h108l336 -421l-336 -420h-108zM451 158l335 420l-335 421h108l336 -421l-336 -420h-108z" />
<glyph unicode="&#xbc;" horiz-adv-x="1988" d="M272 545v73h197v666l2 45h-2q-8 -16 -47 -55l-90 -88l-53 55l190 193h78v-816h190v-73h-465zM657 0l689 1434h88l-686 -1434h-91zM1262 248v53l454 588h64v-567h139v-74h-139v-248h-78v248h-440zM1374 322h328v301l6 133h-4q-35 -55 -72 -103l-258 -327v-4z" />
<glyph unicode="&#xbd;" horiz-adv-x="1882" d="M131 545v73h197v666l2 45h-2q-8 -16 -47 -55l-91 -88l-53 55l191 193h78v-816h190v-73h-465zM516 0l688 1434h88l-686 -1434h-90zM1178 55q0 92 47 165t113.5 120t132 90t112.5 100.5t47 126.5q0 74 -52 126.5t-134 52.5q-109 0 -189 -99l-4 -4l-49 53q10 14 28.5 35 t81 54.5t132.5 33.5q127 0 196.5 -72.5t69.5 -179.5q0 -84 -46 -150.5t-111.5 -111.5t-132 -87t-113.5 -101.5t-50 -132.5h469v-74h-544q-4 37 -4 55z" />
<glyph unicode="&#xbe;" horiz-adv-x="1955" d="M109 657l57 54q8 -12 24.5 -30.5t75 -50.5t127.5 -32q80 0 145.5 60.5t65.5 146.5q0 88 -66.5 142t-152.5 54h-66l-22 50l221 260l51 51v4q-37 -6 -77 -6h-336v74h522v-54l-262 -307q104 -8 186 -71.5t82 -196.5q0 -117 -87 -199t-206 -82q-172 0 -272 121zM565 0 l688 1434h88l-686 -1434h-90zM1169 248v53l455 588h64v-567h139v-74h-139v-248h-78v248h-441zM1282 322h328v301l6 133h-4q-35 -55 -72 -103l-258 -327v-4z" />
<glyph unicode="&#xbf;" horiz-adv-x="878" d="M98 -78q0 80 28 146.5t69 109.5t89 90t89 86t68.5 98.5t27.5 127.5v86h88v-86q0 -92 -38 -168t-92 -127.5t-107.5 -101.5t-91.5 -116.5t-38 -146.5q0 -113 84 -188.5t215 -75.5q145 2 261 86l47 -70q-14 -12 -39 -28.5t-105 -45t-161 -28.5q-174 0 -284 100t-110 252z M453 899v125h120v-125h-120z" />
<glyph unicode="&#xc0;" horiz-adv-x="1241" d="M37 0l536 1434h95l536 -1434h-94l-186 496h-609l-184 -496h-94zM346 578h547l-217 581l-53 172h-5q-31 -111 -53 -172zM414 1763h114l138 -227h-91z" />
<glyph unicode="&#xc1;" horiz-adv-x="1241" d="M37 0l536 1434h95l536 -1434h-94l-186 496h-609l-184 -496h-94zM346 578h547l-217 581l-53 172h-5q-31 -111 -53 -172zM573 1536l138 227h114l-161 -227h-91z" />
<glyph unicode="&#xc2;" horiz-adv-x="1241" d="M37 0l536 1434h95l536 -1434h-94l-186 496h-609l-184 -496h-94zM346 578h547l-217 581l-53 172h-5q-31 -111 -53 -172zM403 1536l164 227h107l164 -227h-101l-114 164h-5l-114 -164h-101z" />
<glyph unicode="&#xc3;" horiz-adv-x="1241" d="M37 0l536 1434h95l536 -1434h-94l-186 496h-609l-184 -496h-94zM326 1542q0 221 170 221q47 0 84.5 -23.5t59.5 -52t52.5 -52t61.5 -23.5q82 0 82 145h82q0 -221 -170 -221q-47 0 -85 23.5t-59.5 52t-52.5 52.5t-62 24q-82 0 -81 -146h-82zM346 578h547l-217 581l-53 172 h-5q-31 -111 -53 -172z" />
<glyph unicode="&#xc4;" horiz-adv-x="1241" d="M37 0l536 1434h95l536 -1434h-94l-186 496h-609l-184 -496h-94zM346 578h547l-217 581l-53 172h-5q-31 -111 -53 -172zM434 1614v149h94v-149h-94zM715 1614v149h94v-149h-94z" />
<glyph unicode="&#xc5;" horiz-adv-x="1241" d="M37 0l536 1434h95l536 -1434h-94l-186 496h-609l-184 -496h-94zM346 578h547l-217 581l-53 172h-5q-31 -111 -53 -172zM483 1652.5q0 59.5 39 98.5t98.5 39t98.5 -39t39 -98.5t-39 -98t-98.5 -38.5t-98.5 38.5t-39 98zM555 1653q0 -29 18.5 -47.5t47 -18.5t47 18.5 t18.5 47.5q0 31 -18.5 49t-47 18t-47 -18t-18.5 -49z" />
<glyph unicode="&#xc6;" horiz-adv-x="1703" d="M33 0l588 1434h919v-82h-696v-588h571v-82h-571v-600h735v-82h-823v682h-350l-279 -682h-94zM440 764h316v588h-74z" />
<glyph unicode="&#xc7;" horiz-adv-x="1505" d="M127 727q0 311 204 521t507 210q94 0 182 -18.5t145.5 -45t101.5 -53t64 -45.5l19 -18l-54 -66q-6 6 -19 17.5t-58 39t-94.5 49t-127 39t-157.5 17.5q-264 0 -442.5 -185t-178.5 -462q0 -281 179.5 -474.5t447.5 -193.5q86 0 168 20.5t136 48.5t97 56.5t64 48.5l20 21 l55 -61l-22 -23q-14 -14 -65.5 -51t-107.5 -65.5t-146.5 -52.5t-184.5 -26l-18 -98q63 -10 102 -47t39 -92q0 -80 -53 -118t-133 -38l-90 8v78q37 -10 84 -10q111 0 110 76q0 78 -125 78l-24 -2l34 167q-289 20 -474 234.5t-185 515.5z" />
>>>>>>> 292d2bc0c0dbb686a83fce6e39d211f2a7c77ef2
<glyph unicode="&#xc8;" horiz-adv-x="1169" d="M221 0v1434h785v-82h-697v-588h572v-82h-572v-600h735v-82h-823zM432 1763h115l137 -227h-90z" />
<glyph unicode="&#xc9;" horiz-adv-x="1169" d="M221 0v1434h785v-82h-697v-588h572v-82h-572v-600h735v-82h-823zM592 1536l137 227h115l-162 -227h-90z" />
<glyph unicode="&#xca;" horiz-adv-x="1169" d="M221 0v1434h785v-82h-697v-588h572v-82h-572v-600h735v-82h-823zM422 1536l164 227h106l164 -227h-100l-115 164h-4l-115 -164h-100z" />
<glyph unicode="&#xcb;" horiz-adv-x="1169" d="M221 0v1434h785v-82h-697v-588h572v-82h-572v-600h735v-82h-823zM453 1614v149h94v-149h-94zM733 1614v149h94v-149h-94z" />
<glyph unicode="&#xcc;" horiz-adv-x="530" d="M59 1763h115l137 -227h-90zM221 0v1434h88v-1434h-88z" />
<glyph unicode="&#xcd;" horiz-adv-x="530" d="M219 1536l137 227h115l-162 -227h-90zM221 0v1434h88v-1434h-88z" />
<glyph unicode="&#xce;" horiz-adv-x="530" d="M49 1536l164 227h106l164 -227h-100l-115 164h-4l-114 -164h-101zM221 0v1434h88v-1434h-88z" />
<glyph unicode="&#xcf;" horiz-adv-x="530" d="M80 1614v149h94v-149h-94zM221 0v1434h88v-1434h-88zM360 1614v149h95v-149h-95z" />
<<<<<<< HEAD
<glyph unicode="&#xd0;" horiz-adv-x="1542" d="M123 682v82h123v670h450q325 0 520 -190.5t195 -526.5q0 -337 -195 -527t-520 -190h-450v682h-123zM334 82h348q292 0 464.5 166t172.5 469q0 302 -173 468.5t-464 166.5h-348v-588h375v-82h-375v-600z" />
<glyph unicode="&#xd1;" horiz-adv-x="1540" d="M221 0v1434h82l817 -1125q21 -29 50 -74t48 -75l19 -31h4q-10 108 -10 180v1125h88v-1434h-82l-817 1124q-21 29 -50 74.5t-48 75.5l-19 31h-4q10 -109 10 -181v-1124h-88zM475 1542q0 221 170 221q38 0 69.5 -15.5t53.5 -37.5t41.5 -44.5t43.5 -38t50 -15.5 q25 0 43 15.5t25.5 40.5t10.5 46t3 43h82q0 -221 -170 -221q-38 0 -69.5 15.5t-53.5 38t-41.5 45t-43.5 38t-50 15.5q-33 0 -53 -28.5t-24.5 -57.5t-4.5 -60h-82z" />
<glyph unicode="&#xd2;" horiz-adv-x="1691" d="M121 727q0 152 57.5 288t155 232.5t231.5 153.5t281 57t281 -57t231.5 -153.5t155 -232.5t57.5 -288q0 -155 -57.5 -295t-155 -240t-231.5 -158.5t-281 -58.5t-281 58.5t-231.5 158.5t-155 240t-57.5 295zM213 727q0 -185 85 -339t230 -241.5t318 -87.5t318 87.5 t230 241.5t85 339q0 180 -85 329t-230 233.5t-318 84.5t-318 -84.5t-230 -233.5t-85 -329zM639 1763h115l137 -227h-90z" />
<glyph unicode="&#xd3;" horiz-adv-x="1691" d="M121 727q0 152 57.5 288t155 232.5t231.5 153.5t281 57t281 -57t231.5 -153.5t155 -232.5t57.5 -288q0 -155 -57.5 -295t-155 -240t-231.5 -158.5t-281 -58.5t-281 58.5t-231.5 158.5t-155 240t-57.5 295zM213 727q0 -185 85 -339t230 -241.5t318 -87.5t318 87.5 t230 241.5t85 339q0 180 -85 329t-230 233.5t-318 84.5t-318 -84.5t-230 -233.5t-85 -329zM799 1536l137 227h115l-162 -227h-90z" />
<glyph unicode="&#xd4;" horiz-adv-x="1691" d="M121 727q0 152 57.5 288t155 232.5t231.5 153.5t281 57t281 -57t231.5 -153.5t155 -232.5t57.5 -288q0 -155 -57.5 -295t-155 -240t-231.5 -158.5t-281 -58.5t-281 58.5t-231.5 158.5t-155 240t-57.5 295zM213 727q0 -185 85 -339t230 -241.5t318 -87.5t318 87.5 t230 241.5t85 339q0 180 -85 329t-230 233.5t-318 84.5t-318 -84.5t-230 -233.5t-85 -329zM629 1536l164 227h106l164 -227h-100l-115 164h-4l-115 -164h-100z" />
<glyph unicode="&#xd5;" horiz-adv-x="1691" d="M121 727q0 152 57.5 288t155 232.5t231.5 153.5t281 57t281 -57t231.5 -153.5t155 -232.5t57.5 -288q0 -155 -57.5 -295t-155 -240t-231.5 -158.5t-281 -58.5t-281 58.5t-231.5 158.5t-155 240t-57.5 295zM213 727q0 -185 85 -339t230 -241.5t318 -87.5t318 87.5 t230 241.5t85 339q0 180 -85 329t-230 233.5t-318 84.5t-318 -84.5t-230 -233.5t-85 -329zM551 1542q0 221 170 221q38 0 69.5 -15.5t53.5 -37.5t41.5 -44.5t43.5 -38t50 -15.5q25 0 43 15.5t25.5 40.5t10.5 46t3 43h82q0 -221 -170 -221q-38 0 -69.5 15.5t-53.5 38 t-41.5 45t-43.5 38t-50 15.5q-33 0 -53 -28.5t-24.5 -57.5t-4.5 -60h-82z" />
<glyph unicode="&#xd6;" horiz-adv-x="1691" d="M121 727q0 152 57.5 288t155 232.5t231.5 153.5t281 57t281 -57t231.5 -153.5t155 -232.5t57.5 -288q0 -155 -57.5 -295t-155 -240t-231.5 -158.5t-281 -58.5t-281 58.5t-231.5 158.5t-155 240t-57.5 295zM213 727q0 -185 85 -339t230 -241.5t318 -87.5t318 87.5 t230 241.5t85 339q0 180 -85 329t-230 233.5t-318 84.5t-318 -84.5t-230 -233.5t-85 -329zM659 1614v149h95v-149h-95zM940 1614v149h94v-149h-94z" />
<glyph unicode="&#xd7;" horiz-adv-x="1347" d="M160 57l458 523l-458 522l57 57l457 -518l456 518l58 -57l-461 -522l461 -523l-58 -57l-456 518l-457 -518z" />
<glyph unicode="&#xd8;" horiz-adv-x="1701" d="M127 727q0 152 57.5 288t155 232.5t231.5 153.5t281 57q211 0 393 -117l101 142l69 -51l-100 -142q123 -102 192.5 -248.5t69.5 -314.5q0 -155 -57.5 -295t-155 -240t-231.5 -158.5t-281 -58.5q-213 0 -393 119l-101 -141l-71 49l102 143q-123 105 -192.5 256t-69.5 326z M219 727q0 -152 59 -284.5t162 -225.5l754 1055q-151 102 -342 102q-173 0 -318 -84.5t-230 -233.5t-85 -329zM508 164q151 -105 344 -105q173 0 318 87.5t230 241.5t85 339q0 148 -59 276t-162 218z" />
<glyph unicode="&#xd9;" horiz-adv-x="1472" d="M201 492v942h88v-938q0 -202 121 -319.5t325 -117.5t326.5 118.5t122.5 322.5v934h88v-942q0 -234 -148.5 -375.5t-386.5 -141.5t-387 141.5t-149 375.5zM528 1763h115l137 -227h-90z" />
<glyph unicode="&#xda;" horiz-adv-x="1472" d="M201 492v942h88v-938q0 -202 121 -319.5t325 -117.5t326.5 118.5t122.5 322.5v934h88v-942q0 -234 -148.5 -375.5t-386.5 -141.5t-387 141.5t-149 375.5zM688 1536l137 227h115l-162 -227h-90z" />
<glyph unicode="&#xdb;" horiz-adv-x="1472" d="M201 492v942h88v-938q0 -202 121 -319.5t325 -117.5t326.5 118.5t122.5 322.5v934h88v-942q0 -234 -148.5 -375.5t-386.5 -141.5t-387 141.5t-149 375.5zM518 1536l164 227h106l164 -227h-100l-115 164h-4l-115 -164h-100z" />
<glyph unicode="&#xdc;" horiz-adv-x="1472" d="M201 492v942h88v-938q0 -202 121 -319.5t325 -117.5t326.5 118.5t122.5 322.5v934h88v-942q0 -234 -148.5 -375.5t-386.5 -141.5t-387 141.5t-149 375.5zM549 1614v149h94v-149h-94zM829 1614v149h95v-149h-95z" />
<glyph unicode="&#xdd;" horiz-adv-x="1138" d="M39 1434h100l340 -566l88 -161h4q45 91 88 161l340 566h101l-486 -811v-623h-88v623zM522 1536l137 227h115l-162 -227h-90z" />
<glyph unicode="&#xde;" horiz-adv-x="1216" d="M221 0v1434h88v-267h383q191 0 313.5 -113t122.5 -304q0 -192 -123 -307t-317 -115h-379v-328h-88zM309 410h379q159 0 253.5 90.5t94.5 249.5t-94.5 247t-253.5 88h-379v-675z" />
<glyph unicode="&#xdf;" horiz-adv-x="1153" d="M180 0v1090q0 70 22 130t59 103.5t86.5 74t104.5 45.5t113 15q152 0 241 -84.5t89 -197.5q0 -62 -25.5 -116t-62 -91.5t-73 -71.5t-62 -70.5t-25.5 -72.5q0 -30 24 -60.5t62 -57.5t84 -56t92 -62.5t84 -70t62 -84.5t24 -101q0 -132 -92 -204t-223 -72q-56 0 -109 7.5 t-88.5 17.5t-63.5 20.5t-41 18.5l-13 7v95q5 -3 15 -8.5t42.5 -20t67 -25t87 -19.5t105.5 -9q95 0 159 49t64 143q0 60 -44.5 112.5t-108 93t-127 80.5t-108 91.5t-44.5 110.5q0 51 25.5 97t62 82t73 71.5t62 81t25.5 94.5q0 77 -64.5 137.5t-179.5 60.5q-117 0 -206 -79.5 t-89 -211.5v-1083h-86z" />
<glyph unicode="&#xe0;" d="M96 272q0 56 16.5 103.5t42 81.5t66 61t79.5 44.5t92 30t93 18.5t93 9.5t82.5 4t70.5 0.5h68v34q0 306 -281 306q-50 0 -98.5 -10t-82 -24.5t-60 -29.5t-39.5 -25l-13 -10l-49 70q5 5 14.5 12.5t43 27t70.5 34.5t96.5 27t121.5 12q178 0 270.5 -98t92.5 -289v-662h-86 v135q0 24 2 47t4 34l2 11h-4q2 0 -10 -26t-39.5 -63t-67 -74t-104 -63t-138.5 -26q-64 0 -124.5 18t-111.5 53t-81.5 93.5t-30.5 132.5zM186 279q0 -89 70 -156.5t193 -67.5q80 0 148 39t111 102t67 139.5t24 153.5v56h-66q-41 0 -65.5 -0.5t-73 -2.5t-81 -6.5t-79.5 -14 t-78 -22t-66 -33t-55.5 -46.5t-34.5 -62t-14 -79zM315 1434h115l137 -228h-90z" />
<glyph unicode="&#xe1;" d="M96 272q0 56 16.5 103.5t42 81.5t66 61t79.5 44.5t92 30t93 18.5t93 9.5t82.5 4t70.5 0.5h68v34q0 306 -281 306q-50 0 -98.5 -10t-82 -24.5t-60 -29.5t-39.5 -25l-13 -10l-49 70q5 5 14.5 12.5t43 27t70.5 34.5t96.5 27t121.5 12q178 0 270.5 -98t92.5 -289v-662h-86 v135q0 24 2 47t4 34l2 11h-4q2 0 -10 -26t-39.5 -63t-67 -74t-104 -63t-138.5 -26q-64 0 -124.5 18t-111.5 53t-81.5 93.5t-30.5 132.5zM186 279q0 -89 70 -156.5t193 -67.5q80 0 148 39t111 102t67 139.5t24 153.5v56h-66q-41 0 -65.5 -0.5t-73 -2.5t-81 -6.5t-79.5 -14 t-78 -22t-66 -33t-55.5 -46.5t-34.5 -62t-14 -79zM473 1206l137 228h115l-162 -228h-90z" />
<glyph unicode="&#xe2;" d="M96 272q0 56 16.5 103.5t42 81.5t66 61t79.5 44.5t92 30t93 18.5t93 9.5t82.5 4t70.5 0.5h68v34q0 306 -281 306q-50 0 -98.5 -10t-82 -24.5t-60 -29.5t-39.5 -25l-13 -10l-49 70q5 5 14.5 12.5t43 27t70.5 34.5t96.5 27t121.5 12q178 0 270.5 -98t92.5 -289v-662h-86 v135q0 24 2 47t4 34l2 11h-4q2 0 -10 -26t-39.5 -63t-67 -74t-104 -63t-138.5 -26q-64 0 -124.5 18t-111.5 53t-81.5 93.5t-30.5 132.5zM186 279q0 -89 70 -156.5t193 -67.5q80 0 148 39t111 102t67 139.5t24 153.5v56h-66q-41 0 -65.5 -0.5t-73 -2.5t-81 -6.5t-79.5 -14 t-78 -22t-66 -33t-55.5 -46.5t-34.5 -62t-14 -79zM305 1206l164 228h106l164 -228h-100l-115 164h-4l-114 -164h-101z" />
<glyph unicode="&#xe3;" d="M96 272q0 56 16.5 103.5t42 81.5t66 61t79.5 44.5t92 30t93 18.5t93 9.5t82.5 4t70.5 0.5h68v34q0 306 -281 306q-50 0 -98.5 -10t-82 -24.5t-60 -29.5t-39.5 -25l-13 -10l-49 70q5 5 14.5 12.5t43 27t70.5 34.5t96.5 27t121.5 12q178 0 270.5 -98t92.5 -289v-662h-86 v135q0 24 2 47t4 34l2 11h-4q2 0 -10 -26t-39.5 -63t-67 -74t-104 -63t-138.5 -26q-64 0 -124.5 18t-111.5 53t-81.5 93.5t-30.5 132.5zM186 279q0 -89 70 -156.5t193 -67.5q80 0 148 39t111 102t67 139.5t24 153.5v56h-66q-41 0 -65.5 -0.5t-73 -2.5t-81 -6.5t-79.5 -14 t-78 -22t-66 -33t-55.5 -46.5t-34.5 -62t-14 -79zM227 1212q0 222 170 222q38 0 69.5 -15.5t53.5 -38t41.5 -45t43.5 -38t50 -15.5q25 0 43 15.5t25.5 40.5t10.5 46t3 43h82q0 -221 -170 -221q-38 0 -69.5 15.5t-53.5 38t-41.5 45t-43.5 38t-50 15.5q-33 0 -53 -28.5 t-24.5 -57.5t-4.5 -60h-82z" />
<glyph unicode="&#xe4;" d="M96 272q0 56 16.5 103.5t42 81.5t66 61t79.5 44.5t92 30t93 18.5t93 9.5t82.5 4t70.5 0.5h68v34q0 306 -281 306q-50 0 -98.5 -10t-82 -24.5t-60 -29.5t-39.5 -25l-13 -10l-49 70q5 5 14.5 12.5t43 27t70.5 34.5t96.5 27t121.5 12q178 0 270.5 -98t92.5 -289v-662h-86 v135q0 24 2 47t4 34l2 11h-4q2 0 -10 -26t-39.5 -63t-67 -74t-104 -63t-138.5 -26q-64 0 -124.5 18t-111.5 53t-81.5 93.5t-30.5 132.5zM186 279q0 -89 70 -156.5t193 -67.5q80 0 148 39t111 102t67 139.5t24 153.5v56h-66q-41 0 -65.5 -0.5t-73 -2.5t-81 -6.5t-79.5 -14 t-78 -22t-66 -33t-55.5 -46.5t-34.5 -62t-14 -79zM336 1284v150h94v-150h-94zM616 1284v150h95v-150h-95z" />
<glyph unicode="&#xe5;" d="M96 272q0 56 16.5 103.5t42 81.5t66 61t79.5 44.5t92 30t93 18.5t93 9.5t82.5 4t70.5 0.5h68v34q0 306 -281 306q-50 0 -98.5 -10t-82 -24.5t-60 -29.5t-39.5 -25l-13 -10l-49 70q5 5 14.5 12.5t43 27t70.5 34.5t96.5 27t121.5 12q178 0 270.5 -98t92.5 -289v-662h-86 v135q0 24 2 47t4 34l2 11h-4q2 0 -10 -26t-39.5 -63t-67 -74t-104 -63t-138.5 -26q-64 0 -124.5 18t-111.5 53t-81.5 93.5t-30.5 132.5zM186 279q0 -89 70 -156.5t193 -67.5q80 0 148 39t111 102t67 139.5t24 153.5v56h-66q-41 0 -65.5 -0.5t-73 -2.5t-81 -6.5t-79.5 -14 t-78 -22t-66 -33t-55.5 -46.5t-34.5 -62t-14 -79zM385 1323q0 59 39.5 98t97.5 39t97.5 -39t39.5 -98t-39.5 -98t-97.5 -39t-97.5 39t-39.5 98zM457 1323q0 -29 18 -47.5t47 -18.5t47.5 18.5t18.5 47.5q0 31 -18.5 49.5t-47.5 18.5t-47 -18.5t-18 -49.5z" />
<glyph unicode="&#xe6;" horiz-adv-x="1798" d="M98 272q0 55 14 100.5t35.5 78.5t57.5 59t70 43t84 29t88.5 18t94 9.5t89.5 4t86 0.5h82v45q0 306 -289 306q-48 0 -95 -10t-80 -24.5t-59 -29.5t-38 -25l-13 -10l-49 70q5 5 14.5 12.5t42 27t69 34.5t94 27t118.5 12q293 0 352 -240h4q62 118 167.5 179t238.5 61 q99 0 179 -36.5t130.5 -100t77.5 -145.5t27 -175l-4 -57h-801q0 -224 116.5 -350t301.5 -126q55 0 108 13.5t89 32.5t64.5 37.5t41.5 31.5l14 14l47 -71q-6 -6 -17 -15.5t-47.5 -34t-76 -43t-100.5 -34t-123 -15.5q-160 0 -283 83.5t-178 230.5h-4q-5 -23 -17.5 -54.5 t-43.5 -79t-71.5 -86t-108 -66.5t-146.5 -28q-96 0 -174.5 32.5t-128.5 101t-50 163.5zM188 279q0 -92 70 -158t193 -66q80 0 147.5 39t110.5 102t66.5 139.5t23.5 153.5v46h-142q-49 0 -86 -1.5t-88.5 -7t-89.5 -16t-79 -29.5t-66.5 -45.5t-42.5 -66.5t-17 -90zM893 614 h706q-4 90 -32.5 160t-75 111t-102.5 61.5t-119 20.5q-146 0 -249 -91t-128 -262z" />
<glyph unicode="&#xe7;" horiz-adv-x="1130" d="M111 510q0 119 42.5 221t114.5 171t168.5 108t202.5 39q68 0 131 -15t104 -36.5t72.5 -43t45.5 -36.5l14 -15l-54 -69l-14 14t-39.5 31.5t-64.5 40t-87 31.5t-108 14q-185 0 -311.5 -126.5t-126.5 -328.5q0 -200 127 -325.5t311 -125.5q63 0 121.5 15t97 37t67.5 44 t43 37l13 15l45 -72q-5 -6 -15.5 -16.5t-46.5 -38t-76 -48.5t-105 -38.5t-134 -18.5l-18 -98q64 -9 102.5 -46.5t38.5 -92.5q0 -79 -53 -117.5t-133 -38.5q-24 0 -46.5 2t-33.5 4l-10 2v78q37 -10 84 -10q110 0 110 76q0 36 -33 57t-92 21l-24 -2l37 170 q-202 21 -334.5 164.5t-132.5 365.5z" />
<glyph unicode="&#xe8;" horiz-adv-x="1132" d="M109 510q0 126 40.5 229.5t109.5 170.5t158.5 103t188.5 36q101 0 182.5 -38t132 -103t77 -148t26.5 -178l-4 -56h-821q0 -215 126 -341t312 -126q55 0 108 13.5t89 32.5t64.5 37.5t41.5 31.5l14 14l47 -71q-6 -6 -17 -15.5t-47.5 -34t-76 -43t-100.5 -34t-123 -15.5 q-145 0 -264.5 65t-191.5 188t-72 282zM205 606h729q-7 178 -100 270.5t-230 92.5q-148 0 -260 -95t-139 -268zM406 1434h114l137 -228h-90z" />
<glyph unicode="&#xe9;" horiz-adv-x="1132" d="M109 510q0 126 40.5 229.5t109.5 170.5t158.5 103t188.5 36q101 0 182.5 -38t132 -103t77 -148t26.5 -178l-4 -56h-821q0 -215 126 -341t312 -126q55 0 108 13.5t89 32.5t64.5 37.5t41.5 31.5l14 14l47 -71q-6 -6 -17 -15.5t-47.5 -34t-76 -43t-100.5 -34t-123 -15.5 q-145 0 -264.5 65t-191.5 188t-72 282zM205 606h729q-7 178 -100 270.5t-230 92.5q-148 0 -260 -95t-139 -268zM563 1206l137 228h115l-162 -228h-90z" />
<glyph unicode="&#xea;" horiz-adv-x="1132" d="M109 510q0 126 40.5 229.5t109.5 170.5t158.5 103t188.5 36q101 0 182.5 -38t132 -103t77 -148t26.5 -178l-4 -56h-821q0 -215 126 -341t312 -126q55 0 108 13.5t89 32.5t64.5 37.5t41.5 31.5l14 14l47 -71q-6 -6 -17 -15.5t-47.5 -34t-76 -43t-100.5 -34t-123 -15.5 q-145 0 -264.5 65t-191.5 188t-72 282zM205 606h729q-7 178 -100 270.5t-230 92.5q-148 0 -260 -95t-139 -268zM393 1206l164 228h107l163 -228h-100l-115 164h-4l-114 -164h-101z" />
<glyph unicode="&#xeb;" horiz-adv-x="1132" d="M109 510q0 126 40.5 229.5t109.5 170.5t158.5 103t188.5 36q101 0 182.5 -38t132 -103t77 -148t26.5 -178l-4 -56h-821q0 -215 126 -341t312 -126q55 0 108 13.5t89 32.5t64.5 37.5t41.5 31.5l14 14l47 -71q-6 -6 -17 -15.5t-47.5 -34t-76 -43t-100.5 -34t-123 -15.5 q-145 0 -264.5 65t-191.5 188t-72 282zM205 606h729q-7 178 -100 270.5t-230 92.5q-148 0 -260 -95t-139 -268zM424 1284v150h94v-150h-94zM705 1284v150h94v-150h-94z" />
=======
<glyph unicode="&#xd0;" horiz-adv-x="1542" d="M123 682v82h123v670h450q324 0 519.5 -190.5t195.5 -526.5q0 -338 -194.5 -527.5t-520.5 -189.5h-450v682h-123zM334 82h348q291 0 464 166t173 469q0 301 -173 468t-464 167h-348v-588h375v-82h-375v-600z" />
<glyph unicode="&#xd1;" horiz-adv-x="1540" d="M221 0v1434h82l817 -1125q47 -66 117 -180h4q-10 109 -10 180v1125h88v-1434h-82l-817 1124q-47 66 -117 181h-4q10 -109 10 -181v-1124h-88zM475 1542q0 221 170 221q47 0 85 -23.5t59.5 -52t52 -52t61.5 -23.5q82 0 82 145h82q0 -221 -170 -221q-47 0 -85 23.5 t-59.5 52t-52 52.5t-61.5 24q-82 0 -82 -146h-82z" />
<glyph unicode="&#xd2;" horiz-adv-x="1691" d="M121 727q0 307 212 519t513 212t513 -212t212 -519q0 -315 -212 -533.5t-513 -218.5t-513 218.5t-212 533.5zM213 727q0 -281 184.5 -474.5t448.5 -193.5t448.5 193.5t184.5 474.5q0 274 -184.5 460.5t-448.5 186.5t-448.5 -186.5t-184.5 -460.5zM639 1763h115l137 -227 h-90z" />
<glyph unicode="&#xd3;" horiz-adv-x="1691" d="M121 727q0 307 212 519t513 212t513 -212t212 -519q0 -315 -212 -533.5t-513 -218.5t-513 218.5t-212 533.5zM213 727q0 -281 184.5 -474.5t448.5 -193.5t448.5 193.5t184.5 474.5q0 274 -184.5 460.5t-448.5 186.5t-448.5 -186.5t-184.5 -460.5zM799 1536l137 227h115 l-162 -227h-90z" />
<glyph unicode="&#xd4;" horiz-adv-x="1691" d="M121 727q0 307 212 519t513 212t513 -212t212 -519q0 -315 -212 -533.5t-513 -218.5t-513 218.5t-212 533.5zM213 727q0 -281 184.5 -474.5t448.5 -193.5t448.5 193.5t184.5 474.5q0 274 -184.5 460.5t-448.5 186.5t-448.5 -186.5t-184.5 -460.5zM629 1536l164 227h106 l164 -227h-100l-115 164h-4l-115 -164h-100z" />
<glyph unicode="&#xd5;" horiz-adv-x="1691" d="M121 727q0 307 212 519t513 212t513 -212t212 -519q0 -315 -212 -533.5t-513 -218.5t-513 218.5t-212 533.5zM213 727q0 -281 184.5 -474.5t448.5 -193.5t448.5 193.5t184.5 474.5q0 274 -184.5 460.5t-448.5 186.5t-448.5 -186.5t-184.5 -460.5zM551 1542q0 221 170 221 q47 0 85 -23.5t59.5 -52t52 -52t61.5 -23.5q82 0 82 145h82q0 -221 -170 -221q-47 0 -85 23.5t-59.5 52t-52.5 52.5t-61 24q-82 0 -82 -146h-82z" />
<glyph unicode="&#xd6;" horiz-adv-x="1691" d="M121 727q0 307 212 519t513 212t513 -212t212 -519q0 -315 -212 -533.5t-513 -218.5t-513 218.5t-212 533.5zM213 727q0 -281 184.5 -474.5t448.5 -193.5t448.5 193.5t184.5 474.5q0 274 -184.5 460.5t-448.5 186.5t-448.5 -186.5t-184.5 -460.5zM659 1614v149h95v-149 h-95zM940 1614v149h94v-149h-94z" />
<glyph unicode="&#xd7;" horiz-adv-x="1347" d="M160 57l458 523l-458 522l57 57l457 -518l456 518l58 -57l-461 -522l461 -523l-58 -57l-456 518l-457 -518z" />
<glyph unicode="&#xd8;" horiz-adv-x="1701" d="M127 727q0 307 212 519t513 212q211 0 393 -117l101 142l69 -51l-100 -142q123 -102 192.5 -248.5t69.5 -314.5q0 -315 -212 -533.5t-513 -218.5q-213 0 -393 119l-101 -141l-71 49l102 143q-123 104 -192.5 256t-69.5 326zM219 727q0 -311 221 -510l754 1055 q-154 102 -342 102q-264 0 -448.5 -186.5t-184.5 -460.5zM508 164q152 -104 344 -105q264 0 448.5 193.5t184.5 474.5q0 147 -58.5 275t-162.5 219z" />
<glyph unicode="&#xd9;" horiz-adv-x="1472" d="M201 492v942h88v-938q0 -201 120.5 -319t325.5 -118t327 118t122 323v934h88v-942q0 -236 -148.5 -376.5t-386.5 -140.5q-240 0 -388 142t-148 375zM528 1763h115l137 -227h-90z" />
<glyph unicode="&#xda;" horiz-adv-x="1472" d="M201 492v942h88v-938q0 -201 120.5 -319t325.5 -118t327 118t122 323v934h88v-942q0 -236 -148.5 -376.5t-386.5 -140.5q-240 0 -388 142t-148 375zM688 1536l137 227h115l-162 -227h-90z" />
<glyph unicode="&#xdb;" horiz-adv-x="1472" d="M201 492v942h88v-938q0 -201 120.5 -319t325.5 -118t327 118t122 323v934h88v-942q0 -236 -148.5 -376.5t-386.5 -140.5q-240 0 -388 142t-148 375zM518 1536l164 227h106l164 -227h-100l-115 164h-4l-115 -164h-100z" />
<glyph unicode="&#xdc;" horiz-adv-x="1472" d="M201 492v942h88v-938q0 -201 120.5 -319t325.5 -118t327 118t122 323v934h88v-942q0 -236 -148.5 -376.5t-386.5 -140.5q-240 0 -388 142t-148 375zM549 1614v149h94v-149h-94zM829 1614v149h95v-149h-95z" />
<glyph unicode="&#xdd;" horiz-adv-x="1138" d="M39 1434h100l340 -566l88 -161h4q45 92 88 161l340 566h101l-486 -811v-623h-88v623zM522 1536l137 227h115l-162 -227h-90z" />
<glyph unicode="&#xde;" horiz-adv-x="1216" d="M221 0v1434h88v-267h383q190 0 313 -113.5t123 -303.5q0 -193 -122.5 -307.5t-317.5 -114.5h-379v-328h-88zM309 410h379q160 0 254 90t94 249.5t-94 247.5t-254 88h-379v-675z" />
<glyph unicode="&#xdf;" horiz-adv-x="1153" d="M180 0v1090q0 170 116 269t269 99q152 0 241 -85t89 -197q0 -76 -39 -141.5t-85 -103.5t-85 -86t-39 -91q0 -49 67.5 -103.5t148.5 -100.5t148.5 -123t67.5 -165q0 -133 -92 -204.5t-223 -71.5q-88 0 -167 18.5t-114 36.5l-34 16v95q129 -82 317 -82q94 0 158.5 49 t64.5 143q0 59 -44 112.5t-107.5 93.5t-128 80t-108.5 91t-44 111q0 61 39 118.5t85 95t85 95t39 117.5q0 78 -64.5 138t-179.5 60q-117 0 -206 -78.5t-89 -212.5v-1083h-86z" />
<glyph unicode="&#xe0;" d="M96 272q0 72 27 129.5t65.5 93t101 62.5t114 39t123 19.5t110.5 8.5t94 1h68v34q0 305 -281 306q-166 0 -289 -95l-4 -4l-49 70q14 12 41 30.5t117 50.5t188 32q178 0 270.5 -98.5t92.5 -288.5v-662h-86v135l8 92h-4q2 0 -10.5 -25.5t-39 -63.5t-66.5 -74.5t-104.5 -62.5 t-138.5 -26q-139 0 -243.5 77t-104.5 220zM186 279q0 -88 70 -156t193 -68q158 0 254 134.5t96 299.5v56h-66q-63 0 -103 -1t-115 -8.5t-123 -24.5t-100 -45t-79 -76t-27 -111zM315 1434h115l137 -228h-90z" />
<glyph unicode="&#xe1;" d="M96 272q0 72 27 129.5t65.5 93t101 62.5t114 39t123 19.5t110.5 8.5t94 1h68v34q0 305 -281 306q-166 0 -289 -95l-4 -4l-49 70q14 12 41 30.5t117 50.5t188 32q178 0 270.5 -98.5t92.5 -288.5v-662h-86v135l8 92h-4q2 0 -10.5 -25.5t-39 -63.5t-66.5 -74.5t-104.5 -62.5 t-138.5 -26q-139 0 -243.5 77t-104.5 220zM186 279q0 -88 70 -156t193 -68q158 0 254 134.5t96 299.5v56h-66q-63 0 -103 -1t-115 -8.5t-123 -24.5t-100 -45t-79 -76t-27 -111zM473 1206l137 228h115l-162 -228h-90z" />
<glyph unicode="&#xe2;" d="M96 272q0 72 27 129.5t65.5 93t101 62.5t114 39t123 19.5t110.5 8.5t94 1h68v34q0 305 -281 306q-166 0 -289 -95l-4 -4l-49 70q14 12 41 30.5t117 50.5t188 32q178 0 270.5 -98.5t92.5 -288.5v-662h-86v135l8 92h-4q2 0 -10.5 -25.5t-39 -63.5t-66.5 -74.5t-104.5 -62.5 t-138.5 -26q-139 0 -243.5 77t-104.5 220zM186 279q0 -88 70 -156t193 -68q158 0 254 134.5t96 299.5v56h-66q-63 0 -103 -1t-115 -8.5t-123 -24.5t-100 -45t-79 -76t-27 -111zM305 1206l164 228h106l164 -228h-100l-115 164h-4l-114 -164h-101z" />
<glyph unicode="&#xe3;" d="M96 272q0 72 27 129.5t65.5 93t101 62.5t114 39t123 19.5t110.5 8.5t94 1h68v34q0 305 -281 306q-166 0 -289 -95l-4 -4l-49 70q14 12 41 30.5t117 50.5t188 32q178 0 270.5 -98.5t92.5 -288.5v-662h-86v135l8 92h-4q2 0 -10.5 -25.5t-39 -63.5t-66.5 -74.5t-104.5 -62.5 t-138.5 -26q-139 0 -243.5 77t-104.5 220zM186 279q0 -88 70 -156t193 -68q158 0 254 134.5t96 299.5v56h-66q-63 0 -103 -1t-115 -8.5t-123 -24.5t-100 -45t-79 -76t-27 -111zM227 1212q0 221 170 222q47 0 85 -24t59.5 -52.5t52.5 -52t61 -23.5q82 0 82 145h82 q0 -221 -170 -221q-47 0 -85 23.5t-59.5 52.5t-52 52.5t-61.5 23.5q-82 0 -82 -146h-82z" />
<glyph unicode="&#xe4;" d="M96 272q0 72 27 129.5t65.5 93t101 62.5t114 39t123 19.5t110.5 8.5t94 1h68v34q0 305 -281 306q-166 0 -289 -95l-4 -4l-49 70q14 12 41 30.5t117 50.5t188 32q178 0 270.5 -98.5t92.5 -288.5v-662h-86v135l8 92h-4q2 0 -10.5 -25.5t-39 -63.5t-66.5 -74.5t-104.5 -62.5 t-138.5 -26q-139 0 -243.5 77t-104.5 220zM186 279q0 -88 70 -156t193 -68q158 0 254 134.5t96 299.5v56h-66q-63 0 -103 -1t-115 -8.5t-123 -24.5t-100 -45t-79 -76t-27 -111zM336 1284v150h94v-150h-94zM616 1284v150h95v-150h-95z" />
<glyph unicode="&#xe5;" d="M96 272q0 72 27 129.5t65.5 93t101 62.5t114 39t123 19.5t110.5 8.5t94 1h68v34q0 305 -281 306q-166 0 -289 -95l-4 -4l-49 70q14 12 41 30.5t117 50.5t188 32q178 0 270.5 -98.5t92.5 -288.5v-662h-86v135l8 92h-4q2 0 -10.5 -25.5t-39 -63.5t-66.5 -74.5t-104.5 -62.5 t-138.5 -26q-139 0 -243.5 77t-104.5 220zM186 279q0 -88 70 -156t193 -68q158 0 254 134.5t96 299.5v56h-66q-63 0 -103 -1t-115 -8.5t-123 -24.5t-100 -45t-79 -76t-27 -111zM385 1323q0 57 39 97t98.5 40t98 -40t38.5 -97t-38.5 -97t-98 -40t-98.5 40t-39 97zM457 1323 q0 -29 18.5 -47.5t47 -18.5t47 18.5t18.5 47.5q0 31 -18.5 49.5t-47 18.5t-47 -18.5t-18.5 -49.5z" />
<glyph unicode="&#xe6;" horiz-adv-x="1798" d="M98 272q0 70 22.5 125.5t56.5 90t89.5 60t103.5 38t119.5 19.5t115.5 8t112 1h82v45q0 305 -289 306q-162 0 -281 -95l-4 -4l-49 70q14 12 40 30.5t114 50.5t184 32q295 0 352 -240h4q61 119 167 179.5t239 60.5q197 0 305.5 -131.5t108.5 -325.5l-4 -57h-801 q0 -225 115.5 -350.5t302.5 -125.5q88 0 166.5 33t115.5 64l35 32l47 -71q-16 -16 -46 -40t-125 -63t-193 -39q-160 0 -283 83t-178 231h-4q-6 -31 -28 -74t-63.5 -101.5t-119.5 -98.5t-176 -40q-150 0 -251.5 78t-101.5 219zM188 279q0 -92 70 -158t193 -66 q158 0 253 134.5t95 299.5v46h-142q-70 0 -122 -3.5t-122.5 -17.5t-114.5 -39.5t-77 -75.5t-33 -120zM893 614h706q-8 176 -102 264.5t-227 88.5q-147 0 -249.5 -90.5t-127.5 -262.5z" />
<glyph unicode="&#xe7;" horiz-adv-x="1130" d="M111 510q0 238 154.5 388.5t373.5 150.5q213 0 350 -129l17 -17l-54 -69q-12 14 -37.5 35.5t-106.5 58.5t-169 37q-184 0 -311 -126t-127 -329q0 -201 127 -326t311 -125q199 0 328 131l14 17l45 -72l-16 -16q-10 -10 -46 -38t-76 -48.5t-104.5 -38t-134.5 -19.5l-18 -98 q63 -10 102 -47t39 -92q0 -80 -53 -118t-133 -38l-90 8v78q37 -10 84 -10q111 0 110 76q0 78 -125 78l-24 -2l37 170q-203 20 -335 164.5t-132 365.5z" />
<glyph unicode="&#xe8;" horiz-adv-x="1132" d="M109 510q0 250 145 394.5t352 144.5q199 0 308.5 -134.5t109.5 -332.5l-4 -56h-821q0 -215 126 -341t312 -126q88 0 167 33t114 64l36 32l47 -71q-16 -16 -45.5 -40t-125 -63t-193.5 -39q-223 0 -375.5 148.5t-152.5 386.5zM205 606h729q-8 178 -100.5 270.5t-229.5 92.5 q-150 0 -261 -95.5t-138 -267.5zM406 1434h114l137 -228h-90z" />
<glyph unicode="&#xe9;" horiz-adv-x="1132" d="M109 510q0 250 145 394.5t352 144.5q199 0 308.5 -134.5t109.5 -332.5l-4 -56h-821q0 -215 126 -341t312 -126q88 0 167 33t114 64l36 32l47 -71q-16 -16 -45.5 -40t-125 -63t-193.5 -39q-223 0 -375.5 148.5t-152.5 386.5zM205 606h729q-8 178 -100.5 270.5t-229.5 92.5 q-150 0 -261 -95.5t-138 -267.5zM563 1206l137 228h115l-162 -228h-90z" />
<glyph unicode="&#xea;" horiz-adv-x="1132" d="M109 510q0 250 145 394.5t352 144.5q199 0 308.5 -134.5t109.5 -332.5l-4 -56h-821q0 -215 126 -341t312 -126q88 0 167 33t114 64l36 32l47 -71q-16 -16 -45.5 -40t-125 -63t-193.5 -39q-223 0 -375.5 148.5t-152.5 386.5zM205 606h729q-8 178 -100.5 270.5t-229.5 92.5 q-150 0 -261 -95.5t-138 -267.5zM393 1206l164 228h107l163 -228h-100l-115 164h-4l-114 -164h-101z" />
<glyph unicode="&#xeb;" horiz-adv-x="1132" d="M109 510q0 250 145 394.5t352 144.5q199 0 308.5 -134.5t109.5 -332.5l-4 -56h-821q0 -215 126 -341t312 -126q88 0 167 33t114 64l36 32l47 -71q-16 -16 -45.5 -40t-125 -63t-193.5 -39q-223 0 -375.5 148.5t-152.5 386.5zM205 606h729q-8 178 -100.5 270.5t-229.5 92.5 q-150 0 -261 -95.5t-138 -267.5zM424 1284v150h94v-150h-94zM705 1284v150h94v-150h-94z" />
>>>>>>> 292d2bc0c0dbb686a83fce6e39d211f2a7c77ef2
<glyph unicode="&#xec;" horiz-adv-x="446" d="M18 1434h115l137 -228h-90zM180 0v1024h86v-1024h-86z" />
<glyph unicode="&#xed;" horiz-adv-x="446" d="M178 1206l137 228h115l-162 -228h-90zM180 0v1024h86v-1024h-86z" />
<glyph unicode="&#xee;" horiz-adv-x="446" d="M8 1206l164 228h107l163 -228h-100l-115 164h-4l-114 -164h-101zM180 0v1024h86v-1024h-86z" />
<glyph unicode="&#xef;" horiz-adv-x="446" d="M39 1284v150h94v-150h-94zM180 0v1024h86v-1024h-86zM319 1284v150h95v-150h-95z" />
<<<<<<< HEAD
<glyph unicode="&#xf0;" horiz-adv-x="1206" d="M113 471q0 75 19 145t59.5 132.5t98 109t139 73.5t177.5 27q63 0 120.5 -14t94.5 -34t64.5 -39.5t40.5 -33.5l12 -14h4q-74 231 -280 375l-353 -164l-35 76l299 139q-136 72 -313 117l25 78q233 -60 385 -152l252 119l34 -76l-206 -96q146 -111 232.5 -283t86.5 -403 q0 -84 -18 -165t-58 -156t-96.5 -132t-140 -91t-183.5 -34q-107 0 -196 42.5t-145.5 113t-87.5 158.5t-31 182zM203 471q0 -107 43 -200t130.5 -153.5t201.5 -60.5q81 0 149 29.5t114 77.5t77.5 111.5t46 130t14.5 133.5q0 148 -104 243t-271 95q-99 0 -177.5 -35t-126 -93 t-72.5 -129.5t-25 -148.5z" />
<glyph unicode="&#xf1;" horiz-adv-x="1200" d="M180 0v1024h86v-180q0 -21 -2 -42t-4 -32l-2 -10h4q12 32 34 67.5t60.5 75.5t86 72t114 53t139.5 21q97 0 164.5 -27.5t104.5 -82.5t53 -124.5t16 -165.5v-649h-86v618q0 61 -4 105t-19 93t-41 79t-74 50t-114 20q-144 0 -259.5 -91.5t-153.5 -234.5q-17 -61 -17 -139 v-500h-86zM336 1212q0 222 170 222q38 0 69.5 -15.5t53.5 -38t41.5 -45t43.5 -38t50 -15.5q25 0 43 15.5t25.5 40.5t10.5 46t3 43h82q0 -221 -170 -221q-38 0 -69.5 15.5t-53.5 38t-41.5 45t-43.5 38t-50 15.5q-33 0 -53 -28.5t-24.5 -57.5t-4.5 -60h-82z" />
<glyph unicode="&#xf2;" horiz-adv-x="1269" d="M104 518q0 147 71 269t193 192t267 70t266.5 -70t192.5 -192t71 -269q0 -150 -71 -275t-192.5 -196.5t-266.5 -71.5q-108 0 -206 42.5t-169.5 114.5t-113.5 173t-42 213zM195 518q0 -194 128 -326.5t312 -132.5t312 132.5t128 326.5q0 189 -128 318t-312 129t-312 -129 t-128 -318zM428 1434h115l137 -228h-90z" />
<glyph unicode="&#xf3;" horiz-adv-x="1269" d="M104 518q0 147 71 269t193 192t267 70t266.5 -70t192.5 -192t71 -269q0 -150 -71 -275t-192.5 -196.5t-266.5 -71.5q-108 0 -206 42.5t-169.5 114.5t-113.5 173t-42 213zM195 518q0 -194 128 -326.5t312 -132.5t312 132.5t128 326.5q0 189 -128 318t-312 129t-312 -129 t-128 -318zM588 1206l137 228h115l-162 -228h-90z" />
<glyph unicode="&#xf4;" horiz-adv-x="1269" d="M104 518q0 147 71 269t193 192t267 70t266.5 -70t192.5 -192t71 -269q0 -150 -71 -275t-192.5 -196.5t-266.5 -71.5q-108 0 -206 42.5t-169.5 114.5t-113.5 173t-42 213zM195 518q0 -194 128 -326.5t312 -132.5t312 132.5t128 326.5q0 189 -128 318t-312 129t-312 -129 t-128 -318zM418 1206l164 228h106l164 -228h-100l-115 164h-4l-115 -164h-100z" />
<glyph unicode="&#xf5;" horiz-adv-x="1269" d="M104 518q0 147 71 269t193 192t267 70t266.5 -70t192.5 -192t71 -269q0 -150 -71 -275t-192.5 -196.5t-266.5 -71.5q-108 0 -206 42.5t-169.5 114.5t-113.5 173t-42 213zM195 518q0 -194 128 -326.5t312 -132.5t312 132.5t128 326.5q0 189 -128 318t-312 129t-312 -129 t-128 -318zM340 1212q0 222 170 222q38 0 69.5 -15.5t53.5 -38t41.5 -45t43.5 -38t50 -15.5q25 0 43 15.5t25.5 40.5t10.5 46t3 43h82q0 -221 -170 -221q-38 0 -69.5 15.5t-53.5 38t-41.5 45t-43.5 38t-50 15.5q-33 0 -53 -28.5t-24.5 -57.5t-4.5 -60h-82z" />
<glyph unicode="&#xf6;" horiz-adv-x="1269" d="M104 518q0 147 71 269t193 192t267 70t266.5 -70t192.5 -192t71 -269q0 -150 -71 -275t-192.5 -196.5t-266.5 -71.5q-108 0 -206 42.5t-169.5 114.5t-113.5 173t-42 213zM195 518q0 -194 128 -326.5t312 -132.5t312 132.5t128 326.5q0 189 -128 318t-312 129t-312 -129 t-128 -318zM449 1284v150h94v-150h-94zM729 1284v150h94v-150h-94z" />
<glyph unicode="&#xf7;" horiz-adv-x="1355" d="M190 539v82h975v-82h-975zM618 156v120h117v-120h-117zM618 883v121h117v-121h-117z" />
<glyph unicode="&#xf8;" horiz-adv-x="1273" d="M106 518q0 147 71 269t193 192t267 70q154 0 283 -80l77 108l70 -53l-78 -109q84 -74 131 -176.5t47 -220.5q0 -150 -71 -275t-192.5 -196.5t-266.5 -71.5q-147 0 -266 72l-76 -106l-70 53l74 104q-91 75 -142 184t-51 236zM197 518q0 -105 40 -195t111 -155l522 731 q-109 66 -233 66q-184 0 -312 -129t-128 -318zM420 117q99 -58 217 -58q184 0 312 132.5t128 326.5q0 97 -36.5 181t-102.5 145z" />
<glyph unicode="&#xf9;" horiz-adv-x="1189" d="M166 375v649h86v-618q0 -61 4 -105t19 -93t41 -79t74 -50t114 -20q124 0 221.5 66.5t148 172t50.5 226.5v500h86v-1024h-86v180q0 21 2 42t4 32l2 10h-4q-12 -32 -33.5 -67.5t-59.5 -75.5t-84 -72t-111 -53t-136 -21q-183 0 -260.5 98.5t-77.5 301.5zM383 1434h115 l137 -228h-90z" />
<glyph unicode="&#xfa;" horiz-adv-x="1189" d="M166 375v649h86v-618q0 -61 4 -105t19 -93t41 -79t74 -50t114 -20q124 0 221.5 66.5t148 172t50.5 226.5v500h86v-1024h-86v180q0 21 2 42t4 32l2 10h-4q-12 -32 -33.5 -67.5t-59.5 -75.5t-84 -72t-111 -53t-136 -21q-183 0 -260.5 98.5t-77.5 301.5zM541 1206l137 228 h115l-162 -228h-90z" />
<glyph unicode="&#xfb;" horiz-adv-x="1189" d="M166 375v649h86v-618q0 -61 4 -105t19 -93t41 -79t74 -50t114 -20q124 0 221.5 66.5t148 172t50.5 226.5v500h86v-1024h-86v180q0 21 2 42t4 32l2 10h-4q-12 -32 -33.5 -67.5t-59.5 -75.5t-84 -72t-111 -53t-136 -21q-183 0 -260.5 98.5t-77.5 301.5zM371 1206l164 228 h106l164 -228h-100l-115 164h-4l-115 -164h-100z" />
<glyph unicode="&#xfc;" horiz-adv-x="1189" d="M166 375v649h86v-618q0 -61 4 -105t19 -93t41 -79t74 -50t114 -20q124 0 221.5 66.5t148 172t50.5 226.5v500h86v-1024h-86v180q0 21 2 42t4 32l2 10h-4q-12 -32 -33.5 -67.5t-59.5 -75.5t-84 -72t-111 -53t-136 -21q-183 0 -260.5 98.5t-77.5 301.5zM401 1284v150h95 v-150h-95zM682 1284v150h94v-150h-94z" />
<glyph unicode="&#xfd;" horiz-adv-x="1001" d="M16 -373l39 74q6 -5 17.5 -13.5t45 -22t64.5 -13.5q122 0 201 184l74 170l-424 1018h92l338 -817l37 -96h4q15 47 35 96l338 817h92l-527 -1264q-36 -85 -102 -137.5t-158 -52.5q-44 0 -85.5 14t-60.5 28zM455 1206l137 228h115l-162 -228h-90z" />
<glyph unicode="&#xfe;" horiz-adv-x="1185" d="M180 -410v1844h86v-523l-2 -82h4q3 9 10 24t36.5 52.5t66.5 66.5t104.5 53t147.5 24q203 0 322.5 -148t119.5 -389q0 -242 -127 -389.5t-327 -147.5q-74 0 -138 23t-102.5 55.5t-65.5 65t-38 55.5l-11 23h-4q4 -38 4 -91v-516h-86zM264 510q0 -116 40.5 -218 t123.5 -168.5t193 -66.5q156 0 260 123t104 332q0 205 -99 329t-257 124q-73 0 -137 -26.5t-116 -79.5t-82 -143t-30 -206z" />
<glyph unicode="&#xff;" horiz-adv-x="1001" d="M16 -373l39 74q6 -5 17.5 -13.5t45 -22t64.5 -13.5q122 0 201 184l74 170l-424 1018h92l338 -817l37 -96h4q15 47 35 96l338 817h92l-527 -1264q-36 -85 -102 -137.5t-158 -52.5q-44 0 -85.5 14t-60.5 28zM315 1284v150h95v-150h-95zM596 1284v150h94v-150h-94z" />
<glyph unicode="&#x152;" horiz-adv-x="1939" d="M127 717q0 154 53.5 289.5t147.5 234.5t229 156t291 57q36 0 122.5 -10t114.5 -10h691v-82h-697v-588h572v-82h-572v-600h736v-82h-728q-27 0 -114.5 -10t-124.5 -10q-208 0 -373.5 97t-256.5 265.5t-91 374.5zM219 717q0 -185 77.5 -333.5t221.5 -234.5t330 -86 q34 0 69.5 4.5t54.5 8.5l19 4v1274q-67 16 -143 16q-186 0 -330 -86t-221.5 -234.5t-77.5 -332.5z" />
<glyph unicode="&#x153;" horiz-adv-x="2099" d="M106 510q0 119 42.5 221t115 171t169 108t202.5 39q157 0 286.5 -82.5t192.5 -223.5h4q59 146 181.5 226t273.5 80q101 0 182.5 -38t132 -103t77 -148t26.5 -178l-4 -56h-822q6 -221 131.5 -344t307.5 -123q55 0 108 13.5t89 32.5t64.5 37.5t42.5 31.5l13 14l47 -71 q-6 -6 -17 -15.5t-47.5 -34t-76 -43t-100.5 -34t-123 -15.5q-162 0 -292.5 82t-191.5 226h-4q-63 -144 -192.5 -226t-288.5 -82q-107 0 -203 38.5t-168.5 106.5t-115 169.5t-42.5 220.5zM197 510q0 -200 127 -325.5t311 -125.5q185 0 312.5 127t127.5 334q0 131 -61.5 234 t-161.5 157t-217 54q-184 0 -311 -127.5t-127 -327.5zM1171 606h730q-7 178 -100 270.5t-230 92.5q-148 0 -260.5 -95t-139.5 -268z" />
<glyph unicode="&#x178;" horiz-adv-x="1138" d="M39 1434h100l340 -566l88 -161h4q45 91 88 161l340 566h101l-486 -811v-623h-88v623zM371 1614v149h94v-149h-94zM651 1614v149h94v-149h-94z" />
<glyph unicode="&#x2c6;" horiz-adv-x="1040" d="M303 1536l164 227h106l164 -227h-100l-115 164h-4l-115 -164h-100z" />
<glyph unicode="&#x2dc;" horiz-adv-x="1042" d="M225 1542q0 221 170 221q38 0 69.5 -15.5t53.5 -37.5t41.5 -44.5t43.5 -38t50 -15.5q25 0 43 15.5t25.5 40.5t10.5 46t3 43h82q0 -221 -170 -221q-38 0 -69.5 15.5t-53.5 38t-41.5 45t-43.5 38t-50 15.5q-33 0 -53 -28.5t-24.5 -57.5t-4.5 -60h-82z" />
<glyph unicode="&#x2000;" horiz-adv-x="895" />
<glyph unicode="&#x2001;" horiz-adv-x="1790" />
<glyph unicode="&#x2002;" horiz-adv-x="895" />
<glyph unicode="&#x2003;" horiz-adv-x="1790" />
<glyph unicode="&#x2004;" horiz-adv-x="596" />
<glyph unicode="&#x2005;" horiz-adv-x="447" />
<glyph unicode="&#x2006;" horiz-adv-x="298" />
<glyph unicode="&#x2007;" horiz-adv-x="298" />
<glyph unicode="&#x2008;" horiz-adv-x="223" />
<glyph unicode="&#x2009;" horiz-adv-x="358" />
<glyph unicode="&#x200a;" horiz-adv-x="99" />
=======
<glyph unicode="&#xf0;" horiz-adv-x="1206" d="M113 471q0 199 130 343t363 144q100 0 183 -33.5t116 -68.5l33 -33h4q-74 231 -280 375l-353 -164l-35 76l299 139q-135 72 -313 117l25 78q233 -59 385 -152l252 119l34 -76l-206 -96q319 -244 319 -686q0 -106 -29.5 -205.5t-88 -184.5t-157 -136.5t-221.5 -51.5 q-211 0 -335.5 148.5t-124.5 347.5zM203 471q0 -166 102.5 -290t272.5 -124q133 0 227 77t134 182.5t40 222.5q0 147 -103.5 242.5t-271.5 95.5q-193 0 -297 -120t-104 -286z" />
<glyph unicode="&#xf1;" horiz-adv-x="1200" d="M180 0v1024h86v-180l-8 -84h4q35 98 149.5 193.5t284.5 95.5q188 0 263 -101.5t75 -298.5v-649h-86v618q0 61 -4 105.5t-18.5 92.5t-41 79t-74.5 50.5t-114 19.5q-143 0 -258.5 -91.5t-154.5 -234.5q-16 -57 -17 -139v-500h-86zM336 1212q0 221 170 222q47 0 85 -24 t59.5 -52.5t52 -52t61.5 -23.5q82 0 82 145h82q0 -221 -170 -221q-47 0 -85 23.5t-59.5 52.5t-52.5 52.5t-61 23.5q-82 0 -82 -146h-82z" />
<glyph unicode="&#xf2;" horiz-adv-x="1269" d="M104 518q0 223 155 377t376 154t375.5 -154t154.5 -377q0 -227 -154.5 -385t-375.5 -158t-376 158t-155 385zM195 518q0 -195 128 -327t312 -132t312 132.5t128 326.5q0 188 -128 317.5t-312 129.5t-312 -129.5t-128 -317.5zM428 1434h115l137 -228h-90z" />
<glyph unicode="&#xf3;" horiz-adv-x="1269" d="M104 518q0 223 155 377t376 154t375.5 -154t154.5 -377q0 -227 -154.5 -385t-375.5 -158t-376 158t-155 385zM195 518q0 -195 128 -327t312 -132t312 132.5t128 326.5q0 188 -128 317.5t-312 129.5t-312 -129.5t-128 -317.5zM588 1206l137 228h115l-162 -228h-90z" />
<glyph unicode="&#xf4;" horiz-adv-x="1269" d="M104 518q0 223 155 377t376 154t375.5 -154t154.5 -377q0 -227 -154.5 -385t-375.5 -158t-376 158t-155 385zM195 518q0 -195 128 -327t312 -132t312 132.5t128 326.5q0 188 -128 317.5t-312 129.5t-312 -129.5t-128 -317.5zM418 1206l164 228h106l164 -228h-100 l-115 164h-4l-115 -164h-100z" />
<glyph unicode="&#xf5;" horiz-adv-x="1269" d="M104 518q0 223 155 377t376 154t375.5 -154t154.5 -377q0 -227 -154.5 -385t-375.5 -158t-376 158t-155 385zM195 518q0 -195 128 -327t312 -132t312 132.5t128 326.5q0 188 -128 317.5t-312 129.5t-312 -129.5t-128 -317.5zM340 1212q0 221 170 222q47 0 85 -24 t59.5 -52.5t52 -52t61.5 -23.5q82 0 82 145h82q0 -221 -170 -221q-47 0 -85 23.5t-59.5 52.5t-52 52.5t-61.5 23.5q-82 0 -82 -146h-82z" />
<glyph unicode="&#xf6;" horiz-adv-x="1269" d="M104 518q0 223 155 377t376 154t375.5 -154t154.5 -377q0 -227 -154.5 -385t-375.5 -158t-376 158t-155 385zM195 518q0 -195 128 -327t312 -132t312 132.5t128 326.5q0 188 -128 317.5t-312 129.5t-312 -129.5t-128 -317.5zM449 1284v150h94v-150h-94zM729 1284v150h94 v-150h-94z" />
<glyph unicode="&#xf7;" horiz-adv-x="1355" d="M190 539v82h975v-82h-975zM618 156v120h117v-120h-117zM618 883v121h117v-121h-117z" />
<glyph unicode="&#xf8;" horiz-adv-x="1273" d="M106 518q0 223 155 377t376 154q156 0 283 -80l77 108l70 -53l-78 -109q178 -158 178 -397q0 -227 -154.5 -385t-375.5 -158q-147 0 -266 72l-76 -106l-70 53l74 104q-193 160 -193 420zM197 518q0 -213 151 -350l522 731q-109 66 -233 66q-184 0 -312 -129.5 t-128 -317.5zM420 117q98 -57 217 -58q184 0 312 132.5t128 326.5q0 197 -139 326z" />
<glyph unicode="&#xf9;" horiz-adv-x="1189" d="M166 375v649h86v-618q0 -61 4 -105.5t18.5 -92.5t41 -79t74.5 -50.5t114 -19.5q184 0 302 138.5t118 326.5v500h86v-1024h-86v180l8 84h-4q-35 -98 -147.5 -193.5t-276.5 -95.5q-182 0 -260 98.5t-78 301.5zM383 1434h115l137 -228h-90z" />
<glyph unicode="&#xfa;" horiz-adv-x="1189" d="M166 375v649h86v-618q0 -61 4 -105.5t18.5 -92.5t41 -79t74.5 -50.5t114 -19.5q184 0 302 138.5t118 326.5v500h86v-1024h-86v180l8 84h-4q-35 -98 -147.5 -193.5t-276.5 -95.5q-182 0 -260 98.5t-78 301.5zM541 1206l137 228h115l-162 -228h-90z" />
<glyph unicode="&#xfb;" horiz-adv-x="1189" d="M166 375v649h86v-618q0 -61 4 -105.5t18.5 -92.5t41 -79t74.5 -50.5t114 -19.5q184 0 302 138.5t118 326.5v500h86v-1024h-86v180l8 84h-4q-35 -98 -147.5 -193.5t-276.5 -95.5q-182 0 -260 98.5t-78 301.5zM371 1206l164 228h106l164 -228h-100l-115 164h-4l-115 -164 h-100z" />
<glyph unicode="&#xfc;" horiz-adv-x="1189" d="M166 375v649h86v-618q0 -61 4 -105.5t18.5 -92.5t41 -79t74.5 -50.5t114 -19.5q184 0 302 138.5t118 326.5v500h86v-1024h-86v180l8 84h-4q-35 -98 -147.5 -193.5t-276.5 -95.5q-182 0 -260 98.5t-78 301.5zM401 1284v150h95v-150h-95zM682 1284v150h94v-150h-94z" />
<glyph unicode="&#xfd;" horiz-adv-x="1001" d="M16 -373l39 74q57 -49 127 -49q123 0 201 184l74 170l-424 1018h92l338 -817l37 -96h4q14 47 35 96l338 817h92l-527 -1264q-80 -190 -260 -190q-43 0 -85 14.5t-60 28.5zM455 1206l137 228h115l-162 -228h-90z" />
<glyph unicode="&#xfe;" horiz-adv-x="1185" d="M180 -410v1844h86v-523l-2 -82h4q4 8 11.5 23.5t36 53.5t65.5 66.5t104.5 52.5t147.5 24q203 0 322.5 -147.5t119.5 -389.5t-127 -389.5t-327 -147.5q-74 0 -138.5 22.5t-102.5 55.5t-65.5 66t-38.5 55l-10 23h-4q4 -37 4 -91v-516h-86zM264 510q0 -182 96.5 -317.5 t260.5 -135.5q156 0 260 123t104 332q0 205 -99.5 329t-256.5 124q-156 0 -260.5 -114t-104.5 -341z" />
<glyph unicode="&#xff;" horiz-adv-x="1001" d="M16 -373l39 74q57 -49 127 -49q123 0 201 184l74 170l-424 1018h92l338 -817l37 -96h4q14 47 35 96l338 817h92l-527 -1264q-80 -190 -260 -190q-43 0 -85 14.5t-60 28.5zM315 1284v150h95v-150h-95zM596 1284v150h94v-150h-94z" />
<glyph unicode="&#x152;" horiz-adv-x="1939" d="M127 717q0 313 202.5 525t518.5 212q37 0 123 -10t114 -10h691v-82h-697v-588h572v-82h-572v-600h736v-82h-728q-27 0 -114.5 -10t-124.5 -10q-315 0 -518 211t-203 526zM219 717q0 -283 174 -468.5t455 -185.5q33 0 68.5 4.5t54.5 8.5l20 4v1274q-68 16 -143 16 q-281 0 -455 -186t-174 -467z" />
<glyph unicode="&#x153;" horiz-adv-x="2099" d="M106 510q0 238 155 388.5t374 150.5q158 0 287 -82t192 -224h4q59 145 181 225.5t274 80.5q199 0 308.5 -134.5t109.5 -332.5l-4 -56h-822q6 -221 131 -344t308 -123q88 0 166.5 33t113.5 64l37 32l47 -71q-16 -16 -46 -40t-125 -63t-193 -39q-162 0 -292 82t-192 226h-4 q-63 -143 -192 -225.5t-289 -82.5q-221 0 -375 148.5t-154 386.5zM197 510q0 -201 127 -326t311 -125t312 127t128 334q0 197 -129 321t-311 124q-184 0 -311 -127t-127 -328zM1171 606h730q-8 178 -100.5 270.5t-229.5 92.5q-150 0 -261.5 -95.5t-138.5 -267.5z" />
<glyph unicode="&#x178;" horiz-adv-x="1138" d="M39 1434h100l340 -566l88 -161h4q45 92 88 161l340 566h101l-486 -811v-623h-88v623zM371 1614v149h94v-149h-94zM651 1614v149h94v-149h-94z" />
<glyph unicode="&#x2c6;" horiz-adv-x="1040" d="M303 1536l164 227h106l164 -227h-100l-115 164h-4l-115 -164h-100z" />
<glyph unicode="&#x2dc;" horiz-adv-x="1042" d="M225 1542q0 221 170 221q47 0 85 -23.5t59.5 -52t52.5 -52t61 -23.5q82 0 82 145h82q0 -221 -170 -221q-47 0 -85 23.5t-59.5 52t-52 52.5t-61.5 24q-82 0 -82 -146h-82z" />
<glyph unicode="&#x2000;" horiz-adv-x="894" />
<glyph unicode="&#x2001;" horiz-adv-x="1789" />
<glyph unicode="&#x2002;" horiz-adv-x="894" />
<glyph unicode="&#x2003;" horiz-adv-x="1789" />
<glyph unicode="&#x2004;" horiz-adv-x="595" />
<glyph unicode="&#x2005;" horiz-adv-x="446" />
<glyph unicode="&#x2006;" horiz-adv-x="296" />
<glyph unicode="&#x2007;" horiz-adv-x="296" />
<glyph unicode="&#x2008;" horiz-adv-x="223" />
<glyph unicode="&#x2009;" horiz-adv-x="356" />
<glyph unicode="&#x200a;" horiz-adv-x="98" />
>>>>>>> 292d2bc0c0dbb686a83fce6e39d211f2a7c77ef2
<glyph unicode="&#x2010;" horiz-adv-x="729" d="M82 539v82h565v-82h-565z" />
<glyph unicode="&#x2011;" horiz-adv-x="729" d="M82 539v82h565v-82h-565z" />
<glyph unicode="&#x2012;" horiz-adv-x="729" d="M82 539v82h565v-82h-565z" />
<glyph unicode="&#x2013;" horiz-adv-x="1138" d="M82 539v82h975v-82h-975z" />
<glyph unicode="&#x2014;" horiz-adv-x="1548" d="M82 539v82h1384v-82h-1384z" />
<glyph unicode="&#x2018;" horiz-adv-x="409" d="M123 1141l98 309h80l-72 -309h-106z" />
<glyph unicode="&#x2019;" horiz-adv-x="403" d="M129 1141l72 309h106l-98 -309h-80z" />
<glyph unicode="&#x201a;" horiz-adv-x="481" d="M123 -184l72 309h106l-98 -309h-80z" />
<glyph unicode="&#x201c;" horiz-adv-x="614" d="M123 1141l98 309h80l-72 -309h-106zM328 1141l98 309h80l-72 -309h-106z" />
<glyph unicode="&#x201d;" horiz-adv-x="608" d="M129 1141l72 309h106l-98 -309h-80zM334 1141l72 309h106l-98 -309h-80z" />
<glyph unicode="&#x201e;" horiz-adv-x="686" d="M123 -184l72 309h106l-98 -309h-80zM328 -184l71 309h107l-98 -309h-80z" />
<<<<<<< HEAD
<glyph unicode="&#x2022;" horiz-adv-x="798" d="M129 596q0 112 78.5 191t191.5 79t192 -79t79 -191t-79 -191t-192 -79t-191.5 79t-78.5 191z" />
<glyph unicode="&#x2026;" horiz-adv-x="1357" d="M180 0v129h125v-129h-125zM616 0v129h125v-129h-125zM1053 0v129h125v-129h-125z" />
<glyph unicode="&#x202f;" horiz-adv-x="358" />
<glyph unicode="&#x2039;" horiz-adv-x="677" d="M111 578l335 421h109l-336 -421l336 -420h-109z" />
<glyph unicode="&#x203a;" horiz-adv-x="677" d="M123 158l336 420l-336 421h108l336 -421l-336 -420h-108z" />
<glyph unicode="&#x205f;" horiz-adv-x="447" />
<glyph unicode="&#x20ac;" horiz-adv-x="1206" d="M96 539v82h111q-5 34 -4.5 107t6.5 116h-113v82h127q58 235 243 383.5t435 148.5q47 0 92.5 -5.5t67.5 -10.5l22 -6l-20 -86q-74 22 -162 22q-216 0 -372.5 -122.5t-211.5 -323.5h670l-16 -82h-670q-14 -100 -4 -223h635l-14 -82h-609q46 -214 207 -346t385 -132 q46 0 91 6.5t67 13.5l22 7l25 -84q-88 -29 -205 -29q-258 0 -446 157.5t-238 406.5h-121z" />
<glyph unicode="&#x2122;" horiz-adv-x="1888" d="M57 1356v78h738v-78h-330v-815h-80v815h-328zM879 541l71 893h72l258 -553q8 -18 15.5 -38.5t10.5 -32.5l3 -11h4q10 41 28 82l258 553h72l72 -893h-78l-57 671l2 58h-4l-260 -561h-70l-260 561h-4l2 -58l-58 -671h-77z" />
<glyph unicode="&#xe000;" horiz-adv-x="1024" d="M0 0v1024h1024v-1024h-1024z" />
=======
<glyph unicode="&#x2022;" horiz-adv-x="798" d="M129 596q0 113 79 191.5t191.5 78.5t191.5 -78.5t79 -191.5t-79 -191.5t-191.5 -78.5t-191.5 78.5t-79 191.5z" />
<glyph unicode="&#x2026;" horiz-adv-x="1357" d="M180 0v129h125v-129h-125zM616 0v129h125v-129h-125zM1053 0v129h125v-129h-125z" />
<glyph unicode="&#x202f;" horiz-adv-x="356" />
<glyph unicode="&#x2039;" horiz-adv-x="677" d="M111 578l335 421h109l-336 -421l336 -420h-109z" />
<glyph unicode="&#x203a;" horiz-adv-x="677" d="M123 158l336 420l-336 421h108l336 -421l-336 -420h-108z" />
<glyph unicode="&#x205f;" horiz-adv-x="446" />
<glyph unicode="&#x20ac;" horiz-adv-x="1206" d="M96 539v82h111q-4 35 -4 107.5t6 115.5h-113v82h127q57 236 242.5 384t435.5 148l182 -22l-20 -86q-74 23 -162 22q-217 0 -372.5 -123t-211.5 -323h670l-16 -82h-670q-14 -100 -4 -223h635l-14 -82h-609q47 -213 207 -345.5t385 -132.5q47 0 92 6.5t68 14.5l20 6l25 -84 q-88 -29 -205 -29q-258 0 -446.5 158t-237.5 406h-121z" />
<glyph unicode="&#x2122;" horiz-adv-x="1888" d="M57 1356v78h738v-78h-330v-815h-80v815h-328zM879 541l71 893h72l258 -553l29 -82h4q10 41 28 82l258 553h72l72 -893h-78l-57 671l2 58h-4l-260 -561h-70l-260 561h-4l2 -58l-58 -671h-77z" />
<glyph unicode="&#xe000;" horiz-adv-x="1025" d="M0 1025h1025v-1025h-1025v1025z" />
<glyph unicode="&#xfb01;" horiz-adv-x="1069" d="M94 940v78h129v47q0 119 35 201t91.5 116.5t102.5 48t95 13.5l53 -4v-80q-18 4 -47 4q-39 0 -74 -10.5t-77 -38t-67.5 -92t-25.5 -156.5v-49h281v-78h-281v-940h-86v940h-129zM797 1284v150h102v-150h-102zM805 0v1024h86v-1024h-86z" />
<glyph unicode="&#xfb02;" horiz-adv-x="1099" d="M94 940v78h129v47q0 119 35 201t91.5 116.5t102.5 48t95 13.5l53 -4v-80q-18 4 -47 4q-39 0 -74 -10.5t-77 -38t-67.5 -92t-25.5 -156.5v-49h281v-78h-281v-940h-86v940h-129zM799 207v1227h86v-1201q0 -160 121 -159l30 2v-80q-18 -4 -37 -4q-29 0 -57.5 7t-64 27.5 t-57 66.5t-21.5 114z" />
<glyph unicode="&#xfb03;" horiz-adv-x="1656" d="M94 940v78h129v47q0 119 35 201t91.5 116.5t102.5 48t95 13.5l53 -4v-80q-18 4 -47 4q-39 0 -74 -10.5t-77 -38t-67.5 -92t-25.5 -156.5v-49h281v-78h-281v-940h-86v940h-129zM682 940v78h129v47q0 119 35 201t91 116.5t102 48t96 13.5l53 -4v-80q-18 4 -47 4 q-39 0 -74 -10.5t-77 -38t-67.5 -92t-25.5 -156.5v-49h281v-78h-281v-940h-86v940h-129zM1384 1284v150h103v-150h-103zM1393 0v1024h86v-1024h-86z" />
<glyph unicode="&#xfb04;" horiz-adv-x="1687" d="M94 940v78h129v47q0 119 35 201t91.5 116.5t102.5 48t95 13.5l53 -4v-80q-18 4 -47 4q-39 0 -74 -10.5t-77 -38t-67.5 -92t-25.5 -156.5v-49h281v-78h-281v-940h-86v940h-129zM682 940v78h129v47q0 119 35 201t91 116.5t102 48t96 13.5l53 -4v-80q-18 4 -47 4 q-39 0 -74 -10.5t-77 -38t-67.5 -92t-25.5 -156.5v-49h281v-78h-281v-940h-86v940h-129zM1386 207v1227h87v-1201q0 -160 120 -159l31 2v-80q-18 -4 -37 -4q-29 0 -57.5 7t-64 27.5t-57.5 66.5t-22 114z" />
>>>>>>> 292d2bc0c0dbb686a83fce6e39d211f2a7c77ef2
</font>
</defs>
</svg>
