<?xml version="1.0" standalone="no"?>
<!DOCTYPE svg PUBLIC "-//W3C//DTD SVG 1.1//EN" "http://www.w3.org/Graphics/SVG/1.1/DTD/svg11.dtd" >
<svg xmlns="http://www.w3.org/2000/svg">
<metadata>
This is a custom SVG font generated by IcoMoon.
<iconset grid="36"></iconset>
</metadata>
<defs>
<font id="icon-large" horiz-adv-x="1152" >
<font-face units-per-em="1152" ascent="1088" descent="-64" />
<missing-glyph horiz-adv-x="1152" />
<glyph class="hidden" unicode="&#xf000;" d="M0,1088L 1152 -64L0 -64 z" horiz-adv-x="0" />
<glyph unicode="&#x21;" d="M 408.283,440.080c-55.904,53.258-90.094,126.146-90.278,207.352
		c 0.184,81.39, 34.374,154.095, 90.278,207.537c 55.895,53.258, 132.371,85.927, 217.55,85.927c 85.356,0, 161.821-32.669, 217.734-85.927
		c 55.692-53.258, 90.066-126.147, 90.066-207.537c0-81.205-34.374-154.095-90.066-207.352c-55.913-53.239-132.38-85.918-217.734-85.918
		C 540.652,354.162, 464.178,386.841, 408.283,440.080z M 1342.678,100.357L 1015.788,411.956c 45.513,68.158, 72.327,148.794, 72.327,235.475
		C 1087.93,890.854, 881.149,1088, 625.832,1088C 370.505,1088, 163.725,890.854, 163.725,647.431c0-243.219, 206.781-440.393, 462.107-440.393
		c 91.016,0, 175.8,25.504, 247.204,68.75l 327.054-311.601c 39.279-37.583, 103.307-37.583, 142.587,0
		C 1382.14,1.77, 1382.14,62.774, 1342.678,100.357zM 628.875,469.493
		M 628.875,823.73
		M 443.597,599.319c-20.857,0-37.767,16.91-37.767,37.776l0,14.162 c0,20.857, 16.91,37.767, 37.767,37.767l 370.612,0 
		c 20.837,0, 37.767-16.91, 37.767-37.767l0-14.162 c0-20.867-16.928-37.776-37.767-37.776L 443.597,599.319 z" horiz-adv-x="1536"  />
<glyph unicode="&#x22;" d="M 408.275,440.074c-55.906,53.241-90.097,126.141-90.281,207.348
		c 0.184,81.393, 34.376,154.098, 90.281,207.541c 55.897,53.259, 132.374,85.928, 217.556,85.928c 85.357,0, 161.824-32.669, 217.74-85.928
		c 55.694-53.259, 90.068-126.149, 90.068-207.541c0-81.208-34.374-154.107-90.068-207.348c-55.915-53.259-132.383-85.938-217.74-85.938
		C 540.647,354.136, 464.17,386.814, 408.275,440.074z M 1342.69,100.323l-326.895,311.608c 45.515,68.16, 72.329,148.805, 72.329,235.489
		C 1087.94,890.85, 881.154,1088, 625.829,1088C 370.495,1088, 163.711,890.85, 163.711,647.421c0-243.235, 206.786-440.394, 462.119-440.394
		c 91.017,0, 175.803,25.487, 247.208,68.768l 327.062-311.608c 39.28-37.584, 103.31-37.584, 142.59,0
		C 1382.156,1.736, 1382.156,62.74, 1342.69,100.323zM 674.728,458.22c0-20.839-16.911-37.769-37.778-37.769l-14.163,0 c-20.857,0-37.769,16.928-37.769,37.769
		L 585.018,828.84 c0,20.857, 16.911,37.769, 37.769,37.769l 14.163,0 c 20.867,0, 37.778-16.911, 37.778-37.769L 674.728,458.22 zM 444.568,598.681c-20.857,0-37.769,16.911-37.769,37.778l0,14.163 c0,20.857, 16.911,37.769, 37.769,37.769
		l 370.601,0 c 20.877,0, 37.769-16.911, 37.769-37.769l0-14.163 c0-20.867-16.891-37.778-37.769-37.778L 444.568,598.681 z" horiz-adv-x="1536"  />
<glyph unicode="&#x23;" d="M 1159.169,390.694c-347.472,276.064-655.345,89.558-771.553-3.453
		c-29.328-23.462-34.087-66.228-10.625-95.579c 13.435-16.779, 33.202-25.501, 53.146-25.501c 14.896,0, 29.904,4.871, 42.432,14.919
		c 112.799,90.222, 340.963,210.547, 602.001,3.144c 29.394-23.33, 72.181-18.461, 95.533,10.933
		C 1193.478,324.556, 1188.564,367.321, 1159.169,390.694zM 1312.785,612.706c-458.945,361.441-905.558,128.337-1076.261,11.356
		c-30.967-21.228-38.868-63.549-17.641-94.538c 21.204-30.944, 63.526-38.87, 94.538-17.619
		c 181.217,124.176, 541.108,288.571, 915.209-6.021c 12.485-9.827, 27.315-14.609, 42.034-14.609c 20.122,0, 40.042,8.898, 53.456,25.942
		C 1347.361,546.744, 1342.29,589.465, 1312.785,612.706zM 1460.025,839.967C 859.108,1274.937, 335.797,1041.614, 77.307,863.848c-30.944-21.294-38.781-63.615-17.487-94.561
		c 21.294-30.944, 63.593-38.802, 94.561-17.487c 228.896,157.446, 692.621,363.986, 1225.915-22.002c 12.042-8.721, 25.988-12.927, 39.799-12.927
		c 21.072,0, 41.856,9.784, 55.159,28.156C 1497.256,775.442, 1490.462,817.942, 1460.025,839.967zM 775.705,230.394c-81.256,0-147.195-65.917-147.195-147.196c0-81.281, 65.939-147.198, 147.195-147.198
		c 81.281,0, 147.198,65.917, 147.198,147.198C 922.903,164.477, 856.985,230.394, 775.705,230.394z" horiz-adv-x="1536"  />
<glyph unicode="&#x24;" d="M 926.715,748.097c-14.801,0-26.757,11.975-26.757,26.757l0,53.373 c0,1.018, 0.175,2.001, 0.281,2.984L 312.29,831.212 
		c-14.941,0-27.054-12.114-27.054-27.038l0-841.137 c0-14.942, 12.114-27.038, 27.054-27.038l 650.485,0 c 14.924,0, 27.055,12.096, 27.055,27.038
		L 989.831,748.553 c-1.493-0.244-2.949-0.456-4.513-0.456L 926.715,748.097 z M 383.713,670.758c0,14.782, 11.992,26.776, 26.739,26.776l 311.109,0 
		c 14.784,0, 26.757-11.993, 26.757-26.776l0-171.619 c0-14.782-11.973-26.72-26.757-26.72L 410.453,472.419 c-14.749,0-26.739,11.938-26.739,26.72
		L 383.714,670.758 z M 856.89,50.172L 412.646,50.172 c-14.764,0-26.774,11.956-26.774,26.739c0,14.801, 12.008,26.739, 26.774,26.739l 444.243,0 
		c 14.766,0, 26.722-11.938, 26.722-26.739C 883.613,62.129, 871.655,50.172, 856.89,50.172z M 856.89,156.339L 412.646,156.339 
		c-14.764,0-26.774,12.027-26.774,26.776c0,14.764, 12.008,26.774, 26.774,26.774l 444.243,0 c 14.766,0, 26.722-12.008, 26.722-26.774
		C 883.613,168.366, 871.655,156.339, 856.89,156.339z M 856.89,262.612L 412.646,262.612 c-14.764,0-26.774,11.992-26.774,26.739
		c0,14.801, 12.008,26.739, 26.774,26.739l 444.243,0 c 14.766,0, 26.722-11.938, 26.722-26.739C 883.613,274.602, 871.655,262.612, 856.89,262.612
		zM 1246.55,1007.818L 1187.927,1007.818 c-14.764,0-26.739,11.973-26.739,26.739L 1161.188,1087.911 c0,0.035,0,0.054,0,0.089L 573.522,1088 
		c-14.749,0-26.739-11.992-26.739-26.757l0-176.517 l 415.993,0 c 44.401,0, 80.551-36.133, 80.551-80.551l0-102.901 l 79.674,0 
		c 14.747,0, 26.739-11.992, 26.739-26.739c0-14.784-11.993-26.776-26.739-26.776L 1043.328,647.759 l0-54.41 l 79.674,0 c 14.747,0, 26.739-12.008, 26.739-26.756
		c0-14.784-11.993-26.757-26.739-26.757L 1043.328,539.837 l0-54.48 l 79.674,0 c 14.747,0, 26.739-11.956, 26.739-26.722c0-14.764-11.993-26.756-26.739-26.756
		L 1043.328,431.879 l0-54.428 l 79.674,0 c 14.747,0, 26.739-11.992, 26.739-26.774c0-14.749-11.993-26.705-26.739-26.705L 1043.328,323.972 l0-130.625 l 180.678,0 
		c 14.766,0, 26.757,11.993, 26.757,26.776L 1250.763,1008.222 C 1249.376,1008.011, 1247.989,1007.818, 1246.55,1007.818z" horiz-adv-x="1536"  />
<glyph unicode="&#x25;" d="M 1283.574,572.425C 1283.574,856.288, 1052.632,1087.232, 768.768,1087.232c-283.864,0-514.807-230.944-514.807-514.807
		c0-246.202, 173.772-452.503, 405.086-502.917l0-80.086 l-136.639,0 c-14.959,0-27.095-12.136-27.095-27.097c0-14.958, 12.136-27.095, 27.095-27.095
		L 1010.12-64.77 c 14.958,0, 27.095,12.136, 27.095,27.095c0,14.959-12.136,27.097-27.095,27.097l-136.639,0 l0,78.921 
		C 1107.298,116.853, 1283.574,324.424, 1283.574,572.425z M 308.152,572.425c0,253.981, 206.635,460.616, 460.616,460.616
		s 460.617-206.635, 460.617-460.616S 1022.75,111.809, 768.768,111.809S 308.152,318.444, 308.152,572.425zM 1171.738,572.425c0,222.546-180.423,402.97-402.97,402.97c-222.546,0-402.97-180.422-402.97-402.97
		s 180.422-402.97, 402.97-402.97C 991.314,169.455, 1171.738,349.878, 1171.738,572.425z M 492.772,572.425
		c0,152.145, 123.339,275.449, 275.466,275.449c 152.145,0, 275.468-123.304, 275.468-275.449c0-152.129-123.322-275.466-275.468-275.466
		C 616.111,296.958, 492.772,420.298, 492.772,572.425zM 956.652,634.817c-2.505,8.749-9.225,15.664-17.904,18.417c-8.645,2.734-18.152,0.917-25.226-4.798
		c-7.144-5.821-19.017-12.737-34.893-12.737c-30.923,0-56.096,25.155-56.096,56.061c0,11.872, 3.881,23.355, 11.22,33.251
		c 5.381,7.25, 6.792,16.706, 3.757,25.226c-3.017,8.502-10.090,14.941-18.841,17.163c-14.872,3.792-29.811,5.892-44.452,6.244
		l-4.94,0.071c-105.205,0-193.352-83.543-196.474-186.139c-1.728-50.273, 16.423-98.203, 51.121-134.945
		c 35.898-38.033, 85.007-59.658, 138.263-60.895l 5.186-0.071c 106.598,0, 192.859,81.744, 196.37,186.208
		C 964.308,597.174, 961.926,616.331, 956.652,634.817z" horiz-adv-x="1536"  />
<glyph unicode="&#x26;" d="M 1343.508,518.268c0,68.862-34.44,118.919-100.116,118.919c 50.040,50.11, 65.676,115.89, 31.271,165.965
		c-31.271,50.075-100.063,84.497-165.756,65.71c 34.422,50.092,0,118.989-50.037,150.242c-50.077,34.492-115.751,18.822-165.79-31.253
		C 874.346,1053.597, 824.325,1088, 774.267,1088c-65.71,0-115.748-34.403-131.383-100.149c-34.405,50.075-100.080,65.745-168.888,31.253
		c-50.040-31.253-65.71-100.15-50.040-150.242c-65.675,18.787-115.715-15.635-150.118-65.71
		c-31.305-50.075-15.635-115.854, 18.733-165.965c-50.040,0-100.078-50.057-100.078-118.919c0-65.762, 50.040-115.819, 100.078-131.489
		c-34.368-34.474-50.040-100.167-18.733-169.1c 34.403-50.004, 84.445-65.675, 150.118-50.004c-15.67-65.781,0-115.89, 50.040-150.311
		c 68.808-31.324, 134.483-15.67, 168.888,18.751C 658.519-13.96, 708.557-64, 774.267-64c 50.058,0, 100.080,50.040, 118.816,100.115
		c 50.037-34.422, 115.713-50.075, 165.79-18.751c 50.037,34.422, 84.458,84.531, 50.037,150.311c 65.695-15.67, 134.484,0, 165.756,50.004
		c 34.403,68.933, 18.768,134.624-31.271,169.1C 1309.068,402.449, 1343.508,452.506, 1343.508,518.268z M 768,101.347
		c-226.428,0-410.651,184.225-410.651,410.653S 541.572,922.651, 768,922.651c 226.446,0, 410.653-184.223, 410.653-410.651
		S 994.446,101.347, 768,101.347zM 768,868.017c-196.284,0-356.016-159.696-356.016-356.017c0-196.302, 159.732-356.016, 356.016-356.016
		c 196.321,0, 356.017,159.713, 356.017,356.016C 1124.016,708.319, 964.321,868.017, 768,868.017z M 952.242,652.154l-230.655-270.182
		c-5.388-6.321-13.065-9.595-20.794-9.595c-5.863,0-11.78,1.902-16.744,5.775l-109.27,84.99c-11.902,9.244-14.050,26.393-4.789,38.312
		c 9.262,11.902, 26.445,14.033, 38.331,4.789l 88.652-68.966l 213.716,250.337c 9.824,11.462, 27.060,12.818, 38.523,3.029
		C 960.674,680.852, 962.049,663.632, 952.242,652.154z" horiz-adv-x="1536"  />
<glyph unicode="&#x27;" d="M 750.774,128.708l 516.222,0 L 1266.996,677.079 L 750.774,677.079 L 750.774,128.708 z M 1010.304,572.177
		c 89.268,0, 161.667-72.375, 161.667-161.667c0-89.269-72.399-161.67-161.667-161.67c-89.271,0-161.67,72.401-161.67,161.67
		C 848.634,499.803, 921.033,572.177, 1010.304,572.177zM 1460.9,806.023L 318.818,806.023 l0,72.266 c0,18.045-7.173,35.336-19.927,48.089L 157.194,1068.073
		c-26.568,26.568-69.608,26.568-96.177,0c-26.568-26.545-26.568-69.608,0-96.177l 121.771-121.771L 182.789,4.014 
		c0-37.549, 30.442-68.014, 68.014-68.014c 37.572,0, 68.016,30.465, 68.016,68.014L 318.818,161.3 l 288.376,0 l0-131.78 c0-18.776, 15.233-34.007, 34.007-34.007
		l 734.68,0 c 18.778,0, 34.009,15.231, 34.009,34.007L 1409.89,161.3 l 51.012,0 c 18.775,0, 34.009,15.233, 34.009,34.007L 1494.91,772.016 
		C 1494.909,790.812, 1479.675,806.023, 1460.9,806.023z M 457.771,246.318c0-16.475-13.351-29.848-29.846-29.848l-65.182,0 
		c-16.494,0-29.844,13.372-29.844,29.848L 332.899,413.521 c0,16.495, 13.351,29.846, 29.844,29.846l 65.182,0 c 16.495,0, 29.846-13.349, 29.846-29.846
		L 457.771,246.318 z M 462.021,532.546c0-16.472-13.349-29.846-29.844-29.846l-69.432,0 c-16.494,0-29.844,13.374-29.844,29.846L 332.9,699.75 
		c0,16.495, 13.351,29.844, 29.844,29.844l 69.432,0 c 16.495,0, 29.844-13.349, 29.844-29.844L 462.021,532.546 z M 1335.008,94.7
		c0-18.775-15.231-34.007-34.006-34.007L 716.767,60.692 c-18.775,0-34.007,15.233-34.007,34.007L 682.76,711.084 c0,18.798, 15.233,34.009, 34.007,34.009
		l 584.238,0 c 18.775,0, 34.006-15.209, 34.006-34.009L 1335.010,94.7 zM 1006.737,297.174l 3.037-0.043c 63.342,0, 114.529,48.531, 116.544,110.5c 0.353,11.314-1.041,22.673-4.164,33.744
		c-1.438,5.202-5.421,9.319-10.56,10.979c-5.156,1.637-10.803,0.576-14.988-2.788c-4.318-3.454-11.425-7.594-20.811-7.594
		c-18.334,0-33.254,14.922-33.254,33.276c0,7.084, 2.301,13.905, 6.642,19.704c 3.233,4.341, 4.073,9.964, 2.259,15.057
		c-1.816,5.047-6.046,8.878-11.271,10.184c-9.078,2.258-17.689,3.454-26.301,3.653l-2.925,0.023c-62.478,0-114.794-49.571-116.61-110.435
		c-1.020-29.846, 9.741-58.294, 30.308-80.102C 945.962,310.747, 975.12,297.905, 1006.737,297.174z" horiz-adv-x="1536"  />
<glyph unicode="&#x28;" d="M 1347.023,540.583L 412.404,540.583 l 877.853,320.794c 7.082,2.577, 12.847,7.878, 16.036,14.719
	c 3.189,6.86, 3.522,14.683, 0.928,21.764L 1244.541,1069.307c-5.396,14.756-21.71,22.321-36.485,16.982L 179.224,710.361
	c-7.101-2.596-12.856-7.898-16.045-14.756c-3.189-6.821-3.522-14.683-0.928-21.745l 60.945-166.756l0-542.664 
	c0-15.704, 12.737-28.439, 28.448-28.439l 1095.377,0 c 15.703,0, 28.456,12.735, 28.456,28.439l0,547.707 
	C 1375.479,527.847, 1362.724,540.583, 1347.023,540.583z M 1132.084,914.824l 22.82,83.683c 4.135,15.165, 19.837,24.081, 34.927,19.966
	c 15.183-4.133, 24.1-19.781, 19.966-34.927l-22.803-83.683c-3.448-12.663-14.942-20.986-27.436-20.986c-2.485,0-5.006,0.333-7.51,1.001
	C 1136.886,884.013, 1127.951,899.679, 1132.084,914.824z M 993.489,864.584l 22.822,83.666c 4.152,15.165, 19.873,24.118, 34.946,19.985
	c 15.163-4.153, 24.098-19.799, 19.965-34.946l-22.839-83.664c-3.467-12.643-14.924-20.968-27.438-20.968c-2.484,0-5.006,0.315-7.49,1.001
	C 998.273,833.792, 989.354,849.438, 993.489,864.584z M 853.875,813.399l 22.82,83.683c 4.133,15.165, 19.873,24.065, 34.927,19.948
	c 15.183-4.115, 24.098-19.762, 19.965-34.927l-22.82-83.666c-3.428-12.643-14.924-20.966-27.419-20.966c-2.484,0-5.006,0.315-7.508,1.001
	C 858.676,782.606, 849.741,798.252, 853.875,813.399z M 714.77,763.956l 22.822,83.684c 4.124,15.165, 19.854,24.081, 34.936,19.966
	c 15.165-4.133, 24.1-19.781, 19.966-34.927l-22.82-83.683c-3.448-12.663-14.933-20.986-27.438-20.986c-2.474,0-4.995,0.333-7.499,1.001
	C 719.562,733.146, 710.635,748.81, 714.77,763.956z M 577.092,711.658l 22.82,83.647c 4.126,15.165, 19.837,24.081, 34.927,19.985
	c 15.174-4.153, 24.1-19.799, 19.976-34.946l-22.822-83.646c-3.448-12.663-14.933-20.968-27.438-20.968c-2.484,0-4.995,0.316-7.499,1.001
	C 581.884,680.848, 572.959,696.512, 577.092,711.658z M 437.505,660.677l 22.84,83.683c 4.144,15.183, 19.837,24.1, 34.927,19.985
	c 15.174-4.153, 24.1-19.801, 19.966-34.927l-22.831-83.683c-3.467-12.661-14.933-20.986-27.438-20.986c-2.484,0-4.995,0.333-7.499,1.001
	C 442.297,629.903, 433.372,645.549, 437.505,660.677z M 297.343,609.714l 22.802,83.683c 4.126,15.146, 19.799,24.118, 34.927,19.966
	c 15.156-4.115, 24.1-19.762, 19.966-34.927l-22.793-83.683c-3.448-12.663-14.915-20.986-27.438-20.986c-2.484,0-4.997,0.333-7.499,1.001
	C 302.154,578.922, 293.21,594.531, 297.343,609.714z M 1225.112,57.799L 373.176,57.799 c-15.712,0-28.457,12.737-28.457,28.456
	c0,15.704, 12.746,28.439, 28.457,28.439l 397.72,0 L 770.895,390.272 c0,15.703, 12.756,28.439, 28.457,28.439s 28.439-12.737, 28.439-28.439l0-275.578 
	l 397.32,0 c 15.704,0, 28.439-12.735, 28.439-28.439C 1253.55,70.535, 1240.815,57.799, 1225.112,57.799z" horiz-adv-x="1536"  />
<glyph unicode="&#x29;" d="M 1326.009,234.073l0-261.369 c0-2.514-0.175-5.027-0.702-7.384c-2.338-11.32-9.721-20.69-19.635-25.734
		c-1.425-0.722-3.058-1.266-4.5-1.811c-1.266-0.528-2.496-0.897-3.937-1.072c-2.163-0.544-4.324-0.703-6.488-0.703
		c-0.175,0-0.175,0-0.369,0L 245.253-64 c-2.161,0-4.307,0.16-6.468,0.703c-1.441,0.352-2.708,0.72-3.974,1.072
		c-1.441,0.544-3.058,1.089-4.5,1.811c-9.896,5.044-17.278,14.414-19.616,25.734c-0.544,2.355-0.703,4.869-0.703,7.384L 209.991,234.073 
		c0,39.234, 8.262,76.307, 23.203,109.81c 39.956,89.632, 127.617,152.473, 230.045,154.442l 70.189,0 c 7.771,0, 17.297-1.811, 26.49-4.324
		c 0.51,0, 1.072-0.175, 1.601-0.528c 14.958-4.322, 29.179-10.81, 34.91-16.206c 47.902-27.722, 102.27-114.679, 131.591-148.869
		c 0.194,0, 0.369-0.352, 0.369-0.352c 1.986-2.161, 3.779-4.147, 5.398-5.958c 1.089-1.072, 2.144-2.163, 3.058-3.041
		c 0.369-0.194, 0.544-0.369, 0.72-0.72c 0.914-0.737, 1.634-1.441, 2.163-2.18c 0.369-0.352, 0.544-0.528, 0.914-0.722
		c 0.175-0.352, 0.352-0.703, 0.703-0.895c 0.369-0.352, 0.72-0.703, 0.914-0.897c 0.175,0, 0.352-0.175, 0.352-0.175
		c 0.177,0, 0.177,0, 0.177,0c 14.045-14.397, 36.545-14.397, 50.59,0c0,0, 0.177,0.175, 0.352,0.175c 0.194,0.194, 0.544,0.544, 0.914,0.897
		c 0.352,0.192, 0.528,0.544, 0.703,0.895c 0.369,0.194, 0.544,0.369, 0.914,0.722c 0.528,0.737, 1.249,1.441, 2.163,2.18
		c 0.175,0.352, 0.352,0.527, 0.72,0.72c 0.915,0.879, 1.969,1.969, 3.058,3.041c 1.617,1.811, 3.411,3.797, 5.398,5.958
		c0,0, 0.175,0.194, 0.369,0.352c 29.321,34.19, 83.689,121.147, 131.747,148.869c 5.573,5.396, 19.793,11.882, 34.752,16.206
		c 0.527,0.177, 1.091,0.352, 1.599,0.528c 9.193,2.514, 18.721,4.324, 26.491,4.324l 70.172,0 c 102.445-1.969, 190.108-64.81, 230.081-154.442
		C 1317.747,310.378, 1326.009,273.307, 1326.009,234.073zM 210.695-34.679c-0.352,1.266-0.544,2.355-0.703,3.603l0,3.78 
		C 209.991-29.81, 210.149-32.325, 210.695-34.679zM 230.311-60.413c-10.267,4.676-17.824,14.22-19.616,25.734
		C 213.032-46, 220.414-55.369, 230.311-60.413zM 795.344,315.424c-0.175-0.352-0.352-0.703-0.703-0.895c-0.369-0.352-0.72-0.703-0.914-0.897
		c-0.175,0-0.352-0.175-0.352-0.175C 793.726,314, 794.272,314.527, 795.344,315.424zM 807.595,328.044c-1.986-2.161-3.78-4.147-5.398-5.958c-1.089-1.072-2.144-2.163-3.058-3.041
		c-0.369-0.194-0.544-0.369-0.72-0.72c-0.915-0.737-1.634-1.441-2.163-2.18C 798.771,319.045, 802.551,323, 807.595,328.044zM 1326.009,255.85l0-21.779 c0,39.234-8.262,76.307-23.201,109.81
		c-39.973,89.632-127.635,152.473-230.081,154.442l-70.172,0 c-7.771,0-17.298-1.811-26.491-4.324c 7.4,2.883, 16.033,4.5, 25.401,4.5
		l 0.527,0.175c 56.162,0, 65.901,0, 65.901,0c 104.941,0, 195.117-63.526, 235.793-155.162
		C 1315.744,316.707, 1323.319,287.001, 1326.009,255.85zM 468.812,498.325l-5.573,0 c 1.794,0.175, 3.605,0.175, 5.398,0.175
		C 468.637,498.5, 468.637,498.325, 468.812,498.325zM 768.115,1088c 153.422,0, 277.927-127.407, 277.927-284.449c0-156.674-124.507-284.080-277.927-284.080
		c-153.774,0-278.14,127.126-278.14,284.080C 489.975,960.593, 614.342,1088, 768.115,1088L 768.115,1088z" horiz-adv-x="1536"  />
<glyph unicode="&#x2a;" d="M 1123.326,981.177L 967.027,981.177 L 967.027,1061.014 c0,14.899-12.087,26.986-26.986,26.986L 595.959,1088 
		c-14.899,0-26.986-12.088-26.986-26.986l0-79.837 L 412.674,981.177 c-14.899,0-26.986-12.088-26.986-26.988l0-103.45 c0-14.899, 12.087-26.988, 26.986-26.988l 710.652,0 
		c 14.899,0, 26.986,12.088, 26.986,26.988l0,103.45 C 1150.312,969.089, 1138.225,981.177, 1123.326,981.177z M 913.055,981.177L 622.945,981.177 L 622.945,1034.026 l 290.109,0 
		L 913.054,981.177 zM 1083.408,767.918L 452.592,767.918 c-14.899,0-26.986-12.088-26.986-26.986l0-777.946 c0-14.898, 12.087-26.986, 26.986-26.986
		l 630.817,0 c 14.899,0, 26.986,12.088, 26.986,26.986L 1110.394,740.932 C 1110.394,755.831, 1098.308,767.918, 1083.408,767.918z M 575.157,18.084
		c0-14.898-12.088-26.986-26.986-26.986c-14.899,0-26.988,12.088-26.988,26.986L 521.183,688.258 c0,14.899, 12.088,26.988, 26.988,26.988
		c 14.898,0, 26.986-12.088, 26.986-26.988L 575.157,18.084 z M 721.528,18.084c0-14.898-12.087-26.986-26.986-26.986s-26.986,12.088-26.986,26.986
		L 667.556,688.258 c0,14.899, 12.087,26.988, 26.986,26.988s 26.986-12.088, 26.986-26.988L 721.528,18.084 z M 867.881,18.084c0-14.898-12.087-26.986-26.986-26.986
		c-14.898,0-26.986,12.088-26.986,26.986L 813.91,688.258 c0,14.899, 12.088,26.988, 26.986,26.988c 14.899,0, 26.986-12.088, 26.986-26.988L 867.881,18.084 z
		 M 1014.255,18.084c0-14.898-12.088-26.986-26.986-26.986c-14.899,0-26.988,12.088-26.988,26.986L 960.281,688.258 c0,14.899, 12.088,26.988, 26.988,26.988
		c 14.898,0, 26.986-12.088, 26.986-26.988L 1014.255,18.084 z" horiz-adv-x="1536"  />
<glyph unicode="&#x2b;" d="M 1035.124,1088L 500.876,1088 c-15.114,0-27.387-12.256-27.387-27.387l0-1097.226 c0-15.116, 12.273-27.387, 27.387-27.387l 534.248,0 
		c 15.116,0, 27.387,12.271, 27.387,27.387L 1062.511,1060.613 C 1062.511,1075.744, 1050.24,1088, 1035.124,1088z M 882.669,50.775L 654.196,50.775 
		c-15.133,0-27.387,12.271-27.387,27.405c0,15.114, 12.256,27.387, 27.387,27.387l 228.472,0 c 15.133,0, 27.404-12.273, 27.404-27.387
		C 910.072,63.046, 897.801,50.775, 882.669,50.775z M 714.602,242.924c0,29.752, 24.157,53.786, 53.803,53.786
		c 29.7,0, 53.801-24.032, 53.801-53.786c0-29.719-24.101-53.786-53.801-53.786C 738.759,189.139, 714.602,213.207, 714.602,242.924z
		 M 963.418,919.281c0-15.133-12.273-27.387-27.405-27.387L 600.852,891.894 c-15.133,0-27.404,12.256-27.404,27.387L 573.449,964.575 
		c0,15.114, 12.273,27.404, 27.404,27.404l 335.16,0 c 15.133,0, 27.405-12.29, 27.405-27.404L 963.418,919.281 z" horiz-adv-x="1536"  />
<glyph unicode="&#x2c;" d="M 138.262,319.968L 733.683,319.968L 733.683,133.609L 138.262,133.609zM 802.391,319.968L 1397.88,319.968L 1397.88,133.609L 802.391,133.609zM 1500.944,1033.059L 35.036,1033.059 C 15.712,1033.059,0,1017.347,0,998.024l0-972.004 c0-19.367, 15.712-35.081, 35.036-35.081
		l 1465.908,0 c 19.346,0, 35.056,15.712, 35.056,35.081L 1536,998.024 C 1536,1017.347, 1520.288,1033.059, 1500.944,1033.059z M 1466.59,354.323l0-255.068 
		c0-18.971-15.385-34.377-34.354-34.377L 768.035,64.878 L 103.884,64.878 c-18.948,0-34.331,15.406-34.331,34.377l0,255.068 l0,574.525 
		c0,18.947, 15.383,34.331, 34.331,34.331l 1328.351,0 c 18.971,0, 34.354-15.383, 34.354-34.331L 1466.59,354.323 zM 138.262,388.676L 768.035,388.676L 1397.88,388.676L 1397.88,894.47L 138.262,894.47 	z" horiz-adv-x="1536"  />
<glyph unicode="&#x2d;" d="M 1050.639,360.793l-209.707,23.942c-15.117,20.707-17.016,59.062-18.527,89.93
		c-0.458,8.297-0.845,16.067-1.441,22.853c-3.728,40.851-6.47,85.323-8.508,135.842l-0.106,3.164
		c-0.948,25.347-2.917,78.012-38.776,78.118c-42.082,0-48.235-28.794-48.727-56.953l-6.012-360.281
		c 0.246-4.782, 0.422-8.895, 0.562-12.446c-10.898,14.062-27.843,37.687-39.411,53.823c-13.288,18.529-20.355,28.302-22.535,30.691
		c-27.668,29.216-51.012,42.082-73.124,38.919c-21.094-3.024-34.7-11.216-40.36-24.293c-9.528-21.902, 6.222-52.030, 21.2-73.441
		c 26.226-37.756, 52.032-76.077, 77.8-114.434c 40.957-60.996, 83.32-124.030, 127.371-183.867c 34.628-47.109, 90.209-76.359, 145.089-76.359
		c 40.993,0, 78.433,15.679, 108.247,45.35c 17.368,17.262, 23.8,29.954, 27.422,54.176l 20.182,133.417
		c 0.702,4.605, 2.038,11.32, 3.689,19.476c 8.649,43.665, 24.75,124.911, 0.703,157.816C 1069.448,354.712, 1061.044,359.633, 1050.639,360.793zM 882.24,693.933c 11.25,0, 20.883,6.961, 24.891,16.804l 0.21-0.069c 5.379,15.257, 8.614,31.5, 8.614,48.585
		c0,81.563-66.375,147.937-147.972,147.937s-147.972-66.375-147.972-147.937c0-17.772, 3.516-34.629, 9.316-50.379l 0.263,0.088
		c 3.709-10.354, 13.518-17.807, 25.12-17.807c 14.801,0, 26.789,11.988, 26.789,26.789c0,2.794-0.527,5.448-1.336,7.98l 0.123,0.035
		l 0.088,0.106c-3.937,10.354-6.364,21.463-6.364,33.187c0,51.785, 42.152,93.937, 93.972,93.937c 51.82,0, 93.972-42.152, 93.972-93.937
		c0-11.075-2.269-21.55-5.837-31.394l 0.212-0.069c-0.599-2.25-1.020-4.536-1.020-6.961C 855.311,705.992, 867.368,693.933, 882.24,693.933
		zM 552.895,579.974c0,5.958-1.951,11.408-5.202,15.873c-34.032,45.737-54.457,102.129-54.457,163.406
		c0,151.488, 123.241,274.746, 274.747,274.746c 151.505,0, 274.781-123.258, 274.781-274.746c0-54.387-16.279-104.8-43.699-147.445
		l-0.281-0.808c-3.077-4.394-4.923-9.738-4.923-15.54c0-14.976, 12.165-27.14, 27.175-27.14c 11.268,0, 20.919,6.874, 25.032,16.664
		c 31.921,50.556, 50.696,110.18, 50.696,174.27C 1096.764,940.519, 949.266,1088, 767.983,1088S 439.236,940.519, 439.236,759.255
		c0-71.896, 23.361-138.288, 62.684-192.427l 0.263,0.088c 4.623-8.333, 13.412-14.045, 23.608-14.045
		C 540.786,552.868, 552.895,565.017, 552.895,579.974z" horiz-adv-x="1536"  />
<glyph unicode="&#x2e;" d="M 768.439,917.791c-15.835,0-28.712-12.879-28.712-28.714c0-15.835, 12.879-28.712, 28.712-28.712
			c 15.836,0, 28.714,12.879, 28.714,28.712C 797.153,904.913, 784.275,917.791, 768.439,917.791zM 871.631,1088L 665.266,1088 c-14.921,0-27.026-12.124-27.026-27.026l0-881.767 c0-14.939, 12.105-27.026, 27.026-27.026
			l 206.365,0 c 14.921,0, 27.026,12.087, 27.026,27.026L 898.657,1060.974 C 898.657,1075.876, 886.552,1088, 871.631,1088z M 767.834,245.73
			c-17.288,0-31.301,14.005-31.301,31.301c0,17.26, 14.013,31.264, 31.301,31.264c 17.286,0, 31.308-14.004, 31.308-31.264
			C 799.141,259.737, 785.12,245.73, 767.834,245.73z M 768.439,806.313c-45.639,0-82.764,37.125-82.764,82.764
			c0,45.641, 37.125,82.764, 82.764,82.764c 45.641,0, 82.764-37.124, 82.764-82.764C 851.204,843.438, 814.080,806.313, 768.439,806.313zM 1003.73-56.277c-1.232,119.694-121.014,119.676-178.723,119.676l-114.294,0 c-58.016,0-178.74,0-178.74-121.524
		c0-3.236, 2.62-5.875, 5.858-5.875l 100.050,0 c 3.236,0, 5.858,2.639, 5.858,5.875c0,34.626, 10.125,49.793, 107.018,49.793l 34.204,0 
		c 96.874,0, 107.009-15.166, 107.009-49.793c0-3.236, 2.622-5.875, 5.858-5.875l 100.060,0 c 0.071,0, 0.177,0.017, 0.283,0
		c 3.236,0, 5.858,2.639, 5.858,5.875C 1004.028-57.49, 1003.923-56.858, 1003.73-56.277z" horiz-adv-x="1536"  />
<glyph unicode="&#x2f;" d="M 164.695,946.23L 1371.33,946.23L 1371.33,196.831L 164.695,196.831zM 1482.272,1088L 53.728,1088 C 34.336,1088, 18.601,1072.265, 18.601,1052.872l0-1081.743 c0-19.394, 15.733-35.128, 35.127-35.128l 1428.543,0 
		c 19.394,0, 35.127,15.735, 35.127,35.128L 1517.398,1052.872 C 1517.399,1072.265, 1501.664,1088, 1482.272,1088z M 808.251-10.142l-96.602,0 
		c-19.394,0-35.128,15.733-35.128,35.127s 15.735,35.128, 35.128,35.128l 96.602,0 c 19.394,0, 35.128-15.735, 35.128-35.128
		S 827.644-10.142, 808.251-10.142z M 1441.585,161.701c0-19.394-15.735-35.127-35.128-35.127L 129.566,126.575 
		c-19.394,0-35.128,15.733-35.128,35.127L 94.438,981.359 c0,19.394, 15.735,35.128, 35.128,35.128l 1276.892,0 c 19.394,0, 35.128-15.735, 35.128-35.128L 1441.587,161.701 
		z" horiz-adv-x="1536"  />
<glyph unicode="&#x30;" d="M 1269.727,1013.581C 1107.594,1062.957, 938.799,1088, 768.018,1088C 597.201,1088, 428.387,1062.957, 266.272,1013.581
		c-11.466-3.491-19.3-14.073-19.283-26.072l 0.496-394.749c 0.338-198.437, 71.814-363.158, 212.449-489.631
		c 113.517-101.697, 239.227-147.493, 287.453-162.274c 5.104-1.7, 9.27-2.871, 12.726-3.865c 2.393-0.637, 4.837-0.992, 7.302-0.992
		c 2.694,0, 5.388,0.424, 7.975,1.204c 3.456,1.063, 7.798,2.553, 12.832,4.361c 19.355,6.877, 39.311,14.922, 59.214,23.891
		c 44.413,19.744, 111.727,54.339, 180.174,107.154c 173.049,134.52, 260.957,309.519, 261.258,520.186l 0.143,394.73
		C 1289.010,999.525, 1281.176,1010.088, 1269.727,1013.581z M 1234.316,592.211c-0.284-189.985-78.851-347.792-233.467-469.019
		c-60.968-47.499-121.12-78.728-160.873-96.593c-22.704-10.244-41.312-17.369-52.921-21.516c-4.448-1.631-8.419-3.012-11.52-3.969
		c-2.623-0.816-5.336-1.206-8.047-1.206c-2.481,0-4.98,0.319-7.391,1.029c-3.137,0.885-6.947,1.949-11.555,3.508
		c-42.908,13.293-155.22,54.588-256.65,146.287C 366.178,264.765, 302.322,413.284, 302.039,592.193l-0.461,354.305
		c-0.018,11.964, 7.78,22.544, 19.231,26.054c 144.479,44.415, 294.949,66.94, 447.209,66.94c 152.242,0, 302.693-22.525, 447.193-66.94
		c 11.431-3.51, 19.231-14.073, 19.231-26.035L 1234.316,592.211zM 356.042,926.295l 0.442-334.031c 0.249-162.92, 58.115-297.9, 171.951-401.156
		c 95.971-86.773, 205.589-125.161, 236.905-134.875c 0.55-0.177, 1.1-0.353, 1.614-0.533c 0.495,0.178, 1.009,0.39, 1.542,0.568
		c 10.883,3.898, 28.020,10.457, 49.112,19.991c 37.076,16.624, 93.082,45.727, 149.708,89.858c 140.758,110.345, 212.289,253.726, 212.555,426.145
		l 0.123,334.012C 913.135,1004.293, 622.828,1004.276, 356.042,926.295z M 838.644,770.541c 4.396-0.637, 7.516-4.519, 7.445-8.878
		L 794.957,581.221l 86.862-0.284c 3.118,0.673, 6.202-0.247, 8.436-2.41c 2.057-2.232, 2.977-5.459, 2.127-8.417L 730.958,321.055
		c-3.155-4.077-5.316-6.947-9.747-6.239c-4.394,0.602-7.551,4.465-7.337,8.897l 51.894,193.281l-99.995-0.124
		c-3.67,0.124-6.381-0.195-8.701,2.003c-2.322,2.215-3.333,5.531-2.322,8.649l 174.13,236.711
		C 832.921,769.567, 834.249,771.251, 838.644,770.541z" horiz-adv-x="1536"  />
<glyph unicode="&#x31;" d="M 1319.931,871.266c-3.468,8.321-10.849,14.378-19.687,16.14c-8.841,1.786-17.98-0.994-24.373-7.334
		l-117.479-116.794l-24.18,0 l-114.523,116.566c-7.167,7.291-7.167,20.068-1.25,26.178l 122.482,109.839
		c 5.725,5.133, 8.998,14.308, 8.998,21.994l0,12.979 c0,12.988-9.228,24.135-21.979,26.574C 1090.571,1084.53, 1058.115,1088, 1028.739,1088
		c-73.312,0-127.095-22.613-159.921-67.202c-77.857-80.35-99.817-194.458-58.362-296.105L 217.048,152.665
		c-24.866-25.307-24.848-74.969,0-100.256c 0.528-0.545, 1.092-1.074, 1.691-1.568l 109.151-93.584
		c 12.432-14.3, 26.627-21.257, 43.321-21.257c 14.088,0, 29.129,5.003, 50.296,16.732c 2.501,1.375, 4.755,3.135, 6.691,5.23l 561.022,602.865
		c 40.030-17.504, 81.555-26.699, 121.18-26.699l0,0c 65.054,0, 121.249,25.412, 158.355,71.605
		C 1335.552,677.585, 1356.122,784.147, 1319.931,871.266z M 919.043,709.282c-6.921,0-13.842,2.642-19.125,7.924
		c-10.566,10.568-10.566,27.683,0,38.251l 66.427,66.444c 10.549,10.568, 27.683,10.568, 38.249,0c 10.568-10.557, 10.568-27.683,0-38.249
		l-66.426-66.446C 932.885,711.924, 925.964,709.282, 919.043,709.282z M 1080.217,715.446l-66.427-66.444
		c-5.267-5.282-12.188-7.924-19.125-7.924c-6.904,0-13.842,2.642-19.125,7.924c-10.568,10.548-10.568,27.683,0,38.249l 66.427,66.446
		c 10.566,10.566, 27.683,10.566, 38.249,0C 1090.783,743.131, 1090.783,726.014, 1080.217,715.446z" horiz-adv-x="1536"  />
<glyph unicode="&#x32;" d="M 1167.179,954.442C 1156.545,1042.152, 961.144,1088, 768.032,1088C 574.874,1088, 379.447,1042.152, 368.832,954.442l-0.751,0 l0-16.71 
	l0-843.513 l0-19.36 l 0.617,0 C 372.019-16.306, 571.271-64, 768.252-64l 0.018,0 c 194.358,0, 390.96,46.456, 399.262,135.326l 0.389,0 L 1167.921,954.442 L 1167.179,954.442 z
	 M 1110.829,410.759l0-102.099 c-107.611-90.317-346.852-78.534-346.852-78.534c-185.446-2.473-293.242,47.551-343.54,86.219L 420.437,667.454 
	c 143.238-82.528, 343.54-77.316, 343.54-77.316c 212.182-0.284, 285.277,36.652, 346.852,66.134L 1110.829,410.759 z M 768.032,858.128
	c-224.767,0-347.374,58.628-347.374,88.772c0,30.135, 122.607,88.772, 347.374,88.772c 224.732,0, 347.32-58.637, 347.32-88.772
	C 1115.353,916.756, 992.763,858.128, 768.032,858.128z" horiz-adv-x="1536"  />
<glyph unicode="&#x33;" d="M 404.635,843.747c-82.855,0-150.279-67.404-150.279-150.259c0-82.815, 67.424-150.198, 150.279-150.198
		c 82.815,0, 150.187,67.384, 150.187,150.198C 554.822,776.343, 487.45,843.747, 404.635,843.747zM 678.41,1088L 130.798,1088 C 113.294,1088, 99.089,1073.795, 99.089,1056.289l0-1088.591 c0-17.497, 14.205-31.7, 31.709-31.7
		l 547.612,0 c 17.504,0, 31.709,14.203, 31.709,31.7L 710.119,1056.289 C 710.119,1073.795, 695.916,1088, 678.41,1088z M 404.635,87.546
		c-31.975,0-57.88,25.935-57.88,57.881c0,31.964, 25.905,57.86, 57.88,57.86c 31.955,0, 57.84-25.895, 57.84-57.86
		C 462.474,113.482, 436.59,87.546, 404.635,87.546z M 404.635,479.871c-117.823,0-213.688,95.833-213.688,213.616
		c0,117.823, 95.863,213.667, 213.688,213.667c 117.784,0, 213.607-95.843, 213.607-213.667
		C 618.242,575.704, 522.418,479.871, 404.635,479.871zM 1131.447,842.113c-81.956,0-148.626-66.669-148.626-148.623c0-81.915, 66.669-148.543, 148.626-148.543
		c 81.933,0, 148.58,66.627, 148.58,148.543C 1280.029,775.444, 1213.38,842.113, 1131.447,842.113zM 1405.213,1088L 857.58,1088 c-17.497,0-31.702-14.205-31.702-31.711l0-1088.591 c0-17.497, 14.205-31.7, 31.702-31.7
		l 547.632,0 c 17.494,0, 31.698,14.203, 31.698,31.7L 1436.91,1056.289 C 1436.91,1073.795, 1422.705,1088, 1405.213,1088z M 1131.447,89.694
		c-30.843,0-55.818,24.975-55.818,55.734c0,30.778, 24.975,55.754, 55.818,55.754c 30.758,0, 55.712-24.975, 55.712-55.754
		C 1187.161,114.668, 1162.207,89.694, 1131.447,89.694z M 1131.447,481.527c-116.925,0-212.043,95.097-212.043,211.96
		c0,116.903, 95.118,212.033, 212.043,212.033c 116.903,0, 212-95.129, 212-212.033
		C 1343.449,576.624, 1248.352,481.527, 1131.447,481.527z" horiz-adv-x="1536"  />
<glyph unicode="&#x34;" d="M 767.962,1088C 450.378,1088, 192.009,829.613, 192.009,511.995C 192.009,194.397, 450.378-64, 767.962-64
		c 317.634,0, 576.031,258.397, 576.031,575.995C 1343.991,829.613, 1085.596,1088, 767.962,1088z M 767.962-10.036
		c-287.831,0-521.996,234.192-521.996,522.031c0,287.866, 234.165,522.048, 521.996,522.048c 287.874,0, 522.083-234.183, 522.083-522.048
		C 1290.045,224.157, 1055.836-10.036, 767.962-10.036zM 767.962,601.573c-49.421,0-89.561-40.113-89.561-89.578c0-49.464, 40.139-89.576, 89.561-89.576
		c 49.516,0, 89.63,40.113, 89.63,89.576C 857.59,561.461, 817.478,601.573, 767.962,601.573zM 767.962,759.020c-136.194,0-247.007-110.829-247.007-247.024c0-136.194, 110.812-247.007, 247.007-247.007
		c 136.246,0, 247.093,110.813, 247.093,247.007C 1015.055,648.191, 904.208,759.020, 767.962,759.020z M 767.962,318.937
		c-106.452,0-193.060,86.607-193.060,193.058c0,106.469, 86.607,193.077, 193.060,193.077c 106.505,0, 193.146-86.607, 193.146-193.077
		C 961.107,405.543, 874.465,318.937, 767.962,318.937z" horiz-adv-x="1536"  />
<glyph unicode="&#x35;" d="M 993.582,822.582c0,8.274-4.448,15.905-11.634,19.991L 555.295,1084.997c-6.883,3.934-15.357,4.003-22.333,0.212
		L 86.552,842.784c-7.397-4.015-12.008-11.775-12.008-20.201s 4.611-16.188, 12.008-20.201L 532.961,559.957
		c 3.441-1.862, 7.21-2.797, 10.979-2.797c 3.909,0, 7.841,1.006, 11.354,3.007l 426.653,242.424
		C 989.135,806.675, 993.582,814.306, 993.582,822.582zM 495.766,499.62L 32.127,747.346c-6.602,3.524-14.584,3.348-20.951-0.527c-6.414-3.84-10.346-10.769-10.346-18.248
		l0-495.44 c0-7.491, 3.957-14.468, 10.394-18.306l 463.64-275.853c 3.347-1.965, 7.116-2.974, 10.886-2.974c 3.628,0, 7.256,0.914, 10.511,2.786
		c 6.671,3.792, 10.767,10.838, 10.767,18.492L 507.027,480.847 C 507.024,488.688, 502.694,495.898, 495.766,499.62zM 1534.447,699.779c-1.662,6.121-5.946,11.188-11.729,13.822L 1081.998,914.569
		c-6.579,3.007-14.256,2.458-20.343-1.464c-6.087-3.909-9.761-10.652-9.761-17.896l0-136.977 L 597.595,508.352
		c-6.812-3.723-11.025-10.863-11.025-18.635L 586.569-33.848 c0-7.514, 3.98-14.491, 10.44-18.329c 3.348-1.966, 7.093-2.951, 10.84-2.951
		c 3.534,0, 7.070,0.889, 10.253,2.622l 433.793,238.585l0-113.604 c0-9.27, 5.992-17.463, 14.818-20.297c 8.801-2.762, 18.469,0.421, 23.831,8.006
		l 440.721,621.756C 1534.916,687.115, 1536.086,693.658, 1534.447,699.779z" horiz-adv-x="1536"  />
<glyph unicode="&#x36;" d="M 1249.992,362.274L 1048.197,193.61L 386.792,1075.52C 380.888,1083.366, 371.64,1088, 361.812,1088L 134.752,1088 
		C 117.506,1088, 103.531,1074.016, 103.531,1056.779s 13.975-31.221, 31.221-31.221l 211.45,0 l 643.457-857.965
		c-40.856-19.718-69.149-61.385-69.149-109.678c0-67.238, 54.677-121.915, 121.914-121.915c 67.198,0, 121.875,54.677, 121.875,121.915
		c0,43.538-23.051,81.751-57.523,103.296l 183.26,153.135c 13.211,11.098, 14.979,30.772, 3.923,43.985
		C 1282.899,371.583, 1263.245,373.333, 1249.992,362.274z M 1042.423-1.559c-32.804,0-59.474,26.666-59.474,59.474
		c0,32.764, 26.668,59.431, 59.474,59.431c 32.766,0, 59.432-26.666, 59.432-59.431C 1101.856,25.11, 1075.189-1.559, 1042.423-1.559zM 1426.055,641.592L 1169.785,977.142c-5,6.586-12.44,10.895-20.65,11.993
		c-8.213,1.18-16.504-1.097-23.091-6.118L 790.464,726.717c-6.565-5.041-10.895-12.44-11.993-20.652
		c-1.097-8.211, 1.12-16.544, 6.139-23.089l 256.268-335.541c 6.139-8.049, 15.449-12.276, 24.839-12.276c 6.606,0, 13.274,2.114, 18.943,6.424
		l 335.539,256.268C 1433.901,608.3, 1436.522,627.893, 1426.055,641.592z" horiz-adv-x="1536"  />
<glyph unicode="&#x37;" d="M 560.943,298.745c 10.050,0, 18.744,9.411, 21.142,22.831c 0.697,3.713, 81.245,370.357, 501.254,396.283
		c-0.313-24.581-0.313-64.584-0.313-64.584c-0.353-28.284, 8.546-48.384, 26.465-59.721c 20.748-13.183, 50.691-10.482, 67.727,5.422
		c 15.838,14.314, 193.083,175.723, 193.181,175.823c 4.834,4.656, 9.294,8.566, 13.302,12.093c 15.798,13.892, 26.21,23.058, 26.289,48.011
		c 0.237,25.18-10.178,34.463-25.974,48.521c-3.911,3.497-8.253,7.368-13.047,12.035c-1.768,1.64-175.38,163.916-190.587,178.357
		c-17.133,16.14-47.037,18.99-67.983,6.050c-17.899-10.913-26.995-30.828-27.037-59.161l-0.53-65.154
		c-53.562-5.198-543.478-68.249-545.128-620.4c-0.147-17.881, 4.921-26.8, 9.205-31.124
		C 552.338,300.573, 556.493,298.745, 560.943,298.745zM 1331.237,486.326c-36.231,0-68.335-24.127-77.216-63.914l-0.432-254.994
		c0-42.52-30.926-72.974-68.768-72.974L 351.208,94.443 c-37.793,0-67.552,30.612-67.552,67.649L 283.656,572.434 c0,30.602, 21.761,58.7, 48.276,64.377
		c 9.657,0.766, 80.508,2.436, 85.322,2.436l 12.074,1.68c 33.706,11.111, 57.284,42.569, 57.038,78.78
		c-0.461,68.75-61.95,79.86-61.95,79.86l-112.613-1.052c-16.945,0-34.571-2.436-53.118-7.182
		c-78.751-24.186-134.365-97.444-134.365-180.26l0-487.511 c0-103.88, 84.466-187.561, 187.483-187.561l 912.472,0 
		c 103.741,0, 187.404,83.681, 187.404,187.561L 1411.679,406.712 C 1411.679,450.978, 1375.448,486.326, 1331.237,486.326z" horiz-adv-x="1536"  />
<glyph unicode="&#x38;" d="M 1317.73,675.88L 218.272,675.88 c-14.52,0-26.279-11.777-26.279-26.298l0-275.202 c0-14.484, 11.76-26.263, 26.279-26.263
		l 1099.46,0 c 14.501,0, 26.278,11.778, 26.278,26.263L 1344.009,649.584 C 1344.009,664.104, 1332.233,675.88, 1317.73,675.88z M 368.88,446.205
		c0-7.488-4.64-14.203-11.637-16.841l-95.519-36.035c-2.057-0.774-4.219-1.161-6.364-1.161c-3.605,0-7.19,1.091-10.231,3.199
		c-4.869,3.375-7.769,8.895-7.769,14.801L 237.36,613.795 c0,5.906, 2.9,11.46, 7.769,14.801c 4.852,3.375, 11.075,4.149, 16.595,2.040l 95.519-36.035
		c 6.996-2.637, 11.637-9.351, 11.637-16.839L 368.88,446.205 z M 768.009,422.72c-49.307,0-89.262,39.973-89.262,89.263
		c0,49.289, 39.956,89.262, 89.262,89.262c 49.29,0, 89.245-39.973, 89.245-89.262C 857.252,462.693, 817.299,422.72, 768.009,422.72z
		 M 1298.64,410.169c0-5.906-2.9-11.425-7.752-14.801c-3.058-2.109-6.626-3.199-10.248-3.199c-2.144,0-4.289,0.387-6.345,1.161
		l-95.521,36.035c-7.013,2.637-11.654,9.353-11.654,16.841l0,131.554 c0,7.488, 4.64,14.203, 11.654,16.839l 95.521,36.035
		c 5.52,2.109, 11.724,1.336, 16.593-2.040c 4.852-3.339, 7.752-8.895, 7.752-14.801L 1298.64,410.169 zM 1317.73,263.762L 218.272,263.762 c-14.52,0-26.279-11.778-26.279-26.279l0-275.202 c0-14.501, 11.76-26.279, 26.279-26.279
		l 1099.46,0 c 14.501,0, 26.278,11.778, 26.278,26.279L 1344.009,237.481 C 1344.009,251.984, 1332.233,263.762, 1317.73,263.762z M 368.88,34.103
		c0-7.488-4.64-14.202-11.637-16.839l-95.519-36.036c-2.057-0.773-4.219-1.16-6.364-1.16c-3.605,0-7.19,1.091-10.231,3.199
		c-4.869,3.358-7.769,8.893-7.769,14.801L 237.36,201.694 c0,5.906, 2.9,11.443, 7.769,14.801c 4.852,3.375, 11.075,4.149, 16.595,2.040l 95.519-36.036
		c 6.996-2.637, 11.637-9.351, 11.637-16.839L 368.88,34.103 z M 768.009,10.619c-49.307,0-89.262,39.971-89.262,89.262
		c0,49.289, 39.956,89.262, 89.262,89.262c 49.29,0, 89.245-39.973, 89.245-89.262C 857.252,50.592, 817.299,10.619, 768.009,10.619z
		 M 1298.64-1.932c0-5.907-2.9-11.443-7.752-14.801c-3.058-2.109-6.626-3.199-10.248-3.199c-2.144,0-4.289,0.387-6.345,1.16
		l-95.521,36.036c-7.013,2.637-11.654,9.351-11.654,16.839l0,131.555 c0,7.488, 4.64,14.202, 11.654,16.839l 95.521,36.036
		c 5.52,2.109, 11.724,1.335, 16.593-2.040c 4.852-3.358, 7.752-8.895, 7.752-14.801L 1298.64-1.932 zM 1317.73,1088L 218.272,1088 c-14.52,0-26.279-11.777-26.279-26.279l0-275.204 c0-14.501, 11.76-26.279, 26.279-26.279
		l 1099.46,0 c 14.501,0, 26.278,11.778, 26.278,26.279L 1344.009,1061.721 C 1344.009,1076.223, 1332.233,1088, 1317.73,1088z M 368.88,858.342
		c0-7.488-4.64-14.203-11.637-16.839l-95.519-36.035c-2.057-0.773-4.219-1.16-6.364-1.16c-3.605,0-7.19,1.089-10.231,3.199
		c-4.869,3.358-7.769,8.895-7.769,14.801L 237.36,1025.932 c0,5.906, 2.9,11.443, 7.769,14.801c 4.852,3.375, 11.075,4.149, 16.595,2.038l 95.519-36.035
		c 6.996-2.636, 11.637-9.351, 11.637-16.839L 368.88,858.342 z M 768.009,834.858c-49.307,0-89.262,39.971-89.262,89.262
		s 39.956,89.262, 89.262,89.262c 49.29,0, 89.245-39.973, 89.245-89.262S 817.299,834.858, 768.009,834.858z M 1298.64,822.306
		c0-5.906-2.9-11.443-7.752-14.801c-3.058-2.11-6.626-3.199-10.248-3.199c-2.144,0-4.289,0.387-6.345,1.16l-95.521,36.035
		c-7.013,2.637-11.654,9.351-11.654,16.839L 1167.12,989.896 c0,7.488, 4.64,14.203, 11.654,16.839l 95.521,36.035c 5.52,2.11, 11.724,1.336, 16.593-2.038
		c 4.852-3.358, 7.752-8.895, 7.752-14.801L 1298.64,822.306 z" horiz-adv-x="1536"  />
<glyph unicode="&#x39;" d="M 1500.961,730.505L 35.039,730.505 C 15.679,730.505,0,714.801,0,695.455l0-366.921 c0-19.335, 15.679-35.039, 35.039-35.039
	l 1465.923,0 c 19.335,0, 35.039,15.704, 35.039,35.039L 1536.002,695.455 C 1536,714.801, 1520.296,730.505, 1500.961,730.505z M 235.848,424.297
	c0-9.984-6.187-18.937-15.517-22.452l-127.357-48.046c-2.742-1.032-5.625-1.547-8.483-1.547c-4.805,0-9.585,1.452-13.641,4.264
	c-6.493,4.477-10.359,11.861-10.359,19.735L 60.491,647.749 c0,7.875, 3.868,15.259, 10.359,19.735c 6.47,4.513, 14.766,5.52, 22.125,2.719
	l 127.357-48.045c 9.328-3.528, 15.517-12.469, 15.517-22.453L 235.848,424.297 z M 768.012,392.988c-65.742,0-119.014,53.295-119.014,119.012
	s 53.273,119.003, 119.014,119.003c 65.716,0, 118.989-53.284, 118.989-119.003S 833.729,392.988, 768.012,392.988z M 1475.508,376.251
	c0-7.874-3.868-15.257-10.336-19.735c-4.077-2.812-8.835-4.264-13.664-4.264c-2.858,0-5.719,0.515-8.46,1.547l-127.357,48.046
	c-9.351,3.514-15.538,12.468-15.538,22.452L 1300.152,599.703 c0,9.984, 6.187,18.925, 15.538,22.453l 127.357,48.045
	c 7.359,2.802, 15.632,1.794, 22.123-2.719c 6.47-4.476, 10.336-11.859, 10.336-19.735L 1475.506,376.251 z" horiz-adv-x="1536"  />
<glyph unicode="&#x3a;" d="M 859.592,514.834c0,49.192-39.882,89.074-89.093,89.074c-49.14,0-89.056-39.882-89.056-89.074
		c0-49.175, 39.918-89.056, 89.056-89.056C 819.709,425.777, 859.592,465.659, 859.592,514.834zM 770.499,1088C 454.489,1088, 197.385,830.88, 197.385,514.834c0-49.157, 6.23-96.871, 17.934-142.421
		c 7.745,34.795, 21.719,63.166, 39.882,85.889c-2.041,18.587-3.15,37.418-3.15,56.532c0,285.897, 232.586,518.5, 518.448,518.5
		c 285.897,0, 518.5-232.604, 518.5-518.5S 1056.396-3.649, 770.499-3.649c-18.374,0-36.503,0.986-54.384,2.868l0-38.879 
		c0-5.543-1.057-10.772-2.605-15.804c 18.744-1.866, 37.735-2.851, 56.989-2.851c 316.029,0, 573.166,257.12, 573.166,573.149
		C 1343.665,830.88, 1086.528,1088, 770.499,1088zM 662.136,203.046l-0.017,35.465c-0.493,8.254-6.407,20.539-20.628,20.539l-48.154,0 L 593.337,307.451 
		c0,161.146-126.668,173.679-165.512,173.679c-0.054,0-0.141,0-0.212,0s-0.158,0-0.229,0c-38.809,0-165.459-12.532-165.459-173.679
		l0-48.401 l-48.611,0 c-14.222,0-20.1-12.285-20.628-20.945l0-12.425 l-0.352,0 l0-265.341 l 0.37,0 l0-3.783 c 0.51-8.254, 6.388-20.558, 20.61-20.558
		l 428.175,0 c 14.222,0, 20.134,12.303, 20.645,20.962L 662.134-1.254 c0,0.158-0.052,0.264-0.088,0.421L 662.047,202.448 
		C 662.065,202.643, 662.136,202.852, 662.136,203.046z M 478.197,39.207c 0.951-2.482, 0.616-5.281-0.897-7.48
		c-1.531-2.183-4.012-3.502-6.671-3.502l-86.417,0 c-2.657,0-5.139,1.304-6.654,3.502c-1.513,2.183-1.865,4.981-0.915,7.48l 22.493,59.647
		c-14.186,9.416-23.022,25.432-23.022,42.592c0,28.336, 23.038,51.393, 51.375,51.393c 28.249,0, 51.233-23.057, 51.233-51.393
		c0-17.495-8.695-33.247-23.092-42.646L 478.197,39.207z M 495.022,259.050l-134.747,0 l0,48.611 c0,34.83, 11.704,76.332, 67.338,76.438
		c 55.705-0.104, 67.409-41.607, 67.409-76.438L 495.022,259.050 zM 647.229,298.651l 0.052-1.918c 36.31-21.137, 78.356-33.457, 123.289-33.457
		c 135.732,0, 246.156,110.388, 246.156,246.086c0,135.715-110.425,246.121-246.156,246.121c-135.679,0-246.084-110.406-246.084-246.121
		c0-0.845, 0.123-1.654, 0.14-2.481c 21.507-9.328, 41.642-22.424, 59.296-39.408c-3.027,13.5-4.769,27.491-4.769,41.888
		c0,105.566, 85.889,191.455, 191.419,191.455c 105.602,0, 191.49-85.889, 191.49-191.455c0-105.548-85.889-191.419-191.49-191.419
		c-51.287,0-97.855,20.398-132.265,53.382C 643.884,349.674, 647.229,325.72, 647.229,298.651z" horiz-adv-x="1536"  />
<glyph unicode="&#x3b;" d="M 1208.595,107.591c-0.018,0-0.035,0-0.054,0c-12.521,0-15.165,8.526-15.18,15.799L 1193.361,428.723 
	c-0.267,12.681, 9.509,14.795, 15.199,14.936c 30.543,0, 42.149,24.871, 42.504,41.902l-0.018,72.974c-1.041,16.979-13.23,42.272-42.486,42.272
	l-100.044,0 c0,0.123, 0.035,0.229, 0.035,0.352l0,129.442 C 1108.551,1062.223, 847.85,1088, 767.955,1088S 427.38,1062.223, 427.38,730.602l0-129.442 
	c0-0.124, 0.035-0.229, 0.035-0.352l-99.957,0 c-29.275,0-41.444-25.293-42.52-43.119l0-85.953 c0-29.344, 20.873-42.52, 42.466-42.52
	c0,0, 0.035,0, 0.054,0c 12.523,0, 15.165-8.508, 15.2-15.782l0-305.349 c 0.247-12.681-9.511-14.795-15.2-14.901
	c-30.542,0-42.149-24.906-42.52-41.921l 0.018-72.991c 1.057-16.98, 13.228-42.272, 42.501-42.272l 881.102,0 
	c 29.256,0, 41.444,25.293, 42.504,43.117l0,85.955 C 1251.063,94.451, 1230.189,107.591, 1208.595,107.591z M 846.036,191.186
	c 2.203-5.795, 1.428-12.294-2.094-17.403c-3.525-5.089-9.336-8.138-15.52-8.138l-120.952,0 c-6.199,0-11.976,3.047-15.5,8.138
	c-3.522,5.109-4.316,11.591-2.114,17.384l 29.556,77.977c-19.094,14.882-30.789,37.869-30.789,62.334
	c0,43.735, 35.615,79.331, 79.402,79.331c 43.681,0, 79.242-35.598, 79.242-79.331c0-24.536-11.677-47.521-30.804-62.369L 846.036,191.186z
	 M 628.772,600.807c0,0.123, 0.035,0.229, 0.035,0.352l0,129.847 c0,71.776, 24.131,157.36, 139.148,157.36
	c 115.034,0, 139.182-85.584, 139.182-157.36l0-129.847 c0-0.124, 0.035-0.229, 0.035-0.352L 628.772,600.807 z" horiz-adv-x="1536"  />
<glyph unicode="&#x3c;" d="M 222.139-34.131c 39.868-39.448, 103.993-39.868, 143.3-0.986l 348.965,344.677
	c 61.595-35.016, 132.893-55.198, 208.971-55.198c 232.315,0, 420.615,186.649, 420.615,416.854C 1343.991,901.388, 1155.691,1088, 923.376,1088
	C 691.131,1088, 502.831,901.388, 502.831,671.217c0-81.459, 23.625-157.397, 64.408-221.557L 221.155,107.901
	C 181.921,68.948, 182.343,5.386, 222.139-34.131z M 923.376,400.969c-150.611,0-272.675,120.974-272.675,270.248
	c0,149.239, 122.066,270.248, 272.675,270.248c 150.683,0, 272.746-121.009, 272.746-270.248C 1196.123,521.943, 1074.059,400.969, 923.376,400.969
	z" horiz-adv-x="1536"  />
<glyph unicode="&#x3d;" d="M 1314.845,107.901L 968.761,449.66c 40.782,64.16, 64.408,140.099, 64.408,221.557
	C 1033.169,901.388, 844.869,1088, 612.624,1088C 380.309,1088, 192.009,901.388, 192.009,671.217c0-230.205, 188.3-416.854, 420.615-416.854
	c 76.080,0, 147.378,20.182, 208.971,55.198l 348.965-344.677c 39.306-38.882, 103.431-38.461, 143.3,0.986
	C 1353.657,5.386, 1354.079,68.948, 1314.845,107.901z M 339.878,671.217c0,149.239, 122.064,270.248, 272.746,270.248
	c 150.611,0, 272.675-121.009, 272.675-270.248c0-149.276-122.064-270.248-272.675-270.248
	C 461.943,400.969, 339.878,521.943, 339.878,671.217z" horiz-adv-x="1536"  />
<glyph unicode="&#x3e;" d="M 848.824,800L 848.824,1016.352 c0,9.915, 6.293,17.824, 14.027,17.824l 102.252,0 c 7.735,0, 14.047-7.909, 14.047-17.824L 979.149,800 
		c0-9.896-6.31-17.824-14.047-17.824l-102.252,0 C 855.117,782.176, 848.824,790.104, 848.824,800zM 979.149,1016.352L 979.149,800 c0-9.896-6.31-17.824-14.047-17.824l-102.252,0 
		c-7.734,0-14.027,7.929-14.027,17.824L 848.824,1016.352 c0,9.915, 6.293,17.824, 14.027,17.824l 102.252,0 C 972.838,1034.175, 979.149,1026.267, 979.149,1016.352
		zM 1081.928,245.427L 466.325,245.427 c-15.487,0-27.897-12.603-27.897-28.089c0-15.487, 12.411-28.072, 27.897-28.072L 1081.928,189.266 
		c 15.469,0, 28.072,12.584, 28.072,28.072C 1110,232.824, 1097.397,245.427, 1081.928,245.427z M 1081.928,389.427L 466.325,389.427 
		c-15.487,0-27.897-12.603-27.897-28.089c0-15.487, 12.411-28.072, 27.897-28.072L 1081.928,333.266 c 15.469,0, 28.072,12.584, 28.072,28.072
		C 1110,376.824, 1097.397,389.427, 1081.928,389.427z M 1081.928,389.427L 466.325,389.427 c-15.487,0-27.897-12.603-27.897-28.089
		c0-15.487, 12.411-28.072, 27.897-28.072L 1081.928,333.266 c 15.469,0, 28.072,12.584, 28.072,28.072C 1110,376.824, 1097.397,389.427, 1081.928,389.427z
		 M 1081.928,245.427L 466.325,245.427 c-15.487,0-27.897-12.603-27.897-28.089c0-15.487, 12.411-28.072, 27.897-28.072L 1081.928,189.266 
		c 15.469,0, 28.072,12.584, 28.072,28.072C 1110,232.824, 1097.397,245.427, 1081.928,245.427z M 1081.928,245.427L 466.325,245.427 
		c-15.487,0-27.897-12.603-27.897-28.089c0-15.487, 12.411-28.072, 27.897-28.072L 1081.928,189.266 c 15.469,0, 28.072,12.584, 28.072,28.072
		C 1110,232.824, 1097.397,245.427, 1081.928,245.427z M 1081.928,389.427L 466.325,389.427 c-15.487,0-27.897-12.603-27.897-28.089
		c0-15.487, 12.411-28.072, 27.897-28.072L 1081.928,333.266 c 15.469,0, 28.072,12.584, 28.072,28.072C 1110,376.824, 1097.397,389.427, 1081.928,389.427z
		 M 1081.928,389.427L 466.325,389.427 c-15.487,0-27.897-12.603-27.897-28.089c0-15.487, 12.411-28.072, 27.897-28.072L 1081.928,333.266 
		c 15.469,0, 28.072,12.584, 28.072,28.072C 1110,376.824, 1097.397,389.427, 1081.928,389.427z M 1081.928,245.427L 466.325,245.427 
		c-15.487,0-27.897-12.603-27.897-28.089c0-15.487, 12.411-28.072, 27.897-28.072L 1081.928,189.266 c 15.469,0, 28.072,12.584, 28.072,28.072
		C 1110,232.824, 1097.397,245.427, 1081.928,245.427z M 1081.928,245.427L 466.325,245.427 c-15.487,0-27.897-12.603-27.897-28.089
		c0-15.487, 12.411-28.072, 27.897-28.072L 1081.928,189.266 c 15.469,0, 28.072,12.584, 28.072,28.072C 1110,232.824, 1097.397,245.427, 1081.928,245.427z
		 M 1081.928,389.427L 466.325,389.427 c-15.487,0-27.897-12.603-27.897-28.089c0-15.487, 12.411-28.072, 27.897-28.072L 1081.928,333.266 
		c 15.469,0, 28.072,12.584, 28.072,28.072C 1110,376.824, 1097.397,389.427, 1081.928,389.427z M 1081.928,389.427L 466.325,389.427 
		c-15.487,0-27.897-12.603-27.897-28.089c0-15.487, 12.411-28.072, 27.897-28.072L 1081.928,333.266 c 15.469,0, 28.072,12.584, 28.072,28.072
		C 1110,376.824, 1097.397,389.427, 1081.928,389.427z M 1081.928,245.427L 466.325,245.427 c-15.487,0-27.897-12.603-27.897-28.089
		c0-15.487, 12.411-28.072, 27.897-28.072L 1081.928,189.266 c 15.469,0, 28.072,12.584, 28.072,28.072C 1110,232.824, 1097.397,245.427, 1081.928,245.427z
		 M 1081.928,245.427L 466.325,245.427 c-15.487,0-27.897-12.603-27.897-28.089c0-15.487, 12.411-28.072, 27.897-28.072L 1081.928,189.266 
		c 15.469,0, 28.072,12.584, 28.072,28.072C 1110,232.824, 1097.397,245.427, 1081.928,245.427z M 1081.928,389.427L 466.325,389.427 
		c-15.487,0-27.897-12.603-27.897-28.089c0-15.487, 12.411-28.072, 27.897-28.072L 1081.928,333.266 c 15.469,0, 28.072,12.584, 28.072,28.072
		C 1110,376.824, 1097.397,389.427, 1081.928,389.427z M 1081.928,389.427L 466.325,389.427 c-15.487,0-27.897-12.603-27.897-28.089
		c0-15.487, 12.411-28.072, 27.897-28.072L 1081.928,333.266 c 15.469,0, 28.072,12.584, 28.072,28.072C 1110,376.824, 1097.397,389.427, 1081.928,389.427z
		 M 1081.928,245.427L 466.325,245.427 c-15.487,0-27.897-12.603-27.897-28.089c0-15.487, 12.411-28.072, 27.897-28.072L 1081.928,189.266 
		c 15.469,0, 28.072,12.584, 28.072,28.072C 1110,232.824, 1097.397,245.427, 1081.928,245.427z M 1081.928,245.427L 466.325,245.427 
		c-15.487,0-27.897-12.603-27.897-28.089c0-15.487, 12.411-28.072, 27.897-28.072L 1081.928,189.266 c 15.469,0, 28.072,12.584, 28.072,28.072
		C 1110,232.824, 1097.397,245.427, 1081.928,245.427z M 1081.928,389.427L 466.325,389.427 c-15.487,0-27.897-12.603-27.897-28.089
		c0-15.487, 12.411-28.072, 27.897-28.072L 1081.928,333.266 c 15.469,0, 28.072,12.584, 28.072,28.072C 1110,376.824, 1097.397,389.427, 1081.928,389.427z
		 M 466.325,333.266L 1081.928,333.266 c 15.469,0, 28.072,12.584, 28.072,28.072c0,15.486-12.603,28.089-28.072,28.089L 466.325,389.427 
		c-15.487,0-27.897-12.603-27.897-28.089C 438.428,345.851, 450.838,333.266, 466.325,333.266z M 1081.928,245.427L 466.325,245.427 
		c-15.487,0-27.897-12.603-27.897-28.089c0-15.487, 12.411-28.072, 27.897-28.072L 1081.928,189.266 c 15.469,0, 28.072,12.584, 28.072,28.072
		C 1110,232.824, 1097.397,245.427, 1081.928,245.427z M 466.325,333.266L 1081.928,333.266 c 15.469,0, 28.072,12.584, 28.072,28.072
		c0,15.486-12.603,28.089-28.072,28.089L 466.325,389.427 c-15.487,0-27.897-12.603-27.897-28.089
		C 438.428,345.851, 450.838,333.266, 466.325,333.266z M 1081.928,245.427L 466.325,245.427 c-15.487,0-27.897-12.603-27.897-28.089
		c0-15.487, 12.411-28.072, 27.897-28.072L 1081.928,189.266 c 15.469,0, 28.072,12.584, 28.072,28.072C 1110,232.824, 1097.397,245.427, 1081.928,245.427zM 1343.825,890.352l-1.811,4.676c-1.441,3.445-4.307,7.946-8.281,13.148
		c-9.351,12.604-25.014,29.883-43.735,49.149c-11.162,11.514-23.22,23.571-35.824,36.176c-26.456,26.104-54.526,53.473-77.748,76.676
		C 1158.955,1087.473, 1134.293,1088, 1131.603,1088l-3.603,0 c-7.384,0-14.397-2.163-20.162-6.116c-1.794-1.266-3.605-2.883-5.221-4.5
		c-3.233-3.058-5.766-6.855-7.559-10.987l0-308.338 c0-19.968-16.208-36.001-36.001-36.001L 508.442,722.057 c-19.793,0-36.001,16.031-36.001,36.001
		L 472.441,1051.999 C 472.441,1071.794, 456.233,1088, 436.442,1088L 228.001,1088 c-7.384,0-14.397-2.163-20.162-6.116c-1.793-1.266-3.603-2.883-5.221-4.5
		C 195.955,1070.897, 192,1061.896, 192,1051.999l0-1080.175 C 192-47.986, 208.206-64, 228.001-64l 1080,0 C 1327.792-64, 1344-47.986, 1344-28.176
		L 1344,888.735 C 1344,889.28, 1343.825,889.824, 1343.825,890.352z M 273.721,895.221L 273.721,975.5 c0,9.896, 8.104,18, 18,18l 80.279,0 
		c 9.896,0, 18-8.104, 18-18l0-80.279 c0-9.896-8.104-18-18-18l-80.279,0 
		C 281.824,877.221, 273.721,885.325, 273.721,895.221z M 1184.514,111.5c0-19.793-15.469-36.001-34.734-36.001L 388.927,75.5 
		c-19.265,0-34.927,16.208-34.927,36.001L 354,498.5 c0,19.793, 15.663,36.001, 34.927,36.001l 760.853,0 
		c 19.265,0, 34.734-16.206, 34.734-36.001L 1184.514,111.5 zM 979.149,1016.352L 979.149,800 c0-9.896-6.31-17.824-14.047-17.824l-102.252,0 
		c-7.734,0-14.027,7.929-14.027,17.824L 848.824,1016.352 c0,9.915, 6.293,17.824, 14.027,17.824l 102.252,0 C 972.838,1034.175, 979.149,1026.267, 979.149,1016.352
		zM 1110,217.338c0-15.487-12.603-28.072-28.072-28.072L 466.325,189.266 
		c-15.487,0-27.914,12.584-27.914,28.072c0,15.486, 12.428,28.089, 27.914,28.089L 1081.928,245.427 
		C 1097.397,245.427, 1110,232.824, 1110,217.338zM 438.41,361.338c0,15.486, 12.428,28.089, 27.914,28.089L 1081.928,389.427 
		c 15.469,0, 28.072-12.603, 28.072-28.089c0-15.487-12.603-28.072-28.072-28.072L 466.325,333.266 
		C 450.838,333.266, 438.41,345.851, 438.41,361.338zM 1110,361.338c0-15.487-12.603-28.072-28.072-28.072L 466.325,333.266 c-15.487,0-27.914,12.584-27.914,28.072
		c0,15.486, 12.428,28.089, 27.914,28.089L 1081.928,389.427 C 1097.397,389.427, 1110,376.824, 1110,361.338zM 1110,217.338c0-15.487-12.603-28.072-28.072-28.072L 466.325,189.266 c-15.487,0-27.914,12.584-27.914,28.072
		c0,15.486, 12.428,28.089, 27.914,28.089L 1081.928,245.427 C 1097.397,245.427, 1110,232.824, 1110,217.338z" horiz-adv-x="1536"  />
<glyph unicode="&#x3f;" d="M 1096.242,1088.768L 438.187,1088.768 C 303.125,1088.768, 191.232,976.847, 191.232,841.742l0-657.915 
	c0-135.071, 111.893-247.061, 246.955-247.061l 658.055,0 c 135.071,0, 246.99,111.99, 246.99,247.061l0,657.915 
	C 1343.232,976.847, 1231.313,1088.768, 1096.242,1088.768z M 499.271,144.822c-56.531,0-102.393,45.86-102.393,102.445
	c0,56.566, 45.862,102.428, 102.393,102.428c 56.575,0, 102.436-45.86, 102.436-102.428C 601.708,190.684, 555.846,144.822, 499.271,144.822z
	 M 756.308,153.344c0,89.088-41.192,182.893-109.107,251.098c-67.851,68.132-150.305,101.041-257.825,101.041l0,147.885 
	c 287.232,0, 514.737-231.223, 514.737-500.023L 756.308,153.344 z M 1017.474,153.344c0,340.992-285.57,614.289-628.098,614.289l0,147.875 
	c 431.616,0, 775.983-348.981, 775.983-762.165L 1017.474,153.344 z" horiz-adv-x="1536"  />
<glyph unicode="&#x40;" d="M 222.543,401.327c 33.993-49.791, 93.006-53.917, 155.597-53.917l 44.38,0.212c 4.76,0, 9.185,2.504, 11.618,6.594
		l 73.418,124.583l 55.996-28.035c 5.359-2.645, 11.743-1.551, 15.868,2.751c 4.090,4.284, 4.937,10.755, 2.044,15.939L 463.688,681.438
		c-2.362,4.302-6.912,6.964-11.812,6.964L 207.397,688.402 c-5.854,0-11.038-3.756-12.872-9.31c-1.799-5.554, 0.141-11.654, 4.832-15.128l 59.382-43.824
		l-45.999-100.622C 211.506,517.113, 182.609,459.917, 222.543,401.327zM 386.215,828.158l 215.137-131.786c 2.221-1.349, 4.654-1.992, 7.053-1.992c 4.55,0, 8.956,2.266, 11.531,6.373
		c 1.482,2.381, 148.705,238.518, 180.617,290.565c 36.921,60.237, 66.082,70.058, 66.082,70.058c 6.56,1.789, 10.79,8.136, 9.875,14.872
		C 875.628,1082.976, 869.88,1088, 863.109,1088L 627.060,1087.982L 624.872,1088c-83.678,0-136.467-67.916-139.427-71.945l-103.709-169.279
		c-1.869-3.060-2.467-6.745-1.622-10.236S 383.148,830.035, 386.215,828.158zM 813.214,880.046l-11.778-19.429c-2.485-4.064-2.662-9.133-0.441-13.356l 61.48-124.178l-53.176-33.121
		c-5.041-3.138-7.44-9.194-5.96-14.942c 1.516-5.738, 6.594-9.829, 12.518-10.085l 242.255-10.333c 0.212-0.009, 0.389-0.009, 0.601-0.009
		c 4.691,0, 9.062,2.442, 11.531,6.471l 127.721,208.447c 3.034,4.981, 2.539,11.363-1.235,15.824c-3.772,4.47-9.978,6.012-15.409,3.791
		l-68.375-27.716l-55.31,88.306c-1.358,2.249-34.33,57.135-105.876,53.344C 885.378,999.817, 850.327,941.641, 813.214,880.046zM 1054.34,303.173c-2.468,4.057-6.7,5.872-11.672,6.471l-146.835-1.78l-5.359,62.468
		c-0.493,5.907-4.795,10.79-10.58,12.061c-5.923,1.341-11.777-1.392-14.669-6.559l-119.399-211.048c-2.433-4.284-2.329-9.539, 0.246-13.733
		l 127.546-208.58c 2.504-4.073, 6.91-6.471, 11.566-6.471c 1.021,0, 2.044,0.123, 3.103,0.352c 5.677,1.339, 9.875,6.189, 10.368,12.007
		l 6.417,73.522l 111.996,12.624c 2.716,0.194, 66.576,5.359, 95.704,70.032c 27.329,60.598-8.534,118.254-46.441,179.276L 1054.34,303.173zM 1323.924,506.305l-104.273,168.945c-1.869,3.050-4.901,5.236-8.393,6.066
		c-3.527,0.794-7.195,0.221-10.225-1.657L 986.318,547.113c-6.311-3.905-8.322-12.184-4.479-18.54
		c 1.482-2.398, 145.742-240.369, 177.76-292.293c 36.638-59.365, 32.829-89.816, 32.688-90.891c-1.233-6.559, 2.504-13.064, 8.852-15.268
		c 1.445-0.511, 2.963-0.757, 4.444-0.757c 5.007,0, 9.732,2.768, 12.096,7.44l 106.492,210.642
		C 1363.595,422.695, 1326.179,501.756, 1323.924,506.305zM 653.929,284.819c-2.785,0.035-281.043,3.949-342.084,4.373c-70.667,0.422-94.151,20.329-94.186,20.329
		c-4.937,4.691-12.554,5.007-17.808,0.776c-5.325-4.25-6.628-11.76-3.138-17.561l 122.080-202.038
		c 42.881-73.347, 129.767-83.555, 134.812-84.031l 198.494-1.235c 0.035,0, 0.071,0, 0.106,0c 3.56,0, 6.981,1.41, 9.52,3.915
		c 2.537,2.521, 3.984,5.958, 4.020,9.539l 1.551,252.305C 667.331,278.629, 661.371,284.713, 653.929,284.819z" horiz-adv-x="1536"  />
<glyph unicode="&#x41;" d="M 360.656,592.281c 0.283-164.189, 56.139-294.582, 170.814-398.667c 95.433-86.236, 204.469-124.436, 235.587-134.093
		c 0.212-0.071, 0.387-0.141, 0.564-0.175c 0.141,0.034, 0.283,0.104, 0.422,0.141c 10.961,3.946, 28.123,10.502, 48.862,19.893
		c 36.051,16.194, 90.007,44.228, 144.948,86.375L 360.427,767.146L 360.656,592.281zM 579.098,969l 564.933-564.961c 21.85,58.165, 33.039,120.948, 33.128,188.241l 0.123,331.417
		C 984.126,979.792, 778.829,994.753, 579.098,969zM 1269.702,1013.605C 1107.522,1062.971, 938.736,1088, 767.992,1088C 597.231,1088, 428.424,1062.971, 266.279,1013.605
		c-11.488-3.507-19.312-14.105-19.277-26.087l 0.493-394.727c 0.318-198.479, 71.786-363.196, 212.435-489.66
		c 113.494-101.669, 239.217-147.502, 287.533-162.321c 5.075-1.656, 9.233-2.854, 12.652-3.823c 2.379-0.634, 4.828-0.988, 7.278-0.988
		c 2.697,0, 5.374,0.422, 7.983,1.198c 3.453,1.074, 7.806,2.554, 12.862,4.37c 19.137,6.803, 39.064,14.855, 59.187,23.894
		c 44.456,19.736, 111.804,54.361, 180.153,107.151C 1200.648,207.093, 1288.557,382.119, 1288.858,592.826l 0.141,394.727
		C 1288.997,999.536, 1281.156,1010.1, 1269.702,1013.605z M 1238.478,592.227c-0.296-191.131-79.274-349.839-234.778-471.739
		c-61.248-47.699-121.668-79.081-161.58-97.001c-18.060-8.193-35.982-15.454-53.159-21.619c-4.511-1.674-8.529-3.049-11.666-4.018
		c-2.96-0.917-6.007-1.375-9.075-1.375c-2.785,0-5.534,0.389-8.247,1.127c-3.137,0.88-7.013,1.991-11.7,3.542
		c-43.135,13.374-156.013,54.906-257.965,147.043C 363.863,262.916, 299.618,412.284, 299.336,592.191l-0.458,354.298
		c-0.017,13.489, 8.775,25.401, 21.656,29.347c 144.86,44.527, 295.639,67.091, 448.197,67.091c 152.56,0, 303.358-22.562, 448.216-67.091
		c 12.882-3.946, 21.658-15.841, 21.658-29.311L 1238.478,592.227z" horiz-adv-x="1536"  />
<glyph unicode="&#x42;" d="M 1069.5,735.852c-106.899,0-193.851-86.953-193.851-193.84c0-106.875, 86.951-193.851, 193.851-193.851
		s 193.851,86.976, 193.851,193.851C 1263.351,648.899, 1176.399,735.852, 1069.5,735.852zM 1500.001,891.841L 36.001,891.841 C 16.125,891.841,0,875.714,0,855.84l0-627.679 c0-19.874, 16.125-36.001, 36.001-36.001
		l 48,0 l0-24 c0-19.899, 16.125-36.001, 36.001-36.001l 60.001,0 c 19.874,0, 36.001,16.1, 36.001,36.001l0,24 l 1104,0 l0-24 
		c0-19.899, 16.125-36.001, 36.001-36.001l 60.001,0 c 19.874,0, 36.001,16.1, 36.001,36.001l0,24 l 48,0 
		c 19.874,0, 36.001,16.125, 36.001,36.001L 1536.006,855.84 C 1536,875.714, 1519.875,891.841, 1500.001,891.841z M 246.961,323.855
		c0-19.874-16.125-36.001-36.001-36.001s-36.001,16.125-36.001,36.001L 174.96,760.156 c0,19.874, 16.125,36.001, 36.001,36.001
		s 36.001-16.125, 36.001-36.001L 246.961,323.855 z M 390.961,323.855c0-19.874-16.125-36.001-36.001-36.001s-36.001,16.125-36.001,36.001L 318.96,760.156 
		c0,19.874, 16.125,36.001, 36.001,36.001s 36.001-16.125, 36.001-36.001L 390.961,323.855 z M 534.961,323.855c0-19.874-16.125-36.001-36.001-36.001
		s-36.001,16.125-36.001,36.001L 462.96,760.156 c0,19.874, 16.125,36.001, 36.001,36.001s 36.001-16.125, 36.001-36.001L 534.961,323.855 z M 1069.5,276.161
		c-146.6,0-265.851,119.25-265.851,265.851c0,146.59, 119.25,265.84, 265.851,265.84s 265.851-119.25, 265.851-265.84
		C 1335.351,395.411, 1216.1,276.161, 1069.5,276.161z" horiz-adv-x="1536"  />
<glyph unicode="&#x43;" d="M 1316.91,1088L 219.090,1088 c-14.967,0-27.077-12.121-27.077-27.077l0-1097.848 c0-14.947, 12.11-27.075, 27.077-27.075
		l 1097.821,0 c 14.948,0, 27.077,12.128, 27.077,27.075L 1343.988,1060.923 C 1343.986,1075.879, 1331.859,1088, 1316.91,1088z M 1289.833-9.848L 246.167-9.848 L 246.167,1033.847 l 1043.667,0 
		L 1289.834-9.848 zM 323.446,37.676l 889.091,0 c 14.965,0, 27.075,12.128, 27.075,27.077L 1239.612,486.55 c0,7.193-2.872,14.102-7.984,19.178
		L 762.165,973.086c-5.076,5.050-11.95,7.889-19.108,7.889L 323.446,980.975 c-14.948,0-27.077-12.121-27.077-27.077l0-889.144 
		C 296.37,49.804, 308.498,37.676, 323.446,37.676zM 1193.411,612.88c 5.182-5.166, 12.093-7.906, 19.143-7.906c 3.49,0, 7.016,0.677, 10.366,2.072
		c 10.099,4.195, 16.692,14.057, 16.692,25.005L 1239.612,956.568 c0,14.958-12.11,27.077-27.075,27.077l-325.356,0 c-10.966,0-20.836-6.602-25.032-16.729
		c-4.193-10.128-1.868-21.78, 5.906-29.519L 1193.411,612.88z" horiz-adv-x="1536"  />
<glyph unicode="&#x44;" d="M 476.499,66.385l 559.56,0 c 17.845,0, 32.322,14.478, 32.322,32.322c0,17.845-14.477,32.322-32.322,32.322
			L 476.499,131.029 c-17.844,0-32.322-14.477-32.322-32.322C 444.177,80.863, 458.656,66.385, 476.499,66.385zM 476.499,184.52l 559.56,0 c 17.845,0, 32.322,14.478, 32.322,32.324c0,17.844-14.477,32.322-32.322,32.322
			L 476.499,249.166 c-17.844,0-32.322-14.478-32.322-32.322C 444.177,198.999, 458.656,184.52, 476.499,184.52zM 476.499,311.369l 559.56,0 c 17.845,0, 32.322,14.478, 32.322,32.322c0,17.845-14.477,32.324-32.322,32.324
			L 476.499,376.015 c-17.844,0-32.322-14.478-32.322-32.324C 444.177,325.848, 458.656,311.369, 476.499,311.369zM 1425.296,939.056L 1175.513,939.056 L 1175.513,1055.678 C 1175.513,1073.543, 1161.035,1088, 1143.191,1088L 391.274,1088 
			c-17.845,0-32.322-14.457-32.322-32.322l0-116.622 L 110.706,939.056 c-17.845,0-32.322-14.478-32.322-32.322l0-563.042 
			c0-17.844, 14.478-32.322, 32.322-32.322l 249.004,0 l0-343.046 c0-17.845, 14.477-32.324, 32.322-32.324l 751.917,0 
			c 17.844,0, 32.322,14.478, 32.322,32.324L 1176.27,311.369 l 249.026,0 c 17.845,0, 32.322,14.478, 32.322,32.322L 1457.618,906.734 
			C 1457.618,924.577, 1443.141,939.056, 1425.296,939.056z M 301.715,623.618c-3.914-25.631-28.387-43.475-54.923-39.687
			c-26.431,3.745-44.675,27.525-40.739,53.281c 3.831,25.631, 28.408,43.496, 54.838,39.709
			C 287.3,673.176, 305.503,649.334, 301.715,623.618z M 423.597,1023.356L 1025.434,1023.356 l0-41.036 c0-17.844, 14.478-32.322, 32.322-32.322l 53.113,0 
			l0-140 L 423.597,809.998 L 423.597,1023.356 z M 1111.626,0.646L 424.354,0.646 L 424.354,450.38 l 687.271,0 L 1111.625,0.646 z" horiz-adv-x="1536"  />
<glyph unicode="&#x45;" d="M 1103.47,774.164c-1.534,25.447-21.019,52.482-54.107,52.482l-88.111,0 L 961.252,1033.788 
		C 961.252,1063.736, 936.989,1088, 907.040,1088c-29.946,0-54.212-24.264-54.212-54.212l0-207.14 L 683.153,826.648 L 683.153,1033.788 
		C 683.153,1063.736, 658.889,1088, 628.941,1088c-29.947,0-54.212-24.264-54.212-54.212l0-207.14 l-88.059,0 c-33.211,0-52.694-27.353-54.212-54.636
		l0-54.881 c0-25.642, 15.14-45.547, 37.764-52.024c 14.065-128.983, 42.441-231.123, 84.353-303.635c0,0, 54.124-119.137, 159.177-119.137l0-252.124 
		c0-29.947, 24.264-54.212, 54.212-54.212s 54.212,24.264, 54.212,54.212L 822.176,242.371 c 87.706,0, 159.635,119.47, 159.635,119.47
		c 41.136,73.694, 69.195,178.764, 83.471,312.406c 24.441,6.953, 37.836,29.735, 38.259,51.759L 1103.47,774.164z M 876.406,554.3
		L 743.224,348.818c-2.594-3.336-4.394-5.7-8.047-5.153c-3.617,0.547-6.228,3.706-6.052,7.359l 42.813,159.477l-82.5-0.124
		c-3.017,0.124-5.259-0.141-7.182,1.677c-1.923,1.836-2.736,4.553-1.923,7.13l 143.682,195.299c 3.318,4.413, 4.411,5.789, 8.066,5.206
		c 3.634-0.53, 6.176-3.723, 6.141-7.324l-42.195-148.871l 71.684-0.229c 2.541,0.528, 5.083-0.212, 6.935-1.994
		C 876.353,559.435, 877.111,556.753, 876.406,554.3z" horiz-adv-x="1536"  />
<glyph unicode="&#x46;" d="M 1479.259,875.82c 31.453,0, 56.741-25.372, 56.741-56.731l0-614.051 c0-31.357-25.29-56.86-56.741-56.86
	L 56.999,148.178 C 25.501,148.18,0,173.681,0,205.038L0,819.089 c0,31.361, 25.501,56.731, 56.999,56.731L 1479.259,875.82  M 774.938,392.141
	c0-26.462, 18.142-59.718, 40.312-74.063l 21.071-13.5c 22.218-14.157, 61.97-25.898, 88.429-25.898l 311.040,0 
	c 26.461,0, 66.209,11.743, 88.452,25.898l 21.046,13.5c 22.174,14.345, 40.314,47.601, 40.314,74.063l0,2.038 
	c0,26.462-21.564,48-48.002,48L 822.96,442.18 c-26.39,0-48.023-21.538-48.023-48L 774.937,392.141 z M 262.499,352.861
	c0,31.218-25.078,56.062-56.062,56.062c-30.938,0-56.015-24.845-56.015-56.062c0-30.94, 25.078-56.039, 56.015-56.039
	C 237.423,296.82, 262.499,321.922, 262.499,352.861 M 381.75,345.361c0-26.58, 21.539-48.002, 48-48.002l 87.188,0 
	c 26.602,0, 48,21.421, 48,48.002l0,16.219 c0,26.462-21.398,48-48,48l-87.188,0 c-26.461,0-48-21.538-48-48
	L 381.75,345.361 z M 564.938,686.41c0,32.589-26.25,59.181-58.898,59.181L 209.249,745.59 c-32.46,0-58.827-26.591-58.827-59.181l0-90 
	c0-32.321, 26.367-58.769, 58.827-58.769l 296.789,0 c 32.648,0, 58.898,26.448, 58.898,58.769L 564.936,686.41 z M 1333.712,584.679
	c 28.686,0, 51.891,25.501, 51.891,56.731c0,31.5-23.204,56.999-51.891,56.999L 826.992,698.409 c-28.805,0-51.961-25.501-51.961-56.999
	c0-31.231, 23.157-56.731, 51.961-56.731L 1333.712,584.679 " horiz-adv-x="1536"  />
<glyph unicode="&#x47;" d="M 1316.42,1088L 219.58,1088 c-14.907,0-27-12.094-27-27l0-1098 c0-14.907, 12.093-27, 27-27
	l 1096.839,0 c 14.907,0, 27,12.093, 27,27L 1343.419,1061 C 1343.419,1075.906, 1331.326,1088, 1316.42,1088z M 1058.444,497.551L 566.239,213.365
	c-2.567-1.476-5.448-2.232-8.331-2.232s-5.766,0.756-8.333,2.232c-5.167,2.988-8.35,8.489-8.35,14.449L 541.225,796.168 
	c0,5.958, 3.181,11.46, 8.35,14.449c 5.133,2.954, 11.532,2.954, 16.664,0l 492.205-284.168c 5.167-2.989, 8.35-8.491, 8.35-14.449
	C 1066.792,506.040, 1063.611,500.538, 1058.444,497.551z" horiz-adv-x="1536"  />
<glyph unicode="&#x48;" d="M 204.001,666.5L 384.002,666.5L 384.002,582.499L 204.001,582.499zM 1500.001,863.001l-148.502,0 L 1351.499,941 c0,19.874-16.125,36.001-36.001,36.001L 931.501,977.001 
		c-19.876,0-36.001-16.125-36.001-36.001l0-78 L 36.001,863.001 C 16.125,863.001,0,846.876,0,827l0-744 
		c0-19.874, 16.125-36.001, 36.001-36.001l 1464.002,0 c 19.874,0, 35.999,16.125, 35.999,36.001L 1536.002,827 
		C 1536,846.876, 1519.877,863.001, 1500.001,863.001z M 456,546.5c0-19.874-16.125-36.001-36.001-36.001L 168,510.499 
		c-19.874,0-36.001,16.125-36.001,36.001L 131.999,702.499 c0,19.874, 16.125,36.001, 36.001,36.001l 252.001,0 
		c 19.874,0, 36.001-16.125, 36.001-36.001L 456.002,546.5 z M 1120.5,151.954c-163.756,0-296.998,133.242-296.998,296.999
		s 133.242,296.999, 296.998,296.999c 163.758,0, 297.001-133.242, 297.001-296.999S 1284.257,151.954, 1120.5,151.954zM 1317.704,518.961c-5.765,1.782-12.070,0.633-16.758-3.21c-14.601-11.882-31.898-18.163-50.015-18.163
		c-44.274,0-80.297,36.001-80.297,80.273c0,17.039, 5.533,33.492, 16.008,47.602c 3.562,4.828, 4.5,11.108, 2.508,16.758
		c-2.017,5.672-6.726,9.938-12.538,11.414c-16.595,4.242-33.211,6.562-49.407,6.961l-5.413,0.071
		c-116.883,0-214.757-92.648-218.226-206.438c-1.898-55.617, 18.186-108.632, 56.552-149.296c 39.822-42.209, 94.383-66.209, 153.565-67.616
		l 5.789-0.071c 118.361,0, 214.149,90.633, 218.038,206.437c 0.562,21.516-2.084,42.727-7.898,63.047
		C 1327.946,512.539, 1323.491,517.132, 1317.704,518.961z" horiz-adv-x="1536"  />
<glyph unicode="&#x49;" d="M 556.084,720.334l-283.791,284.099l 70.894,70.883c 16.91,16.91, 44.612,16.91, 61.532,0l 222.25-222.574
		c 16.911-16.919, 16.911-44.622,0-61.534L 556.084,720.334zM 976.311,300.098l 284.099-283.801l 70.911,70.857c 16.928,16.945, 16.928,44.632,0,61.577L 1108.745,370.957
		c-16.945,16.945-44.613,16.945-61.577,0L 976.311,300.098zM 954.778,280.938c0,0-65.32-67.693-275.443,142.419c-210.113,210.114-142.436,275.426-142.436,275.426
		L 251.778,983.928c-153.098-153.105, 6.548-461.622, 266.521-721.607c 259.956-260, 568.507-419.628, 721.614-266.522L 954.778,280.938z" horiz-adv-x="1536"  />
<glyph unicode="&#x4a;" d="M 767.998,958.994c-246.479,0-447.008-200.52-447.008-446.988c0-246.471, 200.531-446.979, 447.008-446.979
		c 246.459,0, 446.973,200.508, 446.973,446.979C 1214.971,758.473, 1014.457,958.994, 767.998,958.994z M 968.953,730.772l 53.133,50.544
		c 10.778,10.284, 27.898,9.853, 38.177-0.94c 10.248-10.79, 9.847-27.895-0.963-38.153l-53.101-50.554
		c-5.399-5.139-12.392-7.6-19.286-7.436c-6.926,0.167-13.746,2.971-18.881,8.367C 957.734,703.402, 958.155,720.504, 968.953,730.772z
		 M 743.212,881.486c0,14.916, 12.059,27, 27,27c 14.907,0, 27.004-12.084, 27.004-27l0-73.355 
		c0-14.913-12.098-27-27.004-27c-14.942,0-27,12.087-27,27L 743.212,881.486 z M 479.175,780.376
		c 10.29,10.793, 27.415,11.224, 38.177,0.94l 53.138-50.544c 10.793-10.268, 11.208-27.368, 0.925-38.173
		c-5.139-5.396-11.961-8.198-18.888-8.367c-6.889-0.164-13.875,2.296-19.284,7.436l-53.101,50.554
		C 469.331,752.479, 468.936,769.584, 479.175,780.376z M 408.969,487.811c-14.905,0-27,12.071-27,26.997
		c0,14.907, 12.094,27, 27,27l 73.264,0 c 14.905,0, 27-12.094, 27-27c0-14.925-12.094-26.997-27-26.997L 408.969,487.811 z
		 M 570.844,288.298l-58.357-44.438c-11.832-8.999-28.811-6.717-37.847,5.133c-8.999,11.884-6.725,28.831, 5.141,37.83l 58.336,44.438
		c 5.941,4.5, 13.156,6.187, 19.976,5.27c 6.874-0.912, 13.349-4.461, 17.87-10.402C 584.992,314.277, 582.7,297.299, 570.844,288.298z
		 M 820.834,472.443c-23.373-27.944-65-31.637-92.948-8.296c-27.967,23.418-31.678,65.050-8.299,92.991
		c 23.379,27.946, 65,31.674, 92.971,8.294c 1.495-1.249, 2.639-2.731, 3.989-4.077l 143.051,54.543
		c 13.921,5.335, 29.546-1.668, 34.843-15.607c 5.308-13.933-1.674-29.531-15.615-34.843l-142.939-54.508
		C 835.091,497.284, 830.274,483.75, 820.834,472.443z M 1064.803,248.994c-9.039-11.85-26.017-14.133-37.849-5.133l-58.357,44.438
		c-11.846,8.999-14.148,25.978-5.115,37.83c 4.519,5.941, 10.984,9.491, 17.878,10.402c 6.821,0.919, 14.031-0.77, 19.965-5.27l 58.327-44.438
		C 1071.534,277.825, 1073.804,260.879, 1064.803,248.994z M 1130.473,487.811l-73.266,0 c-14.904,0-27,12.071-27,26.997
		c0,14.907, 12.096,27, 27,27l 73.266,0 c 14.91,0, 27-12.094, 27-27C 1157.473,499.882, 1145.383,487.811, 1130.473,487.811z
		M 767.998,1088C 450.391,1088, 192.003,829.613, 192.003,512.005C 192.003,194.395, 450.391-64, 767.998-64
		c 317.599,0, 575.998,258.395, 575.998,576.005C 1343.997,829.613, 1085.597,1088, 767.998,1088z M 767.998,11.026
		c-276.256,0-501.009,224.735-501.009,500.98S 491.744,1012.994, 767.998,1012.994c 276.239,0, 500.973-224.743, 500.973-500.989
		S 1044.237,11.026, 767.998,11.026zM 768,512" horiz-adv-x="1536"  />
<glyph unicode="&#x4b;" d="M 1079.783,554.934l 243.16,164.122L 783.375,1083.291c-9.316,6.279-21.469,6.279-30.751,0L 524.84,929.542
		L 1079.783,554.934zM 475.719,896.39L 213.039,719.056L 767.982,344.449L 1030.681,521.774 	zM 795.456,296.691L 795.456-64 l 542.864,366.448c 7.582,5.101, 12.116,13.621, 12.116,22.762L 1350.436,671.299 L 795.456,296.691zM 740.509,296.691L 185.566,671.299l0-346.087 c0-9.141, 4.534-17.661, 12.081-22.762L 740.509-64L 740.509,296.691 z" horiz-adv-x="1536"  />
<glyph unicode="&#x4c;" d="M 943.258,1002.85L 37.755,1002.85 C 16.914,1002.85,0,985.948,0,965.095l0-906.168 c0-20.84, 16.914-37.779, 37.755-37.779L 943.258,21.148 
		c 20.863,0, 37.755,16.937, 37.755,37.779L 981.012,965.095 C 981.012,985.948, 964.121,1002.85, 943.258,1002.85z M 815.811,478.386L 615.311,478.386 l 54.53-54.505
		c 13.434-13.458, 13.434-35.279,0-48.667c-6.705-6.728-15.489-10.092-24.321-10.092c-8.784,0-17.616,3.364-24.344,10.092l-113.265,113.242
		c-0.327,0.327-0.419,0.725-0.676,1.052c-2.782,2.943-5.162,6.238-6.752,10.116c-0.046,0.025-0.046,0.071-0.046,0.117
		c-0.14,0.303-0.117,0.608-0.232,0.911c-1.356,3.553-1.963,7.173-2.103,10.841c-0.046,1.204, 0.094,2.326, 0.186,3.517
		c 0.163,2.931, 0.702,5.723, 1.636,8.503c 0.373,1.169, 0.7,2.278, 1.215,3.399c 1.657,3.703, 3.785,7.219, 6.774,10.21l 111.699,111.71
		c 13.434,13.434, 35.208,13.434, 48.665,0c 13.434-13.434, 13.434-35.233,0-48.665l-52.963-52.964l 200.5,0 
		c 19.019,0, 34.414-15.395, 34.414-34.413C 850.225,493.783, 834.83,478.386, 815.811,478.386zM 1116.961,931.022c-22.965,0-45.346-2.359-67.332-5.923l0-69.539 c 21.822,4.264, 44.297,6.636, 67.332,6.636
		c 193.12,0, 350.213-157.093, 350.213-350.188c0-193.072-157.093-350.165-350.213-350.165c-23.035,0-45.51,2.384-67.332,6.634
		l0-69.552 c 21.985-3.573, 44.367-5.911, 67.332-5.911c 231.084,0, 419.041,187.979, 419.041,418.992
		C 1536,743.054, 1348.044,931.022, 1116.961,931.022zM 1179.737,512.006c0,34.658-28.081,62.752-62.776,62.752c-34.623,0-62.729-28.093-62.729-62.752
		c0-34.648, 28.106-62.73, 62.729-62.73C 1151.654,449.276, 1179.737,477.359, 1179.737,512.006zM 1305.594,512.006c0,103.976-84.621,188.575-188.635,188.575c-23.736,0-46.375-4.602-67.332-12.65l0-77.017 
		c 19.205,13.119, 42.381,20.839, 67.332,20.839c 66.071,0, 119.83-53.723, 119.83-119.747c0-66-53.758-119.713-119.83-119.713
		c-24.951,0-48.127,7.686-67.332,20.817l0-77.006 c 20.957-8.084, 43.596-12.64, 67.332-12.64
		C 1220.973,323.467, 1305.594,408.063, 1305.594,512.006z" horiz-adv-x="1536"  />
<glyph unicode="&#x4d;" d="M 864.645,522.362c0,48.533-39.358,87.873-87.927,87.873c-48.515,0-87.89-39.34-87.89-87.873
		c0-48.542, 39.375-87.916, 87.89-87.916C 825.287,434.446, 864.645,473.821, 864.645,522.362zM 705.281,333.054L 485.977,333.054 l-66.902,70.999c-5.098,5.414-12.199,8.489-19.618,8.489L 220.792,412.542 
		c-14.905,0-26.981-12.093-26.981-26.981l0-77.398 c-0.052-0.702-0.212-1.372-0.212-2.090l0-343.107 c0-14.888, 12.076-26.966, 26.981-26.966
		l 484.7,0 c 14.907,0, 26.983,12.076, 26.983,26.966L 732.263,306.073 C 732.263,320.978, 720.187,333.054, 705.281,333.054zM 776.718,1088C 464.829,1088, 211.106,834.26, 211.106,522.362c0-20.452, 1.16-40.649, 3.287-60.566
		c 2.144,0.175, 4.186,0.651, 6.399,0.651l 47.883,0 c-2.302,19.67-3.62,39.64-3.62,59.915c0,282.146, 229.518,511.691, 511.663,511.691
		c 282.165,0, 511.735-229.543, 511.735-511.691c0-278.973-224.456-506.364-502.241-511.46l0-51.961 c0-0.685-0.177-1.318-0.194-2.004
		c 307.616,5.010, 556.384,256.658, 556.384,565.426C 1342.401,834.26, 1088.625,1088, 776.718,1088zM 786.211,279.952c 129.532,5.063, 233.454,111.709, 233.454,242.41c0,133.919-108.984,242.869-242.948,242.869
		c-133.927,0-242.877-108.95-242.877-242.869c0-50.087, 15.24-96.653, 41.326-135.36l 70.014,0 
		c-35.333,34.346-57.393,82.282-57.393,135.36c0,104.168, 84.763,188.922, 188.93,188.922c 104.222,0, 189-84.753, 189-188.922
		c0-102.717-82.459-186.372-184.639-188.708c 3.129-8.668, 5.133-17.842, 5.133-27.58L 786.211,279.952 z" horiz-adv-x="1536"  />
<glyph unicode="&#x4e;" d="M 568.232,733.59l 399.534,0 c 18.747,0, 33.876,15.163, 33.876,33.876L 1001.642,1054.124 C 1001.642,1072.837, 986.514,1088, 967.768,1088
		L 568.232,1088 c-18.747,0-33.876-15.163-33.876-33.876l0-286.656 C 534.358,748.753, 549.487,733.59, 568.232,733.59zM 225.987,361.128c 18.702,0, 33.876,15.13, 33.876,33.876l0,86.719 l 474.268-0.089l0-86.63 
		c0-18.747, 15.173-33.876, 33.864-33.876c 18.702,0, 33.876,15.13, 33.876,33.876l0,86.63 l 474.266-0.043l0-86.498 
		c0-18.704, 15.174-33.876, 33.878-33.876c 18.702,0, 33.876,15.173, 33.876,33.876l0,120.375 c0,18.724-15.174,33.887-33.876,33.887
		l-508.143,0.055l0,86.764 c0,18.713-15.174,33.876-33.876,33.876c-18.692,0-33.864-15.163-33.864-33.876l0-86.764 l-508.143,0.055
		c-8.976,0-17.599-3.573-23.952-9.924s-9.924-14.964-9.924-23.94l0-120.596 C 192.111,376.258, 207.285,361.128, 225.987,361.128zM 361.558,297.346L 90.415,297.346 c-24.922,0-45.102-20.158-45.102-45.080l0-271.141 
		c0-24.923, 20.18-45.125, 45.102-45.125l 271.142,0 c 24.9,0, 45.102,20.201, 45.102,45.125L 406.659,252.265 
		C 406.659,277.187, 386.458,297.346, 361.558,297.346zM 903.587,297.346L 632.434,297.346 c-24.922,0-45.102-20.158-45.102-45.080l0-271.141 
		c0-24.923, 20.18-45.125, 45.102-45.125l 271.153,0 c 24.877,0, 45.080,20.201, 45.080,45.125L 948.667,252.265 
		C 948.667,277.187, 928.466,297.346, 903.587,297.346zM 1445.606,297.346L 1174.466,297.346 c-24.923,0-45.125-20.158-45.125-45.080l0-271.141 
		c0-24.923, 20.201-45.125, 45.125-45.125L 1445.606-64 c 24.877,0, 45.080,20.201, 45.080,45.125L 1490.686,252.265 
		C 1490.686,277.187, 1470.485,297.346, 1445.606,297.346z" horiz-adv-x="1536"  />
<glyph unicode="&#x4f;" d="M 1250.421,1061.042c0,0.564-0.177,1.092-0.212,1.656c-0.104,1.602-0.212,3.223-0.564,4.755
	c-0.281,1.091-0.774,2.095-1.197,3.135c-0.352,0.951-0.599,1.954-1.057,2.852c-0.53,0.986-1.233,1.831-1.868,2.729
	c-0.562,0.863-1.057,1.779-1.725,2.571c-0.705,0.809-1.62,1.462-2.43,2.201c-0.776,0.687-1.444,1.479-2.289,2.095
	c-0.035,0.017-0.071,0.035-0.106,0.052c-0.034,0.018-0.071,0.071-0.104,0.089c-0.67,0.458-1.409,0.739-2.114,1.126
	c-1.163,0.687-2.326,1.409-3.556,1.902c-0.459,0.177-0.951,0.229-1.444,0.387c-1.55,0.51-3.135,1.003-4.755,1.215
	c-0.599,0.088-1.233,0.017-1.866,0.052c-1.479,0.106-2.994,0.212-4.473,0.071c-0.809-0.088-1.585-0.37-2.396-0.528
	c-1.232-0.229-2.501-0.37-3.697-0.793L 670.149,899.565c-10.916-3.751-18.262-14.034-18.262-25.587l0-624.392 
	c-38.511,38.317-94.175,62.583-156.177,62.583c-115.957,0-210.308-84.366-210.308-188.066C 285.404,20.383, 379.753-64, 495.712-64
	c 115.94,0, 210.272,84.385, 210.272,188.103L 705.984,622.446 L 1196.324,793.011l0-356.395 c-38.529,38.3-94.175,62.583-156.194,62.583
	c-115.976,0-210.291-84.366-210.291-188.051c0-103.718, 94.315-188.085, 210.291-188.085c 115.939,0, 210.291,84.366, 210.291,188.085
	L 1250.421,830.007 c0,0.387, 0.175,0.74, 0.175,1.127L 1250.421,1061.042z M 1110.745,872.077l-318.941-111.574c-2.958-1.038-5.952-1.514-8.91-1.514
	c-11.201,0-21.633,6.973-25.542,18.12c-4.931,14.105, 2.501,29.531, 16.596,34.462l 318.941,111.572
	c 14.157,4.966, 29.513-2.501, 34.479-16.606C 1132.298,892.433, 1124.867,877.007, 1110.745,872.077z" horiz-adv-x="1536"  />
<glyph unicode="&#x50;" d="M 1021.773,468.969L 516.18,468.969 c-15.074,0-27.289-12.222-27.289-27.289l0-309.862 
		c0-67.725, 40.925-195.818, 195.82-195.818l 168.53,0 c 67.725,0, 195.82,40.933, 195.82,195.818L 1049.062,441.682 
		C 1049.062,456.747, 1036.838,468.969, 1021.773,468.969zM 853.242,833.231l-55.359,0 c 0.071,40.223-7.889,111.572-57.697,169.278C 691.223,1059.235, 615.2,1088, 514.227,1088
		c-15.074,0-27.29-12.223-27.29-27.289c0-15.067, 12.214-27.29, 27.29-27.29c 84.167,0, 146.189-22.278, 184.334-66.232
		c 38.65-44.522, 44.665-102.262, 44.656-133.958l-58.505,0 c-154.895,0-195.82-128.095-195.82-195.82l0-87.374 
		c0-15.067, 12.214-27.29, 27.289-27.29l 505.593,0 c 15.067,0, 27.29,12.223, 27.29,27.29l0,87.374 
		C 1049.062,792.298, 920.967,833.231, 853.242,833.231z M 796.284,615.523c0-15.067-12.223-27.289-27.29-27.289
		c-15.074,0-27.289,12.223-27.289,27.289l0,104.572 c0,15.065, 12.214,27.289, 27.289,27.289c 15.067,0, 27.29-12.223, 27.29-27.289L 796.284,615.523 z" horiz-adv-x="1536"  />
<glyph unicode="&#x51;" d="M 570.145,745.664L 960.347,745.664L 960.347,151.568L 570.145,151.568zM 1048.621,941.363l-27.344,0 L 1021.277,1032.406 C 1021.279,1063.117, 996.394,1088, 965.683,1088c-30.709,0-55.592-24.883-55.592-55.594
		l0-91.043 L 487.379,941.363 c-15.345,0-27.797-12.451-27.797-27.797l0-949.769 c0-15.346, 12.451-27.797, 27.797-27.797l 561.244,0 
		c 15.346,0, 27.797,12.449, 27.797,27.797L 1076.42,913.566 C 1076.418,928.912, 1063.969,941.363, 1048.621,941.363z M 670.435,891.271l 186.487,0 
		c 15.346,0, 27.797-12.451, 27.797-27.797c0-15.346-12.449-27.797-27.797-27.797L 670.435,835.677 c-15.345,0-27.797,12.449-27.797,27.797
		C 642.639,878.82, 655.090,891.271, 670.435,891.271z M 792.462-10.326l-56.118,0 c-15.345,0-27.797,12.449-27.797,27.797
		s 12.451,27.797, 27.797,27.797l 56.118,0 c 15.346,0, 27.797-12.449, 27.797-27.797S 807.809-10.326, 792.462-10.326z M 1015.94,123.771
		c0-15.346-12.451-27.797-27.799-27.797l-445.793,0 c-15.346,0-27.797,12.449-27.797,27.797L 514.551,773.461 c0,15.346, 12.449,27.797, 27.797,27.797
		l 445.793,0 c 15.346,0, 27.799-12.451, 27.799-27.797L 1015.94,123.771 z" horiz-adv-x="1536"  />
<glyph unicode="&#x52;" d="M 395.482-28.176l0-17.824 c0-9.895-8.086-18-18-18l-149.921,0 
		c-19.81,0-35.824,16.014-35.824,35.824l0,149.938 c0,9.896, 8.102,18, 18,18l 17.824,0 c 9.896,0, 17.999-8.102, 17.999-18
		l0-114.116 c0-9.913, 7.929-17.824, 17.807-17.824l 114.116,0 C 387.395-10.175, 395.482-18.279, 395.482-28.176zM 191.736,264.707c0-9.95, 8.050-18, 18-18l 17.736,0 c 9.932,0, 17.999,8.050, 17.999,18L 245.471,441.891 
		c0,9.95-8.067,18-17.999,18l-17.736,0 c-9.95,0-18-8.050-18-18L 191.736,264.707 zM 191.736,583.481c0-9.95, 8.050-18, 18-18l 17.736,0 c 9.932,0, 17.999,8.050, 17.999,18L 245.471,760.666 
		c0,9.95-8.067,18-17.999,18l-17.736,0 c-9.95,0-18-8.050-18-18L 191.736,583.481 zM 1289.983,264.707c0-9.95, 8.050-18, 17.999-18l 17.736,0 c 9.932,0, 18,8.050, 18,18L 1343.719,441.891 
		c0,9.95-8.069,18-18,18l-17.736,0 c-9.949,0-17.999-8.050-17.999-18L 1289.983,264.707 zM 1289.983,583.481c0-9.95, 8.050-18, 17.999-18l 17.736,0 c 9.932,0, 18,8.050, 18,18L 1343.719,760.666 
		c0,9.95-8.069,18-18,18l-17.736,0 c-9.949,0-17.999-8.050-17.999-18L 1289.983,583.481 zM 837.847-10.246c-9.95,0-18-8.050-18-18l0-17.755 c0-9.913, 8.050-18, 18-18l 177.184,0 
		c 9.949,0, 17.999,8.069, 17.999,18l0,17.736 c0,9.967-8.050,18.017-17.999,18.017L 837.847-10.248 zM 520.073-10.246c-9.949,0-17.999-8.050-17.999-18l0-17.755 c0-9.913, 8.050-18, 17.999-18l 177.185,0 
		c 9.949,0, 17.999,8.069, 17.999,18l0,17.736 c0,9.967-8.050,18.017-17.999,18.017L 520.073-10.248 zM 837.847,1088c-9.95,0-18-8.050-18-18l0-17.753 c0-9.915, 8.050-18, 18-18l 177.184,0 
		c 9.949,0, 17.999,8.069, 17.999,18L 1033.029,1069.984 C 1033.029,1079.95, 1024.979,1088, 1015.030,1088L 837.847,1088 zM 520.073,1088c-9.949,0-17.999-8.050-17.999-18l0-17.753 c0-9.915, 8.050-18, 17.999-18l 177.185,0 
		c 9.949,0, 17.999,8.069, 17.999,18L 715.257,1069.984 C 715.257,1079.95, 707.207,1088, 697.258,1088L 520.073,1088 zM 227.56,884.22l-17.824,0 c-9.896,0-18,8.102-18,18L 191.736,1052.159 
		c0,19.793, 16.013,35.823, 35.824,35.823l 149.94,0 c 9.896,0, 17.999-8.102, 17.999-17.999l0-17.824 c0-9.896-8.102-18-17.999-18
		l-114.116,0 c-9.915,0-17.824-7.927-17.824-17.824l0-114.116 C 245.559,892.323, 237.456,884.22, 227.56,884.22zM 1140.518,1052.159L 1140.518,1069.984 c0,9.895, 8.102,17.999, 17.999,17.999l 149.921,0 c 19.81,0, 35.824-16.013, 35.824-35.823
		l0-149.938 c0-9.896-8.087-18-18-18l-17.824,0 c-9.88,0-18,8.102-18,18L 1290.438,1016.336 
		c0,9.913-7.909,17.824-17.807,17.824l-114.116,0 C 1148.622,1034.159, 1140.518,1042.263, 1140.518,1052.159zM 1308.44,139.763l 17.824,0 c 9.895,0, 18-8.102, 18-18l0-149.938 c0-19.793-16.014-35.824-35.824-35.824
		l-149.938,0 c-9.896,0-18,8.104-18,18l0,17.824 c0,9.895, 8.102,18, 18,18l 114.116,0 
		c 9.913,0, 17.824,7.927, 17.824,17.824l0,114.116 C 1290.44,131.66, 1298.544,139.763, 1308.44,139.763z" horiz-adv-x="1536"  />
<glyph unicode="&#x53;" d="M 1499.758,752.578L 36.265,752.578 c-20.025,0-36.265-16.24-36.265-36.265l0-408.624 c0-20.025, 16.24-36.265, 36.265-36.265
	l 1463.493,0 c 20.025,0, 36.242,16.24, 36.242,36.265L 1536,716.313 C 1536,736.337, 1519.783,752.578, 1499.758,752.578z M 690.523,632.336l 365.545,0 
	c 20.917,0, 37.839-16.924, 37.839-37.816c0-20.896-16.922-37.816-37.839-37.816L 690.523,556.704 c-20.894,0-37.816,16.922-37.816,37.816
	C 652.705,615.413, 669.628,632.336, 690.523,632.336z M 525.977,369.243l-394.922-0.023c-20.894-0.025-37.816,16.922-37.816,37.816
	c0,20.894, 16.924,37.816, 37.816,37.816l 394.922,0.023c 20.896,0.025, 37.816-16.922, 37.816-37.816
	C 563.793,386.165, 546.871,369.243, 525.977,369.243z M 525.977,556.704L 131.053,556.704 c-20.894,0-37.816,16.922-37.816,37.816
	c0,20.894, 16.924,37.816, 37.816,37.816l 394.922,0 c 20.896,0, 37.816-16.924, 37.816-37.816C 563.793,573.624, 546.871,556.704, 525.977,556.704z
	 M 1418.65,369.22l-728.127,0.023c-20.894,0-37.816,16.924-37.816,37.816c0,20.896, 16.924,37.816, 37.816,37.816l 728.127-0.023
	c 20.896,0, 37.816-16.924, 37.816-37.816C 1456.466,386.142, 1439.544,369.22, 1418.65,369.22z M 1457.876,564.576
	c0-21.67-17.58-39.226-39.226-39.226L 1221.2,525.349 c-21.668,0-39.251,17.556-39.251,39.226l0,59.91 c0,21.668, 17.581,39.226, 39.251,39.226
	L 1418.65,663.712 c 21.647,0, 39.226-17.558, 39.226-39.226L 1457.876,564.576 z" horiz-adv-x="1536"  />
<glyph unicode="&#x54;" d="M 1499.859,775.528L 36.141,775.528 C 16.188,775.528,0,759.353,0,739.388l0-454.776 c0-19.953, 16.188-36.141, 36.141-36.141
	l 49.859,0 c-0.048,0.518-0.164,0.989-0.164,1.505l0,129.505 c0,19.953, 16.188,36.141, 36.141,36.141s 36.141-16.188, 36.141-36.141l0-129.505 
	c0-0.518-0.117-0.989-0.164-1.505l 78.636,0 c-0.048,0.518-0.164,0.989-0.164,1.505l0,129.505 c0,19.953, 16.189,36.141, 36.141,36.141
	c 19.953,0, 36.142-16.188, 36.142-36.141l0-129.505 c0-0.518-0.118-0.989-0.164-1.505l 78.636,0 c-0.048,0.518-0.164,0.989-0.164,1.505l0,129.505 
	c0,19.953, 16.188,36.141, 36.141,36.141s 36.141-16.188, 36.141-36.141l0-129.505 c0-0.518-0.118-0.989-0.164-1.505l 78.636,0 
	c-0.048,0.518-0.164,0.989-0.164,1.505l0,129.505 c0,19.953, 16.188,36.141, 36.141,36.141s 36.141-16.188, 36.141-36.141l0-129.505 
	c0-0.518-0.117-0.989-0.164-1.505l 78.917,0 c-0.189,1.505-0.447,2.964-0.447,4.517l0,129.505 c0,19.953, 16.188,36.141, 36.141,36.141
	s 36.142-16.188, 36.142-36.141l0-129.505 c0-1.554-0.258-3.012-0.447-4.517l 190.94,0 c-0.258,2.518-0.753,4.941-0.753,7.528
	c0,40.753, 33.036,73.789, 73.789,73.789c 40.752,0, 73.788-33.036, 73.788-73.789c0-2.588-0.495-5.012-0.753-7.528l 154.519,0 
	c-0.048,0.518-0.164,0.989-0.164,1.505l0,129.505 c0,19.953, 16.188,36.141, 36.141,36.141s 36.141-16.188, 36.141-36.141l0-129.505 
	c0-0.518-0.117-0.989-0.164-1.505l 78.918,0 c-0.189,1.505-0.447,2.964-0.447,4.517l0,129.505 c0,19.953, 16.188,36.141, 36.141,36.141
	s 36.141-16.188, 36.141-36.141l0-129.505 c0-1.554-0.258-3.012-0.447-4.517l 26.047,0 c 19.953,0, 36.141,16.188, 36.141,36.141L 1535.998,739.388 
	C 1536,759.353, 1519.812,775.528, 1499.859,775.528z M 763.483,554.165c0-19.965-16.188-36.141-36.141-36.141L 118.965,518.024 
	c-19.953,0-36.141,16.176-36.141,36.141l0,99.387 c0,19.965, 16.189,36.142, 36.141,36.142l 608.377,0 c 19.953,0, 36.141-16.177, 36.141-36.142
	L 763.483,554.165 z M 1136.941,554.165c0-19.965-16.188-36.141-36.141-36.141L 938.164,518.024 c-19.953,0-36.141,16.176-36.141,36.141l0,99.387 
	c0,19.965, 16.188,36.142, 36.141,36.142l 162.636,0 c 19.953,0, 36.141-16.177, 36.141-36.142L 1136.941,554.165 z M 1426.072,644.517
	c-19.953,0-36.141,16.188-36.141,36.141s 16.188,36.141, 36.141,36.141s 36.141-16.188, 36.141-36.141S 1446.024,644.517, 1426.072,644.517z" horiz-adv-x="1536"  />
<glyph unicode="&#x55;" d="M 1535.627,954.537c0,19.808-16.071,35.856-35.879,35.856l0,0L 35.856,989.788
			c-9.506,0-18.641-3.785-25.369-10.512C 3.76,972.524,0,963.415,0,953.884l 0.373-884.423c 0.025-19.808, 16.071-35.855, 35.879-35.855l 0.023,0 
			l 1463.843,0.608c 9.531,0, 18.642,3.783, 25.369,10.511c 6.728,6.752, 10.512,15.862, 10.512,25.392L 1535.627,954.537z M 1445.179,127.3
			c-7.101-7.757-16.772-11.68-26.536-11.68c-8.642,0-17.285,3.106-24.152,9.391L 980.006,503.684L 788.767,368.366
			c-6.213-4.393-13.455-6.588-20.718-6.588c-7.265,0-14.506,2.195-20.721,6.588l-189.512,133.964L 147.421,126.88
			c-6.869-6.307-15.558-9.414-24.201-9.414c-9.717,0-19.412,3.924-26.49,11.657c-13.36,14.624-12.356,37.326, 2.243,50.69
			l 398.881,364.914L 104.579,822.676c-16.163,11.423-20.019,33.824-8.597,50.012c 11.471,16.165, 33.824,20.043, 50.035,8.572
			l 622.006-439.663l 629.643,445.457c 16.165,11.471, 38.543,7.569, 49.989-8.571c 11.446-16.165, 7.614-38.566-8.548-50.014l-399.114-282.364
			l 402.897-368.115C 1457.512,164.627, 1458.541,141.921, 1445.179,127.3z" horiz-adv-x="1536"  />
<glyph unicode="&#x56;" d="M 839.628,78.066l 75.279,212.578c 159.014,60.641, 265.505,214.765, 265.505,384.982
	C 1180.413,903.007, 995.412,1088, 768.014,1088C 540.597,1088, 355.587,903.007, 355.587,675.625c0-170.207, 106.5-324.32, 265.505-384.982
	l 75.763-212.42l 21.398-60.007l 21.671-60.75c 8.694-19.331, 23.929-21.469, 28.087-21.469c 4.166,0, 21.67,0.195, 29.404,22.917
	l 20.957,59.142L 839.628,78.066z M 768.014,851.086c 96.808,0, 175.565-78.712, 175.565-175.459c0-96.763-78.755-175.494-175.565-175.494
	S 592.431,578.862, 592.431,675.625C 592.431,772.374, 671.204,851.086, 768.014,851.086z" horiz-adv-x="1536"  />
<glyph unicode="&#x57;" d="M 768.035,1088C 553.977,1088, 380.467,914.489, 380.467,700.467c0-118.378, 53.156-224.287, 136.792-295.38l0-119.542 
		c0-33.546, 27.195-60.793, 60.775-60.793l 9.101,0 l0-72.312 l 361.713,0 l0,72.312 l 9.136,0 c 33.578,0, 60.775,27.247, 60.775,60.793l0,119.542 
		C 1102.412,476.18, 1155.533,582.071, 1155.533,700.467C 1155.533,914.489, 982.040,1088, 768.035,1088z M 949.271,615.88l-78.307-364.676
		c-2.716-12.715-13.968-21.41-26.455-21.41c-1.871,0-3.809,0.212-5.715,0.601c-14.638,3.158-23.951,17.549-20.811,32.187
		l 69.312,322.737c-36.614-3.88-80.247,2.875-112.169,36.913c-31.921-34.056-75.625-40.83-112.153-36.913l 69.295-322.737
		c 3.14-14.638-6.175-29.029-20.794-32.187c-1.922-0.389-3.845-0.601-5.714-0.601c-12.506,0-23.739,8.695-26.473,21.41L 600.98,615.88
		c-2.098,9.806, 1.376,19.965, 9.049,26.421c 7.672,6.473, 18.272,8.148, 27.583,4.391c 8.325-3.281, 83.122-30.528, 112.822,35.362
		c 0.229,0.495, 0.565,0.917, 0.811,1.393c 0.459,0.882, 0.919,1.728, 1.482,2.557c 0.459,0.688, 0.952,1.322, 1.481,1.957
		c 0.601,0.723, 1.2,1.428, 1.871,2.098c 0.601,0.601, 1.235,1.147, 1.905,1.676c 0.687,0.582, 1.376,1.129, 2.15,1.64
		c 0.74,0.511, 1.534,0.935, 2.329,1.358c 0.53,0.283, 0.989,0.636, 1.553,0.882c 0.246,0.123, 0.53,0.16, 0.811,0.283
		c 0.846,0.352, 1.728,0.601, 2.645,0.865c 0.811,0.247, 1.624,0.511, 2.435,0.671c 0.882,0.177, 1.799,0.247, 2.699,0.335
		c 0.828,0.071, 1.676,0.177, 2.504,0.177c 0.9,0, 1.817-0.106, 2.717-0.194c 0.829-0.088, 1.676-0.141, 2.505-0.3
		c 0.865-0.177, 1.71-0.459, 2.557-0.705c 0.865-0.264, 1.71-0.511, 2.539-0.846c 0.283-0.106, 0.564-0.16, 0.846-0.283
		c 0.564-0.247, 1.023-0.617, 1.553-0.899c 0.776-0.424, 1.551-0.829, 2.292-1.322c 0.777-0.511, 1.482-1.094, 2.206-1.676
		c 0.653-0.53, 1.27-1.058, 1.869-1.659c 0.688-0.67, 1.289-1.393, 1.888-2.115c 0.511-0.636, 1.006-1.252, 1.464-1.923
		c 0.547-0.846, 1.041-1.711, 1.501-2.593c 0.246-0.476, 0.564-0.882, 0.794-1.376c 30.494-67.69, 109.472-36.703, 112.822-35.362
		c 9.276,3.757, 19.894,2.081, 27.583-4.391C 947.895,635.845, 951.388,625.687, 949.271,615.88zM 587.134,63.654c0-33.545, 27.232-60.775, 60.812-60.775l 15.203,0 l0-6.067 c0-33.617, 27.195-60.812, 60.793-60.812
		l 97.249,0 c 33.545,0, 60.812,27.195, 60.812,60.812l0,6.067 l 6.032,0 c 33.651,0, 60.812,27.232, 60.812,60.775l0,34.603 l-361.713,0 L 587.134,63.654 z" horiz-adv-x="1536"  />
<glyph unicode="&#x58;" d="M 1500.611,926.992L 35.4,926.992 C 15.85,926.992,0,911.14,0,891.592l0-759.17 c0-19.562, 15.85-35.414, 35.4-35.414
		L 1500.611,97.008 c 19.538,0, 35.389,15.85, 35.389,35.414L 1536,891.592 C 1536,911.14, 1520.148,926.992, 1500.611,926.992z M 1265.619,235.979L 1265.619,420.765 l 117.367,0 
		l0-178.982 c-1.714-1.739-3.241-3.713-4.557-5.801L 1265.619,235.981 z M 348.223,235.979L 348.223,420.765 l 846.597,0 l0-184.785 L 348.223,235.979 z M 165.506,235.979
		c-1.785,2.771-3.981,5.238-6.457,7.422L 159.048,420.765 l 118.375,0 l0-184.785 L 165.506,235.979 z M 161.807,775.387l 115.616,0 l0-104.356 l-118.375,0 l0,101.633 
		C 160.011,773.533, 160.937,774.426, 161.807,775.387z M 348.223,775.387l 112.67,0 l0-104.356 l-112.67,0 L 348.223,775.387 z M 531.705,775.387l 112.672,0 l0-104.356 
		l-112.672,0 L 531.705,775.387 z M 715.186,775.387l 112.672,0 l0-104.356 l-112.672,0 L 715.186,775.387 z M 898.657,775.387l 112.692,0 l0-104.356 l-112.692,0 L 898.657,775.387 z
		 M 1082.15,775.387l 112.67,0 l0-104.356 l-112.67,0 L 1082.15,775.387 z M 1265.619,775.387l 116.499,0 c 0.304-0.364, 0.541-0.786, 0.868-1.103l0-103.253 l-117.367,0 
		L 1265.619,775.387 z M 159.048,600.219l 118.375,0 l0-108.654 l-118.375,0 L 159.048,600.219 z M 348.223,600.219l 112.67,0 l0-108.654 l-112.67,0 L 348.223,600.219 z M 531.705,600.219
		l 112.672,0 l0-108.654 l-112.672,0 L 531.705,600.219 z M 715.186,600.219l 112.672,0 l0-108.654 l-112.672,0 L 715.186,600.219 z M 898.657,600.219l 112.692,0 l0-108.654 l-112.692,0 L 898.657,600.219 
		z M 1082.15,600.219l 112.67,0 l0-108.654 l-112.67,0 L 1082.15,600.219 z M 1265.619,600.219l 117.367,0 l0-108.654 l-117.367,0 L 1265.619,600.219 z" horiz-adv-x="1536"  />
<glyph unicode="&#x59;" d="M 1490.883,1039.994L 45.117,1039.994 C 19.793,1039.994,0,1014.658,0,989.321l0-66.586 c0-25.312, 19.793-50.742, 45.117-50.742L 96,871.994 
	l0-563.379 l0-83.25 l0-53.719 l0-136.97 c0-12.655, 2.602-26.53, 10.898-34.829c 8.297-8.296, 17.215-15.842, 29.895-15.842l 298.875,0 l 298.886,0 
	c 12.657,0, 24.117,7.546, 32.414,15.842l 163.922,163.266c 8.296,8.296, 19.735,12.892, 32.414,12.892l 298.899,0 l 137.014,0 
	c 25.336,0, 40.782,24.046, 40.782,49.359L 1440,871.994 l 50.883,0 c 25.359,0, 45.117,25.43, 45.117,50.742l0,66.586 
	C 1536,1014.658, 1516.242,1039.994, 1490.883,1039.994z M 415.921,318.083c-104.156,0-188.882,84.704-188.882,188.873
	c0,59.039, 34.558,98.401, 65.039,132.961c 6.245,7.196, 12.726,14.403, 18.725,21.843c 12.001,14.872, 49.911,86.391, 72.962,132.469
	c 6,12.001, 18.234,19.441, 31.675,19.687c 12.715,0.481, 25.922-6.961, 32.156-18.96c 24-44.403, 67.206-121.195, 80.883-137.52
	c 3.597-4.559, 7.44-9.118, 11.52-13.677c 30.48-36.001, 65.039-76.805, 65.039-136.804C 605.040,402.786, 520.325,318.083, 415.921,318.083z
	 M 561.88,57.505L 203.379,57.505 c-19.887,0-36.001,16.1-36.001,36.001c0,19.874, 16.113,36.001, 36.001,36.001l 358.499,0 
	c 19.887,0, 36.001-16.125, 36.001-36.001C 597.879,73.607, 581.766,57.505, 561.88,57.505z M 709.629,57.505l-5.086,0 
	c-19.887,0-36.001,16.1-36.001,36.001c0,19.874, 16.113,36.001, 36.001,36.001l 5.086,0 c 19.887,0, 36.001-16.125, 36.001-36.001
	C 745.63,73.607, 729.516,57.505, 709.629,57.505z" horiz-adv-x="1536"  />
<glyph unicode="&#x5a;" d="M 722.525,28.083L 722.525,358.833 c0,15.991, 12.975,28.964, 28.966,28.964l 243.825,0 c 15.991,0, 28.964-12.973, 28.964-28.964
		L 1024.28,28.083 l0,2.866 l0-65.983 c0-15.991, 12.975-28.966, 28.966-28.966l 191.785,0 c 15.991,0, 28.964,12.975, 28.964,28.966L 1273.995,598.461 
		c0,9.617-4.769,18.613-12.747,24.006L 784.2,944.656c-9.787,6.6-22.63,6.6-32.417,0L 274.743,622.468
		c-7.976-5.393-12.758-14.389-12.758-24.006l0-633.496 c0-15.991, 12.965-28.966, 28.966-28.966l 402.607,0 c 16.001,0, 28.966,12.975, 28.966,28.966
		l0,65.983 L 722.524,28.083 zM 1372.23,685.887L 784.2,1083.036c-9.787,6.62-22.63,6.62-32.417,0L 485.829,903.404L 485.829,958.517 
		c0,16.001-12.964,28.966-28.966,28.966L 290.951,987.483 c-16.001,0-28.966-12.965-28.966-28.966l0-206.297 l-98.212-66.334
		c-13.257-8.958-16.745-26.957-7.798-40.214c 5.6-8.288, 14.727-12.758, 24.034-12.758c 5.573,0, 11.211,1.602, 16.18,4.96L 751.651,1013.036
		c 9.787,6.6, 22.63,6.6, 32.417,0l-0.132,0.273L 1339.794,637.875c 13.257-8.958, 31.265-5.47, 40.225,7.798
		C 1388.976,658.929, 1385.487,676.93, 1372.23,685.887z" horiz-adv-x="1536"  />
<glyph unicode="&#x5b;" d="M 1316.429,1088l-1096.858,0 c-14.905,0-27-12.076-27-27l0-1098 c0-14.942, 12.094-27, 27-27l 1096.858,0 
	c 14.905,0, 27,12.059, 27,27L 1343.429,1061 C 1343.429,1075.924, 1331.334,1088, 1316.429,1088z M 759.721,125.32
	c-31.308,0-56.726,25.399-56.726,56.741s 25.418,56.743, 56.726,56.743c 31.324,0, 56.76-25.401, 56.76-56.743
	S 791.045,125.32, 759.721,125.32z M 815.55,440.235l0-28.195 c0-0.052, 0.017-0.123, 0.017-0.175s-0.017-0.123-0.017-0.175l0-6.734 l-0.685,0 
	c-3.445-27.545-26.685-48.937-55.142-48.937c-28.444,0-51.699,21.393-55.127,48.937l-0.335,0 l0,3.235 c-0.088,1.249-0.369,2.425-0.369,3.674
	s 0.283,2.425, 0.369,3.674l0,32.837 c0,131.188, 149.293,152.001, 149.293,245.184c0,42.523-38.004,75.095-87.769,75.095
	c-36.494,0-69.718-18.983-86.082-30.095c-9.353-9.632-22.376-15.644-36.844-15.644c-28.407,0-51.434,23.026-51.434,51.433
	c0,16.736, 8.122,31.465, 20.498,40.853c 18.265,15.962, 75.974,59.31, 163.811,59.31c 102.238,0, 197.247-63.335, 197.247-170.089
	C 972.981,555.146, 815.55,537.954, 815.55,440.235z" horiz-adv-x="1536"  />
<glyph unicode="&#x5c;" d="M 1151.235,1088L 384.766,1088 c-14.924,0-27.034-12.108-27.034-27.034l0-1097.931 c0-14.925, 12.11-27.035, 27.034-27.035l 766.469,0 
		c 14.925,0, 27.034,12.11, 27.034,27.035L 1178.269,1060.966 C 1178.269,1075.892, 1166.16,1088, 1151.235,1088z M 443.462,1034.953c 19.395,0, 35.13-15.752, 35.13-35.147
		c0-19.395-15.735-35.13-35.13-35.13c-19.395,0-35.13,15.735-35.13,35.13C 408.333,1019.201, 424.067,1034.953, 443.462,1034.953z
		 M 443.462,1.014c-19.395,0-35.13,15.753-35.13,35.148s 15.735,35.148, 35.13,35.148c 19.395,0, 35.13-15.753, 35.13-35.148
		S 462.858,1.014, 443.462,1.014z M 688.879,314.086l-22.633-65.403c 21.191-24.674, 28.388-59.893, 15.629-92.049
		c-18.357-46.36-70.647-68.957-116.969-50.617c-46.254,18.338-68.905,70.647-50.548,117.006c 12.83,32.35, 42.311,53.116, 74.8,56.425
		l 27.616,62.604c-99.212,53.874-166.727,159.001-166.727,279.613c0,175.316, 142.631,317.929, 317.964,317.929
		c 175.333,0, 317.964-142.613, 317.964-317.929s-142.63-317.946-317.964-317.946C 740.659,303.72, 714.223,307.555, 688.879,314.086z
		 M 1119.343,36.163c0-14.925-12.11-27.035-27.035-27.035l-199.849,0 c-10.806,0-20.592,6.442-24.851,16.386
		c-4.259,9.927-2.183,21.455, 5.262,29.287l 199.849,209.953c 7.639,8.026, 19.377,10.56, 29.62,6.459
		c 10.279-4.101, 17.002-14.045, 17.002-25.098L 1119.342,36.163 z M 1092.557,964.676c-19.397,0-35.13,15.735-35.13,35.13
		c0,19.395, 15.733,35.147, 35.13,35.147c 19.395,0, 35.13-15.752, 35.13-35.147C 1127.687,980.411, 1111.952,964.676, 1092.557,964.676zM 768.009,885.652c-145.763,0-264.020-118.203-264.020-263.985c0-98.931, 54.543-185.031, 135.080-230.245
		l 40.428,91.644c 7.462,16.315, 26.753,23.55, 43.12,16.226c 15.348-6.987, 22.599-24.445, 17.53-40.128l-32.631-94.266
		c 19.466-4.559, 39.653-7.233, 60.491-7.233c 145.748,0, 264.020,118.22, 264.020,264.002S 913.757,885.652, 768.009,885.652z
		 M 768.009,532.716c-48.207,0-87.437,39.231-87.437,87.437s 39.231,87.42, 87.437,87.42s 87.42-39.213, 87.42-87.42
		S 816.217,532.716, 768.009,532.716z" horiz-adv-x="1536"  />
</font>
</defs>
</svg>
