<?xml version="1.0" standalone="no"?>
<!DOCTYPE svg PUBLIC "-//W3C//DTD SVG 1.1//EN" "http://www.w3.org/Graphics/SVG/1.1/DTD/svg11.dtd" >
<svg xmlns="http://www.w3.org/2000/svg">
<metadata>
This is a custom SVG font generated by IcoMoon.
<iconset grid="16"></iconset>
</metadata>
<defs>
<font id="icon-dell-mini" horiz-adv-x="512" >
<font-face units-per-em="512" ascent="480" descent="-32" />
<missing-glyph horiz-adv-x="512" />
<glyph unicode="&#x75;" d="M 69.346-32.00l 543.975,0.00 c-26.137,127.78-118.10,226.109-232.503,244.765c 56.204,17.043, 97.36,68.642, 97.36,130.391
	C 478.177,418.721, 416.927,480.00, 341.333,480.00C 265.739,480.00, 204.489,418.721, 204.489,343.156c0.00-61.749, 41.156-113.348, 97.361-130.391
	C 187.446,194.109, 95.483,95.78, 69.346-32.00z" horiz-adv-x="682.6666666666666"  />
<glyph unicode="&#x74;" d="M 597.333,288.196L 405.529,288.196L 405.529,480.00L 277.137,480.00L 277.137,288.196L 85.333,288.196L 85.333,159.805L 277.137,159.805L 277.137-32.00L 405.529-32.00L 405.529,159.805L 597.333,159.805 z" horiz-adv-x="682.6666666666666"  />
<glyph unicode="&#x73;" d="M 54.292,480.00L 628.374,480.00L 628.374,378.447L 54.292,378.447zM 54.292,274.777L 628.374,274.777L 628.374,173.223L 54.292,173.223zM 54.292,69.554L 628.374,69.554L 628.374-32.00L 54.292-32.00z" horiz-adv-x="682.6666666666666"  />
<glyph unicode="&#x72;" d="M 577.203,323.663c-12.899,30.481-31.36,57.854-54.87,81.359c-23.51,23.504-50.889,41.959-81.377,54.854
		C 409.382,473.229, 375.854,480.00, 341.304,480.00s-68.076-6.771-99.643-20.126c-30.482-12.894-57.855-31.35-81.358-54.856
		c-23.503-23.504-41.956-50.877-54.849-81.359C 92.103,292.094, 85.333,258.574, 85.333,224.029c0.00-34.557, 6.77-68.088, 20.12-99.663
		c 12.892-30.49, 31.346-57.869, 54.848-81.377c 23.502-23.508, 50.875-41.967, 81.358-54.863C 273.227-25.229, 306.753-32.00, 341.304-32.00
		s 68.079,6.771, 99.652,20.126c 30.489,12.896, 57.87,31.354, 81.379,54.861c 23.51,23.509, 41.971,50.888, 54.869,81.377
		C 590.561,155.94, 597.333,189.472, 597.333,224.029C 597.333,258.574, 590.561,292.095, 577.203,323.663z M 341.304-1.883
		c-124.535,0.00-225.853,101.344-225.853,225.912c0.00,124.535, 101.317,225.853, 225.853,225.853
		c 124.568,0.00, 225.912-101.317, 225.912-225.853C 567.216,99.461, 465.872-1.883, 341.304-1.883zM 478.613,264.604L 341.333,127.324L 204.054,264.604L 478.613,264.604 z" horiz-adv-x="682.6666666666666"  />
<glyph unicode="&#x71;" d="M 105.464,124.337c 12.899-30.481, 31.36-57.854, 54.87-81.359c 23.51-23.505, 50.889-41.959, 81.377-54.855
		C 273.285-25.229, 306.812-32.00, 341.363-32.00s 68.076,6.771, 99.643,20.125c 30.482,12.895, 57.855,31.35, 81.359,54.856
		c 23.503,23.504, 41.956,50.877, 54.849,81.359C 590.563,155.906, 597.333,189.426, 597.333,223.971c0.00,34.557-6.77,68.088-20.12,99.663
		c-12.892,30.49-31.347,57.869-54.848,81.377c-23.503,23.508-50.875,41.967-81.359,54.863C 409.44,473.229, 375.914,480.00, 341.363,480.00
		s-68.079-6.771-99.652-20.126c-30.489-12.896-57.87-31.354-81.379-54.861c-23.51-23.509-41.971-50.888-54.869-81.377
		C 92.106,292.06, 85.333,258.528, 85.333,223.971C 85.333,189.426, 92.106,155.905, 105.464,124.337z M 341.363,449.883
		c 124.535,0.00, 225.853-101.344, 225.853-225.912c0.00-124.535-101.317-225.853-225.853-225.853
		c-124.568,0.00-225.912,101.317-225.912,225.853C 115.451,348.539, 216.794,449.883, 341.363,449.883zM 204.054,183.396L 341.333,320.676l 137.279-137.28L 204.054,183.396 z" horiz-adv-x="682.6666666666666"  />
<glyph unicode="&#x70;" d="M 473.724,239.003L 238.939,473.779c-8.286,8.294-21.712,8.294-29.996,0.008
	c-8.294-8.286-8.286-21.712,0.00-30.005l 219.786-219.778L 208.942,4.219c-8.294-8.286-8.286-21.72,0.00-29.997
	c 8.286-8.293, 21.712-8.293, 29.996-0.008l 234.792,234.784C 482.017,217.283, 482.008,230.717, 473.724,239.003z" horiz-adv-x="682.6666666666666"  />
<glyph unicode="&#x6f;" d="M 253.938,223.995L 473.724,443.782c 8.294,8.286, 8.286,21.72,0.00,29.996
	c-8.285,8.294-21.711,8.294-29.996,0.009L 208.935,239.002c-8.286-8.286-8.277-21.719, 0.009-30.005l 234.784-234.775
	c 8.286-8.294, 21.712-8.294, 29.996-0.01c 8.294,8.286, 8.286,21.712,0.00,30.006L 253.938,223.995z" horiz-adv-x="682.6666666666666"  />
<glyph unicode="&#x76;" d="M 657.14,8.802L 365.964,466.893c-9.346,17.50-38.638,17.451-47.984,0.00L 25.604,8.802
	c-4.601-8.533-4.456-18.889, 0.334-27.287C 30.683-26.913, 39.414-32.00, 48.753-32.00l 585.139,0.00 c 9.391,0.00, 18.07,5.087, 22.86,13.515
	C 661.505-10.088, 661.642,0.268, 657.14,8.802z M 313.28,327.204c0.00,3.211, 3.356,5.801, 7.479,5.801l 41.127,0.00 
	c 4.123,0.00, 7.479-2.589, 7.479-5.801l0.00-170.757 c0.00-3.113-3.355-5.756-7.479-5.756l-41.127,0.00 c-4.123,0.00-7.479,2.643-7.479,5.756L 313.28,327.204 z
	 M 370.33,43.499c0.00-4.267-3.454-7.713-7.722-7.713l-42.518,0.00 c-4.312,0.00-7.722,3.447-7.722,7.713l0.00,42.534 
	c0.00,4.312, 3.409,7.804, 7.722,7.804l 42.518,0.00 c 4.267,0.00, 7.722-3.492, 7.722-7.804L 370.33,43.499 z" horiz-adv-x="682.6666666666666"  />
<glyph unicode="&#x77;" d="M 561.794,480.00L 120.876,480.00 c-19.603,0.00-35.555-15.927-35.555-35.555l0.00-440.891 c0.00-19.628, 15.951-35.555, 35.555-35.555
	l 440.919,0.00 c 19.649,0.00, 35.551,15.927, 35.551,35.555L 597.345,444.445 C 597.346,464.073, 581.444,480.00, 561.794,480.00z M 310.011,376.777
	c0.00,3.967, 3.172,7.159, 7.138,7.159l 39.12,0.00 c 3.879,0.00, 7.046-3.193, 7.046-7.159l0.00-39.036 c0.00-3.942-3.168-7.114-7.046-7.114l-39.12,0.00 
	c-3.967,0.00-7.138,3.172-7.138,7.114L 310.011,376.777 z M 400.682,56.221c0.00-1.608-1.284-2.905-2.91-2.905L 320.672,53.316 
	c-1.587,0.00-2.91,1.475-2.91,3.216L 317.763,226.413 l-32.91,0.00 c-1.584,0.00-2.86,1.298-2.86,2.886l0.00,41.345 c0.00,1.608, 1.277,2.91, 2.86,2.91L 361.998,273.553 
	c 1.584,0.00, 2.861-1.455, 2.861-3.262l0.00-169.881 l 32.913,0.00 c 1.625,0.00, 2.91-1.322, 2.91-2.886L 400.682,56.221 z" horiz-adv-x="682.6666666666666"  />
<glyph unicode="&#x78;" d="M 341.333,480.00C 199.902,480.00, 85.287,365.397, 85.287,223.954C 85.287,82.563, 199.902-32.00, 341.333-32.00
	c 141.397,0.00, 256.047,114.563, 256.047,255.954C 597.38,365.397, 482.731,480.00, 341.333,480.00z M 490.665,190.403c0.00-5.016-2.88-9.066-6.393-9.066
	L 198.394,181.337 c-3.508,0.00-6.392,4.05-6.392,9.066l0.00,50.095 c0.00,5.016, 2.885,9.119, 6.392,9.119l 285.878,0.00 c 3.513,0.00, 6.393-4.103, 6.393-9.119
	L 490.665,190.403 z" horiz-adv-x="682.6666666666666"  />
<glyph unicode="&#x6d;" d="M 85.333,96.00l 256.00,256.00l 256.00-256.00L 85.333,96.00 z" horiz-adv-x="682.6666666666666"  />
<glyph unicode="&#x6b;" d="M 213.333,480.00l 256.00-256.00l-256.00-256.00L 213.333,480.00 z" horiz-adv-x="682.6666666666666"  />
<glyph unicode="&#x6e;" d="M 469.333-32.00l-256.00,256.00l 256.00,256.00L 469.333-32.00 z" horiz-adv-x="682.6666666666666"  />
<glyph unicode="&#x6c;" d="M 597.333,352.00l-256.00-256.00l-256.00,256.00L 597.333,352.00 z" horiz-adv-x="682.6666666666666"  />
<glyph unicode="&#x24;" d="M 493.253,325.976C 493.253,410.894, 424.146,480.00, 339.229,480.00C 254.31,480.00, 185.204,410.894, 185.204,325.975
	c0.00-84.918, 69.106-153.961, 154.025-153.961C 424.146,172.015, 493.253,241.058, 493.253,325.976 M 339.259,217.233
	c-59.97,0.00-108.774,48.773-108.774,108.743c0.00,59.97, 48.805,108.774, 108.774,108.774c 59.939,0.00, 108.712-48.805, 108.712-108.774
	C 447.971,266.007, 399.198,217.233, 339.259,217.233 M 384.479,327.442c 11.289,0.00, 21.393,4.584, 28.94,11.849
	c 0.905-4.99, 1.996-9.884, 1.903-15.092c-1.341-40.79-34.927-72.60-76.435-72.60c-0.126,0.00-1.871,0.00-1.996,0.00
	c-20.676,0.498-39.761,8.889-53.732,23.669c-13.535,14.316-20.613,32.994-19.958,52.61c 1.247,39.979, 35.551,72.537, 76.435,72.537
	c 5.80-0.156, 10.385-0.748, 14.875-1.653c-7.422-7.578-12.069-17.869-12.069-29.314
	C 342.441,346.278, 361.245,327.442, 384.479,327.442 M 301.775,120.247l 27.662,0.00 L 329.437-32.00 l-27.662,0.00 l0.00,63.929 L 232.076,31.929 L 232.076-32.00 L 204.445-32.00 L 204.445,120.247 l 27.631,0.00 
	l0.00-64.554 l 69.699,0.00 L 301.775,120.247 z M 419.843,120.216l-51.893,0.00 L 367.95-32.00 l 51.893,0.00 c 46.934,0.00, 77.62,28.316, 77.62,76.342
	C 497.463,92.368, 466.777,120.216, 419.843,120.216 M 418.346-8.174l-22.734,0.00 L 395.611,96.421 l 22.734,0.00 c 30.437,0.00, 50.616-18.212, 50.616-52.079
	C 468.959,10.038, 449.219-8.174, 418.346-8.174" horiz-adv-x="682.6666666666666"  />
<glyph unicode="&#x25;" d="M 569.50,251.833C 569.50,377.612, 467.145,480.00, 341.333,480.00C 215.523,480.00, 113.166,377.612, 113.166,251.833
	c0.00-109.269, 77.242-200.742, 179.945-222.913l0.00-36.904 L 233.254-7.984 c-6.63,0.00-12.009-5.379-12.009-12.009s 5.379-12.008, 12.009-12.008l 71.865,0.00 
	l 72.053,0.00 l 72.24,0.00 c 6.63,0.00, 12.009,5.379, 12.009,12.009s-5.379,12.009-12.009,12.009l-60.232,0.00 l0.00,36.777 
	C 492.069,50.842, 569.50,142.44, 569.50,251.833 M 182.529,251.833c0.00,87.689, 71.115,158.74, 158.835,158.74
	c 87.689,0.00, 158.773-71.052, 158.773-158.74c0.00-87.689-71.083-158.804-158.773-158.804
	C 253.644,93.029, 182.529,164.143, 182.529,251.833 M 455.761,249.08c 0.251,10.287-1.064,20.453-3.565,30.335
	c-10.791-16.573-29.398-27.581-50.631-27.581c-33.402,0.00-60.421,27.019-60.421,60.419c0.00,20.014, 9.853,37.62, 24.831,48.598
	c-7.287,1.564-14.635,2.533-23.987,2.72c-61.545,0.00-113.145-48.88-114.99-108.925c-0.969-29.397, 9.663-57.478, 29.961-78.933
	c 20.983-22.265, 49.724-34.901, 80.841-35.652c 0.126,0.00, 2.877,0.00, 3.001,0.00C 403.223,140.063, 453.728,187.911, 455.761,249.08
	 M 340.802,155.888l-0.031,0.251l 0.031,0.00 L 340.802,155.888 z" horiz-adv-x="682.6666666666666"  />
<glyph unicode="&#x26;" d="M 597.081,226.781c0.00,30.601-15.301,52.857-44.511,52.857c 22.255,22.256, 29.21,51.529, 13.909,73.785
	c-13.909,22.256-44.447,37.556-73.658,29.211c 15.333,22.192,0.00,52.856-22.224,66.703c-22.224,15.364-51.434,8.409-73.689-13.847
	C 388.594,464.699, 366.371,480.00, 344.115,480.00c-29.21,0.00-51.434-15.301-58.388-44.511c-15.333,22.256-44.479,29.211-75.08,13.847
	c-22.192-13.847-29.21-44.511-22.192-66.703c-29.21,8.346-51.466-6.955-66.735-29.211
	c-13.909-22.256-6.955-51.529, 8.315-73.785c-22.224,0.00-44.448-22.256-44.448-52.857c0.00-29.21, 22.224-51.466, 44.448-58.42
	c-15.269-15.301-22.224-44.511-8.315-75.175c 15.269-22.192, 37.525-29.146, 66.735-22.192c-7.018-29.21,0.00-51.528, 22.192-66.83
	c 30.601-13.909, 59.748-6.955, 75.08,8.346C 292.681-9.744, 314.905-32.00, 344.115-32.00c 22.256,0.00, 44.478,22.256, 52.793,44.511
	c 22.256-15.301, 51.466-22.256, 73.689-8.346c 22.224,15.301, 37.556,37.619, 22.224,66.83c 29.211-6.955, 59.748,0.00, 73.658,22.192
	c 15.301,30.665, 8.346,59.875-13.909,75.175C 581.78,175.316, 597.081,197.571, 597.081,226.781 M 465.887,294.875L 318.003,121.575
	c-4.805-5.564-11.634-8.473-18.493-8.473c-5.217,0.00-10.464,1.644-14.89,5.121L 214.535,172.724
	c-10.59,8.219-12.455,23.52-4.236,34.079s 23.488,12.519, 34.047,4.236l 51.782-40.275l 132.837,155.661
	c 8.724,10.179, 24.057,11.444, 34.268,2.718C 473.38,320.418, 474.612,305.054, 465.887,294.875" horiz-adv-x="682.6666666666666"  />
<glyph unicode="&#x27;" d="M 598.671,236.696L 183.345,236.696 l 390.102,142.513c 3.129,1.186, 5.697,3.556, 7.113,6.586
	c 1.416,3.03, 1.58,6.519, 0.428,9.681L 553.131,471.671c-2.404,6.586-9.615,10.01-16.233,7.508l-457.243-167.079
	c-3.128-1.12-5.697-3.49-7.112-6.52c-1.416-3.095-1.58-6.519-0.429-9.681l 27.101-74.155l0.00-241.101 
	c0.00-7.046, 5.663-12.644, 12.644-12.644l 486.812,0.00 c 6.948,0.00, 12.644,5.598, 12.644,12.644L 611.314,224.051 
	C 611.314,231.031, 605.619,236.696, 598.671,236.696 M 430.67,392.512l 6.289,21.074c 4.051,13.369, 18.078,20.877, 31.545,16.991
	c 13.369-4.017, 20.943-18.11, 16.958-31.545l-6.355-21.074c-3.26-10.932-13.303-17.979-24.203-17.979
	c-2.404,0.00-4.84,0.329-7.277,1.053C 434.259,365.05, 426.686,379.143, 430.67,392.512 M 312.095,362.811
	c 2.70,13.698, 16.069,22.523, 29.767,19.823c 13.698-2.70, 22.556-16.069, 19.823-29.767l-4.215-21.074
	c-2.404-11.986-12.974-20.283-24.762-20.283c-1.647,0.00-3.326,0.132-5.005,0.461c-13.698,2.766-22.556,16.069-19.823,29.767
	L 312.095,362.811z M 184.07,301.894l 6.356,21.074c 4.017,13.369, 18.045,21.008, 31.512,16.991c 13.369-4.017, 20.943-18.11, 16.925-31.545
	l-6.289-21.075c-3.293-10.932-13.369-17.979-24.235-17.979c-2.404,0.00-4.84,0.329-7.277,1.053
	C 187.692,274.431, 180.119,288.524, 184.07,301.894 M 544.47,17.919L 165.828,17.919 c-9.286,0.00-16.859,7.507-16.859,16.859
	c0.00,9.286, 7.574,16.859, 16.859,16.859l 172.577,0.00 L 338.405,169.851 c0.00,9.351, 7.54,16.859, 16.858,16.859c 9.319,0.00, 16.86-7.508, 16.86-16.859
	l0.00-118.213 l 172.347,0.00 c 9.318,0.00, 16.859-7.574, 16.859-16.859C 561.33,25.427, 553.789,17.919, 544.47,17.919" horiz-adv-x="682.6666666666666"  />
<glyph unicode="&#x28;" d="M 482.116,271.178c 6.65,0.00, 12.046-5.395, 12.046-12.046l0.00-279.087 c0.00-6.65-5.395-12.046-12.046-12.046L 200.519-32.001 
	c-6.651,0.00-12.046,5.396-12.046,12.046L 188.473,259.133 c0.00,6.65, 5.395,12.046, 12.046,12.046L 482.116,271.179  M 532.055,401.673
	c 6.65,0.00, 12.046-5.395, 12.046-12.046l0.00-56.213 c0.00-6.65-5.396-12.046-12.046-12.046L 150.611,321.369 c-6.65,0.00-12.046,5.396-12.046,12.046
	l0.00,56.213 c0.00,6.651, 5.395,12.046, 12.046,12.046l 90.624,0.00 c-0.219,1.349-0.784,2.604-0.784,4.015L 240.452,455.909 c0.00,13.30, 10.791,24.091, 24.091,24.091
	L 418.092,480.00 c 13.30,0.00, 24.091-10.791, 24.091-24.091l0.00-48.183 c0.00-2.164-0.659-4.078-1.223-6.054L 532.055,401.672  M 288.634,405.688
	c0.00-1.412-0.596-2.666-0.816-4.015l 107.407,0.00 c-0.502,1.976-1.223,3.89-1.223,6.054l0.00,24.091 L 288.634,431.818 L 288.634,405.688 " horiz-adv-x="682.6666666666666"  />
<glyph unicode="&#x29;" d="M 458.101,480.00L 224.566,480.00 c-8.917,0.00-16.132-7.247-16.132-16.132l0.00-479.736 c0.00-8.886, 7.215-16.132, 16.132-16.132
	l 233.535,0.00 c 8.948,0.00, 16.131,7.247, 16.131,16.132L 474.233,463.868 C 474.233,472.753, 467.049,480.00, 458.101,480.00 M 341.522,58.238
	c-26.593,0.00-48.081,21.488-48.081,48.144c0.00,26.529, 21.488,48.081, 48.081,48.081c 26.561,0.00, 48.143-21.551, 48.143-48.081
	C 389.666,79.726, 368.084,58.238, 341.522,58.238 M 391.305,348.361L 291.394,348.361 c-12.54,0.00-22.717,10.209-22.717,22.749
	c0.00,12.603, 10.177,22.749, 22.717,22.749L 391.305,393.858 c 12.603,0.00, 22.749-10.145, 22.749-22.749C 414.053,358.569, 403.908,348.361, 391.305,348.361" horiz-adv-x="682.6666666666666"  />
<glyph unicode="&#x2a;" d="M 667.057,455.563c 8.598,0.00, 15.569-6.928, 15.569-15.61l0.00-203.347 L0.00,236.605 L0.00,439.953 
	c0.00,8.681, 6.928,15.61, 15.527,15.61L 667.057,455.563  M0.00,7.964c0.00-8.598, 6.928-15.527, 15.485-15.527l 291.707,0.00 L 307.192,168.238 L0.00,168.238 L0.00,7.964 z
	 M 375.559-7.563l 291.498,0.00 c 8.557,0.00, 15.61,6.928, 15.61,15.527L 682.667,168.238 L 375.559,168.238 L 375.559-7.563 z" horiz-adv-x="682.6666666666666"  />
<glyph unicode="&#x2b;" d="M 481.978,183.998c 12.655-17.284, 4.198-60.064-0.37-83.029c-0.834-4.321-1.574-7.901-1.945-10.309
	l-10.618-70.25c-1.883-12.778-5.308-19.445-14.445-28.52C 438.89-23.728, 419.198-32.00, 397.591-32.00
	c-28.921,0.00-58.15,15.372-76.392,40.187c-23.211,31.545-45.496,64.756-67.102,96.857c-13.55,20.186-27.10,40.372-40.959,60.249
	c-7.84,11.235-16.173,27.101-11.142,38.706c 2.963,6.852, 10.124,11.173, 21.236,12.778c 11.636,1.667, 23.951-5.123, 38.52-20.494
	c 1.142-1.296, 4.878-6.358, 11.883-16.173c 6.081-8.519, 14.97-20.927, 20.711-28.335c-0.062,1.852-0.155,4.013-0.247,6.543
	l 3.148,189.701c 0.246,14.815, 3.456,30.001, 25.68,30.001c 18.828-0.062, 19.877-27.779, 20.371-41.114l 0.062-1.666
	c 1.111-26.606, 2.561-50.002, 4.476-71.547c 0.339-3.518, 0.525-7.655, 0.803-12.037c 0.741-16.235, 1.759-36.422, 9.723-47.348
	l 110.437-12.593C 474.293,191.035, 478.676,188.505, 481.978,183.998 M 218.231,282.953c 0.247-0.37, 0.525-0.741, 0.803-1.049l 1.481-1.976
	l 0.309,0.124c 2.901-2.531, 6.605-4.012, 10.525-4.012c 8.889,0.00, 16.112,7.222, 16.112,16.112c0.00,3.457-1.049,6.729-3.117,9.507
	c-11.883,15.989-18.18,34.817-18.18,54.571c0.00,50.558, 41.144,91.671, 91.702,91.671c 50.558,0.00, 91.702-41.114, 91.702-91.671
	c0.00-17.408-5.062-34.446-14.538-49.261c-1.914-2.716-2.932-5.927-2.932-9.26c0.00-8.889, 7.191-16.112, 16.142-16.112
	c 6.482,0.00, 12.315,3.827, 14.383,8.951c 12.501,19.754, 19.075,42.471, 19.075,65.682C 441.699,424.503, 386.14,480.00, 317.866,480.00
	C 249.591,480.00, 194.032,424.503, 194.032,356.228c0.00-26.236, 8.179-51.299, 23.643-72.534L 218.231,282.953z" horiz-adv-x="682.6666666666666"  />
<glyph unicode="&#x2c;" d="M 666.666,459.166L 16.00,459.166 C 7.167,459.166,0.00,452.00,0.00,443.167l0.00-438.333 c0.00-8.833, 7.167-16.00, 16.00-16.00
	l 650.666,0.00 c 8.833,0.00, 16.00,7.167, 16.00,16.00L 682.667,443.167 C 682.667,452.00, 675.499,459.166, 666.666,459.166 M 380.00,48.084L 302.625,48.084 
	c-17.666,0.00-32.00,14.333-32.00,32.00s 14.334,32.00, 32.00,32.00l 77.375,0.00 c 17.667,0.00, 31.999-14.333, 31.999-32.00
	S 397.667,48.084, 380.00,48.084" horiz-adv-x="682.6666666666666"  />
<glyph unicode="&#x2d;" d="M 562.056,447.422c-142.753,43.437-298.878,43.437-441.446,0.00c-6.701-2.079-11.263-8.253-11.263-15.265
	l 0.186-172.756c 0.155-87.992, 31.895-161.059, 94.321-217.248c 50.356-45.113, 105.987-65.342, 127.115-71.795
	c 2.389-0.807, 4.312-1.365, 5.926-1.769c 1.365-0.403, 2.793-0.589, 4.189-0.589c 1.52,0.00, 3.041,0.248, 4.499,0.683c 1.613,0.435, 3.598,1.18, 5.895,1.986
	c 6.299,2.203, 15.359,5.708, 26.249,10.549c 19.67,8.749, 49.456,24.077, 79.676,47.408
	c 76.758,59.634, 115.76,137.323, 115.853,230.838l 0.061,172.725C 573.318,439.169, 568.758,445.343, 562.056,447.422 M 324.61,88.569
	c-2.017-2.544-3.289-4.375-6.05-3.91c-2.73,0.372-4.684,2.793-4.561,5.585l 32.237,120.135l-62.116-0.062
	c-2.296,0.062-4.002-0.124-5.429,1.18c-1.459,1.427-2.079,3.475-1.459,5.399l 108.283,147.19c 2.514,3.258, 3.32,4.344, 6.05,3.91
	c 2.731-0.372, 4.653-2.792, 4.622-5.523L 364.387,250.279l 54.048-0.124c 1.892,0.373, 3.816-0.124, 5.212-1.551
	c 1.272-1.365, 1.862-3.351, 1.335-5.212L 324.61,88.569z" horiz-adv-x="682.6666666666666"  />
<glyph unicode="&#x2e;" d="M 586.669,383.721c-1.565,3.664-4.822,6.388-8.767,7.17c-3.977,0.783-7.984-0.47-10.833-3.225
	l-52.227-51.977l-10.771,0.00 l-50.913,51.852c-3.162,3.194-3.194,8.892-0.563,11.617l 54.451,48.814c 2.568,2.317, 4.007,6.388, 4.007,9.80
	l0.00,5.761 c0.00,5.792-4.101,10.709-9.80,11.805c-58.459,11.209-95.938,1.879-114.506-24.486
	c-35.10-35.757-45.119-86.858-26.583-132.322L 96.458,64.313c-11.147-11.272-11.147-33.315, 0.689-45.276l 47.781-40.736
	c 5.699-6.92, 12.243-10.301, 20.008-10.301c 6.231,0.00, 12.931,2.223, 22.325,7.452c 1.127,0.626, 2.129,1.408, 3.006,2.317L 439.631,245.731
	c 47.155-20.696, 98.443-12.587, 123.899,19.601C 593.495,297.27, 602.763,344.832, 586.669,383.721" horiz-adv-x="682.6666666666666"  />
<glyph unicode="&#x67;" d="M 526.238,408.271C 523.826,464.813, 409.258,480.00, 341.086,480.00c-66.688,0.00-177.853-14.60-184.719-68.295l-0.124-378.069
	c 0.618-6.31, 3.34-12.187, 8.29-16.176c 2.536-2.01, 62.79-49.396, 171.79-49.396l 4.145,0.00 l 6.743-0.062
	c 56.108,0.00, 153.788,8.382, 177.358,64.337c 1.052,2.443, 1.423,5.073, 1.547,7.733l 0.309,11.877l0.00,4.949 L 526.425,392.156 l0.00,16.115 L 526.238,408.271 z
	 M 341.086,432.49c 76.461,0.00, 122.487-16.362, 135.353-25.951c-12.867-9.619-58.892-25.982-135.353-25.982
	c-76.40,0.00-122.487,16.362-135.416,25.982C 218.599,416.158, 264.686,432.49, 341.086,432.49 M 481.451,186.373
	c-46.891-29.385-93.226-39.345-134.55-39.345c-84.565,0.00-148.097,41.757-151.994,44.386
	c-10.331,6.928-13.053,20.941-6.124,31.364c 6.867,10.393, 20.909,13.177, 31.364,6.217c 4.887-3.186, 119.764-77.853, 237.24-4.238
	c 10.703,6.619, 24.683,3.402, 31.241-7.176C 495.246,206.973, 492.029,192.992, 481.451,186.373" horiz-adv-x="682.6666666666666"  />
<glyph unicode="&#x2f;" d="M 179.829,366.752c 34.202,0.00, 62.018-27.89, 62.018-62.092c0.00-34.275-27.816-62.092-62.018-62.092
	c-34.238,0.00-62.092,27.817-62.092,62.092C 117.737,338.862, 145.59,366.752, 179.829,366.752 M 301.517,480.00
	c 7.78,0.00, 14.092-6.312, 14.092-14.092l0.00-483.817 c0.00-7.78-6.312-14.092-14.092-14.092L 58.141-32.00 c-7.78,0.00-14.092,6.311-14.092,14.092
	L 44.048,465.908 C 44.049,473.687, 50.361,480.00, 58.141,480.00L 301.517,480.00  M 179.829,204.99c 54.936,0.00, 99.596,44.698, 99.596,99.669s-44.661,99.669-99.596,99.669
	c-54.972,0.00-99.67-44.698-99.67-99.669S 124.856,204.99, 179.829,204.99 M 502.839,366.018c-33.799,0.00-61.321-27.522-61.321-61.357
	s 27.522-61.357, 61.321-61.357c 33.835,0.00, 61.357,27.522, 61.357,61.357S 536.674,366.018, 502.839,366.018 M 624.527,480.00
	c 7.779,0.00, 14.091-6.312, 14.091-14.092l0.00-483.817 c0.00-7.78-6.312-14.092-14.091-14.092l-243.377,0.00 c-7.779,0.00-14.091,6.311-14.091,14.092
	L 367.058,465.908 C 367.059,473.687, 373.371,480.00, 381.149,480.00L 624.527,480.00  M 502.839,205.724c 54.568,0.00, 98.935,44.33, 98.935,98.935
	c0.00,54.532-44.367,98.935-98.935,98.935c-54.533,0.00-98.90-44.403-98.90-98.935C 403.939,250.055, 448.305,205.724, 502.839,205.724
	" horiz-adv-x="682.6666666666666"  />
<glyph unicode="&#x30;" d="M 379.242,192.083c-38.312,0.00-69.377,31.034-69.377,69.377c0.00,38.313, 31.065,69.377, 69.377,69.377
	c 38.313,0.00, 69.379-31.065, 69.379-69.377C 448.621,223.117, 417.556,192.083, 379.242,192.083 M 376.084,480.00
	C 255.51,480.00, 157.359,381.88, 157.359,261.306c0.00-8.951, 0.743-17.747, 1.796-26.419c 10.717,2.973, 21.681,4.584, 32.335,4.584
	c 5.173,0.00, 10.469-0.465, 15.796-1.115c-1.053,7.557-2.354,15.084-2.354,22.951c0.00,94.372, 76.811,171.121, 171.151,171.121
	c 94.341,0.00, 171.152-76.749, 171.152-171.121S 470.426,90.185, 376.084,90.185c-17.592,0.00-34.286,3.407-50.267,8.424
	c 0.093-1.115, 0.403-2.137, 0.403-3.222l0.00-46.83 c 16.043-3.779, 32.676-5.947, 49.865-5.947c 120.575,0.00, 218.725,98.119, 218.725,218.694
	C 594.81,381.88, 496.658,480.00, 376.084,480.00 M 294.534,85.446c0.00-0.062-0.031-0.124-0.031-0.216L 294.504-4.372 c0.00-0.031, 0.031-0.031, 0.031-0.062
	l0.00-18.366 c-0.217-3.841-2.819-9.199-9.106-9.199L 97.087-32.00 c-6.257,0.00-8.858,5.358-9.075,9.013l0.00,1.642 l-0.155,0.00 L 87.858,95.388 l 0.155,0.00 l0.00,5.451 
	c 0.216,3.841, 2.818,9.23, 9.075,9.23l 21.402,0.00 l0.00,21.309 c0.00,70.864, 55.688,76.377, 72.785,76.377l 0.093,0.00 l 0.093,0.00 
	c 17.066,0.00, 72.815-5.513, 72.815-76.377l0.00-21.309 l 21.154,0.00 c 6.287,0.00, 8.889-5.39, 9.075-9.044L 294.534,85.446 M 205.304,33.196
	c 7.124,4.739, 11.46,12.575, 11.46,21.247c0.00,14.03-11.398,25.521-25.459,25.521c-14.062,0.00-25.521-11.491-25.521-25.521
	c0.00-8.673, 4.306-16.508, 11.46-21.185l-11.211-29.671c-0.496-1.238-0.31-2.632, 0.465-3.747c 0.774-1.084, 2.013-1.703, 3.314-1.703
	l 42.927,0.00 c 1.332,0.00, 2.571,0.619, 3.283,1.703c 0.806,1.115, 0.991,2.509, 0.465,3.747L 205.304,33.196z M 221.038,131.44
	c0.00,15.362-5.203,33.574-29.671,33.636c-24.468-0.062-29.609-18.274-29.609-33.636l0.00-21.371 l 59.281,0.00 L 221.038,131.44 z" horiz-adv-x="682.6666666666666"  />
<glyph unicode="&#x34;" d="M 555.68,209.488c 0.126,0.944, 0.502,1.89, 0.502,2.771l0.00,32.428 c-0.471,7.557-5.888,18.828-18.923,18.828
	l-44.487,0.00 c0.00,0.00, 0.031,0.063, 0.031,0.128l0.00,57.489 c0.00,147.41-115.831,158.87-151.345,158.87c-35.513,0.00-151.313-11.461-151.313-158.87
	l0.00-57.491 c0.00-0.066, 0.031-0.128, 0.031-0.128l-44.487,0.00 c-13.003,0.00-18.418-11.271-18.891-19.205l0.00-14.42 l-0.315,0.00 l0.00-242.681 l 0.315,0.00 l0.00-0.379 
	c 0.472-7.524, 5.888-18.828, 18.891-18.828l 391.571,0.00 c 13.035,0.00, 18.45,11.304, 18.923,19.207l0.00,38.221 c0.00,1.008-0.41,1.70-0.502,2.645
	L 555.68,209.488L 555.68,209.488z M 387.931,59.369c 0.882-2.297, 0.567-4.848-0.819-6.863c-1.383-1.984-3.684-3.212-6.106-3.212
	l-79.06,0.00 c-2.424,0.00-4.691,1.228-6.075,3.212c-1.385,2.015-1.732,4.566-0.85,6.80l 20.591,54.563
	c-13.003,8.66-21.063,23.331-21.063,38.978c0.00,25.912, 21.063,46.976, 46.976,46.976c 25.881,0.00, 46.911-21.063, 46.911-46.976
	c0.00-15.994-7.997-30.383-21.157-39.01L 387.931,59.369z M 279.624,263.514c0.00,0.00, 0.063,0.063, 0.063,0.128l0.00,57.677 
	c0.00,31.927, 10.705,69.96, 61.771,69.96c 51.13,0.00, 61.835-38.033, 61.835-69.96l0.00-57.677 c0.00-0.066, 0.065-0.128, 0.065-0.128L 279.624,263.514 z" horiz-adv-x="682.6666666666666"  />
<glyph unicode="&#x35;" d="M 72.382-13.565l 5.655-6.534c 12.459-14.389, 34.432-15.946, 48.788-3.487l 157.163,136.24l-0.744,0.881
	c 35.38-28.542, 80.376-45.673, 129.367-45.673c 113.827,0.00, 206.087,92.26, 206.087,206.053C 618.697,387.74, 526.438,480.00, 412.611,480.00
	C 298.783,480.00, 206.524,387.74, 206.524,273.913c0.00-37.106, 9.886-71.911, 27.052-102.011L 75.87,35.223
	C 61.481,22.764, 59.924,0.791, 72.382-13.565z M 259.408,273.913c0.00,83.186, 67.409,150.596, 150.562,150.596
	c 83.186,0.00, 150.629-67.409, 150.629-150.596c-0.034-83.152-67.443-150.595-150.629-150.595
	C 326.817,123.319, 259.408,190.762, 259.408,273.913z" horiz-adv-x="682.6666666666666"  />
<glyph unicode="&#x36;" d="M 606.796,35.223L 449.092,171.903c 17.166,30.099, 27.052,64.904, 27.052,102.011C 476.144,387.74, 383.883,480.00, 270.056,480.00
	S 63.969,387.74, 63.969,273.913c0.00-113.792, 92.26-206.053, 206.087-206.053c 48.991,0.00, 93.987,17.132, 129.367,45.673l-0.744-0.881
	l 157.163-136.24c 14.356-12.459, 36.329-10.902, 48.788,3.487l 5.655,6.534C 622.744,0.791, 621.186,22.764, 606.796,35.223z
	 M 272.697,123.319c-83.186,0.00-150.596,67.443-150.629,150.595c0.00,83.186, 67.443,150.596, 150.629,150.596
	c 83.154,0.00, 150.563-67.409, 150.563-150.596C 423.259,190.762, 355.85,123.319, 272.697,123.319z" horiz-adv-x="682.6666666666666"  />
<glyph unicode="&#x37;" d="M 655.16,30.799c-2.555,4.956-7.627,7.976-13.164,7.976L 430.599,38.775 c-3.716,0.00-7.279-1.394-10.028-3.872
		l-16.339-14.945L 265.12,19.958 l-14.712,14.558c-2.788,2.71-6.543,4.258-10.454,4.258L 40.714,38.775 c-5.343,0.00-10.26-2.865-12.932-7.511
		s-2.594-10.299, 0.156-14.945l 24.314-41.041C 54.923-29.213, 59.724-32.00, 65.029-32.00l 548.626,0.00 c 4.878,0.00, 9.408,2.40, 12.235,6.427
		l 28.342,41.041C 657.367,20.036, 657.677,25.922, 655.16,30.799M 94.432,88.179c-21.914,0.00-39.647,17.733-39.647,39.647L 54.785,440.353 C 54.785,462.267, 72.518,480.00, 94.432,480.00l 493.803,0.00 
		c 21.915,0.00, 39.647-17.733, 39.647-39.647l0.00-312.528 c0.00-21.914-17.732-39.647-39.647-39.647L 94.432,88.179  M 169.118,164.22l 144.919,0.00 l0.00,37.052 
		l-51.416,0.00 L 262.621,401.325 l-37.75,0.00 L 165.439,344.218l 25.36-26.715l 19.049,18.042c 7.666,7.666, 10.338,13.358, 10.338,13.358l 0.697,0.00 
		c0.00,0.00-0.348-8.015-0.348-16.029l0.00-131.60 l-51.416,0.00 L 169.118,164.22 z M 347.219,191.941c0.00,0.00, 28.031-31.748, 78.48-31.748
		c 52.772,0.00, 83.474,37.401, 83.474,77.822c0.00,41.079-32.057,64.465-64.773,69.149l 58.076,67.097l0.00,27.064 L 357.556,401.325 l0.00-37.091 l 70.814,0.00 
		c 14.016,0.00, 21.023,1.007, 21.023,1.007l0.00-0.658 c0.00,0.00-7.666-7.008-17.035-18.042l-43.403-51.416l 9.679-22.03l 16.379,0.00 
		c 27.721,0.00, 50.759-11.693, 50.759-36.742c0.00-20.365-18.043-35.388-42.745-35.388c-31.399,0.00-53.777,24.044-53.777,24.044
		L 347.219,191.941z" horiz-adv-x="682.6666666666666"  />
<glyph unicode="&#x38;" d="M 564.416,447.098c-144.215,43.87-301.982,43.87-446.134,0.00c-5.043-1.576-8.541-6.303-8.541-11.598
	l 0.221-175.477c 0.126-88.244, 31.894-161.485, 94.42-217.676c 50.488-45.225, 106.396-65.583, 127.827-72.14l 5.704-1.765
	c 1.038-0.251, 2.111-0.441, 3.183-0.441c 1.197,0.00, 2.395,0.221, 3.56,0.567l 5.674,1.954c 6.334,2.205, 15.411,5.703, 26.348,10.59
	c 19.759,8.793, 49.637,24.204, 80.082,47.651c 76.961,59.816, 116.04,137.598, 116.102,231.261l 0.064,175.477
	C 572.925,440.858, 569.459,445.523, 564.416,447.098 M 439.488,51.074c-0.536-0.411-1.07-0.694-1.577-1.134L 138.074,349.779
	l-0.094,73.684C 174.128,433.798, 211.126,441.047, 248.504,445.743L 527.732,166.485C 510.903,122.426, 481.561,83.788, 439.488,51.074" horiz-adv-x="682.6666666666666"  />
<glyph unicode="&#x39;" d="M 592.518,156.757c 2.627-2.658, 4.096-6.221, 4.096-9.879l0.00-164.998 c0.00-7.69-6.19-13.88-13.943-13.88L 99.995-32.00 
	c-7.722,0.00-13.943,6.19-13.943,13.88L 86.052,464.557 c0.00,7.752, 6.221,13.942, 13.943,13.942l 163.81,0.00 c 3.688,0.00, 7.19-1.407, 9.817-4.033
	L 592.518,156.757z M 582.672,480.00L 405.981,480.00 c-5.627,0.00-10.691-3.376-12.879-8.66c-2.127-5.19-0.939-11.223, 3.062-15.224l 176.626-176.189
	c 2.688-2.626, 6.252-4.00, 9.88-4.00c 1.812,0.00, 3.627,0.313, 5.345,1.064c 5.22,2.157, 8.598,7.191, 8.598,12.911L 596.614,465.995 
	C 596.614,473.779, 590.393,480.00, 582.672,480.00" horiz-adv-x="682.6666666666666"  />
<glyph unicode="&#x3a;" d="M 633.983,413.654L 522.321,413.654 L 522.321,466.106 c0.00,7.635-6.261,13.896-13.933,13.896L 173.632,480.001 
	c-7.672,0.00-13.933-6.261-13.933-13.896l0.00-52.452 L 48.685,413.654 c-7.672,0.00-13.934-6.184-13.934-13.896l0.00-250.655 
	c0.00-7.711, 6.261-13.972, 13.934-13.972l 111.356,0.00 l0.00-153.159 c0.00-7.711, 6.261-13.972, 13.934-13.972L 508.73-32.001 
	c 7.673,0.00, 13.935,6.261, 13.935,13.972L 522.665,135.13 l 111.318,0.00 c 7.672,0.00, 13.933,6.261, 13.933,13.972L 647.915,399.758 
	C 647.916,407.469, 641.655,413.654, 633.983,413.654 M 106.979,240.645c-20.538,2.901-34.74,21.378-31.685,41.344
	c 2.977,19.889, 22.065,33.784, 42.603,30.807c 20.538-2.901, 34.625-21.378, 31.724-41.381C 146.566,251.563, 127.556,237.668, 106.979,240.645
	 M 187.566,452.134l 306.926,0.00 l0.00-95.895 L 187.566,356.239 L 187.566,452.134 z M 494.797-4.131L 187.871-4.131 l0.00,201.182 L 494.797,197.05 L 494.797-4.131 L 494.797-4.131z M 234.407,106.346
	c-10.803,0.00-19.545,8.778-19.545,19.545c0.00,10.766, 8.742,19.545, 19.545,19.545l 202.822,0.00 c 10.841,0.00, 19.545-8.78, 19.545-19.545
	c0.00-10.766-8.704-19.545-19.545-19.545L 234.407,106.346  M 234.407,27.63c-10.803,0.00-19.545,8.78-19.545,19.547
	c0.00,10.803, 8.742,19.546, 19.545,19.546l 202.822,0.00 c 10.841,0.00, 19.545-8.744, 19.545-19.546c0.00-10.766-8.704-19.547-19.545-19.547L 234.407,27.63 " horiz-adv-x="682.6666666666666"  />
<glyph unicode="&#x3b;" d="M 490.416,340.455c-0.659,11.325-9.287,23.341-24.032,23.341l-39.154,0.00 L 427.231,455.906 
	C 427.231,469.208, 416.439,480.00, 403.137,480.00c-13.302,0.00-24.095-10.792-24.095-24.094l0.00-92.109 L 303.624,363.796 L 303.624,455.906 
	C 303.624,469.208, 292.831,480.00, 279.529,480.00c-13.302,0.00-24.095-10.792-24.095-24.094l0.00-92.109 L 216.282,363.796 c-14.682,0.00-23.372-12.141-24.094-24.282
	l0.00-24.345 c0.00-11.42, 6.745-20.266, 16.784-23.153c 6.274-57.349, 18.887-102.713, 37.522-134.965l 1.537-2.478
	c 0.283-0.47, 0.565-1.036, 0.91-1.60c 7.937-12.926, 16.848-23.467, 27.043-31.655c 13.71-9.819, 28.361-14.588, 41.255-17.035l0.00-112.188 
	C 317.239-21.208, 328.031-32.00, 341.333-32.00c 13.301,0.00, 24.094,10.792, 24.094,24.094l0.00,112.094 c 15.027,2.981, 33.255,9.349, 48.878,23.248
	c 6.182,5.992, 12.111,13.49, 18.353,23.592l 3.703,6.212c 18.164,32.533, 30.588,78.807, 37.019,138.854
	c 10.854,3.075, 16.848,13.176, 17.099,23.027L 490.416,340.455z M 330.322,151.467c-1.161-1.506-1.977-2.573-3.576-2.29
	c-1.60,0.251-2.761,1.60-2.698,3.232l 19.044,70.901l-36.675-0.063c-1.349,0.063-2.352-0.063-3.20,0.754
	c-0.847,0.815-1.223,2.008-0.847,3.138l 63.874,86.839c 1.444,1.945, 1.946,2.573, 3.545,2.322c 1.632-0.251, 2.729-1.694, 2.729-3.295
	l-18.76-66.164l 31.873-0.063c 1.13,0.22, 2.26-0.126, 3.107-0.909c 0.754-0.784, 1.097-1.977, 0.784-3.106L 330.322,151.467z" horiz-adv-x="682.6666666666666"  />
<glyph unicode="&#x3c;" d="M 542.083,188.833c-20.916,0.00-37.874,16.916-37.874,37.917c0.00,10.00, 4.082,19.083, 10.458,25.833
		c-5.166,1.167-10.458,2.083-16.00,2.083c-38.291,0.00-69.334-31.084-69.334-69.334c0.00-38.333, 31.042-69.334, 69.334-69.334
		s 69.334,31.00, 69.334,69.334c0.00,4.417-0.50,8.833-1.333,13.083C 560.00,192.667, 551.583,188.833, 542.083,188.833zM 666.667,366.666l-61.334,0.00 L 605.334,428.001 c0.00,8.833-7.166,16.00-16.00,16.00L 418.666,444.00 
		c-8.833,0.00-16.00-7.167-16.00-16.00l0.00-61.334 L 16.00,366.667 C 7.167,366.666,0.00,359.50,0.00,350.667l0.00-330.667 
		c0.00-8.833, 7.167-16.00, 16.00-16.00l 650.667,0.00 c 8.833,0.00, 16.00,7.167, 16.00,16.00L 682.667,350.667 
		C 682.667,359.50, 675.50,366.666, 666.667,366.666z M 498.00,65.834c-64.416,0.00-116.833,52.417-116.833,116.834
		s 52.416,116.834, 116.833,116.834c 64.417,0.00, 116.834-52.417, 116.834-116.834S 562.418,65.834, 498.00,65.834z" horiz-adv-x="682.6666666666666"  />
<glyph unicode="&#x68;" d="M 483.527,298.139c 40.892,0.00, 74.097-33.289, 74.097-74.139c0.00-40.935-33.204-74.224-74.097-74.224
	c-40.892,0.00-74.181,33.289-74.181,74.224C 409.346,264.85, 442.636,298.139, 483.527,298.139 M 483.527,423.055
	c 109.834,0.00, 199.139-89.346, 199.139-199.097S 593.362,24.903, 483.527,24.903c-37.175,0.00-71.646,10.899-101.47,28.726l0.00-43.259 
	c0.00-11.616-9.463-21.037-21.038-21.037L 21.038-10.667 C 9.379-10.667,0.00-1.245,0.00,10.37L0.00,437.544 C0.00,449.204, 9.379,458.667, 21.038,458.667
	l 339.981,0.00 c 11.575,0.00, 21.038-9.463, 21.038-21.122l0.00-43.173 C 411.881,412.155, 446.353,423.055, 483.527,423.055 M 316.409,203.005
	c 11.913,0.00, 21.63,9.716, 21.63,21.63c0.00,11.997-9.716,21.629-21.63,21.629L 117.946,246.263 l 61.761,61.846
	c 8.449,8.406, 8.449,22.135,0.00,30.584c-8.449,8.407-22.136,8.407-30.584,0.00L 50.44,239.926
	c-2.873-2.788-4.394-6.252-5.322-9.843c-0.254-0.887-0.338-1.69-0.507-2.577c-0.507-3.802-0.339-7.52, 1.098-11.068l0.00-0.084 
	c 0.085-0.085, 0.169-0.085, 0.169-0.169c 1.099-2.492, 2.535-4.816, 4.563-6.843l 100.119-100.119c 4.225-4.224, 9.716-6.337, 15.292-6.337
	c 5.491,0.00, 11.068,2.112, 15.292,6.337c 8.449,8.491, 8.449,22.136,0.00,30.585l-63.197,63.197L 316.409,203.005  M 483.527,60.473
	c 90.15,0.00, 163.485,73.336, 163.485,163.485s-73.336,163.484-163.485,163.484c-38.528,0.00-73.505-14.025-101.47-36.414L 382.057,96.887 
	C 410.023,74.498, 445.00,60.473, 483.527,60.473" horiz-adv-x="682.6666666666666"  />
<glyph unicode="&#x3d;" d="M 340.363,163.652c 7.383,0.00, 13.327-5.975, 13.327-13.264l0.00-169.092 c0.00-7.352-5.944-13.296-13.327-13.296L 101.476-32.00 
	c-7.352,0.00-13.327,5.944-13.327,13.296L 88.149,150.388 c0.00,0.375, 0.126,0.657, 0.126,1.001l0.00,38.199 c0.00,7.352, 5.944,13.296, 13.265,13.296l 88.097,0.00 
	c 3.691,0.00, 7.195-1.564, 9.698-4.192l 32.911-35.039L 340.363,163.652  M 373.619,480.00C 251.829,480.00, 152.72,380.86, 152.72,259.069
	c0.00-2.721, 0.313-5.412, 0.407-8.133l 36.508,0.00 c 4.067,0.00, 8.134-0.438, 12.076-1.252c-0.156,3.191-0.939,6.195-0.939,9.385
	c0.00,95.292, 77.523,172.878, 172.846,172.878s 172.846-77.585, 172.846-172.878c0.00-85.657-62.819-156.484-144.721-169.999l0.00-48.897 
	c 108.557,13.859, 192.775,106.649, 192.775,218.896C 594.518,380.86, 495.408,480.00, 373.619,480.00 M 446.855,259.257
	c0.00,38.668-31.347,70.046-70.076,70.046c-38.668,0.00-70.077-31.378-70.077-70.046c0.00-38.73, 31.409-70.108, 70.077-70.108
	C 415.508,189.149, 446.855,220.527, 446.855,259.257" horiz-adv-x="682.6666666666666"  />
<glyph unicode="&#x3e;" d="M 94.64,88.476c-21.897,0.00-39.617,17.796-39.617,39.617L 55.024,440.383 C 55.024,462.242, 72.743,480.00, 94.64,480.00L 588.07,480.00 
	c 21.898,0.00, 39.617-17.758, 39.617-39.617L 627.687,128.092 c0.00-21.82-17.719-39.617-39.617-39.617L 94.64,88.476  M 654.922,30.753
	c-2.553,4.913-7.621,7.97-13.154,7.97l-211.238,0.00 c-3.714,0.00-7.312-1.393-10.059-3.946l-16.249-14.933L 265.216,19.843 l-14.701,14.547
	c-2.785,2.785-6.538,4.334-10.445,4.334L 40.941,38.724 c-5.338,0.00-10.253-2.902-12.922-7.545c-2.669-4.604-2.592-10.329, 0.155-14.894
	l 24.297-41.01C 55.14-29.291, 59.937-32.00, 65.237-32.00l 548.251,0.00 c 4.875,0.00, 9.44,2.399, 12.225,6.423L 653.995,15.432
	C 657.128,19.997, 657.437,25.84, 654.922,30.753" horiz-adv-x="682.6666666666666"  />
<glyph unicode="&#x3f;" d="M 549.674,477.014c-4.204,3.012-9.695,3.828-14.526,2.071L 297.237,397.324
	c-6.526-2.196-10.855-8.283-10.855-15.122l0.00-263.731 c-17.036,13.742-39.343,22.401-64.035,22.401
	c-52.959,0.00-96.10-38.779-96.10-86.404c0.00-47.688, 43.14-86.467, 96.10-86.467c 53.022,0.00, 96.161,38.779, 96.161,86.467L 318.508,286.259 
	l 205.783,71.533l0.00-157.561 c-17.037,13.742-39.312,22.401-63.972,22.401c-53.022,0.00-96.162-38.779-96.162-86.404
	c0.00-47.689, 43.14-86.467, 96.162-86.467c 52.991,0.00, 96.099,38.778, 96.099,86.467L 556.418,463.90 C 556.418,469.107, 553.909,474.002, 549.674,477.014
	" horiz-adv-x="682.6666666666666"  />
<glyph unicode="&#x40;" d="M 385.048,365.083l-12.926,0.00 c-1.322,20.191-7.108,48.81-27.927,72.90C 320.137,465.848, 283.372,480.00, 235.065,480.00
	c-13.335,0.00-24.153-10.819-24.153-24.153c0.00-13.335, 10.819-24.153, 24.153-24.153c 33.525,0.00, 57.805-8.428, 72.335-25.033
	c 11.353-13.021, 15.159-29.248, 16.353-41.576l-13.271,0.00 c-68.497,0.00-86.644-56.672-86.644-86.675l0.00-38.683 l0.00-185.049 
	c0.00-30.003, 18.147-86.675, 86.644-86.675l 74.566,0.00 c 29.972,0.00, 86.707,18.115, 86.707,86.675L 471.755,239.725 l0.00,38.683 
	C 471.755,346.968, 415.02,365.083, 385.048,365.083 M 371.935,211.106c0.00-13.335-10.819-24.153-24.153-24.153
	c-13.335,0.00-24.153,10.819-24.153,24.153L 323.628,273.125 c0.00,13.335, 10.819,24.153, 24.153,24.153c 13.335,0.00, 24.153-10.819, 24.153-24.153L 371.935,211.106 
	z" horiz-adv-x="682.6666666666666"  />
<glyph unicode="&#x44;" d="M 667.417,436.417L 15.292,436.417 c-8.458,0.00-15.292-6.833-15.292-15.25l 0.167-394.334c0.00-8.417, 6.833-15.25, 15.292-15.25
	l 651.958,0.00 c 8.416,0.00, 15.249,6.833, 15.249,15.25L 682.667,421.166 C 682.667,429.583, 675.833,436.417, 667.417,436.417 M 639.917,365.50L 350.251,160.583
	c-2.583-1.917-5.667-2.833-8.834-2.833c-3.041,0.00-6.125,0.917-8.833,2.833L 46.251,362.917c-6.833,4.833-8.459,14.417-3.584,21.333
	c 4.833,6.917, 14.417,8.583, 21.25,3.75l 277.50-196.166l 280.917,198.666c 6.915,4.833, 16.458,3.25, 21.249-3.667
	C 648.50,379.917, 646.834,370.416, 639.917,365.50" horiz-adv-x="682.6666666666666"  />
<glyph unicode="&#x45;" d="M 656.181,436.314L 26.438,436.314 C 11.803,436.314,0.00,424.511,0.00,409.925l0.00-371.849 c0.00-14.586, 11.803-26.389, 26.438-26.389
	l 629.744,0.00 c 14.634,0.00, 26.485,11.803, 26.485,26.389L 682.667,409.925 C 682.667,424.511, 670.816,436.314, 656.181,436.314 M 491.465,321.832l 69.236,0.00 l0.00-5.758 
	l 0.191,0.00 l0.00-57.385 l-0.191,0.00 l0.00-6.046 l-69.236,0.00 L 491.465,321.832 z M 366.86,321.832l 69.235,0.00 l0.00-69.188 L 366.86,252.644 L 366.86,321.832 z M 242.973,321.832l 69.236,0.00 l0.00-69.188 
	l-69.236,0.00 L 242.973,321.832 z M 119.136,258.69l0.00,57.385 l0.00,5.758 l 69.236,0.00 l0.00-69.188 l-69.236,0.00 L 119.136,258.69 z M 563.58,131.925l-444.443,0.00 l0.00,57.96 l 444.443,0.00 L 563.58,131.925 
	z" horiz-adv-x="682.6666666666666"  />
<glyph unicode="&#x46;" d="M 585.084,480.00L 97.583,480.00 c-6.625,0.00-12.00-5.375-12.00-12.00l0.00-488.00 c0.00-6.625, 5.375-12.00, 12.00-12.00
	l 487.50,0.00 c 6.625,0.00, 12.00,5.375, 12.00,12.00L 597.083,468.00 C 597.083,474.625, 591.708,480.00, 585.084,480.00 M 335.208,54.75
	c-13.937,0.00-25.218,11.312-25.218,25.218c0.00,13.969, 11.281,25.218, 25.218,25.218s 25.25-11.25, 25.25-25.218
	C 360.458,66.062, 349.145,54.75, 335.208,54.75 M 360.021,194.718l0.00-15.687 l-0.657,0.00 c-1.531-12.188-11.532-21.75-24.156-21.75
	s-22.625,9.563-24.188,21.75l-0.438,0.00 l0.00,2.156 c0.00,0.313-0.219,0.594-0.219,0.937c0.00,0.313, 0.219,0.594, 0.219,0.907l0.00,15.281 
	c0.00,58.343, 66.312,67.594, 66.312,108.969c0.00,18.937-16.875,33.375-39.00,33.375c-16.374,0.00-31.188-8.531-38.375-13.438
	c-0.75-0.812-1.812-1.25-2.718-1.937c-1.125-0.844-1.907-1.469-1.907-1.469l-0.125,0.094c-3.438-2.062-7.219-3.562-11.50-3.562
	c-12.625,0.00-22.875,10.25-22.875,22.875c0.00,6.687, 2.969,12.50, 7.50,16.719c 5.625,5.219, 32.126,27.781, 74.407,27.781
	c 45.438,0.00, 87.687-28.125, 87.687-75.594C 429.989,245.781, 360.021,238.156, 360.021,194.718" horiz-adv-x="682.6666666666666"  />
<glyph unicode="&#x47;" d="M 527.745,480.00L 154.922,480.00 c-8.96,0.00-16.21-7.282-16.21-16.21l0.00-479.581 c0.00-8.991, 7.25-16.21, 16.21-16.21
	l 372.823,0.00 c 8.96,0.00, 16.209,7.219, 16.209,16.21L 543.954,463.791 C 543.955,472.719, 536.705,480.00, 527.745,480.00 M 341.333,114.458
	c-14.753,0.00-28.715,2.849-42.14,6.965l-21.813-54.264c 8.738-11.461, 11.05-27.101, 4.622-40.968
	c-9.213-19.945-32.799-28.684-52.808-19.439c-19.914,9.244-28.621,32.863-19.376,52.808c 6.459,13.993, 19.946,22.352, 34.383,23.048
	l 25.012,51.859c-43.121,25.074-72.501,71.171-72.501,124.613c0.00,79.719, 64.87,144.622, 144.622,144.622
	c 79.75,0.00, 144.621-64.902, 144.621-144.622C 485.955,179.297, 421.084,114.458, 341.333,114.458 M 341.333,371.091
	c-61.958,0.00-112.202-50.212-112.202-112.202c0.00-40.524, 21.75-75.793, 54.011-95.485l 11.556,23.998
	c 3.768,7.028, 12.411,9.751, 19.439,6.078c 6.585-3.419, 9.372-11.272, 6.744-18.109l-9.657-24.061
	c 9.625-2.723, 19.597-4.622, 30.108-4.622c 61.926,0.00, 112.201,50.276, 112.201,112.202C 453.534,320.879, 403.26,371.091, 341.333,371.091
	 M 341.333,216.022c-23.65,0.00-42.867,19.249-42.867,42.867c0.00,23.681, 19.217,42.867, 42.867,42.867c 23.618,0.00, 42.866-19.186, 42.866-42.867
	C 384.20,235.272, 364.952,216.022, 341.333,216.022" horiz-adv-x="682.6666666666666"  />
<glyph unicode="&#x48;" d="M 125.189,416.071c 1.647-1.025, 2.745-2.819, 2.745-4.868 M 615.94,404.504c 12.592,0.00, 22.841-10.286, 22.841-22.914
	l0.00-12.885 l0.00-251.873 c0.00-12.556-10.25-22.804-22.841-22.804l-13.763,0.00 l0.00-41.51 c0.00-3.148-2.489-5.564-5.564-5.564L 341.702,46.954 
	c-3.001,0.00-5.491,2.416-5.491,5.564l0.00,41.51 l-143.634,0.072l 0.073-93.23c0.00-18.192-14.715-32.834-32.797-32.87l-0.073,0.00 
	c-18.082,0.00-32.797,14.641-32.797,32.797l-0.367,395.069L 66.292,415.998c-17.204,5.784-26.428,24.378-20.718,41.583
	c 5.71,17.131, 24.232,26.575, 41.583,20.645l 82.652-27.60c 13.397-4.466, 22.401-17.021, 22.475-31.114l0.00-15.74 L 615.94,404.504
	 M 455.761,112.696c 65.448,0.00, 118.598,53.076, 118.598,118.524c0.00,65.522-53.149,118.598-118.598,118.598
	c-65.522,0.00-118.598-53.076-118.598-118.598C 337.164,165.772, 390.24,112.696, 455.761,112.696 M 494.341,231.257
	c-21.303,0.00-38.581,17.278-38.581,38.617c0.00,9.993, 4.026,18.924, 10.25,25.732c-3.368,0.55-6.735,1.062-10.25,1.062
	c-36.165,0.00-65.448-29.284-65.448-65.411s 29.284-65.485, 65.448-65.485s 65.448,29.357, 65.448,65.485c0.00,3.551-0.512,6.918-1.025,10.286
	C 513.303,235.319, 504.371,231.257, 494.341,231.257" horiz-adv-x="682.6666666666666"  />
<glyph unicode="&#x49;" d="M 211.386,345.989c 4.884,0.00, 31.665-4.927, 102.745-96.935c-12.717-4.759-29.14-9.348-45.309-9.348
	c-24.17,0.00-57.184,8.59-63.50,82.07C 205.07,331.166, 208.101,343.884, 211.386,345.989 M 368.536,249.055
	c 12.633-4.759, 29.056-9.348, 45.309-9.348c 24.254,0.00, 57.184,8.59, 63.584,83.375c 0.084,9.18-3.20,21.054-5.896,22.992
	C 466.48,345.989, 439.615,341.062, 368.536,249.055 M 666.412,421.827c 8.927,0.00, 16.254-7.285, 16.254-16.254l0.00-363.146 
	c0.00-8.97-7.326-16.254-16.254-16.254L 16.254,26.173 c-9.011,0.00-16.254,7.285-16.254,16.254L0.00,405.573 c0.00,8.969, 7.242,16.254, 16.254,16.254L 666.412,421.827 
	 M 413.845,196.545c 35.877,0.00, 97.355,15.959, 106.62,124.094c 0.169,6.022,0.00,36.972-17.854,55.415
	c-8.337,8.506-19.201,13.054-31.329,13.054c-22.402,0.00-57.352-12.969-129.948-104.935
	C 268.738,376.139, 233.787,389.108, 211.386,389.108c-12.128,0.00-22.992-4.548-31.329-13.054c-17.938-18.444-18.023-49.351-17.77-56.678
	c 9.179-106.872, 70.658-122.832, 106.535-122.832c 8.337,0.00, 16.422,1.01, 24.254,2.40l-50.615-109.44
	c-4.968-10.823-0.337-23.623, 10.527-28.634c 2.948-1.389, 5.979-1.978, 9.011-1.978c 8.169,0.00, 15.916,4.59, 19.623,12.506l 60.299,130.285
	l 60.30-130.285c 3.706-7.917, 11.453-12.506, 19.623-12.506c 3.032,0.00, 6.063,0.589, 9.095,1.978
	c 10.78,5.011, 15.412,17.812, 10.443,28.634l-50.532,109.145C 398.349,197.472, 406.012,196.545, 413.845,196.545" horiz-adv-x="682.6666666666666"  />
<glyph unicode="&#x4a;" d="M 666.667,459.166L 16.00,459.166 C 7.167,459.166,0.00,452.00,0.00,443.167l0.00-438.333 c0.00-8.833, 7.167-16.00, 16.00-16.00
	l 650.667,0.00 c 8.833,0.00, 16.00,7.167, 16.00,16.00L 682.667,443.167 C 682.667,452.00, 675.50,459.166, 666.667,459.166 M 562.459,55.50L 485.084,55.50 
	c-17.667,0.00-32.001,14.292-32.001,32.00c0.00,17.667, 14.333,31.958, 32.001,31.958l 77.375,0.00 c 17.667,0.00, 32.00-14.292, 32.00-31.958
	C 594.459,69.791, 580.125,55.50, 562.459,55.50 M 193.292,182.167c-58.125,0.00-105.084,46.958-105.084,105.208
	c0.00,58.041, 46.959,105.125, 105.084,105.125c 58.042,0.00, 105.25-47.084, 105.25-105.125C 298.542,229.125, 251.334,182.167, 193.292,182.167
	 M 594.459,329.167c0.00-7.708-6.25-13.917-13.917-13.917L 378.209,315.25 c-7.709,0.00-13.917,6.209-13.917,13.917l0.00,18.291 
	c0.00,7.709, 6.208,13.958, 13.917,13.958l 202.334,0.00 c 7.666,0.00, 13.917-6.25, 13.917-13.958L 594.459,329.167 z M 594.459,227.125
	c0.00-7.666-6.25-13.875-13.917-13.875L 378.209,213.25 c-7.709,0.00-13.917,6.208-13.917,13.875l0.00,18.334 c0.00,7.666, 6.208,13.916, 13.917,13.916
	l 202.334,0.00 c 7.666,0.00, 13.917-6.25, 13.917-13.916L 594.459,227.125 z" horiz-adv-x="682.6666666666666"  />
<glyph unicode="&#x4b;" d="M 409.214,473.197c-3.777,5.618-10.643,8.053-17.198,6.18c-6.461-1.935-10.924-7.834-11.05-14.576
	c-1.591-83.367-47.567-123.256-96.226-165.392c-58.117-50.407-118.231-102.531-82.181-227.099
	c 4.932-14.045, 12.422-25.032, 20.912-33.772l-29.464-31.556c-8.739-9.333-8.24-24.002, 1.124-32.741
	c 4.463-4.183, 10.144-6.243, 15.793-6.243c 6.212,0.00, 12.391,2.466, 16.979,7.366l 35.426,37.891c 13.296-4.994, 23.627-6.367, 24.626-6.492
	c 9.02-1.062, 17.76-1.561, 26.249-1.561c 67.043,0.00, 121.227,32.585, 152.595,91.888C 519.486,196.535, 496.857,344.167, 409.214,473.197
	 M 336.802,92.536c-1.342-1.748-2.279-2.997-4.151-2.684c-1.873,0.249-3.246,1.935-3.121,3.807l 22.129,82.463l-42.667-0.063
	c-1.561,0.063-2.746-0.063-3.714,0.905c-0.999,0.905-1.405,2.341-0.999,3.652l 74.315,101.002c 1.748,2.279, 2.279,2.997, 4.183,2.685
	c 1.873-0.25, 3.183-1.935, 3.153-3.745l-21.849-77.00l 37.111-0.156c 1.311,0.312, 2.621-0.063, 3.589-0.999
	c 0.874-0.936, 1.279-2.341, 0.905-3.62L 336.802,92.536z" horiz-adv-x="682.6666666666666"  />
<glyph unicode="&#x4c;" d="M 581.541,264.669l-21.224,0.00 c-4.566,0.00-9.699,3.779-11.084,8.565l-29.16,67.862
	c-2.142,3.968-1.323,10.203, 1.763,13.289l 14.359,14.328c 3.024,3.055, 4.692,7.054, 4.692,11.274
	c-0.031,4.22-1.731,8.156-4.692,11.084l-34.514,34.545c-5.92,6.015-16.312,6.015-22.389,0.00l-15.525-15.587
	c-3.148-3.086-9.132-4.44-14.045-1.858l-59.139,23.586c-4.345,1.196-8.156,6.235-8.156,10.77L 382.428,464.286 
	C 382.428,472.946, 375.342,480.00, 366.683,480.00L 317.747,480.00 c-8.66,0.00-15.745-7.054-15.745-15.714l0.00-21.76 c0.00-4.471-3.842-9.636-8.597-11.148
	l-68.649-29.412c-3.622-2.173-9.951-1.322-12.974,1.638L 196.478,419.034c-5.951,5.857-16.249,5.857-22.295-0.031l-34.608-34.671
	c-2.96-2.991-4.629-6.928-4.629-11.148c0.00-4.188, 1.669-8.156, 4.598-11.084l 16.626-16.69c 3.275-3.307, 4.282-9.542, 2.015-13.982
	l-23.366-58.635c-1.197-4.409-6.109-8.124-10.769-8.124l-23.114,0.00 c-8.597,0.00-15.587-7.053-15.587-15.744l0.00-48.967 
	c0.00-8.755, 6.991-15.809, 15.587-15.809l 23.114,0.00 c 4.661,0.00, 9.731-3.715, 11.179-8.533l 28.625-67.421
	c 2.299-3.873, 1.512-10.014-1.606-13.195l-15.934-15.839c-2.96-2.96-4.628-6.928-4.628-11.084c0.00-4.22, 1.668-8.187, 4.628-11.211
	l 34.671-34.576c 5.921-5.921, 16.344-5.921, 22.232,0.00l 17.005,16.941c 3.086,3.086, 8.817,4.346, 13.919,1.763l 59.737-23.869
	c 4.314-1.26, 8.124-6.235, 8.124-10.738l0.00-22.705 c0.00-8.628, 7.085-15.682, 15.745-15.682l 48.936,0.00 c 8.66,0.00, 15.745,7.054, 15.745,15.682
	L 382.427,6.386 c0.00,4.566, 3.747,9.51, 8.66,11.022l 66.759,28.436c 3.873,2.142, 10.202,1.197, 13.257-1.795l 14.989-15.052
	c 6.015-5.889, 16.407-5.889, 22.263,0.031l 34.703,34.639c 2.96,2.96, 4.597,6.928, 4.597,11.147c0.00,4.189-1.637,8.124-4.597,11.053
	l-15.998,15.934c-3.212,3.243-4.093,9.573-1.763,13.95l 24.185,60.335c 1.165,4.282, 6.267,8.062, 10.833,8.124l 21.224,0.00 
	c 8.691,0.00, 15.776,7.054, 15.776,15.745l0.00,48.967 C 597.318,257.616, 590.232,264.669, 581.541,264.669 M 419.492,223.984
	c0.00-43.141-35.08-78.253-78.159-78.253c-43.141,0.00-78.222,35.112-78.222,78.253c0.00,43.11, 35.081,78.222, 78.222,78.222
	C 384.412,302.206, 419.492,267.095, 419.492,223.984" horiz-adv-x="682.6666666666666"  />
<glyph unicode="&#x4d;" d="M 423.04,350.613c 47.074,0.00, 78.401-27.705, 78.401-79.244c0.00-51.875-31.031-79.917-78.401-79.917l-38.148,0.00 
	L 384.892,350.613 L 423.04,350.613  M 650.329,473.057c 17.853,0.00, 32.338-14.485, 32.338-32.338l0.00-324.975 c0.00-17.852-14.485-32.337-32.338-32.337L 411.755,83.408 l0.00-43.79 
	l 92.634,0.00 c 17.853,0.00, 32.337-14.485, 32.337-32.337c0.00-17.853-14.484-32.337-32.337-32.337L 178.951-25.057 
	c-17.853,0.00-32.337,14.484-32.337,32.337c0.00,17.852, 14.484,32.337, 32.337,32.337l 91.96,0.00 l0.00,43.79 L 32.338,83.408 
	C 14.485,83.408,0.00,97.892,0.00,115.745L0.00,440.719 c0.00,17.853, 14.485,32.338, 32.338,32.338L 650.329,473.057  M 215.794,162.314
	c 43.201,0.00, 71.539,31.58, 71.539,67.623c0.00,40.843-33.98,58.696-61.686,61.728l 57.18,65.853l0.00,18.779 L 157.099,376.298 l0.00-25.685 l 71.243,0.00 
	c 11.621,0.00, 17.853,0.926, 17.853,0.926l0.00-0.59 c0.00,0.00-6.231-5.642-13.137-13.726l-45.895-53.896l 6.905-15.831l 14.569,0.00 
	c 25.937,0.00, 48.885-12.801, 48.885-38.739c0.00-22.653-19.37-38.485-42.907-38.485c-30.401,0.00-50.948,22.99-50.948,22.99l-16.127-22.40
	C 147.54,190.863, 172.888,162.314, 215.794,162.314 M 425.146,165.85c 64.337,0.00, 106.654,38.739, 106.654,105.518
	c0.00,66.443-42.316,104.929-106.654,104.929L 355.376,376.297 L 355.376,165.85 L 425.146,165.85 " horiz-adv-x="682.6666666666666"  />
<glyph unicode="&#x4e;" d="M 650.329,473.058c 17.853,0.00, 32.337-14.485, 32.337-32.338l0.00-324.976 c0.00-17.852-14.484-32.337-32.337-32.337L 411.714,83.407 
	l0.00-43.79 l 92.718,0.00 c 17.81,0.00, 32.337-14.485, 32.337-32.338s-14.527-32.337-32.337-32.337L 178.909-25.059 c-17.853,0.00-32.337,14.484-32.337,32.337
	s 14.484,32.338, 32.337,32.338l 92.002,0.00 l0.00,43.79 L 32.337,83.407 C 14.484,83.408,0.00,97.892,0.00,115.745L0.00,440.72 c0.00,17.853, 14.484,32.338, 32.337,32.338
	L 650.329,473.058 " horiz-adv-x="682.6666666666666"  />
<glyph unicode="&#x4f;" d="M 594.962,479.999c 31.569,0.00, 59.282-27.789, 59.282-59.436l0.00-393.128 c0.00-31.263-27.055-58.743-58.126-59.436l-35.004,0.00 
	c 10.382,5.712, 19.259,14.088, 25.394,24.623c 5.712,9.802, 8.529,20.803, 8.838,31.879l 17.214,0.00 L 612.561,154.183 L 531.012,154.183 
	c-10.962,0.00-19.759,8.836-19.759,19.759c0.00,10.883, 8.80,19.76, 19.759,19.76l 81.551,0.00 l0.00,53.261 L 531.012,246.964 
	c-10.962,0.00-19.759,8.801-19.759,19.76c0.00,10.884, 8.80,19.76, 19.759,19.76l 81.551,0.00 l0.00,53.261 L 531.012,339.745 
	c-10.962,0.00-19.759,8.801-19.759,19.76c0.00,10.923, 8.80,19.76, 19.759,19.76l 81.551,0.00 L 612.562,430.019 L 474.663,430.019 l0.00-194.017 l-49.904,78.464L 424.759,420.564 
	c0.00,30.606, 28.792,59.436, 59.282,59.436L 594.962,479.999  M 566.75,44.957c 6.793-11.887, 6.675-26.128-0.04-37.67
	c-6.676-11.423-19.067-18.526-32.343-18.526L 65.905-11.239 c-13.547,0.00-26.013,7.295-32.612,18.95c-6.638,11.656-6.484,26.167, 0.425,37.707
	l 172.943,255.499c 3.975,6.756, 10.421,12.042, 18.178,14.936L 224.838,366.336 c 0.307,43.728, 35.892,79.313, 79.234,79.313
	c 43.38,0.00, 78.927-35.585, 79.196-79.235l 0.347-49.673c 8.878-2.817, 16.441-8.877, 21.035-17.136L 566.75,44.957 M 337.805,319.676
	l-0.038,46.391c-0.117,17.985-14.861,32.574-32.844,32.574c-17.986,0.00-32.728-14.589-32.844-32.574l-0.039,0.00 l0.00-46.391 L 337.805,319.676 z" horiz-adv-x="682.6666666666666"  />
<glyph unicode="&#x50;" d="M 161.208,404.125L 161.208,404.125 M 341.365,480.00C 482.708,480.00, 597.333,365.375, 597.333,224.00l0.00,0.00
			c0.00-141.344-114.625-256.00-255.969-256.00l0.00,0.00C 199.989-32.00, 85.333,82.656, 85.333,224.00l0.00,0.00C 85.333,365.375, 199.989,480.00, 341.365,480.00L 341.365,480.00
			 M 521.489,404.125L 521.489,404.125 M 341.365,452.312c-63.063,0.00-120.125-25.531-161.469-66.875l0.00,0.00
			c-41.312-41.312-66.875-98.406-66.875-161.437l0.00,0.00c0.00-63.031, 25.562-120.094, 66.875-161.437l0.00,0.00
			c 41.344-41.313, 98.406-66.875, 161.469-66.875l0.00,0.00c 63.031,0.00, 120.093,25.562, 161.437,66.875l0.00,0.00
			c 41.313,41.344, 66.875,98.406, 66.875,161.437l0.00,0.00c0.00,63.031-25.562,120.125-66.875,161.437l0.00,0.00
			C 461.458,426.781, 404.396,452.312, 341.365,452.312L 341.365,452.312M 498.239,203.156l 38.25,0.00 l0.00-32.218 L 459.802,170.938 L 459.802,281.062 l 38.438,0.00 L 498.239,203.156 z M 372.864,209.219l-63.188-49.719
		l-57.812,45.438c-8.313-20.031-28.406-33.969-51.656-33.969l-49.407,0.00 l0.00,110.094 l 49.407,0.00 c 25.937,0.00, 44.625-16.407, 51.625-34.00
		l 57.844,45.469l 21.406-16.876l-52.937-41.625l 10.125-7.969l 52.969,41.625l 21.437-16.843l-52.968-41.625l 10.156-8.00l 53.00,41.625
		l0.00,38.218 l 38.438,0.00 l0.00-77.907 l 38.281,0.00 l0.00-32.218 L 372.864,170.937 L 372.864,209.219 z M 220.239,226.032c0.00,14.969-9.906,23.406-23.875,23.406l-8.563,0.00 l0.00-46.843 
		l 8.344,0.00 C 209.114,202.594, 220.239,209.719, 220.239,226.032z" horiz-adv-x="682.6666666666666"  />
<glyph unicode="&#x51;" d="M 541.246,480.00c 14.919-16.111, 58.174-70.367, 58.174-102.619c0.00-30.843-21.628-54.287-43.254-70.43l0.00-319.674 L 556.166-32.00 
	L 519.619-32.00 l0.00,19.276 L 519.619,306.951 c-13.478,8.808-21.628,16.142-28.398,23.477c-21.628,23.446-21.628,70.398, 14.919,93.875
	c 21.628,8.807, 28.398,39.587, 28.398,46.921C 534.539,480.00, 534.539,480.00, 541.246,480.00 M 377.068,271.00
	c 9.341-13.07, 18.304-23.508, 26.266-32.816c 23.383-27.332, 41.875-48.959, 34.604-93.968
	c-4.138-97.103-107.948-163.363-181.355-173.268c-27.081-3.166-56.794,1.818-83.876,14.01
	c-62.75,28.241-95.786,85.819-88.452,154.055c 5.642,113.683, 101.992,231.16, 165.37,282.187
	c 56.231,46.64, 103.748,64.819, 145.184,55.541c 5.517-1.442, 9.842-3.071, 13.603-4.764c 13.666-6.143, 21.878-15.171, 24.51-26.768
	c 5.016-22.254-11.91-47.391-29.714-73.908C 375.061,329.613, 356.757,297.955, 377.068,271.00 M 170.637,164.619
	c 20.374-9.12, 45.198,1.662, 55.291,24.229c 10.218,22.536, 1.818,48.301-18.556,57.484c-20.437,9.153-45.198-1.662-55.353-24.229
	S 150.201,173.803, 170.637,164.619 M 260.907,49.932c 10.343,22.944, 1.818,49.116-18.931,58.456
	c-20.75,9.278-45.95-1.661-56.293-24.667c-10.281-22.881-1.818-49.084, 18.931-58.425
	C 225.364,15.955, 250.627,26.989, 260.907,49.932 M 312.562,316.887c 9.591,21.407, 1.692,45.824-17.678,54.57
	c-19.37,8.682-42.94-1.599-52.595-23.038c-9.654-21.376-1.692-45.825, 17.678-54.538
	C 279.40,285.136, 302.908,295.448, 312.562,316.887" horiz-adv-x="682.6666666666666"  />
<glyph unicode="&#x56;" d="M 341.333,479.984c-141.406,0.00-256.00-114.625-256.00-256.00C 85.333,82.625, 199.927-32.00, 341.333-32.00
	c 141.375,0.00, 256.00,114.625, 256.00,255.984C 597.333,365.359, 482.709,479.984, 341.333,479.984 M 453.02,147.125L 314.677,147.125 
	c-13.25,0.00-24.00,10.75-24.00,24.00l0.00,163.328 c0.00,13.313, 10.75,24.00, 24.00,24.00s 24.00-10.687, 24.00-24.00l0.00-139.328 l 114.344,0.00 
	c 13.25,0.00, 24.00-10.75, 24.00-24.00S 466.271,147.125, 453.02,147.125" horiz-adv-x="682.6666666666666"  />
<glyph unicode="&#x57;" d="M 582.642,480.00c 7.752,0.00, 13.943-6.22, 13.943-14.004l0.00-176.073 c0.00-5.721-3.376-10.753-8.565-12.909
	c-1.75-0.752-3.564-1.064-5.377-1.064c-3.626,0.00-7.188,1.377-9.878,4.001L 396.16,456.119c-4.00,4.001-5.19,10.034-3.062,15.222
	C 395.284,476.624, 400.348,480.00, 406.036,480.00L 582.642,480.00  M 592.519,156.796c 2.626-2.657, 4.064-6.188, 4.064-9.94l0.00-164.884 
	c0.00-7.721-6.189-13.972-13.942-13.972L 100.024-32.00 c-7.69,0.00-13.941,6.251-13.941,13.972L 86.084,464.59 c0.00,7.658, 6.252,13.909, 13.941,13.909
	l 163.791,0.00 c 3.687,0.00, 7.188-1.438, 9.815-4.032L 592.519,156.796z M 217.616,62.054c 21.318,0.00, 38.571,17.252, 38.571,38.572
	c0.00,21.256-17.254,38.476-38.571,38.476c-21.319,0.00-38.573-17.223-38.573-38.476C 179.044,79.308, 196.298,62.054, 217.616,62.054
	 M 217.616,283.358c 21.318,0.00, 38.571,17.252, 38.571,38.572c0.00,21.224-17.254,38.478-38.571,38.478c-21.319,0.00-38.573-17.254-38.573-38.478
	C 179.044,300.612, 196.298,283.358, 217.616,283.358 M 336.77,172.706c 21.318,0.00, 38.571,17.252, 38.571,38.572
	c0.00,21.287-17.254,38.478-38.572,38.478c-21.256,0.00-38.509-17.193-38.509-38.478C 298.26,189.96, 315.514,172.706, 336.77,172.706
	 M 455.986,62.054c 21.318,0.00, 38.572,17.252, 38.572,38.572c0.00,21.287-17.254,38.476-38.572,38.476c-21.256,0.00-38.509-17.192-38.509-38.476
	C 417.477,79.308, 434.731,62.054, 455.986,62.054" horiz-adv-x="682.6666666666666"  />
<glyph unicode="&#x58;" d="M 244.117-32.00c-8.561,0.00-17.24,2.724-24.478,8.406L 44.907,112.455
	c-17.357,13.465-20.47,38.527-6.966,55.882c 13.504,17.357, 38.527,20.548, 55.922,7.006L 238.551,62.643L 582.955,466.042
	c 14.322,16.734, 39.422,18.679, 56.194,4.437c 16.734-14.243, 18.718-39.46, 4.436-56.194L 274.432-18.068
	C 266.57-27.253, 255.402-32.00, 244.117-32.00" horiz-adv-x="682.6666666666666"  />
<glyph unicode="&#x6a;" d="M 682.618,108.204c0.00-8.414-6.789-15.245-15.245-15.245l-390.373-0.167L 112.22-25.253
	c-2.832-4.332-7.664-6.747-12.662-6.747c-1.50,0.00-3.00,0.167-4.415,0.666c-6.457,2.00-10.83,7.832-10.83,14.578l-0.083,109.465
	L 15.502,92.71 c-8.456,0.00-15.329,6.831-15.329,15.245l0.00,0.583 L 0.048,108.537 L 0.048,464.505 c0.00,8.414, 6.831,15.245, 15.287,15.245L 667.206,480.00
	c 8.456,0.00, 15.287-6.831, 15.287-15.245l0.00-0.333 l 0.126,0.00 L 682.619,159.188 L 682.619,108.204 z" horiz-adv-x="682.6666666666666"  />
<glyph unicode="&#x59;" d="M 601.62,190.836c-2.355-5.885-8.028-9.836-14.376-9.836l-317.182-0.084l 47.077-93.229l 245.389,0.084
	c 2.146,0.00, 4.162-0.42, 5.969-1.177c 27.825-3.111, 49.893-25.977, 49.893-54.559c0.00-30.768-25.009-55.821-55.82-55.821
	s-55.861,24.968-55.861,55.736c0.00,9.163, 2.774,17.485, 6.726,25.052l-156.952,0.00 c 3.91-7.65, 6.642-15.972, 6.642-25.052
	c0.00-30.768-24.968-55.82-55.82-55.82c-30.685,0.00-55.82,24.968-55.82,55.736c0.00,22.866, 13.871,42.454, 33.585,51.028l-53.55,106.176
	c-0.084,0.084-0.21,0.167-0.252,0.252L 125.553,398.984l0.00,0.084 L 104.284,441.186L 15.342,441.101C 6.894,441.101,0.00,447.91,0.00,456.401
	c0.00,8.576, 6.894,15.384, 15.342,15.384l 98.441,0.085c 5.843,0.00, 11.138-3.279, 13.745-8.406l 21.268-42.201l 518.436,0.252
	c 5.128,0.00, 9.794-2.522, 12.736-6.642c 2.859-4.203, 3.489-9.499, 1.681-14.208L 601.62,190.836" horiz-adv-x="682.6666666666666"  />
<glyph unicode="&#x5a;" d="M 328.141,195.508L 153.76,195.508 L 153.76,291.482 l 174.38,0.00 L 328.14,195.508 z M 528.37,291.41L 354.17,291.41 l0.00-95.831 L 528.37,195.579 L 528.37,291.41 z
	 M 328.177,169.23L 153.726,169.23 l0.00-95.973 l 174.451,0.00 L 328.177,169.23 z M 633.876-18.718c0.00-7.212-5.855-13.068-13.068-13.068L 62.072-32.00
	c-7.283,0.00-13.103,5.855-13.103,13.068L 48.79,466.718c0.00,7.212, 5.855,13.068, 13.068,13.068L 620.631,480.00
	c 7.212,0.00, 13.068-5.855, 13.068-13.068L 633.876-18.718z M 554.863,317.545L 127.518,317.545 l0.00-270.353 l 427.345,0.00 L 554.863,317.545 z" horiz-adv-x="682.6666666666666"  />
<glyph unicode="&#x5b;" d="M 525.211,480.00L 157.456,480.00 c-6.642,0.00-12.031-5.389-12.031-12.031l0.00-487.938 c0.00-6.642, 5.389-12.031, 12.031-12.031
	l 367.755,0.00 c 6.642,0.00, 12.031,5.389, 12.031,12.031L 537.242,467.969 C 537.242,474.611, 531.853,480.00, 525.211,480.00 M 308.844,46.765
	c0.00-8.898-7.206-16.041-16.041-16.041L 201.632,30.723 c-8.898,0.00-16.041,7.143-16.041,16.041L 185.59,93.979 c0.00,8.866, 7.143,16.041, 16.041,16.041
	L 292.803,110.02 c 8.835,0.00, 16.041-7.175, 16.041-16.041L 308.844,46.765 z M 308.844,190.007c0.00-8.835-7.206-16.041-16.041-16.041L 201.632,173.965 
	c-8.898,0.00-16.041,7.206-16.041,16.041l0.00,47.277 c0.00,8.866, 7.143,16.041, 16.041,16.041L 292.803,253.325 c 8.835,0.00, 16.041-7.175, 16.041-16.041
	L 308.844,190.007 z M 492.596,46.765c0.00-8.898-7.175-16.041-16.041-16.041L 385.352,30.723 c-8.897,0.00-16.041,7.143-16.041,16.041L 369.31,93.979 
	c0.00,8.866, 7.144,16.041, 16.041,16.041l 91.203,0.00 c 8.866,0.00, 16.041-7.175, 16.041-16.041L 492.596,46.765 z M 492.596,190.007
	c0.00-8.835-7.175-16.041-16.041-16.041L 385.352,173.965 c-8.897,0.00-16.041,7.206-16.041,16.041l0.00,47.277 c0.00,8.866, 7.144,16.041, 16.041,16.041
	l 91.203,0.00 c 8.866,0.00, 16.041-7.175, 16.041-16.041L 492.596,190.007 z M 498.517,360.255c0.00-8.835-7.175-16.041-16.041-16.041L 201.632,344.214 
	c-8.898,0.00-16.041,7.206-16.041,16.041l0.00,50.881 c0.00,8.835, 7.143,16.041, 16.041,16.041l 280.844,0.00 
	c 8.866,0.00, 16.041-7.206, 16.041-16.041L 498.517,360.255 z" horiz-adv-x="682.6666666666666"  />
<glyph unicode="&#x5c;" d="M 234.179,410.053L 334.866,478.033c 3.874,2.624, 9.029,2.624, 12.84,0.00l 238.114-160.763l-107.124-72.292
	L 234.179,410.053z M 341.271,152.258l 116.902,78.851L 213.718,396.183L 96.754,317.332L 341.271,152.258z M 347.707,128.89
	c-0.186-0.126-0.407-0.063-0.594-0.156c-1.687-1.064-3.593-1.72-5.53-1.72c-0.094,0.00-0.187-0.125-0.25-0.125l-0.063,0.063l0.00-0.063 
	c-0.126,0.00-0.187,0.125-0.25,0.125c-2.00,0.063-3.873,0.656-5.561,1.689c-0.187,0.125-0.408,0.062-0.562,0.186L 85.35,297.338
	l0.00-152.829 c0.00-3.779, 1.843-7.341, 4.997-9.495l 244.551-165.076c 0.125-0.063, 0.312-0.063, 0.498-0.126c 0.187-0.126, 0.312-0.375, 0.499-0.439
	c 1.688-0.999, 3.561-1.375, 5.373-1.375c 1.843,0.00, 3.749,0.375, 5.436,1.375c 0.186,0.063, 0.281,0.313, 0.469,0.439
	c 0.156,0.063, 0.344,0.063, 0.531,0.126l 244.55,165.076c 3.187,2.154, 5.061,5.716, 5.061,9.495L 597.316,297.402 L 347.707,128.89z" horiz-adv-x="682.6666666666666"  />
<glyph unicode="&#x5d;" d="M 449.019,398.62l-34.395,0.00 c 0.152,0.912, 0.578,1.764, 0.578,2.737L 415.202,460.537 c0.00,10.705-8.759,19.463-19.464,19.463
	L 286.989,480.00 c-10.766,0.00-19.463-8.759-19.463-19.463L 267.526,401.357 c0.00-0.973, 0.395-1.825, 0.547-2.737l-34.426,0.00 c-8.606,0.00-15.571-6.995-15.571-15.57
	l0.00-399.479 c0.00-8.576, 6.965-15.571, 15.571-15.571l 215.37,0.00 c 8.606,0.00, 15.571,6.995, 15.571,15.571L 464.589,383.05 
	C 464.589,391.625, 457.626,398.62, 449.019,398.62 M 306.452,401.357L 306.452,441.074 l 69.824,0.00 L 376.276,401.357 c0.00-0.973, 0.365-1.825, 0.486-2.737l-70.888,0.00 
	C 306.026,399.532, 306.452,400.384, 306.452,401.357" horiz-adv-x="682.6666666666666"  />
<glyph unicode="&#x5e;" d="M 300.966,423.133c 7.531,0.00, 13.641-6.11, 13.641-13.641l0.00-367.318 c0.00-7.53-6.11-13.641-13.641-13.641l-7.034,0.00 
	c-3.197,0.00-7.318,1.137-9.804,3.198l-124.334,104.866L 88.497,136.597 c-25.257,0.00-36.198,14.067-36.198,27.14L 52.299,284.731 
	c0.00,15.701, 12.256,30.408, 34.991,30.408l 72.504,0.00 L 284.163,419.936c 2.451,2.06, 5.684,3.197, 8.917,3.197L 300.966,423.133  M 502.813,222.92
	c0.00,102.735-84.618,152.61-88.241,154.67c-12.575,7.318-28.739,2.913-35.985-9.662c-7.283-12.646-2.948-28.774, 9.698-36.022
	c 0.604-0.356, 61.811-36.448, 61.882-111.047c 0.035-0.711, 4.653-69.343-63.055-104.086c-12.966-6.678-18.081-22.522-11.403-35.523
	c 4.654-9.094, 13.89-14.352, 23.481-14.352c 4.05,0.00, 8.171,0.995, 11.972,2.984C 509.811,120.469, 503.097,220.717, 502.813,222.92
	 M 630.059,222.067c0.00,169.022-139.076,251.012-145.009,254.422c-12.504,7.247-28.668,2.913-35.95-9.662
	c-7.283-12.504-2.984-28.632, 9.591-35.95c 4.831-2.842, 118.65-70.835, 118.721-210.799c 0.356-5.471, 8.029-135.631-121.562-202.202
	c-13.001-6.679-18.081-22.522-11.439-35.524C 449.10-26.742, 458.337-32.00, 467.928-32.00c 4.05,0.00, 8.171,0.995, 12.007,2.984
	C 641.427,53.897, 630.521,217.236, 630.059,222.067" horiz-adv-x="682.6666666666666"  />
<glyph unicode="&#x5f;" d="M 125.254,416.059c 1.61-0.989, 2.708-2.782, 2.708-4.831 M 615.895,404.494c 12.59,0.00, 22.838-10.248, 22.838-22.911
	l0.00-12.883 l0.00-251.817 c0.00-12.554-10.248-22.801-22.838-22.801l-13.761,0.00 l0.00-41.54 c0.00-3.147-2.415-5.562-5.49-5.562L 341.699,46.98 
	c-3.001,0.00-5.49,2.415-5.49,5.562L 336.209,94.082 l-143.613,0.11l 0.073-93.327c0.00-18.116-14.639-32.792-32.793-32.866l0.00,0.00
	c-18.153,0.00-32.793,14.713-32.866,32.792l-0.366,395.064L 66.331,416.059c-17.128,5.709-26.425,24.338-20.715,41.503
	c 5.709,17.165, 24.228,26.571, 41.576,20.679l 82.713-27.632c 13.322-4.465, 22.399-16.981, 22.399-31.109l 0.073-15.738L 615.895,404.494
	 M 358.461,312.375c0.00,2.232-1.757,3.99-3.953,3.99c-0.952,0.00-5.343-0.366-6.075-0.952l-57.386-46.041l-29.499,0.00 
	c-8.637,0.00-13.249-5.417-13.249-11.309l0.00-52.666 c0.00-4.684, 4.172-9.808, 13.249-9.808l 31.109,0.952l 55.776-47.047
	c 0.732-0.623, 2.343-0.952, 3.734-0.952c 0.879,0.00, 1.757,0.11, 2.269,0.403c 1.391,0.623, 4.025,1.977, 4.025,3.513L 358.461,312.375 z
	 M 440.515,154.397c 49.408,25.289, 46.04,75.558, 45.895,76.619c0.00,51.421-42.308,76.382-44.138,77.442
	c-6.735,3.77-15.226,1.537-19.068-5.16c-3.916-6.661-1.647-15.262, 5.014-19.177c 1.171-0.769, 30.084-18.263, 30.157-54.13
	c 0.073-1.391, 1.683-33.963-30.67-50.598c-6.881-3.587-9.589-12.041-6.075-18.921c 2.489-4.867, 7.393-7.649, 12.517-7.649
	C 436.269,152.822, 438.465,153.299, 440.515,154.397 M 509.321,105.464c 80.516,41.356, 75.026,122.769, 74.807,125.112
	c0.00,84.177-69.318,125.094-72.246,126.777c-6.807,3.807-15.225,1.537-19.177-5.123c-3.88-6.735-1.537-15.299, 5.124-19.214
	c 2.342-1.354, 58.191-34.805, 58.265-103.464c 0.147-2.708, 3.88-66.481-59.582-99.127c-6.954-3.55-9.662-12.005-6.148-18.885
	c 2.489-4.831, 7.466-7.686, 12.517-7.686C 505.075,103.854, 507.27,104.403, 509.321,105.464" horiz-adv-x="682.6666666666666"  />
<glyph unicode="&#x62;" d="M 585.084,480.00L 97.583,480.00 c-6.625,0.00-12.00-5.375-12.00-12.00l0.00-487.999 c0.00-6.594, 5.375-12.00, 12.00-12.00
	l 487.50,0.00 c 6.625,0.00, 12.00,5.406, 12.00,12.00L 597.083,467.999 C 597.083,474.625, 591.708,480.00, 585.084,480.00 M 461.333,219.031l-170.25-98.312
	c-0.875-0.50-1.875-0.812-2.875-0.812s-2.00,0.313-2.875,0.812c-1.781,1.00-2.906,2.938-2.906,5.00L 282.427,322.344 
	c0.00,2.062, 1.125,3.969, 2.906,5.00c 1.75,1.00, 4.00,1.00, 5.75,0.00l 170.25-98.313c 1.781-1.062, 2.906-2.938, 2.906-5.031
	C 464.239,221.968, 463.115,220.031, 461.333,219.031" horiz-adv-x="682.6666666666666"  />
<glyph unicode="&#x65;" d="M 585.084,480.00L 97.583,480.00 c-6.625,0.00-12.00-5.375-12.00-12.00l0.00-488.00 c0.00-6.625, 5.375-12.00, 12.00-12.00
	l 487.50,0.00 c 6.625,0.00, 12.00,5.375, 12.00,12.00L 597.083,468.00 C 597.083,474.625, 591.709,480.00, 585.084,480.00 M 461.302,100.876
	c-4.656-4.656-10.813-7.00-16.968-7.00c-6.125,0.00-12.281,2.344-17.00,7.00L 342.865,185.407L 255.271,97.812
	c-4.656-4.687-10.813-7.00-16.938-7.00c-6.156,0.00-12.313,2.313-16.968,7.00c-9.375,9.375-9.375,24.562,0.00,33.938
	l 87.532,87.562L 223.396,304.813c-9.375,9.375-9.375,24.594,0.00,33.969c 9.374,9.375, 24.562,9.375, 33.937,0.00l 85.531-85.531
	l 82.469,82.437c 9.375,9.374, 24.562,9.374, 33.937,0.00c 9.375-9.375, 9.375-24.562,0.00-33.937L 376.771,219.313L 461.302,134.844
	C 470.678,125.469, 470.678,110.251, 461.302,100.876" horiz-adv-x="682.6666666666666"  />
<glyph unicode="&#x66;" d="M 585.084,480.00L 97.583,480.00 c-6.625,0.00-12.00-5.375-12.00-12.00l0.00-488.00 c0.00-6.625, 5.375-12.00, 12.00-12.00
	l 487.50,0.00 c 6.625,0.00, 12.00,5.375, 12.00,12.00L 597.083,468.00 C 597.083,474.625, 591.709,480.00, 585.084,480.00 M 493.271,299.625L 335.49,114.751
	c-5.094-6.00-12.375-9.125-19.719-9.125c-5.562,0.00-11.157,1.812-15.875,5.469l-74.75,58.218
	c-11.25,8.75-13.313,25.063-4.532,36.312c 8.781,11.312, 25.094,13.344, 36.344,4.563l 55.187-43.00l 141.75,166.062
	c 9.313,10.875, 25.625,12.25, 36.50,2.875C 501.271,326.844, 502.583,310.50, 493.271,299.625" horiz-adv-x="682.6666666666666"  />
<glyph unicode="&#x21;" d="M 169.817,168.576c 51.63,41.359, 188.416,124.312, 342.912,1.535c 13.065-10.39, 15.269-29.435, 4.879-42.50
	c-10.389-13.025-29.435-15.19-42.50-4.801c-115.93,92.162-217.379,38.723-267.435-1.417c-5.667-4.486-12.278-6.611-18.967-6.611
	c-8.815,0.00-17.63,3.856-23.611,11.334C 154.707,139.102, 156.831,158.148, 169.817,168.576 M 102.964,273.843
	c-13.773-9.445-17.236-28.255-7.87-41.989c 9.444-13.773, 28.175-17.354, 42.027-7.831
	c 80.593,55.131, 240.518,128.247, 406.819-2.716c 5.509-4.407, 12.121-6.494, 18.653-6.494c 8.972,0.00, 17.787,3.936, 23.807,11.53
	c 10.271,13.104, 7.989,32.111-5.076,42.461C 377.325,429.44, 178.835,325.827, 102.964,273.843 M 648.875,369.782
	C 381.912,563.039, 149.264,459.426, 34.357,380.407c-13.773-9.445-17.236-28.255-7.791-42.028
	c 9.445-13.734, 28.255-17.236, 42.027-7.792c 101.764,70.046, 307.968,161.736, 544.866-9.759c 5.352-3.856, 11.569-5.745, 17.708-5.745
	c 9.405,0.00, 18.575,4.329, 24.517,12.514C 665.481,341.134, 662.412,359.984, 648.875,369.782 M 341.373,98.885
	c-36.125,0.00-65.481-29.317-65.481-65.482c0.00-36.085, 29.356-65.403, 65.481-65.403c 36.125,0.00, 65.403,29.317, 65.403,65.403
	C 406.775,69.567, 377.498,98.885, 341.373,98.885" horiz-adv-x="682.6666666666666"  />
<glyph unicode="&#x22;" d="M 85.333,234.563l 212.376,0.00 L 297.709,438.156 L 85.333,408.50L 85.333,234.563 z M 85.333,39.50l 212.376-29.656L 297.709,214.062 L 85.333,214.062 L 85.333,39.50 z
	 M 318.146,234.563L 597.333,234.563 L 597.333,480.00 L 318.146,441.031L 318.146,234.563 z M 597.333-32.00L 597.333,214.062 L 318.146,214.062 l0.00-207.094 L 597.333-32.00z" horiz-adv-x="682.6666666666666"  />
<glyph unicode="&#x23;" d="M 425.43,376.569L 140.004,376.569 c-10.909,0.00-19.775-8.803-19.775-19.743l0.00-369.082 c0.00-10.94, 8.865-19.743, 19.775-19.743
	l 285.426,0.00 c 10.908,0.00, 19.743,8.803, 19.743,19.743L 445.173,356.826 C 445.173,367.766, 436.339,376.569, 425.43,376.569 M 364.567,46.155L 200.303,46.155 
	c-10.908,0.00-19.775,8.803-19.775,19.743c0.00,10.94, 8.866,19.806, 19.775,19.806l 164.265,0.00 c 10.94,0.00, 19.806-8.865, 19.806-19.806
	C 384.372,54.958, 375.507,46.155, 364.567,46.155 M 364.567,149.272L 200.303,149.272 c-10.908,0.00-19.775,8.865-19.775,19.806
	c0.00,10.94, 8.866,19.743, 19.775,19.743l 164.265,0.00 c 10.94,0.00, 19.806-8.803, 19.806-19.743C 384.372,158.137, 375.507,149.272, 364.567,149.272
	 M 364.567,252.451L 200.303,252.451 c-10.908,0.00-19.775,8.803-19.775,19.743s 8.866,19.806, 19.775,19.806l 164.265,0.00 
	c 10.94,0.00, 19.806-8.865, 19.806-19.806S 375.507,252.451, 364.567,252.451 M 542.695,480.00c 10.94,0.00, 19.743-8.865, 19.743-19.806l0.00-369.02 
	c0.00-10.94-8.803-19.806-19.743-19.806l-65.266,0.00 L 477.428,357.329 c0.00,28.609-23.327,51.936-52.029,51.936L 237.494,409.265 L 237.494,460.194 
	C 237.494,471.135, 246.297,480.00, 257.236,480.00L 542.695,480.00 " horiz-adv-x="682.6666666666666"  />
<glyph unicode="&#x31;" d="M 341.318,480.00c-141.147,0.00-256.00-114.853-256.00-256.00c0.00-141.148, 114.853-256.00, 256.00-256.00
	c 141.148,0.00, 256.032,114.852, 256.032,256.00C 597.349,365.147, 482.465,480.00, 341.318,480.00 M 341.318,16.544
	c-114.409,0.00-207.455,93.045-207.455,207.456c0.00,114.378, 93.045,207.455, 207.455,207.455c 114.41,0.00, 207.487-93.077, 207.487-207.455
	C 548.804,109.59, 455.727,16.544, 341.318,16.544 M 341.318,311.672c 48.482,0.00, 87.736-39.253, 87.736-87.672
	s-39.253-87.736-87.736-87.736c-48.419,0.00-87.672,39.317-87.672,87.736S 292.899,311.672, 341.318,311.672" horiz-adv-x="682.6666666666666"  />
<glyph unicode="&#x32;" d="M 402.50,341.00L 217.75,240.043L 33.50,341.917L 217.75,442.875L 402.50,341.00z M0.00,116.417l 201.00-111.209
	L 201.00,211.00 L0.00,322.167L0.00,116.417 z M 505.292,420.50l-22.167,3.416l0.00-77.083 l 22.167,12.083L 234.542,211.00l0.00-205.875 l 248.584,135.875l0.00-40.708 
	l 22.167-13.541L 682.667,337.958L 505.292,420.50z" horiz-adv-x="682.6666666666666"  />
<glyph unicode="&#x33;" d="M 548.71,157.353c 12.033,10.071, 29.991,8.516, 40.025-3.555c 10.071-12.071, 8.516-29.992-3.555-40.063
	l-61.76-51.614c 5.405-9.257, 8.664-19.846, 8.664-31.25c0.00-34.657-28.215-62.871-62.871-62.871
	c-34.658,0.00-62.871,28.214-62.871,62.871c0.00,14.144, 4.924,27.178, 12.885,37.693L 153.306,423.127L 67.627,423.127 
	c-15.699,0.00-28.436,12.737-28.436,28.436C 39.191,467.263, 51.928,480.00, 67.627,480.00l 99.897,0.00 c 8.923,0.00, 17.328-4.295, 22.734-11.404
	l 281.363-375.151c 0.185,0.00, 0.407-0.074, 0.556-0.074L 548.71,157.353 M 640.572,318.565L 523.865,471.41
	c-2.296,3.037-5.702,4.962-9.404,5.48c-3.703,0.444-7.518-0.518-10.553-2.814l-152.808-116.781
	c-6.22-4.739-7.404-13.625-2.665-19.846l 116.707-152.844c 2.296-2.962, 5.665-4.962, 9.405-5.48
	c 0.667-0.074, 1.259-0.074, 1.925-0.074c 3.11,0.00, 6.147,0.963, 8.589,2.888l 152.846,116.707
	C 644.127,303.458, 645.312,312.345, 640.572,318.565" horiz-adv-x="682.6666666666666"  />
<glyph unicode="&#x41;" d="M 463.024,384.644l-27.935,0.00 L 435.089,447.859 C 435.089,465.624, 420.713,480.00, 402.947,480.00c-17.765,0.00-32.141-14.376-32.141-32.141
	l0.00-63.216 L 224.036,384.643 l-4.394,0.00 c-6.654,0.00-12.052-5.399-12.052-12.053l0.00-392.537 c0.00-6.655, 5.399-12.053, 12.052-12.053l 243.382,0.00 
	c 6.654,0.00, 12.053,5.399, 12.053,12.053L 475.077,372.591 C 475.077,379.245, 469.678,384.644, 463.024,384.644z M 351.942,0.518l-24.325,0.00 
	c-13.309,0.00-24.106,10.797-24.106,24.106s 10.797,24.106, 24.106,24.106l 24.325,0.00 c 13.309,0.00, 24.106-10.797, 24.106-24.106
	S 365.251,0.518, 351.942,0.518z M 379.877,313.896L 298.991,313.896 c-8.851,0.00-16.071,7.188-16.071,16.071
	c0.00,8.851, 7.219,16.071, 16.071,16.071l 80.886,0.00 c 8.883,0.00, 16.071-7.219, 16.071-16.071
	C 395.948,321.083, 388.76,313.896, 379.877,313.896z" horiz-adv-x="682.6666666666666"  />
<glyph unicode="&#x42;" d="M 661.417,342.537L 21.25,342.537 C 9.505,342.537,0.00,332.991,0.00,321.287l0.00-194.574 c0.00-11.704, 9.505-21.251, 21.25-21.251
	l 640.167,0.00 c 11.745,0.00, 21.25,9.546, 21.25,21.251L 682.667,321.287 C 682.667,332.991, 673.162,342.537, 661.417,342.537 M 426.086,203.745
	c0.00-11.123-9.048-20.088-20.171-20.088L 70.931,183.657 c-11.164,0.00-20.13,8.965-20.13,20.088l0.00,26.481 c0.00,11.123, 8.965,20.171, 20.13,20.171
	l 334.983,0.00 c 11.123,0.00, 20.171-9.048, 20.171-20.171L 426.086,203.745 z M 628.13,203.745c0.00-11.704-9.546-21.249-21.251-21.249L 525.78,182.496 
	c-11.745,0.00-21.25,9.545-21.25,21.249l0.00,26.481 c0.00,11.788, 9.505,21.251, 21.25,21.251l 81.10,0.00 c 11.704,0.00, 21.251-9.463, 21.251-21.251
	L 628.13,203.745 z" horiz-adv-x="682.6666666666666"  />
<glyph unicode="&#x43;" d="M 666.606,341.138L 16.062,341.138 C 7.195,341.138,0.00,333.943,0.00,325.076l0.00-202.153 c0.00-8.867, 7.195-16.062, 16.062-16.062
	l 16.062,0.00 l0.00,46.178 c0.00,17.735, 14.389,32.124, 32.124,32.124s 32.124-14.389, 32.124-32.124l0.00-46.178 l 59.604,0.00 l0.00,46.178 
	c0.00,17.735, 14.389,32.124, 32.124,32.124c 17.735,0.00, 32.124-14.389, 32.124-32.124l0.00-46.178 l 66.213,0.00 l0.00,47.516 
	c0.00,17.735, 14.389,32.124, 32.124,32.124c 17.777,0.00, 32.124-14.389, 32.124-32.124l0.00-47.516 l 75.624,0.00 c-0.083,1.171-0.669,2.133-0.669,3.346
	c0.00,19.952, 16.187,36.181, 36.139,36.181c 19.993,0.00, 36.139-16.229, 36.139-36.181c0.00-1.213-0.543-2.176-0.669-3.346l 89.05,0.00 l0.00,47.516 
	c0.00,17.735, 14.348,32.124, 32.124,32.124c 17.735,0.00, 32.124-14.389, 32.124-32.124l0.00-47.516 l 16.062,0.00 c 8.867,0.00, 16.061,7.195, 16.061,16.062
	L 682.668,325.076 C 682.667,333.943, 675.473,341.138, 666.606,341.138 M 460.438,231.341L 66.924,231.341 c-17.735,0.00-32.124,14.389-32.124,32.124
	c0.00,17.735, 14.389,32.124, 32.124,32.124l 393.514,0.00 c 17.735,0.00, 32.124-14.389, 32.124-32.124
	C 492.56,245.729, 478.172,231.341, 460.438,231.341" horiz-adv-x="682.6666666666666"  />
<glyph unicode="&#x53;" d="M 682.667,150.82c0.00-67.17-47.414-123.075-112.229-131.65c-4.75-1.094-12.401-1.262-17.445-1.262L 94.365,17.909 
	c-3.783,0.00-7.608,0.421-11.265,1.009C 36.107,25.728,0.00,66.248,0.00,115.091c0.00,53.635, 43.463,97.182, 97.139,97.182
	c 16.267,0.00, 31.609-4.035, 45.06-11.097c-0.421,3.615-0.672,7.314-0.672,11.097c0.00,49.936, 40.52,90.456, 90.455,90.456
	c 17.654,0.00, 34.09-5.044, 48.044-13.786C 289.317,368.385, 356.907,430.091, 438.872,430.091c 87.093,0.00, 157.878-69.608, 159.98-156.113
	C 647.905,254.643, 682.667,206.808, 682.667,150.82" horiz-adv-x="682.6666666666666"  />
<glyph unicode="&#x54;" d="M 341.333,480.00C 199.959,480.00, 85.333,365.375, 85.333,224.00c0.00-141.375, 114.625-256.00, 256.00-256.00c 141.407,0.00, 256.00,114.625, 256.00,256.00
	C 597.333,365.375, 482.74,480.00, 341.333,480.00z M 470.865,97.313c-5.094-5.031-11.719-7.625-18.437-7.625c-6.594,0.00-13.126,2.594-18.281,7.625
	L 342.959,188.50L 248.427,93.968c-5.00-5.093-11.657-7.562-18.281-7.562c-6.656,0.00-13.281,2.469-18.313,7.562
	c-10.125,10.125-10.125,26.469,0.00,36.594l 94.469,94.532L 213.99,317.407c-10.094,10.094-10.094,26.563,0.00,36.688
	c 10.156,10.063, 26.562,10.063, 36.687,0.00l 92.282-92.375l 89.063,89.031c 10.062,10.125, 26.468,10.125, 36.594,0.00
	c 10.187-10.125, 10.187-26.531,0.00-36.656L 379.615,225.094l 91.25-91.156C 480.927,123.875, 480.927,107.375, 470.865,97.313z" horiz-adv-x="682.6666666666666"  />
<glyph unicode="&#x55;" d="M 582.289-11.705c-9.417-9.371-21.755-14.174-34.279-14.174c-12.243,0.00-24.391,4.803-33.997,14.174
	L 344.406,157.902L 168.536-17.921C 159.213-27.433, 146.782-32.00, 134.539-32.00c-12.384,0.00-24.768,4.567-34.091,14.079
	c-18.835,18.835-18.835,49.205,0.00,68.087l 175.776,175.823L 104.498,397.763c-18.788,18.741-18.788,49.347,0.00,68.182
	c 18.835,18.741, 49.347,18.741, 68.182,0.00L 344.406,294.171L 510.057,459.73c 18.741,18.835, 49.253,18.835, 68.088,0.00
	c 18.93-18.835, 18.93-49.347,0.00-68.182L 412.588,225.989l 169.701-169.607C 601.029,37.689, 601.029,6.988, 582.289-11.705" horiz-adv-x="682.6666666666666"  />
<glyph unicode="&#x20;" horiz-adv-x="256" />
<glyph class="hidden" unicode="&#xf000;" d="M0,480L 512 -32L0 -32 z" horiz-adv-x="0" />
</font>
</defs>
</svg>
